<svg width="217" height="121" viewBox="0 0 217 121" fill="none" xmlns="http://www.w3.org/2000/svg">
<path d="M1 18H31V40H1V18Z" fill="white"/>
<path d="M31 40V40.25C31.1381 40.25 31.25 40.1381 31.25 40H31ZM1 40H0.75C0.75 40.1381 0.861929 40.25 1 40.25V40ZM30.75 18V40H31.25V18H30.75ZM31 39.75H1V40.25H31V39.75ZM1.25 40V18H0.75V40H1.25Z" fill="black"/>
<path d="M31 18H61V40H31V18Z" fill="white"/>
<path d="M61 40V40.25C61.1381 40.25 61.25 40.1381 61.25 40H61ZM31 40H30.75C30.75 40.1381 30.8619 40.25 31 40.25V40ZM60.75 18V40H61.25V18H60.75ZM61 39.75H31V40.25H61V39.75ZM31.25 40V18H30.75V40H31.25Z" fill="black"/>
<path d="M61 18H91V40H61V18Z" fill="white"/>
<path d="M91 40V40.25C91.1381 40.25 91.25 40.1381 91.25 40H91ZM61 40H60.75C60.75 40.1381 60.8619 40.25 61 40.25V40ZM90.75 18V40H91.25V18H90.75ZM91 39.75H61V40.25H91V39.75ZM61.25 40V18H60.75V40H61.25Z" fill="black"/>
<path d="M91 18H101V40H91V18Z" fill="white"/>
<path d="M101 40V40.25C101.138 40.25 101.25 40.1381 101.25 40H101ZM91 40H90.75C90.75 40.1381 90.8619 40.25 91 40.25V40ZM100.75 18V40H101.25V18H100.75ZM101 39.75H91V40.25H101V39.75ZM91.25 40V18H90.75V40H91.25Z" fill="black"/>
<rect x="101" y="18" width="15" height="22" fill="white" stroke="black" stroke-width="0.5" stroke-linejoin="round"/>
<text transform="matrix(0 -1 1 0 101 40)" fill="black" xml:space="preserve" style="white-space: pre" font-family="OpenGost Type B TT" font-size="5" letter-spacing="0em"><tspan x="5.80469" y="8.97059">&#x411;&#x430;&#x43b;&#x43a;&#x438;</tspan></text>
<rect x="116" y="18" width="15" height="22" fill="white" stroke="black" stroke-width="0.5" stroke-linejoin="round"/>
<text transform="matrix(0 -1 1 0 116 40)" fill="black" xml:space="preserve" style="white-space: pre" font-family="OpenGost Type B TT" font-size="5" letter-spacing="0em"><tspan x="6.11475" y="8.97059">&#x421;&#x432;&#x44f;&#x437;&#x438;</tspan></text>
<rect x="131" y="18" width="15" height="22" fill="white" stroke="black" stroke-width="0.5" stroke-linejoin="round"/>
<text transform="matrix(0 -1 1 0 131 40)" fill="black" xml:space="preserve" style="white-space: pre" font-family="OpenGost Type B TT" font-size="5" letter-spacing="0em"><tspan x="3.7002" y="8.97059">&#x41a;&#x43e;&#x43b;&#x43e;&#x43d;&#x43d;&#x44b;</tspan></text>
<rect x="146" y="18" width="15" height="22" fill="white" stroke="black" stroke-width="0.5" stroke-linejoin="round"/>
<text transform="matrix(0 -1 1 0 146 40)" fill="black" xml:space="preserve" style="white-space: pre" font-family="OpenGost Type B TT" font-size="5" letter-spacing="0em"><tspan x="3.59766" y="8.97059">&#x41f;&#x440;&#x43e;&#x433;&#x43e;&#x43d;&#x44b;</tspan></text>
<rect x="161" y="18" width="15" height="22" fill="white" stroke="black" stroke-width="0.5" stroke-linejoin="round"/>
<rect x="176" y="18" width="15" height="22" fill="white" stroke="black" stroke-width="0.5" stroke-linejoin="round"/>
<text transform="matrix(0 -1 1 0 161 40)" fill="black" xml:space="preserve" style="white-space: pre" font-family="OpenGost Type B TT" font-size="5" letter-spacing="0em"><tspan x="2.87744" y="8.97059">&#x420;&#x430;&#x441;&#x43f;&#x43e;&#x440;&#x43a;&#x438;</tspan></text>
<path d="M191 18H216V40H191V18Z" fill="white"/>
<path d="M216 40V40.25C216.138 40.25 216.25 40.1381 216.25 40H216ZM191 40H190.75C190.75 40.1381 190.862 40.25 191 40.25V40ZM215.75 18V40H216.25V18H215.75ZM216 39.75H191V40.25H216V39.75ZM191.25 40V18H190.75V40H191.25Z" fill="black"/>
<path d="M1 40H31V56H1V40Z" fill="white"/>
<path d="M1 40V39.75C0.861929 39.75 0.75 39.8619 0.75 40H1ZM31 40H31.25C31.25 39.8619 31.1381 39.75 31 39.75V40ZM31 56V56.125H31.125C31.194 56.125 31.25 56.069 31.25 56H31ZM1 56H0.75C0.75 56.069 0.805964 56.125 0.875 56.125H1V56ZM1 40.25H31V39.75H1V40.25ZM30.75 40V56H31.25V40H30.75ZM31 55.875H1V56.125H31V55.875ZM1.25 56V40H0.75V56H1.25Z" fill="black"/>
<text fill="black" xml:space="preserve" style="white-space: pre" font-family="OpenGost Type B TT" font-size="5" letter-spacing="0em"><tspan x="9.8501" y="46.9706">&#x413;&#x41e;&#x421;&#x422; &#x420; </tspan><tspan x="6.06592" y="51.9706">57837-2017</tspan></text>
<path d="M31 40H61V48H31V40Z" fill="white"/>
<path d="M31 40V39.75C30.8619 39.75 30.75 39.8619 30.75 40H31ZM61 40H61.25C61.25 39.8619 61.1381 39.75 61 39.75V40ZM61 48V48.125H61.125C61.194 48.125 61.25 48.069 61.25 48H61ZM31 48H30.75C30.75 48.069 30.806 48.125 30.875 48.125H31V48ZM31 40.25H61V39.75H31V40.25ZM60.75 40V48H61.25V40H60.75ZM61 47.875H31V48.125H61V47.875ZM31.25 48V40H30.75V48H31.25Z" fill="black"/>
<path d="M61 40H91V48H61V40Z" fill="white"/>
<path d="M61 40V39.75C60.8619 39.75 60.75 39.8619 60.75 40H61ZM91 40H91.25C91.25 39.8619 91.1381 39.75 91 39.75V40ZM91 48V48.125H91.125C91.194 48.125 91.25 48.069 91.25 48H91ZM61 48H60.75C60.75 48.069 60.806 48.125 60.875 48.125H61V48ZM61 40.25H91V39.75H61V40.25ZM90.75 40V48H91.25V40H90.75ZM91 47.875H61V48.125H91V47.875ZM61.25 48V40H60.75V48H61.25Z" fill="black"/>
<path d="M91 40H101V48H91V40Z" fill="white"/>
<path d="M91 40V39.75C90.8619 39.75 90.75 39.8619 90.75 40H91ZM101 40H101.25C101.25 39.8619 101.138 39.75 101 39.75V40ZM101 48V48.125H101.125C101.194 48.125 101.25 48.069 101.25 48H101ZM91 48H90.75C90.75 48.069 90.806 48.125 90.875 48.125H91V48ZM91 40.25H101V39.75H91V40.25ZM100.75 40V48H101.25V40H100.75ZM101 47.875H91V48.125H101V47.875ZM91.25 48V40H90.75V48H91.25Z" fill="black"/>
<text fill="black" xml:space="preserve" style="white-space: pre" font-family="OpenGost Type B TT" font-size="5" letter-spacing="0em"><tspan x="39.8623" y="45.4706">&#x421;345-5</tspan></text>
<text fill="black" xml:space="preserve" style="white-space: pre" font-family="OpenGost Type B TT" font-size="5" letter-spacing="0em"><tspan x="70.4385" y="45.4706">&#xe010;20&#x41a;2</tspan></text>
<text fill="black" xml:space="preserve" style="white-space: pre" font-family="OpenGost Type B TT" font-size="5" letter-spacing="0em"><tspan x="95.3384" y="45.4706">1</tspan></text>
<path d="M101 40H116V48H101V40Z" fill="white"/>
<path d="M101 40V39.75C100.862 39.75 100.75 39.8619 100.75 40H101ZM116 40H116.25C116.25 39.8619 116.138 39.75 116 39.75V40ZM116 48V48.125H116.125C116.194 48.125 116.25 48.069 116.25 48H116ZM101 48H100.75C100.75 48.069 100.806 48.125 100.875 48.125H101V48ZM101 40.25H116V39.75H101V40.25ZM115.75 40V48H116.25V40H115.75ZM116 47.875H101V48.125H116V47.875ZM101.25 48V40H100.75V48H101.25Z" fill="black"/>
<text fill="black" xml:space="preserve" style="white-space: pre" font-family="OpenGost Type B TT" font-size="5" letter-spacing="0em"><tspan x="104.967" y="45.4706">0,66</tspan></text>
<path d="M116 40H131V48H116V40Z" fill="white"/>
<path d="M116 40V39.75C115.862 39.75 115.75 39.8619 115.75 40H116ZM131 40H131.25C131.25 39.8619 131.138 39.75 131 39.75V40ZM131 48V48.125H131.125C131.194 48.125 131.25 48.069 131.25 48H131ZM116 48H115.75C115.75 48.069 115.806 48.125 115.875 48.125H116V48ZM116 40.25H131V39.75H116V40.25ZM130.75 40V48H131.25V40H130.75ZM131 47.875H116V48.125H131V47.875ZM116.25 48V40H115.75V48H116.25Z" fill="black"/>
<path d="M131 40H146V48H131V40Z" fill="white"/>
<path d="M131 40V39.75C130.862 39.75 130.75 39.8619 130.75 40H131ZM146 40H146.25C146.25 39.8619 146.138 39.75 146 39.75V40ZM146 48V48.125H146.125C146.194 48.125 146.25 48.069 146.25 48H146ZM131 48H130.75C130.75 48.069 130.806 48.125 130.875 48.125H131V48ZM131 40.25H146V39.75H131V40.25ZM145.75 40V48H146.25V40H145.75ZM146 47.875H131V48.125H146V47.875ZM131.25 48V40H130.75V48H131.25Z" fill="black"/>
<path d="M146 40H161V48H146V40Z" fill="white"/>
<path d="M146 40V39.75C145.862 39.75 145.75 39.8619 145.75 40H146ZM161 40H161.25C161.25 39.8619 161.138 39.75 161 39.75V40ZM161 48V48.125H161.125C161.194 48.125 161.25 48.069 161.25 48H161ZM146 48H145.75C145.75 48.069 145.806 48.125 145.875 48.125H146V48ZM146 40.25H161V39.75H146V40.25ZM160.75 40V48H161.25V40H160.75ZM161 47.875H146V48.125H161V47.875ZM146.25 48V40H145.75V48H146.25Z" fill="black"/>
<path d="M161 40H176V48H161V40Z" fill="white"/>
<path d="M161 40V39.75C160.862 39.75 160.75 39.8619 160.75 40H161ZM176 40H176.25C176.25 39.8619 176.138 39.75 176 39.75V40ZM176 48V48.125H176.125C176.194 48.125 176.25 48.069 176.25 48H176ZM161 48H160.75C160.75 48.069 160.806 48.125 160.875 48.125H161V48ZM161 40.25H176V39.75H161V40.25ZM175.75 40V48H176.25V40H175.75ZM176 47.875H161V48.125H176V47.875ZM161.25 48V40H160.75V48H161.25Z" fill="black"/>
<path d="M176 40H191V48H176V40Z" fill="white"/>
<path d="M176 40V39.75C175.862 39.75 175.75 39.8619 175.75 40H176ZM191 40H191.25C191.25 39.8619 191.138 39.75 191 39.75V40ZM191 48V48.125H191.125C191.194 48.125 191.25 48.069 191.25 48H191ZM176 48H175.75C175.75 48.069 175.806 48.125 175.875 48.125H176V48ZM176 40.25H191V39.75H176V40.25ZM190.75 40V48H191.25V40H190.75ZM191 47.875H176V48.125H191V47.875ZM176.25 48V40H175.75V48H176.25Z" fill="black"/>
<path d="M191 40H216V48H191V40Z" fill="white"/>
<path d="M191 40V39.75C190.862 39.75 190.75 39.8619 190.75 40H191ZM216 40H216.25C216.25 39.8619 216.138 39.75 216 39.75V40ZM216 48V48.125H216.125C216.194 48.125 216.25 48.069 216.25 48H216ZM191 48H190.75C190.75 48.069 190.806 48.125 190.875 48.125H191V48ZM191 40.25H216V39.75H191V40.25ZM215.75 40V48H216.25V40H215.75ZM216 47.875H191V48.125H216V47.875ZM191.25 48V40H190.75V48H191.25Z" fill="black"/>
<text fill="black" xml:space="preserve" style="white-space: pre" font-family="OpenGost Type B TT" font-size="5" letter-spacing="0em"><tspan x="199.967" y="45.4706">0,66</tspan></text>
<path d="M31 48H61V56H31V48Z" fill="white"/>
<path d="M31 48V47.875H30.875C30.806 47.875 30.75 47.931 30.75 48H31ZM61 48H61.25C61.25 47.931 61.194 47.875 61.125 47.875H61V48ZM61 56V56.125H61.125C61.194 56.125 61.25 56.069 61.25 56H61ZM31 56H30.75C30.75 56.069 30.806 56.125 30.875 56.125H31V56ZM31 48.125H61V47.875H31V48.125ZM60.75 48V56H61.25V48H60.75ZM61 55.875H31V56.125H61V55.875ZM31.25 56V48H30.75V56H31.25Z" fill="black"/>
<path d="M61 48H91V56H61V48Z" fill="white"/>
<path d="M61 48V47.875H60.875C60.806 47.875 60.75 47.931 60.75 48H61ZM91 48H91.25C91.25 47.931 91.194 47.875 91.125 47.875H91V48ZM91 56V56.125H91.125C91.194 56.125 91.25 56.069 91.25 56H91ZM61 56H60.75C60.75 56.069 60.806 56.125 60.875 56.125H61V56ZM61 48.125H91V47.875H61V48.125ZM90.75 48V56H91.25V48H90.75ZM91 55.875H61V56.125H91V55.875ZM61.25 56V48H60.75V56H61.25Z" fill="black"/>
<path d="M91 48H101V56H91V48Z" fill="white"/>
<path d="M91 48V47.875H90.875C90.806 47.875 90.75 47.931 90.75 48H91ZM101 48H101.25C101.25 47.931 101.194 47.875 101.125 47.875H101V48ZM101 56V56.125H101.125C101.194 56.125 101.25 56.069 101.25 56H101ZM91 56H90.75C90.75 56.069 90.806 56.125 90.875 56.125H91V56ZM91 48.125H101V47.875H91V48.125ZM100.75 48V56H101.25V48H100.75ZM101 55.875H91V56.125H101V55.875ZM91.25 56V48H90.75V56H91.25Z" fill="black"/>
<text fill="black" xml:space="preserve" style="white-space: pre" font-family="OpenGost Type B TT" font-size="5" letter-spacing="0em"><tspan x="39.8623" y="53.4706">&#x421;345-5</tspan></text>
<text fill="black" xml:space="preserve" style="white-space: pre" font-family="OpenGost Type B TT" font-size="5" letter-spacing="0em"><tspan x="70.1162" y="53.4706">&#xe010;20&#x428;2</tspan></text>
<text fill="black" xml:space="preserve" style="white-space: pre" font-family="OpenGost Type B TT" font-size="5" letter-spacing="0em"><tspan x="94.9697" y="53.4706">2</tspan></text>
<path d="M101 48H116V56H101V48Z" fill="white"/>
<path d="M101 48V47.875H100.875C100.806 47.875 100.75 47.931 100.75 48H101ZM116 48H116.25C116.25 47.931 116.194 47.875 116.125 47.875H116V48ZM116 56V56.125H116.125C116.194 56.125 116.25 56.069 116.25 56H116ZM101 56H100.75C100.75 56.069 100.806 56.125 100.875 56.125H101V56ZM101 48.125H116V47.875H101V48.125ZM115.75 48V56H116.25V48H115.75ZM116 55.875H101V56.125H116V55.875ZM101.25 56V48H100.75V56H101.25Z" fill="black"/>
<path d="M116 48H131V56H116V48Z" fill="white"/>
<path d="M116 48V47.875H115.875C115.806 47.875 115.75 47.931 115.75 48H116ZM131 48H131.25C131.25 47.931 131.194 47.875 131.125 47.875H131V48ZM131 56V56.125H131.125C131.194 56.125 131.25 56.069 131.25 56H131ZM116 56H115.75C115.75 56.069 115.806 56.125 115.875 56.125H116V56ZM116 48.125H131V47.875H116V48.125ZM130.75 48V56H131.25V48H130.75ZM131 55.875H116V56.125H131V55.875ZM116.25 56V48H115.75V56H116.25Z" fill="black"/>
<path d="M131 48H146V56H131V48Z" fill="white"/>
<path d="M131 48V47.875H130.875C130.806 47.875 130.75 47.931 130.75 48H131ZM146 48H146.25C146.25 47.931 146.194 47.875 146.125 47.875H146V48ZM146 56V56.125H146.125C146.194 56.125 146.25 56.069 146.25 56H146ZM131 56H130.75C130.75 56.069 130.806 56.125 130.875 56.125H131V56ZM131 48.125H146V47.875H131V48.125ZM145.75 48V56H146.25V48H145.75ZM146 55.875H131V56.125H146V55.875ZM131.25 56V48H130.75V56H131.25Z" fill="black"/>
<text fill="black" xml:space="preserve" style="white-space: pre" font-family="OpenGost Type B TT" font-size="5" letter-spacing="0em"><tspan x="133.937" y="53.4706">2,096</tspan></text>
<path d="M146 48H161V56H146V48Z" fill="white"/>
<path d="M146 48V47.875H145.875C145.806 47.875 145.75 47.931 145.75 48H146ZM161 48H161.25C161.25 47.931 161.194 47.875 161.125 47.875H161V48ZM161 56V56.125H161.125C161.194 56.125 161.25 56.069 161.25 56H161ZM146 56H145.75C145.75 56.069 145.806 56.125 145.875 56.125H146V56ZM146 48.125H161V47.875H146V48.125ZM160.75 48V56H161.25V48H160.75ZM161 55.875H146V56.125H161V55.875ZM146.25 56V48H145.75V56H146.25Z" fill="black"/>
<path d="M161 48H176V56H161V48Z" fill="white"/>
<path d="M161 48V47.875H160.875C160.806 47.875 160.75 47.931 160.75 48H161ZM176 48H176.25C176.25 47.931 176.194 47.875 176.125 47.875H176V48ZM176 56V56.125H176.125C176.194 56.125 176.25 56.069 176.25 56H176ZM161 56H160.75C160.75 56.069 160.806 56.125 160.875 56.125H161V56ZM161 48.125H176V47.875H161V48.125ZM175.75 48V56H176.25V48H175.75ZM176 55.875H161V56.125H176V55.875ZM161.25 56V48H160.75V56H161.25Z" fill="black"/>
<path d="M176 48H191V56H176V48Z" fill="white"/>
<path d="M176 48V47.875H175.875C175.806 47.875 175.75 47.931 175.75 48H176ZM191 48H191.25C191.25 47.931 191.194 47.875 191.125 47.875H191V48ZM191 56V56.125H191.125C191.194 56.125 191.25 56.069 191.25 56H191ZM176 56H175.75C175.75 56.069 175.806 56.125 175.875 56.125H176V56ZM176 48.125H191V47.875H176V48.125ZM190.75 48V56H191.25V48H190.75ZM191 55.875H176V56.125H191V55.875ZM176.25 56V48H175.75V56H176.25Z" fill="black"/>
<path d="M191 48H216V56H191V48Z" fill="white"/>
<path d="M191 48V47.875H190.875C190.806 47.875 190.75 47.931 190.75 48H191ZM216 48H216.25C216.25 47.931 216.194 47.875 216.125 47.875H216V48ZM216 56V56.125H216.125C216.194 56.125 216.25 56.069 216.25 56H216ZM191 56H190.75C190.75 56.069 190.806 56.125 190.875 56.125H191V56ZM191 48.125H216V47.875H191V48.125ZM215.75 48V56H216.25V48H215.75ZM216 55.875H191V56.125H216V55.875ZM191.25 56V48H190.75V56H191.25Z" fill="black"/>
<text fill="black" xml:space="preserve" style="white-space: pre" font-family="OpenGost Type B TT" font-size="5" letter-spacing="0em"><tspan x="198.937" y="53.4706">2,096</tspan></text>
<path d="M1 56H31V64H1V56Z" fill="white"/>
<path d="M1 56V55.875H0.875C0.805964 55.875 0.75 55.931 0.75 56H1ZM31 56H31.25C31.25 55.931 31.194 55.875 31.125 55.875H31V56ZM31 64V64.125H31.125C31.194 64.125 31.25 64.069 31.25 64H31ZM1 64H0.75C0.75 64.069 0.805964 64.125 0.875 64.125H1V64ZM1 56.125H31V55.875H1V56.125ZM30.75 56V64H31.25V56H30.75ZM31 63.875H1V64.125H31V63.875ZM1.25 64V56H0.75V64H1.25Z" fill="black"/>
<text fill="black" xml:space="preserve" style="white-space: pre" font-family="OpenGost Type B TT" font-size="5" letter-spacing="0em"><tspan x="11.8789" y="58.9706">&#x413;&#x41e;&#x421;&#x422; </tspan><tspan x="5.69727" y="63.9706">30245-2003</tspan></text>
<path d="M31 56H61V64H31V56Z" fill="white"/>
<path d="M31 56V55.875H30.875C30.806 55.875 30.75 55.931 30.75 56H31ZM61 56H61.25C61.25 55.931 61.194 55.875 61.125 55.875H61V56ZM61 64V64.125H61.125C61.194 64.125 61.25 64.069 61.25 64H61ZM31 64H30.75C30.75 64.069 30.806 64.125 30.875 64.125H31V64ZM31 56.125H61V55.875H31V56.125ZM60.75 56V64H61.25V56H60.75ZM61 63.875H31V64.125H61V63.875ZM31.25 64V56H30.75V64H31.25Z" fill="black"/>
<path d="M61 56H91V64H61V56Z" fill="white"/>
<path d="M61 56V55.875H60.875C60.806 55.875 60.75 55.931 60.75 56H61ZM91 56H91.25C91.25 55.931 91.194 55.875 91.125 55.875H91V56ZM91 64V64.125H91.125C91.194 64.125 91.25 64.069 91.25 64H91ZM61 64H60.75C60.75 64.069 60.806 64.125 60.875 64.125H61V64ZM61 56.125H91V55.875H61V56.125ZM90.75 56V64H91.25V56H90.75ZM91 63.875H61V64.125H91V63.875ZM61.25 64V56H60.75V64H61.25Z" fill="black"/>
<path d="M91 56H101V64H91V56Z" fill="white"/>
<path d="M91 56V55.875H90.875C90.806 55.875 90.75 55.931 90.75 56H91ZM101 56H101.25C101.25 55.931 101.194 55.875 101.125 55.875H101V56ZM101 64V64.125H101.125C101.194 64.125 101.25 64.069 101.25 64H101ZM91 64H90.75C90.75 64.069 90.806 64.125 90.875 64.125H91V64ZM91 56.125H101V55.875H91V56.125ZM100.75 56V64H101.25V56H100.75ZM101 63.875H91V64.125H101V63.875ZM91.25 64V56H90.75V64H91.25Z" fill="black"/>
<text fill="black" xml:space="preserve" style="white-space: pre" font-family="OpenGost Type B TT" font-size="5" letter-spacing="0em"><tspan x="40.9658" y="61.4706">09&#x413;2&#x421;</tspan></text>
<text fill="black" xml:space="preserve" style="white-space: pre" font-family="OpenGost Type B TT" font-size="5" letter-spacing="0em"><tspan x="70.1138" y="61.4706">&#x25a1;80&#xd7;7</tspan></text>
<text fill="black" xml:space="preserve" style="white-space: pre" font-family="OpenGost Type B TT" font-size="5" letter-spacing="0em"><tspan x="94.9697" y="61.4706">3</tspan></text>
<path d="M101 56H116V64H101V56Z" fill="white"/>
<path d="M101 56V55.875H100.875C100.806 55.875 100.75 55.931 100.75 56H101ZM116 56H116.25C116.25 55.931 116.194 55.875 116.125 55.875H116V56ZM116 64V64.125H116.125C116.194 64.125 116.25 64.069 116.25 64H116ZM101 64H100.75C100.75 64.069 100.806 64.125 100.875 64.125H101V64ZM101 56.125H116V55.875H101V56.125ZM115.75 56V64H116.25V56H115.75ZM116 63.875H101V64.125H116V63.875ZM101.25 64V56H100.75V64H101.25Z" fill="black"/>
<path d="M116 56H131V64H116V56Z" fill="white"/>
<path d="M116 56V55.875H115.875C115.806 55.875 115.75 55.931 115.75 56H116ZM131 56H131.25C131.25 55.931 131.194 55.875 131.125 55.875H131V56ZM131 64V64.125H131.125C131.194 64.125 131.25 64.069 131.25 64H131ZM116 64H115.75C115.75 64.069 115.806 64.125 115.875 64.125H116V64ZM116 56.125H131V55.875H116V56.125ZM130.75 56V64H131.25V56H130.75ZM131 63.875H116V64.125H131V63.875ZM116.25 64V56H115.75V64H116.25Z" fill="black"/>
<text fill="black" xml:space="preserve" style="white-space: pre" font-family="OpenGost Type B TT" font-size="5" letter-spacing="0em"><tspan x="118.937" y="61.4706">0,452</tspan></text>
<path d="M131 56H146V64H131V56Z" fill="white"/>
<path d="M131 56V55.875H130.875C130.806 55.875 130.75 55.931 130.75 56H131ZM146 56H146.25C146.25 55.931 146.194 55.875 146.125 55.875H146V56ZM146 64V64.125H146.125C146.194 64.125 146.25 64.069 146.25 64H146ZM131 64H130.75C130.75 64.069 130.806 64.125 130.875 64.125H131V64ZM131 56.125H146V55.875H131V56.125ZM145.75 56V64H146.25V56H145.75ZM146 63.875H131V64.125H146V63.875ZM131.25 64V56H130.75V64H131.25Z" fill="black"/>
<path d="M146 56H161V64H146V56Z" fill="white"/>
<path d="M146 56V55.875H145.875C145.806 55.875 145.75 55.931 145.75 56H146ZM161 56H161.25C161.25 55.931 161.194 55.875 161.125 55.875H161V56ZM161 64V64.125H161.125C161.194 64.125 161.25 64.069 161.25 64H161ZM146 64H145.75C145.75 64.069 145.806 64.125 145.875 64.125H146V64ZM146 56.125H161V55.875H146V56.125ZM160.75 56V64H161.25V56H160.75ZM161 63.875H146V64.125H161V63.875ZM146.25 64V56H145.75V64H146.25Z" fill="black"/>
<path d="M161 56H176V64H161V56Z" fill="white"/>
<path d="M161 56V55.875H160.875C160.806 55.875 160.75 55.931 160.75 56H161ZM176 56H176.25C176.25 55.931 176.194 55.875 176.125 55.875H176V56ZM176 64V64.125H176.125C176.194 64.125 176.25 64.069 176.25 64H176ZM161 64H160.75C160.75 64.069 160.806 64.125 160.875 64.125H161V64ZM161 56.125H176V55.875H161V56.125ZM175.75 56V64H176.25V56H175.75ZM176 63.875H161V64.125H176V63.875ZM161.25 64V56H160.75V64H161.25Z" fill="black"/>
<path d="M176 56H191V64H176V56Z" fill="white"/>
<path d="M176 56V55.875H175.875C175.806 55.875 175.75 55.931 175.75 56H176ZM191 56H191.25C191.25 55.931 191.194 55.875 191.125 55.875H191V56ZM191 64V64.125H191.125C191.194 64.125 191.25 64.069 191.25 64H191ZM176 64H175.75C175.75 64.069 175.806 64.125 175.875 64.125H176V64ZM176 56.125H191V55.875H176V56.125ZM190.75 56V64H191.25V56H190.75ZM191 63.875H176V64.125H191V63.875ZM176.25 64V56H175.75V64H176.25Z" fill="black"/>
<text fill="black" xml:space="preserve" style="white-space: pre" font-family="OpenGost Type B TT" font-size="5" letter-spacing="0em"><tspan x="163.937" y="61.4706">0,265</tspan></text>
<path d="M191 56H216V64H191V56Z" fill="white"/>
<path d="M191 56V55.875H190.875C190.806 55.875 190.75 55.931 190.75 56H191ZM216 56H216.25C216.25 55.931 216.194 55.875 216.125 55.875H216V56ZM216 64V64.125H216.125C216.194 64.125 216.25 64.069 216.25 64H216ZM191 64H190.75C190.75 64.069 190.806 64.125 190.875 64.125H191V64ZM191 56.125H216V55.875H191V56.125ZM215.75 56V64H216.25V56H215.75ZM216 63.875H191V64.125H216V63.875ZM191.25 64V56H190.75V64H191.25Z" fill="black"/>
<text fill="black" xml:space="preserve" style="white-space: pre" font-family="OpenGost Type B TT" font-size="5" letter-spacing="0em"><tspan x="199.306" y="61.4706">0,717</tspan></text>
<path d="M1 64H31V72H1V64Z" fill="white"/>
<path d="M1 64V63.875H0.875C0.805964 63.875 0.75 63.931 0.75 64H1ZM31 64H31.25C31.25 63.931 31.194 63.875 31.125 63.875H31V64ZM31 72V72.125H31.125C31.194 72.125 31.25 72.069 31.25 72H31ZM1 72H0.75C0.75 72.069 0.805964 72.125 0.875 72.125H1V72ZM1 64.125H31V63.875H1V64.125ZM30.75 64V72H31.25V64H30.75ZM31 71.875H1V72.125H31V71.875ZM1.25 72V64H0.75V72H1.25Z" fill="black"/>
<text fill="black" xml:space="preserve" style="white-space: pre" font-family="OpenGost Type B TT" font-size="5" letter-spacing="0em"><tspan x="3.78564" y="69.4706">&#x413;&#x41e;&#x421;&#x422; 8240-97</tspan></text>
<path d="M31 64H61V72H31V64Z" fill="white"/>
<path d="M31 64V63.875H30.875C30.806 63.875 30.75 63.931 30.75 64H31ZM61 64H61.25C61.25 63.931 61.194 63.875 61.125 63.875H61V64ZM61 72V72.125H61.125C61.194 72.125 61.25 72.069 61.25 72H61ZM31 72H30.75C30.75 72.069 30.806 72.125 30.875 72.125H31V72ZM31 64.125H61V63.875H31V64.125ZM60.75 64V72H61.25V64H60.75ZM61 71.875H31V72.125H61V71.875ZM31.25 72V64H30.75V72H31.25Z" fill="black"/>
<path d="M61 64H91V72H61V64Z" fill="white"/>
<path d="M61 64V63.875H60.875C60.806 63.875 60.75 63.931 60.75 64H61ZM91 64H91.25C91.25 63.931 91.194 63.875 91.125 63.875H91V64ZM91 72V72.125H91.125C91.194 72.125 91.25 72.069 91.25 72H91ZM61 72H60.75C60.75 72.069 60.806 72.125 60.875 72.125H61V72ZM61 64.125H91V63.875H61V64.125ZM90.75 64V72H91.25V64H90.75ZM91 71.875H61V72.125H91V71.875ZM61.25 72V64H60.75V72H61.25Z" fill="black"/>
<path d="M91 64H101V72H91V64Z" fill="white"/>
<path d="M91 64V63.875H90.875C90.806 63.875 90.75 63.931 90.75 64H91ZM101 64H101.25C101.25 63.931 101.194 63.875 101.125 63.875H101V64ZM101 72V72.125H101.125C101.194 72.125 101.25 72.069 101.25 72H101ZM91 72H90.75C90.75 72.069 90.806 72.125 90.875 72.125H91V72ZM91 64.125H101V63.875H91V64.125ZM100.75 64V72H101.25V64H100.75ZM101 71.875H91V72.125H101V71.875ZM91.25 72V64H90.75V72H91.25Z" fill="black"/>
<text fill="black" xml:space="preserve" style="white-space: pre" font-family="OpenGost Type B TT" font-size="5" letter-spacing="0em"><tspan x="39.8623" y="69.4706">&#x421;245-4</tspan></text>
<text fill="black" xml:space="preserve" style="white-space: pre" font-family="OpenGost Type B TT" font-size="5" letter-spacing="0em"><tspan x="71.8081" y="69.4706">&#xe011;12&#x41f;</tspan></text>
<text fill="black" xml:space="preserve" style="white-space: pre" font-family="OpenGost Type B TT" font-size="5" letter-spacing="0em"><tspan x="94.9697" y="69.4706">4</tspan></text>
<path d="M101 64H116V72H101V64Z" fill="white"/>
<path d="M101 64V63.875H100.875C100.806 63.875 100.75 63.931 100.75 64H101ZM116 64H116.25C116.25 63.931 116.194 63.875 116.125 63.875H116V64ZM116 72V72.125H116.125C116.194 72.125 116.25 72.069 116.25 72H116ZM101 72H100.75C100.75 72.069 100.806 72.125 100.875 72.125H101V72ZM101 64.125H116V63.875H101V64.125ZM115.75 64V72H116.25V64H115.75ZM116 71.875H101V72.125H116V71.875ZM101.25 72V64H100.75V72H101.25Z" fill="black"/>
<path d="M116 64H131V72H116V64Z" fill="white"/>
<path d="M116 64V63.875H115.875C115.806 63.875 115.75 63.931 115.75 64H116ZM131 64H131.25C131.25 63.931 131.194 63.875 131.125 63.875H131V64ZM131 72V72.125H131.125C131.194 72.125 131.25 72.069 131.25 72H131ZM116 72H115.75C115.75 72.069 115.806 72.125 115.875 72.125H116V72ZM116 64.125H131V63.875H116V64.125ZM130.75 64V72H131.25V64H130.75ZM131 71.875H116V72.125H131V71.875ZM116.25 72V64H115.75V72H116.25Z" fill="black"/>
<path d="M131 64H146V72H131V64Z" fill="white"/>
<path d="M131 64V63.875H130.875C130.806 63.875 130.75 63.931 130.75 64H131ZM146 64H146.25C146.25 63.931 146.194 63.875 146.125 63.875H146V64ZM146 72V72.125H146.125C146.194 72.125 146.25 72.069 146.25 72H146ZM131 72H130.75C130.75 72.069 130.806 72.125 130.875 72.125H131V72ZM131 64.125H146V63.875H131V64.125ZM145.75 64V72H146.25V64H145.75ZM146 71.875H131V72.125H146V71.875ZM131.25 72V64H130.75V72H131.25Z" fill="black"/>
<path d="M146 64H161V72H146V64Z" fill="white"/>
<path d="M146 64V63.875H145.875C145.806 63.875 145.75 63.931 145.75 64H146ZM161 64H161.25C161.25 63.931 161.194 63.875 161.125 63.875H161V64ZM161 72V72.125H161.125C161.194 72.125 161.25 72.069 161.25 72H161ZM146 72H145.75C145.75 72.069 145.806 72.125 145.875 72.125H146V72ZM146 64.125H161V63.875H146V64.125ZM160.75 64V72H161.25V64H160.75ZM161 71.875H146V72.125H161V71.875ZM146.25 72V64H145.75V72H146.25Z" fill="black"/>
<text fill="black" xml:space="preserve" style="white-space: pre" font-family="OpenGost Type B TT" font-size="5" letter-spacing="0em"><tspan x="148.937" y="69.4706">0,598</tspan></text>
<path d="M161 64H176V72H161V64Z" fill="white"/>
<path d="M161 64V63.875H160.875C160.806 63.875 160.75 63.931 160.75 64H161ZM176 64H176.25C176.25 63.931 176.194 63.875 176.125 63.875H176V64ZM176 72V72.125H176.125C176.194 72.125 176.25 72.069 176.25 72H176ZM161 72H160.75C160.75 72.069 160.806 72.125 160.875 72.125H161V72ZM161 64.125H176V63.875H161V64.125ZM175.75 64V72H176.25V64H175.75ZM176 71.875H161V72.125H176V71.875ZM161.25 72V64H160.75V72H161.25Z" fill="black"/>
<path d="M176 64H191V72H176V64Z" fill="white"/>
<path d="M176 64V63.875H175.875C175.806 63.875 175.75 63.931 175.75 64H176ZM191 64H191.25C191.25 63.931 191.194 63.875 191.125 63.875H191V64ZM191 72V72.125H191.125C191.194 72.125 191.25 72.069 191.25 72H191ZM176 72H175.75C175.75 72.069 175.806 72.125 175.875 72.125H176V72ZM176 64.125H191V63.875H176V64.125ZM190.75 64V72H191.25V64H190.75ZM191 71.875H176V72.125H191V71.875ZM176.25 72V64H175.75V72H176.25Z" fill="black"/>
<path d="M191 64H216V72H191V64Z" fill="white"/>
<path d="M191 64V63.875H190.875C190.806 63.875 190.75 63.931 190.75 64H191ZM216 64H216.25C216.25 63.931 216.194 63.875 216.125 63.875H216V64ZM216 72V72.125H216.125C216.194 72.125 216.25 72.069 216.25 72H216ZM191 72H190.75C190.75 72.069 190.806 72.125 190.875 72.125H191V72ZM191 64.125H216V63.875H191V64.125ZM215.75 64V72H216.25V64H215.75ZM216 71.875H191V72.125H216V71.875ZM191.25 72V64H190.75V72H191.25Z" fill="black"/>
<text fill="black" xml:space="preserve" style="white-space: pre" font-family="OpenGost Type B TT" font-size="5" letter-spacing="0em"><tspan x="198.937" y="69.4706">0,598</tspan></text>
<path d="M1 96H61V104H1V96Z" fill="white"/>
<path d="M1 96V95.875H0.875C0.805964 95.875 0.75 95.931 0.75 96H1ZM61 96H61.25C61.25 95.931 61.194 95.875 61.125 95.875H61V96ZM61 104V104.125H61.125C61.194 104.125 61.25 104.069 61.25 104H61ZM1 104H0.75C0.75 104.069 0.805964 104.125 0.875 104.125H1V104ZM1 96.125H61V95.875H1V96.125ZM60.75 96V104H61.25V96H60.75ZM61 103.875H1V104.125H61V103.875ZM1.25 104V96H0.75V104H1.25Z" fill="black"/>
<path d="M61 96H91V104H61V96Z" fill="white"/>
<path d="M61 96V95.875H60.875C60.806 95.875 60.75 95.931 60.75 96H61ZM91 96H91.25C91.25 95.931 91.194 95.875 91.125 95.875H91V96ZM91 104V104.125H91.125C91.194 104.125 91.25 104.069 91.25 104H91ZM61 104H60.75C60.75 104.069 60.806 104.125 60.875 104.125H61V104ZM61 96.125H91V95.875H61V96.125ZM90.75 96V104H91.25V96H90.75ZM91 103.875H61V104.125H91V103.875ZM61.25 104V96H60.75V104H61.25Z" fill="black"/>
<path d="M91 96H101V104H91V96Z" fill="white"/>
<path d="M91 96V95.875H90.875C90.806 95.875 90.75 95.931 90.75 96H91ZM101 96H101.25C101.25 95.931 101.194 95.875 101.125 95.875H101V96ZM101 104V104.125H101.125C101.194 104.125 101.25 104.069 101.25 104H101ZM91 104H90.75C90.75 104.069 90.806 104.125 90.875 104.125H91V104ZM91 96.125H101V95.875H91V96.125ZM100.75 96V104H101.25V96H100.75ZM101 103.875H91V104.125H101V103.875ZM91.25 104V96H90.75V104H91.25Z" fill="black"/>
<text fill="black" xml:space="preserve" style="white-space: pre" font-family="OpenGost Type B TT" font-size="5" letter-spacing="0em"><tspan x="94.9697" y="101.471">6</tspan></text>
<text fill="black" xml:space="preserve" style="white-space: pre" font-family="OpenGost Type B TT" font-size="5" letter-spacing="0em"><tspan x="24.8623" y="101.471">&#x421;345-5</tspan></text>
<path d="M101 96H116V104H101V96Z" fill="white"/>
<path d="M101 96V95.875H100.875C100.806 95.875 100.75 95.931 100.75 96H101ZM116 96H116.25C116.25 95.931 116.194 95.875 116.125 95.875H116V96ZM116 104V104.125H116.125C116.194 104.125 116.25 104.069 116.25 104H116ZM101 104H100.75C100.75 104.069 100.806 104.125 100.875 104.125H101V104ZM101 96.125H116V95.875H101V96.125ZM115.75 96V104H116.25V96H115.75ZM116 103.875H101V104.125H116V103.875ZM101.25 104V96H100.75V104H101.25Z" fill="black"/>
<text fill="black" xml:space="preserve" style="white-space: pre" font-family="OpenGost Type B TT" font-size="5" letter-spacing="0em"><tspan x="104.967" y="101.471">0,66</tspan></text>
<path d="M116 96H131V104H116V96Z" fill="white"/>
<path d="M116 96V95.875H115.875C115.806 95.875 115.75 95.931 115.75 96H116ZM131 96H131.25C131.25 95.931 131.194 95.875 131.125 95.875H131V96ZM131 104V104.125H131.125C131.194 104.125 131.25 104.069 131.25 104H131ZM116 104H115.75C115.75 104.069 115.806 104.125 115.875 104.125H116V104ZM116 96.125H131V95.875H116V96.125ZM130.75 96V104H131.25V96H130.75ZM131 103.875H116V104.125H131V103.875ZM116.25 104V96H115.75V104H116.25Z" fill="black"/>
<path d="M131 96H146V104H131V96Z" fill="white"/>
<path d="M131 96V95.875H130.875C130.806 95.875 130.75 95.931 130.75 96H131ZM146 96H146.25C146.25 95.931 146.194 95.875 146.125 95.875H146V96ZM146 104V104.125H146.125C146.194 104.125 146.25 104.069 146.25 104H146ZM131 104H130.75C130.75 104.069 130.806 104.125 130.875 104.125H131V104ZM131 96.125H146V95.875H131V96.125ZM145.75 96V104H146.25V96H145.75ZM146 103.875H131V104.125H146V103.875ZM131.25 104V96H130.75V104H131.25Z" fill="black"/>
<text fill="black" xml:space="preserve" style="white-space: pre" font-family="OpenGost Type B TT" font-size="5" letter-spacing="0em"><tspan x="133.937" y="101.471">2,096</tspan></text>
<path d="M146 96H161V104H146V96Z" fill="white"/>
<path d="M146 96V95.875H145.875C145.806 95.875 145.75 95.931 145.75 96H146ZM161 96H161.25C161.25 95.931 161.194 95.875 161.125 95.875H161V96ZM161 104V104.125H161.125C161.194 104.125 161.25 104.069 161.25 104H161ZM146 104H145.75C145.75 104.069 145.806 104.125 145.875 104.125H146V104ZM146 96.125H161V95.875H146V96.125ZM160.75 96V104H161.25V96H160.75ZM161 103.875H146V104.125H161V103.875ZM146.25 104V96H145.75V104H146.25Z" fill="black"/>
<path d="M161 96H176V104H161V96Z" fill="white"/>
<path d="M161 96V95.875H160.875C160.806 95.875 160.75 95.931 160.75 96H161ZM176 96H176.25C176.25 95.931 176.194 95.875 176.125 95.875H176V96ZM176 104V104.125H176.125C176.194 104.125 176.25 104.069 176.25 104H176ZM161 104H160.75C160.75 104.069 160.806 104.125 160.875 104.125H161V104ZM161 96.125H176V95.875H161V96.125ZM175.75 96V104H176.25V96H175.75ZM176 103.875H161V104.125H176V103.875ZM161.25 104V96H160.75V104H161.25Z" fill="black"/>
<path d="M176 96H191V104H176V96Z" fill="white"/>
<path d="M176 96V95.875H175.875C175.806 95.875 175.75 95.931 175.75 96H176ZM191 96H191.25C191.25 95.931 191.194 95.875 191.125 95.875H191V96ZM191 104V104.125H191.125C191.194 104.125 191.25 104.069 191.25 104H191ZM176 104H175.75C175.75 104.069 175.806 104.125 175.875 104.125H176V104ZM176 96.125H191V95.875H176V96.125ZM190.75 96V104H191.25V96H190.75ZM191 103.875H176V104.125H191V103.875ZM176.25 104V96H175.75V104H176.25Z" fill="black"/>
<path d="M191 96H216V104H191V96Z" fill="white"/>
<path d="M191 96V95.875H190.875C190.806 95.875 190.75 95.931 190.75 96H191ZM216 96H216.25C216.25 95.931 216.194 95.875 216.125 95.875H216V96ZM216 104V104.125H216.125C216.194 104.125 216.25 104.069 216.25 104H216ZM191 104H190.75C190.75 104.069 190.806 104.125 190.875 104.125H191V104ZM191 96.125H216V95.875H191V96.125ZM215.75 96V104H216.25V96H215.75ZM216 103.875H191V104.125H216V103.875ZM191.25 104V96H190.75V104H191.25Z" fill="black"/>
<text fill="black" xml:space="preserve" style="white-space: pre" font-family="OpenGost Type B TT" font-size="5" letter-spacing="0em"><tspan x="198.937" y="101.471">2,756</tspan></text>
<path d="M1 80H61V96H1V80Z" fill="white"/>
<path d="M1 80V79.875H0.875C0.805964 79.875 0.75 79.931 0.75 80H1ZM61 80H61.25C61.25 79.931 61.194 79.875 61.125 79.875H61V80ZM61 96V96.125H61.125C61.194 96.125 61.25 96.069 61.25 96H61ZM1 96H0.75C0.75 96.069 0.805964 96.125 0.875 96.125H1V96ZM1 80.125H61V79.875H1V80.125ZM60.75 80V96H61.25V80H60.75ZM61 95.875H1V96.125H61V95.875ZM1.25 96V80H0.75V96H1.25Z" fill="black"/>
<path d="M61 80H91V96H61V80Z" fill="white"/>
<path d="M61 80V79.875H60.875C60.806 79.875 60.75 79.931 60.75 80H61ZM91 80H91.25C91.25 79.931 91.194 79.875 91.125 79.875H91V80ZM91 96V96.125H91.125C91.194 96.125 91.25 96.069 91.25 96H91ZM61 96H60.75C60.75 96.069 60.806 96.125 60.875 96.125H61V96ZM61 80.125H91V79.875H61V80.125ZM90.75 80V96H91.25V80H90.75ZM91 95.875H61V96.125H91V95.875ZM61.25 96V80H60.75V96H61.25Z" fill="black"/>
<path d="M91 80H101V96H91V80Z" fill="white"/>
<path d="M91 80V79.875H90.875C90.806 79.875 90.75 79.931 90.75 80H91ZM101 80H101.25C101.25 79.931 101.194 79.875 101.125 79.875H101V80ZM101 96V96.125H101.125C101.194 96.125 101.25 96.069 101.25 96H101ZM91 96H90.75C90.75 96.069 90.806 96.125 90.875 96.125H91V96ZM91 80.125H101V79.875H91V80.125ZM100.75 80V96H101.25V80H100.75ZM101 95.875H91V96.125H101V95.875ZM91.25 96V80H90.75V96H91.25Z" fill="black"/>
<path d="M101 80H116V96H101V80Z" fill="white"/>
<path d="M101 80V79.875H100.875C100.806 79.875 100.75 79.931 100.75 80H101ZM116 80H116.25C116.25 79.931 116.194 79.875 116.125 79.875H116V80ZM116 96V96.125H116.125C116.194 96.125 116.25 96.069 116.25 96H116ZM101 96H100.75C100.75 96.069 100.806 96.125 100.875 96.125H101V96ZM101 80.125H116V79.875H101V80.125ZM115.75 80V96H116.25V80H115.75ZM116 95.875H101V96.125H116V95.875ZM101.25 96V80H100.75V96H101.25Z" fill="black"/>
<path d="M116 80H131V96H116V80Z" fill="white"/>
<path d="M116 80V79.875H115.875C115.806 79.875 115.75 79.931 115.75 80H116ZM131 80H131.25C131.25 79.931 131.194 79.875 131.125 79.875H131V80ZM131 96V96.125H131.125C131.194 96.125 131.25 96.069 131.25 96H131ZM116 96H115.75C115.75 96.069 115.806 96.125 115.875 96.125H116V96ZM116 80.125H131V79.875H116V80.125ZM130.75 80V96H131.25V80H130.75ZM131 95.875H116V96.125H131V95.875ZM116.25 96V80H115.75V96H116.25Z" fill="black"/>
<path d="M131 80H146V96H131V80Z" fill="white"/>
<path d="M131 80V79.875H130.875C130.806 79.875 130.75 79.931 130.75 80H131ZM146 80H146.25C146.25 79.931 146.194 79.875 146.125 79.875H146V80ZM146 96V96.125H146.125C146.194 96.125 146.25 96.069 146.25 96H146ZM131 96H130.75C130.75 96.069 130.806 96.125 130.875 96.125H131V96ZM131 80.125H146V79.875H131V80.125ZM145.75 80V96H146.25V80H145.75ZM146 95.875H131V96.125H146V95.875ZM131.25 96V80H130.75V96H131.25Z" fill="black"/>
<path d="M146 80H161V96H146V80Z" fill="white"/>
<path d="M146 80V79.875H145.875C145.806 79.875 145.75 79.931 145.75 80H146ZM161 80H161.25C161.25 79.931 161.194 79.875 161.125 79.875H161V80ZM161 96V96.125H161.125C161.194 96.125 161.25 96.069 161.25 96H161ZM146 96H145.75C145.75 96.069 145.806 96.125 145.875 96.125H146V96ZM146 80.125H161V79.875H146V80.125ZM160.75 80V96H161.25V80H160.75ZM161 95.875H146V96.125H161V95.875ZM146.25 96V80H145.75V96H146.25Z" fill="black"/>
<path d="M161 80H176V96H161V80Z" fill="white"/>
<path d="M161 80V79.875H160.875C160.806 79.875 160.75 79.931 160.75 80H161ZM176 80H176.25C176.25 79.931 176.194 79.875 176.125 79.875H176V80ZM176 96V96.125H176.125C176.194 96.125 176.25 96.069 176.25 96H176ZM161 96H160.75C160.75 96.069 160.806 96.125 160.875 96.125H161V96ZM161 80.125H176V79.875H161V80.125ZM175.75 80V96H176.25V80H175.75ZM176 95.875H161V96.125H176V95.875ZM161.25 96V80H160.75V96H161.25Z" fill="black"/>
<path d="M176 80H191V96H176V80Z" fill="white"/>
<path d="M176 80V79.875H175.875C175.806 79.875 175.75 79.931 175.75 80H176ZM191 80H191.25C191.25 79.931 191.194 79.875 191.125 79.875H191V80ZM191 96V96.125H191.125C191.194 96.125 191.25 96.069 191.25 96H191ZM176 96H175.75C175.75 96.069 175.806 96.125 175.875 96.125H176V96ZM176 80.125H191V79.875H176V80.125ZM190.75 80V96H191.25V80H190.75ZM191 95.875H176V96.125H191V95.875ZM176.25 96V80H175.75V96H176.25Z" fill="black"/>
<path d="M191 80H216V96H191V80Z" fill="white"/>
<path d="M191 80V79.875H190.875C190.806 79.875 190.75 79.931 190.75 80H191ZM216 80H216.25C216.25 79.931 216.194 79.875 216.125 79.875H216V80ZM216 96V96.125H216.125C216.194 96.125 216.25 96.069 216.25 96H216ZM191 96H190.75C190.75 96.069 190.806 96.125 190.875 96.125H191V96ZM191 80.125H216V79.875H191V80.125ZM215.75 80V96H216.25V80H215.75ZM216 95.875H191V96.125H216V95.875ZM191.25 96V80H190.75V96H191.25Z" fill="black"/>
<text fill="black" xml:space="preserve" style="white-space: pre" font-family="OpenGost Type B TT" font-size="5" letter-spacing="0em"><tspan x="5.56543" y="86.9706">&#x412; &#x442;&#x43e;&#x43c; &#x447;&#x438;&#x441;&#x43b;&#x435; &#x43f;&#x43e; &#x43c;&#x430;&#x440;&#x43a;&#x430;&#x43c; &#x438;&#x43b;&#x438; </tspan><tspan x="16.9009" y="91.9706">&#x43d;&#x430;&#x438;&#x43c;&#x435;&#x43d;&#x43e;&#x432;&#x430;&#x43d;&#x438;&#x44f;&#x43c;:</tspan></text>
<path d="M1 104H61V112H1V104Z" fill="white"/>
<path d="M1 104V103.875H0.875C0.805964 103.875 0.75 103.931 0.75 104H1ZM61 104H61.25C61.25 103.931 61.194 103.875 61.125 103.875H61V104ZM61 112V112.125H61.125C61.194 112.125 61.25 112.069 61.25 112H61ZM1 112H0.75C0.75 112.069 0.805964 112.125 0.875 112.125H1V112ZM1 104.125H61V103.875H1V104.125ZM60.75 104V112H61.25V104H60.75ZM61 111.875H1V112.125H61V111.875ZM1.25 112V104H0.75V112H1.25Z" fill="black"/>
<path d="M61 104H91V112H61V104Z" fill="white"/>
<path d="M61 104V103.875H60.875C60.806 103.875 60.75 103.931 60.75 104H61ZM91 104H91.25C91.25 103.931 91.194 103.875 91.125 103.875H91V104ZM91 112V112.125H91.125C91.194 112.125 91.25 112.069 91.25 112H91ZM61 112H60.75C60.75 112.069 60.806 112.125 60.875 112.125H61V112ZM61 104.125H91V103.875H61V104.125ZM90.75 104V112H91.25V104H90.75ZM91 111.875H61V112.125H91V111.875ZM61.25 112V104H60.75V112H61.25Z" fill="black"/>
<path d="M91 104H101V112H91V104Z" fill="white"/>
<path d="M91 104V103.875H90.875C90.806 103.875 90.75 103.931 90.75 104H91ZM101 104H101.25C101.25 103.931 101.194 103.875 101.125 103.875H101V104ZM101 112V112.125H101.125C101.194 112.125 101.25 112.069 101.25 112H101ZM91 112H90.75C90.75 112.069 90.806 112.125 90.875 112.125H91V112ZM91 104.125H101V103.875H91V104.125ZM100.75 104V112H101.25V104H100.75ZM101 111.875H91V112.125H101V111.875ZM91.25 112V104H90.75V112H91.25Z" fill="black"/>
<text fill="black" xml:space="preserve" style="white-space: pre" font-family="OpenGost Type B TT" font-size="5" letter-spacing="0em"><tspan x="94.9697" y="109.471">7</tspan></text>
<text fill="black" xml:space="preserve" style="white-space: pre" font-family="OpenGost Type B TT" font-size="5" letter-spacing="0em"><tspan x="24.8623" y="109.471">&#x421;245-4</tspan></text>
<path d="M101 104H116V112H101V104Z" fill="white"/>
<path d="M101 104V103.875H100.875C100.806 103.875 100.75 103.931 100.75 104H101ZM116 104H116.25C116.25 103.931 116.194 103.875 116.125 103.875H116V104ZM116 112V112.125H116.125C116.194 112.125 116.25 112.069 116.25 112H116ZM101 112H100.75C100.75 112.069 100.806 112.125 100.875 112.125H101V112ZM101 104.125H116V103.875H101V104.125ZM115.75 104V112H116.25V104H115.75ZM116 111.875H101V112.125H116V111.875ZM101.25 112V104H100.75V112H101.25Z" fill="black"/>
<path d="M116 104H131V112H116V104Z" fill="white"/>
<path d="M116 104V103.875H115.875C115.806 103.875 115.75 103.931 115.75 104H116ZM131 104H131.25C131.25 103.931 131.194 103.875 131.125 103.875H131V104ZM131 112V112.125H131.125C131.194 112.125 131.25 112.069 131.25 112H131ZM116 112H115.75C115.75 112.069 115.806 112.125 115.875 112.125H116V112ZM116 104.125H131V103.875H116V104.125ZM130.75 104V112H131.25V104H130.75ZM131 111.875H116V112.125H131V111.875ZM116.25 112V104H115.75V112H116.25Z" fill="black"/>
<path d="M131 104H146V112H131V104Z" fill="white"/>
<path d="M131 104V103.875H130.875C130.806 103.875 130.75 103.931 130.75 104H131ZM146 104H146.25C146.25 103.931 146.194 103.875 146.125 103.875H146V104ZM146 112V112.125H146.125C146.194 112.125 146.25 112.069 146.25 112H146ZM131 112H130.75C130.75 112.069 130.806 112.125 130.875 112.125H131V112ZM131 104.125H146V103.875H131V104.125ZM145.75 104V112H146.25V104H145.75ZM146 111.875H131V112.125H146V111.875ZM131.25 112V104H130.75V112H131.25Z" fill="black"/>
<path d="M146 104H161V112H146V104Z" fill="white"/>
<path d="M146 104V103.875H145.875C145.806 103.875 145.75 103.931 145.75 104H146ZM161 104H161.25C161.25 103.931 161.194 103.875 161.125 103.875H161V104ZM161 112V112.125H161.125C161.194 112.125 161.25 112.069 161.25 112H161ZM146 112H145.75C145.75 112.069 145.806 112.125 145.875 112.125H146V112ZM146 104.125H161V103.875H146V104.125ZM160.75 104V112H161.25V104H160.75ZM161 111.875H146V112.125H161V111.875ZM146.25 112V104H145.75V112H146.25Z" fill="black"/>
<text fill="black" xml:space="preserve" style="white-space: pre" font-family="OpenGost Type B TT" font-size="5" letter-spacing="0em"><tspan x="148.937" y="109.471">0,598</tspan></text>
<path d="M161 104H176V112H161V104Z" fill="white"/>
<path d="M161 104V103.875H160.875C160.806 103.875 160.75 103.931 160.75 104H161ZM176 104H176.25C176.25 103.931 176.194 103.875 176.125 103.875H176V104ZM176 112V112.125H176.125C176.194 112.125 176.25 112.069 176.25 112H176ZM161 112H160.75C160.75 112.069 160.806 112.125 160.875 112.125H161V112ZM161 104.125H176V103.875H161V104.125ZM175.75 104V112H176.25V104H175.75ZM176 111.875H161V112.125H176V111.875ZM161.25 112V104H160.75V112H161.25Z" fill="black"/>
<path d="M176 104H191V112H176V104Z" fill="white"/>
<path d="M176 104V103.875H175.875C175.806 103.875 175.75 103.931 175.75 104H176ZM191 104H191.25C191.25 103.931 191.194 103.875 191.125 103.875H191V104ZM191 112V112.125H191.125C191.194 112.125 191.25 112.069 191.25 112H191ZM176 112H175.75C175.75 112.069 175.806 112.125 175.875 112.125H176V112ZM176 104.125H191V103.875H176V104.125ZM190.75 104V112H191.25V104H190.75ZM191 111.875H176V112.125H191V111.875ZM176.25 112V104H175.75V112H176.25Z" fill="black"/>
<path d="M191 104H216V112H191V104Z" fill="white"/>
<path d="M191 104V103.875H190.875C190.806 103.875 190.75 103.931 190.75 104H191ZM216 104H216.25C216.25 103.931 216.194 103.875 216.125 103.875H216V104ZM216 112V112.125H216.125C216.194 112.125 216.25 112.069 216.25 112H216ZM191 112H190.75C190.75 112.069 190.806 112.125 190.875 112.125H191V112ZM191 104.125H216V103.875H191V104.125ZM215.75 104V112H216.25V104H215.75ZM216 111.875H191V112.125H216V111.875ZM191.25 112V104H190.75V112H191.25Z" fill="black"/>
<text fill="black" xml:space="preserve" style="white-space: pre" font-family="OpenGost Type B TT" font-size="5" letter-spacing="0em"><tspan x="198.937" y="109.471">0,598</tspan></text>
<path d="M1 112H61V120H1V112Z" fill="white"/>
<path d="M1 112V111.875H0.875C0.805964 111.875 0.75 111.931 0.75 112H1ZM61 112H61.25C61.25 111.931 61.194 111.875 61.125 111.875H61V112ZM61 120V120.25C61.1381 120.25 61.25 120.138 61.25 120H61ZM1 120H0.75C0.75 120.138 0.861929 120.25 1 120.25V120ZM1 112.125H61V111.875H1V112.125ZM60.75 112V120H61.25V112H60.75ZM61 119.75H1V120.25H61V119.75ZM1.25 120V112H0.75V120H1.25Z" fill="black"/>
<path d="M61 112H91V120H61V112Z" fill="white"/>
<path d="M61 112V111.875H60.875C60.806 111.875 60.75 111.931 60.75 112H61ZM91 112H91.25C91.25 111.931 91.194 111.875 91.125 111.875H91V112ZM91 120V120.25C91.1381 120.25 91.25 120.138 91.25 120H91ZM61 120H60.75C60.75 120.138 60.8619 120.25 61 120.25V120ZM61 112.125H91V111.875H61V112.125ZM90.75 112V120H91.25V112H90.75ZM91 119.75H61V120.25H91V119.75ZM61.25 120V112H60.75V120H61.25Z" fill="black"/>
<path d="M91 112H101V120H91V112Z" fill="white"/>
<path d="M91 112V111.875H90.875C90.806 111.875 90.75 111.931 90.75 112H91ZM101 112H101.25C101.25 111.931 101.194 111.875 101.125 111.875H101V112ZM101 120V120.25C101.138 120.25 101.25 120.138 101.25 120H101ZM91 120H90.75C90.75 120.138 90.8619 120.25 91 120.25V120ZM91 112.125H101V111.875H91V112.125ZM100.75 112V120H101.25V112H100.75ZM101 119.75H91V120.25H101V119.75ZM91.25 120V112H90.75V120H91.25Z" fill="black"/>
<text fill="black" xml:space="preserve" style="white-space: pre" font-family="OpenGost Type B TT" font-size="5" letter-spacing="0em"><tspan x="94.9697" y="117.471">8</tspan></text>
<text fill="black" xml:space="preserve" style="white-space: pre" font-family="OpenGost Type B TT" font-size="5" letter-spacing="0em"><tspan x="25.9658" y="117.471">09&#x413;2&#x421;</tspan></text>
<path d="M101 112H116V120H101V112Z" fill="white"/>
<path d="M101 112V111.875H100.875C100.806 111.875 100.75 111.931 100.75 112H101ZM116 112H116.25C116.25 111.931 116.194 111.875 116.125 111.875H116V112ZM116 120V120.25C116.138 120.25 116.25 120.138 116.25 120H116ZM101 120H100.75C100.75 120.138 100.862 120.25 101 120.25V120ZM101 112.125H116V111.875H101V112.125ZM115.75 112V120H116.25V112H115.75ZM116 119.75H101V120.25H116V119.75ZM101.25 120V112H100.75V120H101.25Z" fill="black"/>
<path d="M116 112H131V120H116V112Z" fill="white"/>
<path d="M116 112V111.875H115.875C115.806 111.875 115.75 111.931 115.75 112H116ZM131 112H131.25C131.25 111.931 131.194 111.875 131.125 111.875H131V112ZM131 120V120.25C131.138 120.25 131.25 120.138 131.25 120H131ZM116 120H115.75C115.75 120.138 115.862 120.25 116 120.25V120ZM116 112.125H131V111.875H116V112.125ZM130.75 112V120H131.25V112H130.75ZM131 119.75H116V120.25H131V119.75ZM116.25 120V112H115.75V120H116.25Z" fill="black"/>
<text fill="black" xml:space="preserve" style="white-space: pre" font-family="OpenGost Type B TT" font-size="5" letter-spacing="0em"><tspan x="118.937" y="117.471">0,452</tspan></text>
<path d="M131 112H146V120H131V112Z" fill="white"/>
<path d="M131 112V111.875H130.875C130.806 111.875 130.75 111.931 130.75 112H131ZM146 112H146.25C146.25 111.931 146.194 111.875 146.125 111.875H146V112ZM146 120V120.25C146.138 120.25 146.25 120.138 146.25 120H146ZM131 120H130.75C130.75 120.138 130.862 120.25 131 120.25V120ZM131 112.125H146V111.875H131V112.125ZM145.75 112V120H146.25V112H145.75ZM146 119.75H131V120.25H146V119.75ZM131.25 120V112H130.75V120H131.25Z" fill="black"/>
<path d="M146 112H161V120H146V112Z" fill="white"/>
<path d="M146 112V111.875H145.875C145.806 111.875 145.75 111.931 145.75 112H146ZM161 112H161.25C161.25 111.931 161.194 111.875 161.125 111.875H161V112ZM161 120V120.25C161.138 120.25 161.25 120.138 161.25 120H161ZM146 120H145.75C145.75 120.138 145.862 120.25 146 120.25V120ZM146 112.125H161V111.875H146V112.125ZM160.75 112V120H161.25V112H160.75ZM161 119.75H146V120.25H161V119.75ZM146.25 120V112H145.75V120H146.25Z" fill="black"/>
<path d="M161 112H176V120H161V112Z" fill="white"/>
<path d="M161 112V111.875H160.875C160.806 111.875 160.75 111.931 160.75 112H161ZM176 112H176.25C176.25 111.931 176.194 111.875 176.125 111.875H176V112ZM176 120V120.25C176.138 120.25 176.25 120.138 176.25 120H176ZM161 120H160.75C160.75 120.138 160.862 120.25 161 120.25V120ZM161 112.125H176V111.875H161V112.125ZM175.75 112V120H176.25V112H175.75ZM176 119.75H161V120.25H176V119.75ZM161.25 120V112H160.75V120H161.25Z" fill="black"/>
<path d="M176 112H191V120H176V112Z" fill="white"/>
<path d="M176 112V111.875H175.875C175.806 111.875 175.75 111.931 175.75 112H176ZM191 112H191.25C191.25 111.931 191.194 111.875 191.125 111.875H191V112ZM191 120V120.25C191.138 120.25 191.25 120.138 191.25 120H191ZM176 120H175.75C175.75 120.138 175.862 120.25 176 120.25V120ZM176 112.125H191V111.875H176V112.125ZM190.75 112V120H191.25V112H190.75ZM191 119.75H176V120.25H191V119.75ZM176.25 120V112H175.75V120H176.25Z" fill="black"/>
<text fill="black" xml:space="preserve" style="white-space: pre" font-family="OpenGost Type B TT" font-size="5" letter-spacing="0em"><tspan x="163.937" y="117.471">0,265</tspan></text>
<path d="M191 112H216V120H191V112Z" fill="white"/>
<path d="M191 112V111.875H190.875C190.806 111.875 190.75 111.931 190.75 112H191ZM216 112H216.25C216.25 111.931 216.194 111.875 216.125 111.875H216V112ZM216 120V120.25C216.138 120.25 216.25 120.138 216.25 120H216ZM191 120H190.75C190.75 120.138 190.862 120.25 191 120.25V120ZM191 112.125H216V111.875H191V112.125ZM215.75 112V120H216.25V112H215.75ZM216 119.75H191V120.25H216V119.75ZM191.25 120V112H190.75V120H191.25Z" fill="black"/>
<text fill="black" xml:space="preserve" style="white-space: pre" font-family="OpenGost Type B TT" font-size="5" letter-spacing="0em"><tspan x="199.306" y="117.471">0,717</tspan></text>
<path d="M1 72H61V80H1V72Z" fill="white"/>
<path d="M1 72V71.875H0.875C0.805964 71.875 0.75 71.931 0.75 72H1ZM61 72H61.25C61.25 71.931 61.194 71.875 61.125 71.875H61V72ZM61 80V80.125H61.125C61.194 80.125 61.25 80.069 61.25 80H61ZM1 80H0.75C0.75 80.069 0.805964 80.125 0.875 80.125H1V80ZM1 72.125H61V71.875H1V72.125ZM60.75 72V80H61.25V72H60.75ZM61 79.875H1V80.125H61V79.875ZM1.25 80V72H0.75V80H1.25Z" fill="black"/>
<path d="M61 72H91V80H61V72Z" fill="white"/>
<path d="M61 72V71.875H60.875C60.806 71.875 60.75 71.931 60.75 72H61ZM91 72H91.25C91.25 71.931 91.194 71.875 91.125 71.875H91V72ZM91 80V80.125H91.125C91.194 80.125 91.25 80.069 91.25 80H91ZM61 80H60.75C60.75 80.069 60.806 80.125 60.875 80.125H61V80ZM61 72.125H91V71.875H61V72.125ZM90.75 72V80H91.25V72H90.75ZM91 79.875H61V80.125H91V79.875ZM61.25 80V72H60.75V80H61.25Z" fill="black"/>
<path d="M91 72H101V80H91V72Z" fill="white"/>
<path d="M91 72V71.875H90.875C90.806 71.875 90.75 71.931 90.75 72H91ZM101 72H101.25C101.25 71.931 101.194 71.875 101.125 71.875H101V72ZM101 80V80.125H101.125C101.194 80.125 101.25 80.069 101.25 80H101ZM91 80H90.75C90.75 80.069 90.806 80.125 90.875 80.125H91V80ZM91 72.125H101V71.875H91V72.125ZM100.75 72V80H101.25V72H100.75ZM101 79.875H91V80.125H101V79.875ZM91.25 80V72H90.75V80H91.25Z" fill="black"/>
<text fill="black" xml:space="preserve" style="white-space: pre" font-family="OpenGost Type B TT" font-size="5" letter-spacing="0em"><tspan x="94.9697" y="77.4706">5</tspan></text>
<text fill="black" xml:space="preserve" style="white-space: pre" font-family="OpenGost Type B TT" font-size="5" letter-spacing="0em"><tspan x="11.3027" y="77.4706">&#x412;&#x441;&#x435;&#x433;&#x43e; &#x43c;&#x430;&#x441;&#x441;&#x430; &#x43c;&#x435;&#x442;&#x430;&#x43b;&#x43b;&#x430;:</tspan></text>
<path d="M101 72H116V80H101V72Z" fill="white"/>
<path d="M101 72V71.875H100.875C100.806 71.875 100.75 71.931 100.75 72H101ZM116 72H116.25C116.25 71.931 116.194 71.875 116.125 71.875H116V72ZM116 80V80.125H116.125C116.194 80.125 116.25 80.069 116.25 80H116ZM101 80H100.75C100.75 80.069 100.806 80.125 100.875 80.125H101V80ZM101 72.125H116V71.875H101V72.125ZM115.75 72V80H116.25V72H115.75ZM116 79.875H101V80.125H116V79.875ZM101.25 80V72H100.75V80H101.25Z" fill="black"/>
<text fill="black" xml:space="preserve" style="white-space: pre" font-family="OpenGost Type B TT" font-size="5" letter-spacing="0em"><tspan x="104.967" y="77.4706">0,66</tspan></text>
<path d="M116 72H131V80H116V72Z" fill="white"/>
<path d="M116 72V71.875H115.875C115.806 71.875 115.75 71.931 115.75 72H116ZM131 72H131.25C131.25 71.931 131.194 71.875 131.125 71.875H131V72ZM131 80V80.125H131.125C131.194 80.125 131.25 80.069 131.25 80H131ZM116 80H115.75C115.75 80.069 115.806 80.125 115.875 80.125H116V80ZM116 72.125H131V71.875H116V72.125ZM130.75 72V80H131.25V72H130.75ZM131 79.875H116V80.125H131V79.875ZM116.25 80V72H115.75V80H116.25Z" fill="black"/>
<text fill="black" xml:space="preserve" style="white-space: pre" font-family="OpenGost Type B TT" font-size="5" letter-spacing="0em"><tspan x="118.937" y="77.4706">0,452</tspan></text>
<path d="M131 72H146V80H131V72Z" fill="white"/>
<path d="M131 72V71.875H130.875C130.806 71.875 130.75 71.931 130.75 72H131ZM146 72H146.25C146.25 71.931 146.194 71.875 146.125 71.875H146V72ZM146 80V80.125H146.125C146.194 80.125 146.25 80.069 146.25 80H146ZM131 80H130.75C130.75 80.069 130.806 80.125 130.875 80.125H131V80ZM131 72.125H146V71.875H131V72.125ZM145.75 72V80H146.25V72H145.75ZM146 79.875H131V80.125H146V79.875ZM131.25 80V72H130.75V80H131.25Z" fill="black"/>
<text fill="black" xml:space="preserve" style="white-space: pre" font-family="OpenGost Type B TT" font-size="5" letter-spacing="0em"><tspan x="133.937" y="77.4706">2,096</tspan></text>
<path d="M146 72H161V80H146V72Z" fill="white"/>
<path d="M146 72V71.875H145.875C145.806 71.875 145.75 71.931 145.75 72H146ZM161 72H161.25C161.25 71.931 161.194 71.875 161.125 71.875H161V72ZM161 80V80.125H161.125C161.194 80.125 161.25 80.069 161.25 80H161ZM146 80H145.75C145.75 80.069 145.806 80.125 145.875 80.125H146V80ZM146 72.125H161V71.875H146V72.125ZM160.75 72V80H161.25V72H160.75ZM161 79.875H146V80.125H161V79.875ZM146.25 80V72H145.75V80H146.25Z" fill="black"/>
<text fill="black" xml:space="preserve" style="white-space: pre" font-family="OpenGost Type B TT" font-size="5" letter-spacing="0em"><tspan x="148.937" y="77.4706">0,598</tspan></text>
<path d="M161 72H176V80H161V72Z" fill="white"/>
<path d="M161 72V71.875H160.875C160.806 71.875 160.75 71.931 160.75 72H161ZM176 72H176.25C176.25 71.931 176.194 71.875 176.125 71.875H176V72ZM176 80V80.125H176.125C176.194 80.125 176.25 80.069 176.25 80H176ZM161 80H160.75C160.75 80.069 160.806 80.125 160.875 80.125H161V80ZM161 72.125H176V71.875H161V72.125ZM175.75 72V80H176.25V72H175.75ZM176 79.875H161V80.125H176V79.875ZM161.25 80V72H160.75V80H161.25Z" fill="black"/>
<path d="M176 72H191V80H176V72Z" fill="white"/>
<path d="M176 72V71.875H175.875C175.806 71.875 175.75 71.931 175.75 72H176ZM191 72H191.25C191.25 71.931 191.194 71.875 191.125 71.875H191V72ZM191 80V80.125H191.125C191.194 80.125 191.25 80.069 191.25 80H191ZM176 80H175.75C175.75 80.069 175.806 80.125 175.875 80.125H176V80ZM176 72.125H191V71.875H176V72.125ZM190.75 72V80H191.25V72H190.75ZM191 79.875H176V80.125H191V79.875ZM176.25 80V72H175.75V80H176.25Z" fill="black"/>
<text fill="black" xml:space="preserve" style="white-space: pre" font-family="OpenGost Type B TT" font-size="5" letter-spacing="0em"><tspan x="163.937" y="77.4706">0,265</tspan></text>
<path d="M191 72H216V80H191V72Z" fill="white"/>
<path d="M191 72V71.875H190.875C190.806 71.875 190.75 71.931 190.75 72H191ZM216 72H216.25C216.25 71.931 216.194 71.875 216.125 71.875H216V72ZM216 80V80.125H216.125C216.194 80.125 216.25 80.069 216.25 80H216ZM191 80H190.75C190.75 80.069 190.806 80.125 190.875 80.125H191V80ZM191 72.125H216V71.875H191V72.125ZM215.75 72V80H216.25V72H215.75ZM216 79.875H191V80.125H216V79.875ZM191.25 80V72H190.75V80H191.25Z" fill="black"/>
<text fill="black" xml:space="preserve" style="white-space: pre" font-family="OpenGost Type B TT" font-size="5" letter-spacing="0em"><tspan x="198.937" y="77.4706">4,072</tspan></text>
<path d="M1 10H31V18H1V10Z" fill="white"/>
<path d="M1 10V9.75C0.861929 9.75 0.75 9.86193 0.75 10H1ZM31 10H31.25C31.25 9.86193 31.1381 9.75 31 9.75V10ZM1 10.25H31V9.75H1V10.25ZM30.75 10V18H31.25V10H30.75ZM1.25 18V10H0.75V18H1.25Z" fill="black"/>
<text fill="black" xml:space="preserve" style="white-space: pre" font-family="OpenGost Type B TT" font-size="5" letter-spacing="0em"><tspan x="3.3877" y="21.4706">&#x41d;&#x430;&#x438;&#x43c;&#x435;&#x43d;&#x43e;&#x432;&#x430;&#x43d;&#x438;&#x435; </tspan><tspan x="8.68555" y="26.4706">&#x43f;&#x440;&#x43e;&#x444;&#x438;&#x43b;&#x44f;&#10;</tspan><tspan x="8.36328" y="31.4706">&#x413;&#x41e;&#x421;&#x422;, &#x422;&#x423;</tspan></text>
<path d="M31 10H61V18H31V10Z" fill="white"/>
<path d="M31 10V9.75C30.8619 9.75 30.75 9.86193 30.75 10H31ZM61 10H61.25C61.25 9.86193 61.1381 9.75 61 9.75V10ZM31 10.25H61V9.75H31V10.25ZM60.75 10V18H61.25V10H60.75ZM31.25 18V10H30.75V18H31.25Z" fill="black"/>
<path d="M61 10H91V18H61V10Z" fill="white"/>
<path d="M61 10V9.75C60.8619 9.75 60.75 9.86193 60.75 10H61ZM91 10H91.25C91.25 9.86193 91.1381 9.75 91 9.75V10ZM61 10.25H91V9.75H61V10.25ZM90.75 10V18H91.25V10H90.75ZM61.25 18V10H60.75V18H61.25Z" fill="black"/>
<path d="M91 10H101V18H91V10Z" fill="white"/>
<path d="M91 10V9.75C90.8619 9.75 90.75 9.86193 90.75 10H91ZM101 10H101.25C101.25 9.86193 101.138 9.75 101 9.75V10ZM91 10.25H101V9.75H91V10.25ZM100.75 10V18H101.25V10H100.75ZM91.25 18V10H90.75V18H91.25Z" fill="black"/>
<text fill="black" xml:space="preserve" style="white-space: pre" font-family="OpenGost Type B TT" font-size="5" letter-spacing="0em"><tspan x="33.3877" y="18.9706">&#x41d;&#x430;&#x438;&#x43c;&#x435;&#x43d;&#x43e;&#x432;&#x430;&#x43d;&#x438;&#x435; </tspan><tspan x="36.7886" y="23.9706">&#x438;&#x43b;&#x438; &#x43c;&#x430;&#x440;&#x43a;&#x430; </tspan><tspan x="38.4658" y="28.9706">&#x43c;&#x435;&#x442;&#x430;&#x43b;&#x43b;&#x430;&#10;</tspan><tspan x="38.3633" y="33.9706">&#x413;&#x41e;&#x421;&#x422;, &#x422;&#x423;</tspan></text>
<text fill="black" xml:space="preserve" style="white-space: pre" font-family="OpenGost Type B TT" font-size="5" letter-spacing="0em"><tspan x="63.3877" y="18.9706">&#x41d;&#x430;&#x438;&#x43c;&#x435;&#x43d;&#x43e;&#x432;&#x430;&#x43d;&#x438;&#x435; </tspan><tspan x="66.7886" y="23.9706">&#x438;&#x43b;&#x438; &#x43c;&#x430;&#x440;&#x43a;&#x430; </tspan><tspan x="68.4658" y="28.9706">&#x43c;&#x435;&#x442;&#x430;&#x43b;&#x43b;&#x430;&#10;</tspan><tspan x="68.3633" y="33.9706">&#x413;&#x41e;&#x421;&#x422;, &#x422;&#x423;</tspan></text>
<text fill="black" xml:space="preserve" style="white-space: pre" font-family="OpenGost Type B TT" font-size="5" letter-spacing="0em"><tspan x="92.543" y="26.4706">&#x41f;&#x43e;&#x437;.</tspan></text>
<rect x="101" y="10" width="90" height="8" fill="white" stroke="black" stroke-width="0.5" stroke-linejoin="round"/>
<text fill="black" xml:space="preserve" style="white-space: pre" font-family="OpenGost Type B TT" font-size="5" letter-spacing="0em"><tspan x="104.059" y="15.4706">&#x41c;&#x430;&#x441;&#x441;&#x430; &#x43c;&#x435;&#x442;&#x430;&#x43b;&#x43b;&#x430; &#x43f;&#x43e; &#x44d;&#x43b;&#x435;&#x43c;&#x435;&#x43d;&#x442;&#x430;&#x43c; &#x43a;&#x43e;&#x43d;&#x441;&#x442;&#x440;&#x443;&#x43a;&#x446;&#x438;&#x439;, &#x442;</tspan></text>
<path d="M191 10H216V18H191V10Z" fill="white"/>
<path d="M191 10V9.75C190.862 9.75 190.75 9.86193 190.75 10H191ZM216 10H216.25C216.25 9.86193 216.138 9.75 216 9.75V10ZM191 10.25H216V9.75H191V10.25ZM215.75 10V18H216.25V10H215.75ZM191.25 18V10H190.75V18H191.25Z" fill="black"/>
<text fill="black" xml:space="preserve" style="white-space: pre" font-family="OpenGost Type B TT" font-size="5" letter-spacing="0em"><tspan x="191.615" y="23.9706">&#x41e;&#x431;&#x449;&#x430;&#x44f; &#x43c;&#x430;&#x441;&#x441;&#x430;, </tspan><tspan x="202.177" y="28.9706">&#x442;</tspan></text>
<text fill="black" xml:space="preserve" style="white-space: pre" font-family="OpenGost Type B TT" font-size="8" letter-spacing="0em"><tspan x="44.5078" y="7.58824">&#x422;&#x435;&#x445;&#x43d;&#x438;&#x447;&#x435;&#x441;&#x43a;&#x430;&#x44f; &#x441;&#x43f;&#x435;&#x446;&#x438;&#x444;&#x438;&#x43a;&#x430;&#x446;&#x438;&#x44f; &#x43c;&#x435;&#x442;&#x430;&#x43b;&#x43b;&#x43e;&#x43f;&#x440;&#x43e;&#x43a;&#x430;&#x442;&#x430;</tspan></text>
</svg>
