<svg width="187" height="89" viewBox="0 0 187 89" fill="none" xmlns="http://www.w3.org/2000/svg">
<rect x="1" y="10" width="20" height="30" fill="white" stroke="black" stroke-width="0.5" stroke-linejoin="round"/>
<text fill="black" xml:space="preserve" style="white-space: pre" font-family="OpenGost Type B TT" font-size="5" letter-spacing="0em"><tspan x="5.54102" y="23.9706">&#x41c;&#x430;&#x440;&#x43a;&#x430; </tspan><tspan x="2.46484" y="28.9706">&#x44d;&#x43b;&#x435;&#x43c;&#x435;&#x43d;&#x442;&#x430;</tspan></text>
<rect x="21" y="10" width="70" height="15" fill="white" stroke="black" stroke-width="0.5" stroke-linejoin="round"/>
<text fill="black" xml:space="preserve" style="white-space: pre" font-family="OpenGost Type B TT" font-size="5" letter-spacing="0em"><tspan x="48.9785" y="18.9706">&#x421;&#x435;&#x447;&#x435;&#x43d;&#x438;&#x435;</tspan></text>
<rect x="91" y="10" width="45" height="15" fill="white" stroke="black" stroke-width="0.5" stroke-linejoin="round"/>
<text fill="black" xml:space="preserve" style="white-space: pre" font-family="OpenGost Type B TT" font-size="5" letter-spacing="0em"><tspan x="103.598" y="16.4706">&#x423;&#x441;&#x438;&#x43b;&#x438;&#x44f; &#x434;&#x43b;&#x44f; </tspan><tspan x="101.342" y="21.4706">&#x43f;&#x440;&#x438;&#x43a;&#x440;&#x435;&#x43f;&#x43b;&#x435;&#x43d;&#x438;&#x44f;</tspan></text>
<rect x="136" y="10" width="25" height="30" fill="white" stroke="black" stroke-width="0.5" stroke-linejoin="round"/>
<text fill="black" xml:space="preserve" style="white-space: pre" font-family="OpenGost Type B TT" font-size="5" letter-spacing="0em"><tspan x="138.949" y="18.9706">&#x41d;&#x430;&#x438;&#x43c;&#x435;&#x43d;&#x43e;&#x432;&#x430;</tspan><tspan x="141.54" y="23.9706">&#x43d;&#x438;&#x435; &#x438;&#x43b;&#x438; </tspan><tspan x="143.188" y="28.9706">&#x43c;&#x430;&#x440;&#x43a;&#x430; </tspan><tspan x="140.966" y="33.9706">&#x43c;&#x435;&#x442;&#x430;&#x43b;&#x43b;&#x430;</tspan></text>
<rect x="161" y="10" width="25" height="30" fill="white" stroke="black" stroke-width="0.5" stroke-linejoin="round"/>
<text fill="black" xml:space="preserve" style="white-space: pre" font-family="OpenGost Type B TT" font-size="5" letter-spacing="0em"><tspan x="162.963" y="26.4706">&#x41f;&#x440;&#x438;&#x43c;&#x435;&#x447;&#x430;&#x43d;&#x438;&#x435;</tspan></text>
<rect x="21" y="25" width="30" height="15" fill="white" stroke="black" stroke-width="0.5" stroke-linejoin="round"/>
<text fill="black" xml:space="preserve" style="white-space: pre" font-family="OpenGost Type B TT" font-size="5" letter-spacing="0em"><tspan x="31.1611" y="33.9706">&#x42d;&#x441;&#x43a;&#x438;&#x437;</tspan></text>
<rect x="51" y="25" width="10" height="15" fill="white" stroke="black" stroke-width="0.5" stroke-linejoin="round"/>
<text fill="black" xml:space="preserve" style="white-space: pre" font-family="OpenGost Type B TT" font-size="5" letter-spacing="0em"><tspan x="52.543" y="33.9706">&#x41f;&#x43e;&#x437;.</tspan></text>
<rect x="61" y="25" width="30" height="15" fill="white" stroke="black" stroke-width="0.5" stroke-linejoin="round"/>
<text fill="black" xml:space="preserve" style="white-space: pre" font-family="OpenGost Type B TT" font-size="5" letter-spacing="0em"><tspan x="69.8208" y="33.9706">&#x421;&#x43e;&#x441;&#x442;&#x430;&#x432;</tspan></text>
<rect x="91" y="25" width="15" height="15" fill="white" stroke="black" stroke-width="0.5" stroke-linejoin="round"/>
<text fill="black" xml:space="preserve" style="white-space: pre" font-family="OpenGost Type B TT" font-size="5" letter-spacing="0em"><tspan x="93.8223" y="33.9706">A, &#x43a;&#x41d;</tspan></text>
<rect x="106" y="25" width="15" height="15" fill="white" stroke="black" stroke-width="0.5" stroke-linejoin="round"/>
<text fill="black" xml:space="preserve" style="white-space: pre" font-family="OpenGost Type B TT" font-size="5" letter-spacing="0em"><tspan x="108.822" y="33.9706">N, &#x43a;&#x41d;</tspan></text>
<rect x="121" y="25" width="15" height="15" fill="white" stroke="black" stroke-width="0.5" stroke-linejoin="round"/>
<text fill="black" xml:space="preserve" style="white-space: pre" font-family="OpenGost Type B TT" font-size="5" letter-spacing="0em"><tspan x="121.911" y="33.9706">M, &#x43a;&#x41d;&#x2022;&#x43c;</tspan></text>
<path d="M1 40H21V48H1V40Z" fill="white"/>
<path d="M1 40V39.75C0.861929 39.75 0.75 39.8619 0.75 40H1ZM21 40H21.25C21.25 39.8619 21.1381 39.75 21 39.75V40ZM21 48V48.125H21.125C21.194 48.125 21.25 48.069 21.25 48H21ZM1 48H0.75C0.75 48.069 0.805964 48.125 0.875 48.125H1V48ZM1 40.25H21V39.75H1V40.25ZM20.75 40V48H21.25V40H20.75ZM21 47.875H1V48.125H21V47.875ZM1.25 48V40H0.75V48H1.25Z" fill="black"/>
<text fill="black" xml:space="preserve" style="white-space: pre" font-family="OpenGost Type B TT" font-size="5" letter-spacing="0em"><tspan x="8.16064" y="45.4706">&#x41a;-1</tspan></text>
<path d="M21 40H51V48H21V40Z" fill="white"/>
<path d="M21 40V39.75C20.8619 39.75 20.75 39.8619 20.75 40H21ZM51 40H51.25C51.25 39.8619 51.1381 39.75 51 39.75V40ZM51 48V48.125H51.125C51.194 48.125 51.25 48.069 51.25 48H51ZM21 48H20.75C20.75 48.069 20.806 48.125 20.875 48.125H21V48ZM21 40.25H51V39.75H21V40.25ZM50.75 40V48H51.25V40H50.75ZM51 47.875H21V48.125H51V47.875ZM21.25 48V40H20.75V48H21.25Z" fill="black"/>
<path d="M51 40H61V48H51V40Z" fill="white"/>
<path d="M51 40V39.75C50.8619 39.75 50.75 39.8619 50.75 40H51ZM61 40H61.25C61.25 39.8619 61.1381 39.75 61 39.75V40ZM61 48V48.125H61.125C61.194 48.125 61.25 48.069 61.25 48H61ZM51 48H50.75C50.75 48.069 50.806 48.125 50.875 48.125H51V48ZM51 40.25H61V39.75H51V40.25ZM60.75 40V48H61.25V40H60.75ZM61 47.875H51V48.125H61V47.875ZM51.25 48V40H50.75V48H51.25Z" fill="black"/>
<path d="M61 40H91V48H61V40Z" fill="white"/>
<path d="M61 40V39.75C60.8619 39.75 60.75 39.8619 60.75 40H61ZM91 40H91.25C91.25 39.8619 91.1381 39.75 91 39.75V40ZM91 48V48.125H91.125C91.194 48.125 91.25 48.069 91.25 48H91ZM61 48H60.75C60.75 48.069 60.806 48.125 60.875 48.125H61V48ZM61 40.25H91V39.75H61V40.25ZM90.75 40V48H91.25V40H90.75ZM91 47.875H61V48.125H91V47.875ZM61.25 48V40H60.75V48H61.25Z" fill="black"/>
<text fill="black" xml:space="preserve" style="white-space: pre" font-family="OpenGost Type B TT" font-size="5" letter-spacing="0em"><tspan x="70.4385" y="45.4706">&#xe010;20&#x41a;2</tspan></text>
<path d="M91 40H106V48H91V40Z" fill="white"/>
<path d="M91 40V39.75C90.8619 39.75 90.75 39.8619 90.75 40H91ZM106 40H106.25C106.25 39.8619 106.138 39.75 106 39.75V40ZM106 48V48.125H106.125C106.194 48.125 106.25 48.069 106.25 48H106ZM91 48H90.75C90.75 48.069 90.806 48.125 90.875 48.125H91V48ZM91 40.25H106V39.75H91V40.25ZM105.75 40V48H106.25V40H105.75ZM106 47.875H91V48.125H106V47.875ZM91.25 48V40H90.75V48H91.25Z" fill="black"/>
<text fill="black" xml:space="preserve" style="white-space: pre" font-family="OpenGost Type B TT" font-size="5" letter-spacing="0em"><tspan x="97.4697" y="45.4706">-</tspan></text>
<path d="M106 40H121V48H106V40Z" fill="white"/>
<path d="M106 40V39.75C105.862 39.75 105.75 39.8619 105.75 40H106ZM121 40H121.25C121.25 39.8619 121.138 39.75 121 39.75V40ZM121 48V48.125H121.125C121.194 48.125 121.25 48.069 121.25 48H121ZM106 48H105.75C105.75 48.069 105.806 48.125 105.875 48.125H106V48ZM106 40.25H121V39.75H106V40.25ZM120.75 40V48H121.25V40H120.75ZM121 47.875H106V48.125H121V47.875ZM106.25 48V40H105.75V48H106.25Z" fill="black"/>
<text fill="black" xml:space="preserve" style="white-space: pre" font-family="OpenGost Type B TT" font-size="5" letter-spacing="0em"><tspan x="112.47" y="45.4706">-</tspan></text>
<path d="M121 40H136V48H121V40Z" fill="white"/>
<path d="M121 40V39.75C120.862 39.75 120.75 39.8619 120.75 40H121ZM136 40H136.25C136.25 39.8619 136.138 39.75 136 39.75V40ZM136 48V48.125H136.125C136.194 48.125 136.25 48.069 136.25 48H136ZM121 48H120.75C120.75 48.069 120.806 48.125 120.875 48.125H121V48ZM121 40.25H136V39.75H121V40.25ZM135.75 40V48H136.25V40H135.75ZM136 47.875H121V48.125H136V47.875ZM121.25 48V40H120.75V48H121.25Z" fill="black"/>
<text fill="black" xml:space="preserve" style="white-space: pre" font-family="OpenGost Type B TT" font-size="5" letter-spacing="0em"><tspan x="127.47" y="45.4706">-</tspan></text>
<path d="M136 40H161V48H136V40Z" fill="white"/>
<path d="M136 40V39.75C135.862 39.75 135.75 39.8619 135.75 40H136ZM161 40H161.25C161.25 39.8619 161.138 39.75 161 39.75V40ZM161 48V48.125H161.125C161.194 48.125 161.25 48.069 161.25 48H161ZM136 48H135.75C135.75 48.069 135.806 48.125 135.875 48.125H136V48ZM136 40.25H161V39.75H136V40.25ZM160.75 40V48H161.25V40H160.75ZM161 47.875H136V48.125H161V47.875ZM136.25 48V40H135.75V48H136.25Z" fill="black"/>
<text fill="black" xml:space="preserve" style="white-space: pre" font-family="OpenGost Type B TT" font-size="5" letter-spacing="0em"><tspan x="142.362" y="45.4706">&#x421;345-5</tspan></text>
<path d="M161 40H186V48H161V40Z" fill="white"/>
<path d="M161 40V39.75C160.862 39.75 160.75 39.8619 160.75 40H161ZM186 40H186.25C186.25 39.8619 186.138 39.75 186 39.75V40ZM186 48V48.125H186.125C186.194 48.125 186.25 48.069 186.25 48H186ZM161 48H160.75C160.75 48.069 160.806 48.125 160.875 48.125H161V48ZM161 40.25H186V39.75H161V40.25ZM185.75 40V48H186.25V40H185.75ZM186 47.875H161V48.125H186V47.875ZM161.25 48V40H160.75V48H161.25Z" fill="black"/>
<path d="M1 48H21V56H1V48Z" fill="white"/>
<path d="M1 48V47.875H0.875C0.805964 47.875 0.75 47.931 0.75 48H1ZM21 48H21.25C21.25 47.931 21.194 47.875 21.125 47.875H21V48ZM21 56V56.125H21.125C21.194 56.125 21.25 56.069 21.25 56H21ZM1 56H0.75C0.75 56.069 0.805964 56.125 0.875 56.125H1V56ZM1 48.125H21V47.875H1V48.125ZM20.75 48V56H21.25V48H20.75ZM21 55.875H1V56.125H21V55.875ZM1.25 56V48H0.75V56H1.25Z" fill="black"/>
<text fill="black" xml:space="preserve" style="white-space: pre" font-family="OpenGost Type B TT" font-size="5" letter-spacing="0em"><tspan x="8.16064" y="53.4706">&#x411;-1</tspan></text>
<path d="M21 48H51V56H21V48Z" fill="white"/>
<path d="M21 48V47.875H20.875C20.806 47.875 20.75 47.931 20.75 48H21ZM51 48H51.25C51.25 47.931 51.194 47.875 51.125 47.875H51V48ZM51 56V56.125H51.125C51.194 56.125 51.25 56.069 51.25 56H51ZM21 56H20.75C20.75 56.069 20.806 56.125 20.875 56.125H21V56ZM21 48.125H51V47.875H21V48.125ZM50.75 48V56H51.25V48H50.75ZM51 55.875H21V56.125H51V55.875ZM21.25 56V48H20.75V56H21.25Z" fill="black"/>
<path d="M51 48H61V56H51V48Z" fill="white"/>
<path d="M51 48V47.875H50.875C50.806 47.875 50.75 47.931 50.75 48H51ZM61 48H61.25C61.25 47.931 61.194 47.875 61.125 47.875H61V48ZM61 56V56.125H61.125C61.194 56.125 61.25 56.069 61.25 56H61ZM51 56H50.75C50.75 56.069 50.806 56.125 50.875 56.125H51V56ZM51 48.125H61V47.875H51V48.125ZM60.75 48V56H61.25V48H60.75ZM61 55.875H51V56.125H61V55.875ZM51.25 56V48H50.75V56H51.25Z" fill="black"/>
<path d="M61 48H91V56H61V48Z" fill="white"/>
<path d="M61 48V47.875H60.875C60.806 47.875 60.75 47.931 60.75 48H61ZM91 48H91.25C91.25 47.931 91.194 47.875 91.125 47.875H91V48ZM91 56V56.125H91.125C91.194 56.125 91.25 56.069 91.25 56H91ZM61 56H60.75C60.75 56.069 60.806 56.125 60.875 56.125H61V56ZM61 48.125H91V47.875H61V48.125ZM90.75 48V56H91.25V48H90.75ZM91 55.875H61V56.125H91V55.875ZM61.25 56V48H60.75V56H61.25Z" fill="black"/>
<text fill="black" xml:space="preserve" style="white-space: pre" font-family="OpenGost Type B TT" font-size="5" letter-spacing="0em"><tspan x="72.7627" y="53.4706">20&#x428;2</tspan></text>
<text fill="black" xml:space="preserve" style="white-space: pre" font-family="OpenGost Type B TT" font-size="5" letter-spacing="0em"><tspan x="70.1162" y="53.4706">&#xe010;</tspan></text>
<path d="M91 48H106V56H91V48Z" fill="white"/>
<path d="M91 48V47.875H90.875C90.806 47.875 90.75 47.931 90.75 48H91ZM106 48H106.25C106.25 47.931 106.194 47.875 106.125 47.875H106V48ZM106 56V56.125H106.125C106.194 56.125 106.25 56.069 106.25 56H106ZM91 56H90.75C90.75 56.069 90.806 56.125 90.875 56.125H91V56ZM91 48.125H106V47.875H91V48.125ZM105.75 48V56H106.25V48H105.75ZM106 55.875H91V56.125H106V55.875ZM91.25 56V48H90.75V56H91.25Z" fill="black"/>
<text fill="black" xml:space="preserve" style="white-space: pre" font-family="OpenGost Type B TT" font-size="5" letter-spacing="0em"><tspan x="97.4697" y="53.4706">-</tspan></text>
<path d="M106 48H121V56H106V48Z" fill="white"/>
<path d="M106 48V47.875H105.875C105.806 47.875 105.75 47.931 105.75 48H106ZM121 48H121.25C121.25 47.931 121.194 47.875 121.125 47.875H121V48ZM121 56V56.125H121.125C121.194 56.125 121.25 56.069 121.25 56H121ZM106 56H105.75C105.75 56.069 105.806 56.125 105.875 56.125H106V56ZM106 48.125H121V47.875H106V48.125ZM120.75 48V56H121.25V48H120.75ZM121 55.875H106V56.125H121V55.875ZM106.25 56V48H105.75V56H106.25Z" fill="black"/>
<text fill="black" xml:space="preserve" style="white-space: pre" font-family="OpenGost Type B TT" font-size="5" letter-spacing="0em"><tspan x="112.47" y="53.4706">-</tspan></text>
<path d="M121 48H136V56H121V48Z" fill="white"/>
<path d="M121 48V47.875H120.875C120.806 47.875 120.75 47.931 120.75 48H121ZM136 48H136.25C136.25 47.931 136.194 47.875 136.125 47.875H136V48ZM136 56V56.125H136.125C136.194 56.125 136.25 56.069 136.25 56H136ZM121 56H120.75C120.75 56.069 120.806 56.125 120.875 56.125H121V56ZM121 48.125H136V47.875H121V48.125ZM135.75 48V56H136.25V48H135.75ZM136 55.875H121V56.125H136V55.875ZM121.25 56V48H120.75V56H121.25Z" fill="black"/>
<text fill="black" xml:space="preserve" style="white-space: pre" font-family="OpenGost Type B TT" font-size="5" letter-spacing="0em"><tspan x="127.47" y="53.4706">-</tspan></text>
<path d="M136 48H161V56H136V48Z" fill="white"/>
<path d="M136 48V47.875H135.875C135.806 47.875 135.75 47.931 135.75 48H136ZM161 48H161.25C161.25 47.931 161.194 47.875 161.125 47.875H161V48ZM161 56V56.125H161.125C161.194 56.125 161.25 56.069 161.25 56H161ZM136 56H135.75C135.75 56.069 135.806 56.125 135.875 56.125H136V56ZM136 48.125H161V47.875H136V48.125ZM160.75 48V56H161.25V48H160.75ZM161 55.875H136V56.125H161V55.875ZM136.25 56V48H135.75V56H136.25Z" fill="black"/>
<text fill="black" xml:space="preserve" style="white-space: pre" font-family="OpenGost Type B TT" font-size="5" letter-spacing="0em"><tspan x="142.362" y="53.4706">&#x421;345-5</tspan></text>
<path d="M161 48H186V56H161V48Z" fill="white"/>
<path d="M161 48V47.875H160.875C160.806 47.875 160.75 47.931 160.75 48H161ZM186 48H186.25C186.25 47.931 186.194 47.875 186.125 47.875H186V48ZM186 56V56.125H186.125C186.194 56.125 186.25 56.069 186.25 56H186ZM161 56H160.75C160.75 56.069 160.806 56.125 160.875 56.125H161V56ZM161 48.125H186V47.875H161V48.125ZM185.75 48V56H186.25V48H185.75ZM186 55.875H161V56.125H186V55.875ZM161.25 56V48H160.75V56H161.25Z" fill="black"/>
<path d="M1 56H21V64H1V56Z" fill="white"/>
<path d="M1 56V55.875H0.875C0.805964 55.875 0.75 55.931 0.75 56H1ZM21 56H21.25C21.25 55.931 21.194 55.875 21.125 55.875H21V56ZM21 64V64.125H21.125C21.194 64.125 21.25 64.069 21.25 64H21ZM1 64H0.75C0.75 64.069 0.805964 64.125 0.875 64.125H1V64ZM1 56.125H21V55.875H1V56.125ZM20.75 56V64H21.25V56H20.75ZM21 63.875H1V64.125H21V63.875ZM1.25 64V56H0.75V64H1.25Z" fill="black"/>
<text fill="black" xml:space="preserve" style="white-space: pre" font-family="OpenGost Type B TT" font-size="5" letter-spacing="0em"><tspan x="7.79199" y="61.4706">&#x411;-2</tspan></text>
<path d="M21 56H51V64H21V56Z" fill="white"/>
<path d="M21 56V55.875H20.875C20.806 55.875 20.75 55.931 20.75 56H21ZM51 56H51.25C51.25 55.931 51.194 55.875 51.125 55.875H51V56ZM51 64V64.125H51.125C51.194 64.125 51.25 64.069 51.25 64H51ZM21 64H20.75C20.75 64.069 20.806 64.125 20.875 64.125H21V64ZM21 56.125H51V55.875H21V56.125ZM50.75 56V64H51.25V56H50.75ZM51 63.875H21V64.125H51V63.875ZM21.25 64V56H20.75V64H21.25Z" fill="black"/>
<path d="M51 56H61V64H51V56Z" fill="white"/>
<path d="M51 56V55.875H50.875C50.806 55.875 50.75 55.931 50.75 56H51ZM61 56H61.25C61.25 55.931 61.194 55.875 61.125 55.875H61V56ZM61 64V64.125H61.125C61.194 64.125 61.25 64.069 61.25 64H61ZM51 64H50.75C50.75 64.069 50.806 64.125 50.875 64.125H51V64ZM51 56.125H61V55.875H51V56.125ZM60.75 56V64H61.25V56H60.75ZM61 63.875H51V64.125H61V63.875ZM51.25 64V56H50.75V64H51.25Z" fill="black"/>
<path d="M61 56H91V64H61V56Z" fill="white"/>
<path d="M61 56V55.875H60.875C60.806 55.875 60.75 55.931 60.75 56H61ZM91 56H91.25C91.25 55.931 91.194 55.875 91.125 55.875H91V56ZM91 64V64.125H91.125C91.194 64.125 91.25 64.069 91.25 64H91ZM61 64H60.75C60.75 64.069 60.806 64.125 60.875 64.125H61V64ZM61 56.125H91V55.875H61V56.125ZM90.75 56V64H91.25V56H90.75ZM91 63.875H61V64.125H91V63.875ZM61.25 64V56H60.75V64H61.25Z" fill="black"/>
<text fill="black" xml:space="preserve" style="white-space: pre" font-family="OpenGost Type B TT" font-size="5" letter-spacing="0em"><tspan x="71.8081" y="61.4706">&#xe011;12&#x41f;</tspan></text>
<path d="M91 56H106V64H91V56Z" fill="white"/>
<path d="M91 56V55.875H90.875C90.806 55.875 90.75 55.931 90.75 56H91ZM106 56H106.25C106.25 55.931 106.194 55.875 106.125 55.875H106V56ZM106 64V64.125H106.125C106.194 64.125 106.25 64.069 106.25 64H106ZM91 64H90.75C90.75 64.069 90.806 64.125 90.875 64.125H91V64ZM91 56.125H106V55.875H91V56.125ZM105.75 56V64H106.25V56H105.75ZM106 63.875H91V64.125H106V63.875ZM91.25 64V56H90.75V64H91.25Z" fill="black"/>
<text fill="black" xml:space="preserve" style="white-space: pre" font-family="OpenGost Type B TT" font-size="5" letter-spacing="0em"><tspan x="97.4697" y="61.4706">-</tspan></text>
<path d="M106 56H121V64H106V56Z" fill="white"/>
<path d="M106 56V55.875H105.875C105.806 55.875 105.75 55.931 105.75 56H106ZM121 56H121.25C121.25 55.931 121.194 55.875 121.125 55.875H121V56ZM121 64V64.125H121.125C121.194 64.125 121.25 64.069 121.25 64H121ZM106 64H105.75C105.75 64.069 105.806 64.125 105.875 64.125H106V64ZM106 56.125H121V55.875H106V56.125ZM120.75 56V64H121.25V56H120.75ZM121 63.875H106V64.125H121V63.875ZM106.25 64V56H105.75V64H106.25Z" fill="black"/>
<text fill="black" xml:space="preserve" style="white-space: pre" font-family="OpenGost Type B TT" font-size="5" letter-spacing="0em"><tspan x="112.47" y="61.4706">-</tspan></text>
<path d="M121 56H136V64H121V56Z" fill="white"/>
<path d="M121 56V55.875H120.875C120.806 55.875 120.75 55.931 120.75 56H121ZM136 56H136.25C136.25 55.931 136.194 55.875 136.125 55.875H136V56ZM136 64V64.125H136.125C136.194 64.125 136.25 64.069 136.25 64H136ZM121 64H120.75C120.75 64.069 120.806 64.125 120.875 64.125H121V64ZM121 56.125H136V55.875H121V56.125ZM135.75 56V64H136.25V56H135.75ZM136 63.875H121V64.125H136V63.875ZM121.25 64V56H120.75V64H121.25Z" fill="black"/>
<text fill="black" xml:space="preserve" style="white-space: pre" font-family="OpenGost Type B TT" font-size="5" letter-spacing="0em"><tspan x="127.47" y="61.4706">-</tspan></text>
<path d="M136 56H161V64H136V56Z" fill="white"/>
<path d="M136 56V55.875H135.875C135.806 55.875 135.75 55.931 135.75 56H136ZM161 56H161.25C161.25 55.931 161.194 55.875 161.125 55.875H161V56ZM161 64V64.125H161.125C161.194 64.125 161.25 64.069 161.25 64H161ZM136 64H135.75C135.75 64.069 135.806 64.125 135.875 64.125H136V64ZM136 56.125H161V55.875H136V56.125ZM160.75 56V64H161.25V56H160.75ZM161 63.875H136V64.125H161V63.875ZM136.25 64V56H135.75V64H136.25Z" fill="black"/>
<text fill="black" xml:space="preserve" style="white-space: pre" font-family="OpenGost Type B TT" font-size="5" letter-spacing="0em"><tspan x="142.362" y="61.4706">&#x421;245-4</tspan></text>
<path d="M161 56H186V64H161V56Z" fill="white"/>
<path d="M161 56V55.875H160.875C160.806 55.875 160.75 55.931 160.75 56H161ZM186 56H186.25C186.25 55.931 186.194 55.875 186.125 55.875H186V56ZM186 64V64.125H186.125C186.194 64.125 186.25 64.069 186.25 64H186ZM161 64H160.75C160.75 64.069 160.806 64.125 160.875 64.125H161V64ZM161 56.125H186V55.875H161V56.125ZM185.75 56V64H186.25V56H185.75ZM186 63.875H161V64.125H186V63.875ZM161.25 64V56H160.75V64H161.25Z" fill="black"/>
<path d="M1 64H21V72H1V64Z" fill="white"/>
<path d="M1 64V63.875H0.875C0.805964 63.875 0.75 63.931 0.75 64H1ZM21 64H21.25C21.25 63.931 21.194 63.875 21.125 63.875H21V64ZM21 72V72.125H21.125C21.194 72.125 21.25 72.069 21.25 72H21ZM1 72H0.75C0.75 72.069 0.805964 72.125 0.875 72.125H1V72ZM1 64.125H21V63.875H1V64.125ZM20.75 64V72H21.25V64H20.75ZM21 71.875H1V72.125H21V71.875ZM1.25 72V64H0.75V72H1.25Z" fill="black"/>
<text fill="black" xml:space="preserve" style="white-space: pre" font-family="OpenGost Type B TT" font-size="5" letter-spacing="0em"><tspan x="7.17432" y="69.4706">&#x421;&#x41a;-1</tspan></text>
<path d="M21 64H51V72H21V64Z" fill="white"/>
<path d="M21 64V63.875H20.875C20.806 63.875 20.75 63.931 20.75 64H21ZM51 64H51.25C51.25 63.931 51.194 63.875 51.125 63.875H51V64ZM51 72V72.125H51.125C51.194 72.125 51.25 72.069 51.25 72H51ZM21 72H20.75C20.75 72.069 20.806 72.125 20.875 72.125H21V72ZM21 64.125H51V63.875H21V64.125ZM50.75 64V72H51.25V64H50.75ZM51 71.875H21V72.125H51V71.875ZM21.25 72V64H20.75V72H21.25Z" fill="black"/>
<path d="M51 64H61V72H51V64Z" fill="white"/>
<path d="M51 64V63.875H50.875C50.806 63.875 50.75 63.931 50.75 64H51ZM61 64H61.25C61.25 63.931 61.194 63.875 61.125 63.875H61V64ZM61 72V72.125H61.125C61.194 72.125 61.25 72.069 61.25 72H61ZM51 72H50.75C50.75 72.069 50.806 72.125 50.875 72.125H51V72ZM51 64.125H61V63.875H51V64.125ZM60.75 64V72H61.25V64H60.75ZM61 71.875H51V72.125H61V71.875ZM51.25 72V64H50.75V72H51.25Z" fill="black"/>
<path d="M61 64H91V72H61V64Z" fill="white"/>
<path d="M61 64V63.875H60.875C60.806 63.875 60.75 63.931 60.75 64H61ZM91 64H91.25C91.25 63.931 91.194 63.875 91.125 63.875H91V64ZM91 72V72.125H91.125C91.194 72.125 91.25 72.069 91.25 72H91ZM61 72H60.75C60.75 72.069 60.806 72.125 60.875 72.125H61V72ZM61 64.125H91V63.875H61V64.125ZM90.75 64V72H91.25V64H90.75ZM91 71.875H61V72.125H91V71.875ZM61.25 72V64H60.75V72H61.25Z" fill="black"/>
<text fill="black" xml:space="preserve" style="white-space: pre" font-family="OpenGost Type B TT" font-size="5" letter-spacing="0em"><tspan x="70.1138" y="69.4706">&#x25a1;80&#xd7;7</tspan></text>
<path d="M91 64H106V72H91V64Z" fill="white"/>
<path d="M91 64V63.875H90.875C90.806 63.875 90.75 63.931 90.75 64H91ZM106 64H106.25C106.25 63.931 106.194 63.875 106.125 63.875H106V64ZM106 72V72.125H106.125C106.194 72.125 106.25 72.069 106.25 72H106ZM91 72H90.75C90.75 72.069 90.806 72.125 90.875 72.125H91V72ZM91 64.125H106V63.875H91V64.125ZM105.75 64V72H106.25V64H105.75ZM106 71.875H91V72.125H106V71.875ZM91.25 72V64H90.75V72H91.25Z" fill="black"/>
<text fill="black" xml:space="preserve" style="white-space: pre" font-family="OpenGost Type B TT" font-size="5" letter-spacing="0em"><tspan x="97.4697" y="69.4706">-</tspan></text>
<path d="M106 64H121V72H106V64Z" fill="white"/>
<path d="M106 64V63.875H105.875C105.806 63.875 105.75 63.931 105.75 64H106ZM121 64H121.25C121.25 63.931 121.194 63.875 121.125 63.875H121V64ZM121 72V72.125H121.125C121.194 72.125 121.25 72.069 121.25 72H121ZM106 72H105.75C105.75 72.069 105.806 72.125 105.875 72.125H106V72ZM106 64.125H121V63.875H106V64.125ZM120.75 64V72H121.25V64H120.75ZM121 71.875H106V72.125H121V71.875ZM106.25 72V64H105.75V72H106.25Z" fill="black"/>
<text fill="black" xml:space="preserve" style="white-space: pre" font-family="OpenGost Type B TT" font-size="5" letter-spacing="0em"><tspan x="112.47" y="69.4706">-</tspan></text>
<path d="M121 64H136V72H121V64Z" fill="white"/>
<path d="M121 64V63.875H120.875C120.806 63.875 120.75 63.931 120.75 64H121ZM136 64H136.25C136.25 63.931 136.194 63.875 136.125 63.875H136V64ZM136 72V72.125H136.125C136.194 72.125 136.25 72.069 136.25 72H136ZM121 72H120.75C120.75 72.069 120.806 72.125 120.875 72.125H121V72ZM121 64.125H136V63.875H121V64.125ZM135.75 64V72H136.25V64H135.75ZM136 71.875H121V72.125H136V71.875ZM121.25 72V64H120.75V72H121.25Z" fill="black"/>
<text fill="black" xml:space="preserve" style="white-space: pre" font-family="OpenGost Type B TT" font-size="5" letter-spacing="0em"><tspan x="127.47" y="69.4706">-</tspan></text>
<path d="M136 64H161V72H136V64Z" fill="white"/>
<path d="M136 64V63.875H135.875C135.806 63.875 135.75 63.931 135.75 64H136ZM161 64H161.25C161.25 63.931 161.194 63.875 161.125 63.875H161V64ZM161 72V72.125H161.125C161.194 72.125 161.25 72.069 161.25 72H161ZM136 72H135.75C135.75 72.069 135.806 72.125 135.875 72.125H136V72ZM136 64.125H161V63.875H136V64.125ZM160.75 64V72H161.25V64H160.75ZM161 71.875H136V72.125H161V71.875ZM136.25 72V64H135.75V72H136.25Z" fill="black"/>
<text fill="black" xml:space="preserve" style="white-space: pre" font-family="OpenGost Type B TT" font-size="5" letter-spacing="0em"><tspan x="143.466" y="69.4706">09&#x413;2&#x421;</tspan></text>
<path d="M161 64H186V72H161V64Z" fill="white"/>
<path d="M161 64V63.875H160.875C160.806 63.875 160.75 63.931 160.75 64H161ZM186 64H186.25C186.25 63.931 186.194 63.875 186.125 63.875H186V64ZM186 72V72.125H186.125C186.194 72.125 186.25 72.069 186.25 72H186ZM161 72H160.75C160.75 72.069 160.806 72.125 160.875 72.125H161V72ZM161 64.125H186V63.875H161V64.125ZM185.75 64V72H186.25V64H185.75ZM186 71.875H161V72.125H186V71.875ZM161.25 72V64H160.75V72H161.25Z" fill="black"/>
<path d="M1 72H21V80H1V72Z" fill="white"/>
<path d="M1 72V71.875H0.875C0.805964 71.875 0.75 71.931 0.75 72H1ZM21 72H21.25C21.25 71.931 21.194 71.875 21.125 71.875H21V72ZM21 80V80.125H21.125C21.194 80.125 21.25 80.069 21.25 80H21ZM1 80H0.75C0.75 80.069 0.805964 80.125 0.875 80.125H1V80ZM1 72.125H21V71.875H1V72.125ZM20.75 72V80H21.25V72H20.75ZM21 79.875H1V80.125H21V79.875ZM1.25 80V72H0.75V80H1.25Z" fill="black"/>
<text fill="black" xml:space="preserve" style="white-space: pre" font-family="OpenGost Type B TT" font-size="5" letter-spacing="0em"><tspan x="7.36475" y="77.4706">&#x421;&#x413;-1</tspan></text>
<path d="M21 72H51V80H21V72Z" fill="white"/>
<path d="M21 72V71.875H20.875C20.806 71.875 20.75 71.931 20.75 72H21ZM51 72H51.25C51.25 71.931 51.194 71.875 51.125 71.875H51V72ZM51 80V80.125H51.125C51.194 80.125 51.25 80.069 51.25 80H51ZM21 80H20.75C20.75 80.069 20.806 80.125 20.875 80.125H21V80ZM21 72.125H51V71.875H21V72.125ZM50.75 72V80H51.25V72H50.75ZM51 79.875H21V80.125H51V79.875ZM21.25 80V72H20.75V80H21.25Z" fill="black"/>
<path d="M51 72H61V80H51V72Z" fill="white"/>
<path d="M51 72V71.875H50.875C50.806 71.875 50.75 71.931 50.75 72H51ZM61 72H61.25C61.25 71.931 61.194 71.875 61.125 71.875H61V72ZM61 80V80.125H61.125C61.194 80.125 61.25 80.069 61.25 80H61ZM51 80H50.75C50.75 80.069 50.806 80.125 50.875 80.125H51V80ZM51 72.125H61V71.875H51V72.125ZM60.75 72V80H61.25V72H60.75ZM61 79.875H51V80.125H61V79.875ZM51.25 80V72H50.75V80H51.25Z" fill="black"/>
<path d="M61 72H91V80H61V72Z" fill="white"/>
<path d="M61 72V71.875H60.875C60.806 71.875 60.75 71.931 60.75 72H61ZM91 72H91.25C91.25 71.931 91.194 71.875 91.125 71.875H91V72ZM91 80V80.125H91.125C91.194 80.125 91.25 80.069 91.25 80H91ZM61 80H60.75C60.75 80.069 60.806 80.125 60.875 80.125H61V80ZM61 72.125H91V71.875H61V72.125ZM90.75 72V80H91.25V72H90.75ZM91 79.875H61V80.125H91V79.875ZM61.25 80V72H60.75V80H61.25Z" fill="black"/>
<text fill="black" xml:space="preserve" style="white-space: pre" font-family="OpenGost Type B TT" font-size="5" letter-spacing="0em"><tspan x="70.1138" y="77.4706">&#x25a1;80&#xd7;7</tspan></text>
<path d="M91 72H106V80H91V72Z" fill="white"/>
<path d="M91 72V71.875H90.875C90.806 71.875 90.75 71.931 90.75 72H91ZM106 72H106.25C106.25 71.931 106.194 71.875 106.125 71.875H106V72ZM106 80V80.125H106.125C106.194 80.125 106.25 80.069 106.25 80H106ZM91 80H90.75C90.75 80.069 90.806 80.125 90.875 80.125H91V80ZM91 72.125H106V71.875H91V72.125ZM105.75 72V80H106.25V72H105.75ZM106 79.875H91V80.125H106V79.875ZM91.25 80V72H90.75V80H91.25Z" fill="black"/>
<text fill="black" xml:space="preserve" style="white-space: pre" font-family="OpenGost Type B TT" font-size="5" letter-spacing="0em"><tspan x="97.4697" y="77.4706">-</tspan></text>
<path d="M106 72H121V80H106V72Z" fill="white"/>
<path d="M106 72V71.875H105.875C105.806 71.875 105.75 71.931 105.75 72H106ZM121 72H121.25C121.25 71.931 121.194 71.875 121.125 71.875H121V72ZM121 80V80.125H121.125C121.194 80.125 121.25 80.069 121.25 80H121ZM106 80H105.75C105.75 80.069 105.806 80.125 105.875 80.125H106V80ZM106 72.125H121V71.875H106V72.125ZM120.75 72V80H121.25V72H120.75ZM121 79.875H106V80.125H121V79.875ZM106.25 80V72H105.75V80H106.25Z" fill="black"/>
<text fill="black" xml:space="preserve" style="white-space: pre" font-family="OpenGost Type B TT" font-size="5" letter-spacing="0em"><tspan x="112.47" y="77.4706">-</tspan></text>
<path d="M121 72H136V80H121V72Z" fill="white"/>
<path d="M121 72V71.875H120.875C120.806 71.875 120.75 71.931 120.75 72H121ZM136 72H136.25C136.25 71.931 136.194 71.875 136.125 71.875H136V72ZM136 80V80.125H136.125C136.194 80.125 136.25 80.069 136.25 80H136ZM121 80H120.75C120.75 80.069 120.806 80.125 120.875 80.125H121V80ZM121 72.125H136V71.875H121V72.125ZM135.75 72V80H136.25V72H135.75ZM136 79.875H121V80.125H136V79.875ZM121.25 80V72H120.75V80H121.25Z" fill="black"/>
<text fill="black" xml:space="preserve" style="white-space: pre" font-family="OpenGost Type B TT" font-size="5" letter-spacing="0em"><tspan x="127.47" y="77.4706">-</tspan></text>
<path d="M136 72H161V80H136V72Z" fill="white"/>
<path d="M136 72V71.875H135.875C135.806 71.875 135.75 71.931 135.75 72H136ZM161 72H161.25C161.25 71.931 161.194 71.875 161.125 71.875H161V72ZM161 80V80.125H161.125C161.194 80.125 161.25 80.069 161.25 80H161ZM136 80H135.75C135.75 80.069 135.806 80.125 135.875 80.125H136V80ZM136 72.125H161V71.875H136V72.125ZM160.75 72V80H161.25V72H160.75ZM161 79.875H136V80.125H161V79.875ZM136.25 80V72H135.75V80H136.25Z" fill="black"/>
<text fill="black" xml:space="preserve" style="white-space: pre" font-family="OpenGost Type B TT" font-size="5" letter-spacing="0em"><tspan x="143.466" y="77.4706">09&#x413;2&#x421;</tspan></text>
<path d="M161 72H186V80H161V72Z" fill="white"/>
<path d="M161 72V71.875H160.875C160.806 71.875 160.75 71.931 160.75 72H161ZM186 72H186.25C186.25 71.931 186.194 71.875 186.125 71.875H186V72ZM186 80V80.125H186.125C186.194 80.125 186.25 80.069 186.25 80H186ZM161 80H160.75C160.75 80.069 160.806 80.125 160.875 80.125H161V80ZM161 72.125H186V71.875H161V72.125ZM185.75 72V80H186.25V72H185.75ZM186 79.875H161V80.125H186V79.875ZM161.25 80V72H160.75V80H161.25Z" fill="black"/>
<path d="M1 80H21V88H1V80Z" fill="white"/>
<path d="M1 80V79.875H0.875C0.805964 79.875 0.75 79.931 0.75 80H1ZM21 80H21.25C21.25 79.931 21.194 79.875 21.125 79.875H21V80ZM21 88V88.25C21.1381 88.25 21.25 88.1381 21.25 88H21ZM1 88H0.75C0.75 88.1381 0.861929 88.25 1 88.25V88ZM1 80.125H21V79.875H1V80.125ZM20.75 80V88H21.25V80H20.75ZM21 87.75H1V88.25H21V87.75ZM1.25 88V80H0.75V88H1.25Z" fill="black"/>
<text fill="black" xml:space="preserve" style="white-space: pre" font-family="OpenGost Type B TT" font-size="5" letter-spacing="0em"><tspan x="8.16064" y="85.4706">&#x420;-1</tspan></text>
<path d="M21 80H51V88H21V80Z" fill="white"/>
<path d="M21 80V79.875H20.875C20.806 79.875 20.75 79.931 20.75 80H21ZM51 80H51.25C51.25 79.931 51.194 79.875 51.125 79.875H51V80ZM51 88V88.25C51.1381 88.25 51.25 88.1381 51.25 88H51ZM21 88H20.75C20.75 88.1381 20.8619 88.25 21 88.25V88ZM21 80.125H51V79.875H21V80.125ZM50.75 80V88H51.25V80H50.75ZM51 87.75H21V88.25H51V87.75ZM21.25 88V80H20.75V88H21.25Z" fill="black"/>
<path d="M51 80H61V88H51V80Z" fill="white"/>
<path d="M51 80V79.875H50.875C50.806 79.875 50.75 79.931 50.75 80H51ZM61 80H61.25C61.25 79.931 61.194 79.875 61.125 79.875H61V80ZM61 88V88.25C61.1381 88.25 61.25 88.1381 61.25 88H61ZM51 88H50.75C50.75 88.1381 50.8619 88.25 51 88.25V88ZM51 80.125H61V79.875H51V80.125ZM60.75 80V88H61.25V80H60.75ZM61 87.75H51V88.25H61V87.75ZM51.25 88V80H50.75V88H51.25Z" fill="black"/>
<path d="M61 80H91V88H61V80Z" fill="white"/>
<path d="M61 80V79.875H60.875C60.806 79.875 60.75 79.931 60.75 80H61ZM91 80H91.25C91.25 79.931 91.194 79.875 91.125 79.875H91V80ZM91 88V88.25C91.1381 88.25 91.25 88.1381 91.25 88H91ZM61 88H60.75C60.75 88.1381 60.8619 88.25 61 88.25V88ZM61 80.125H91V79.875H61V80.125ZM90.75 80V88H91.25V80H90.75ZM91 87.75H61V88.25H91V87.75ZM61.25 88V80H60.75V88H61.25Z" fill="black"/>
<text fill="black" xml:space="preserve" style="white-space: pre" font-family="OpenGost Type B TT" font-size="5" letter-spacing="0em"><tspan x="70.1138" y="85.4706">&#x25a1;80&#xd7;7</tspan></text>
<path d="M91 80H106V88H91V80Z" fill="white"/>
<path d="M91 80V79.875H90.875C90.806 79.875 90.75 79.931 90.75 80H91ZM106 80H106.25C106.25 79.931 106.194 79.875 106.125 79.875H106V80ZM106 88V88.25C106.138 88.25 106.25 88.1381 106.25 88H106ZM91 88H90.75C90.75 88.1381 90.8619 88.25 91 88.25V88ZM91 80.125H106V79.875H91V80.125ZM105.75 80V88H106.25V80H105.75ZM106 87.75H91V88.25H106V87.75ZM91.25 88V80H90.75V88H91.25Z" fill="black"/>
<text fill="black" xml:space="preserve" style="white-space: pre" font-family="OpenGost Type B TT" font-size="5" letter-spacing="0em"><tspan x="97.4697" y="85.4706">-</tspan></text>
<path d="M106 80H121V88H106V80Z" fill="white"/>
<path d="M106 80V79.875H105.875C105.806 79.875 105.75 79.931 105.75 80H106ZM121 80H121.25C121.25 79.931 121.194 79.875 121.125 79.875H121V80ZM121 88V88.25C121.138 88.25 121.25 88.1381 121.25 88H121ZM106 88H105.75C105.75 88.1381 105.862 88.25 106 88.25V88ZM106 80.125H121V79.875H106V80.125ZM120.75 80V88H121.25V80H120.75ZM121 87.75H106V88.25H121V87.75ZM106.25 88V80H105.75V88H106.25Z" fill="black"/>
<text fill="black" xml:space="preserve" style="white-space: pre" font-family="OpenGost Type B TT" font-size="5" letter-spacing="0em"><tspan x="112.47" y="85.4706">-</tspan></text>
<path d="M121 80H136V88H121V80Z" fill="white"/>
<path d="M121 80V79.875H120.875C120.806 79.875 120.75 79.931 120.75 80H121ZM136 80H136.25C136.25 79.931 136.194 79.875 136.125 79.875H136V80ZM136 88V88.25C136.138 88.25 136.25 88.1381 136.25 88H136ZM121 88H120.75C120.75 88.1381 120.862 88.25 121 88.25V88ZM121 80.125H136V79.875H121V80.125ZM135.75 80V88H136.25V80H135.75ZM136 87.75H121V88.25H136V87.75ZM121.25 88V80H120.75V88H121.25Z" fill="black"/>
<text fill="black" xml:space="preserve" style="white-space: pre" font-family="OpenGost Type B TT" font-size="5" letter-spacing="0em"><tspan x="127.47" y="85.4706">-</tspan></text>
<path d="M136 80H161V88H136V80Z" fill="white"/>
<path d="M136 80V79.875H135.875C135.806 79.875 135.75 79.931 135.75 80H136ZM161 80H161.25C161.25 79.931 161.194 79.875 161.125 79.875H161V80ZM161 88V88.25C161.138 88.25 161.25 88.1381 161.25 88H161ZM136 88H135.75C135.75 88.1381 135.862 88.25 136 88.25V88ZM136 80.125H161V79.875H136V80.125ZM160.75 80V88H161.25V80H160.75ZM161 87.75H136V88.25H161V87.75ZM136.25 88V80H135.75V88H136.25Z" fill="black"/>
<text fill="black" xml:space="preserve" style="white-space: pre" font-family="OpenGost Type B TT" font-size="5" letter-spacing="0em"><tspan x="143.466" y="85.4706">09&#x413;2&#x421;</tspan></text>
<path d="M161 80H186V88H161V80Z" fill="white"/>
<path d="M161 80V79.875H160.875C160.806 79.875 160.75 79.931 160.75 80H161ZM186 80H186.25C186.25 79.931 186.194 79.875 186.125 79.875H186V80ZM186 88V88.25C186.138 88.25 186.25 88.1381 186.25 88H186ZM161 88H160.75C160.75 88.1381 160.862 88.25 161 88.25V88ZM161 80.125H186V79.875H161V80.125ZM185.75 80V88H186.25V80H185.75ZM186 87.75H161V88.25H186V87.75ZM161.25 88V80H160.75V88H161.25Z" fill="black"/>
<text fill="black" xml:space="preserve" style="white-space: pre" font-family="OpenGost Type B TT" font-size="8" letter-spacing="0em"><tspan x="61.7188" y="7.58824">&#x412;&#x435;&#x434;&#x43e;&#x43c;&#x43e;&#x441;&#x442;&#x44c; &#x44d;&#x43b;&#x435;&#x43c;&#x435;&#x43d;&#x442;&#x43e;&#x432;</tspan></text>
</svg>
