<svg xmlns="http://www.w3.org/2000/svg" xmlns:xlink="http://www.w3.org/1999/xlink" xmlns:ifc="http://www.ifcopenshell.org/ns" width="100mm" height="100mm" viewBox="0 0 100 100">
    <defs>
        <marker id="arrowend" markerWidth="10" markerHeight="7" refX="10" refY="3.5" orient="auto">
          <polygon points="0 0, 10 3.5, 0 7"/>
        </marker>
        <marker id="arrowstart" markerWidth="10" markerHeight="7" refX="0" refY="3.5" orient="auto">
          <polygon points="10 0, 0 3.5, 10 7"/>
        </marker>
    </defs>
    <g ifc:name="Elevation 1-1" class="section" ifc:plane="[[-0.000000,-0.000000,-1.000000,1.000000],[-1.000000,0.000000,0.000000,-0.000000],[0.000000,1.000000,-0.000000,0.000000],[0.000000,0.000000,0.000000,1.000000]]" ifc:matrix3="[[10.000000,0.000000,60.000000],[0.000000,10.000000,79.999999],[0.000000,0.000000,1.000000]]">
        <g class="projection">
            <path d="M43.4666,24.7646 L43.4666,24.7646"/>
            <path d="M43.4482,24.7789 L43.4482,24.7789"/>
            <path d="M43.4666,24.7646 L43.4666,24.7646"/>
            <path d="M43.4482,24.7789 L43.4666,24.7646"/>
            <path d="M43.4251,24.7821 L43.4482,24.7789"/>
            <path d="M43.4251,24.7821 L43.4251,24.7821"/>
            <path d="M43.0067,24.7676 L43.0067,24.7676"/>
            <path d="M43.0374,24.7438 L43.0067,24.7676"/>
            <path d="M43.0758,24.7385 L43.0374,24.7438"/>
            <path d="M43.0758,24.7385 L43.0758,24.7385"/>
            <path d="M18.7743,24.6654 L18.7743,24.6654"/>
            <path d="M18.7684,24.7126 L18.7684,24.7126"/>
            <path d="M18.7662,24.7299 L18.7662,24.7299"/>
            <path d="M18.9823,23.0007 L18.9823,23.0007"/>
            <path d="M18.9764,23.048 L18.9764,23.048"/>
            <path d="M18.9684,23.1125 L18.9684,23.1125"/>
            <path d="M18.9845,22.9835 L18.9988,22.8693"/>
            <path d="M61.2326,28.2645 L61.2326,28.2645"/>
            <path d="M18.9988,22.8693 L18.9988,22.8693"/>
            <path d="M18.9845,22.9835 L18.9845,22.9835"/>
            <path d="M18.9764,23.048 L18.9684,23.1125"/>
            <path d="M18.9823,23.0007 L18.9764,23.048"/>
            <path d="M18.9845,22.9835 L18.9823,23.0007"/>
            <path d="M18.7823,24.6009 L18.9684,23.1125"/>
            <path d="M18.7684,24.7126 L18.7662,24.7299"/>
            <path d="M18.7743,24.6654 L18.7684,24.7126"/>
            <path d="M18.7823,24.6009 L18.7743,24.6654"/>
            <path d="M18.7519,24.844 L18.7662,24.7299"/>
            <path d="M18.7662,24.7299 L18.7662,24.7299"/>
            <path d="M59,29.875 L21,25.125"/>
            <path d="M19,24.875 L18.7519,24.844"/>
            <path d="M18.7743,24.6654 L18.7743,24.6654"/>
            <path d="M18.7684,24.7126 L18.7684,24.7126"/>
            <path d="M18.7662,24.7299 L18.7662,24.7299"/>
            <path d="M61.0223,29.9464 L61.0223,29.9464"/>
            <path d="M61.0164,29.9936 L61.0164,29.9936"/>
            <path d="M61.0143,30.0109 L61.0143,30.0109"/>
            <path d="M18.9823,23.0007 L18.9823,23.0007"/>
            <path d="M18.9764,23.048 L18.9764,23.048"/>
            <path d="M18.9684,23.1124 L18.9684,23.1124"/>
            <path d="M61.2304,28.2818 L61.2304,28.2818"/>
            <path d="M61.2245,28.329 L61.2245,28.329"/>
            <path d="M61.2164,28.3935 L61.2164,28.3935"/>
            <path d="M18.9845,22.9835 L18.9988,22.8693"/>
            <path d="M61.2326,28.2645 L61.2468,28.1504"/>
            <path d="M61.2468,28.1504 L60.9193,28.1094"/>
            <path d="M60.4857,28.0552 L18.9988,22.8693"/>
            <path d="M61.2326,28.2645 L18.9845,22.9835"/>
            <path d="M18.9764,23.048 L18.9684,23.1124"/>
            <path d="M18.9823,23.0007 L18.9764,23.048"/>
            <path d="M18.9845,22.9835 L18.9823,23.0007"/>
            <path d="M61.2245,28.329 L61.2164,28.3935"/>
            <path d="M61.2304,28.2818 L61.2245,28.329"/>
            <path d="M61.2326,28.2645 L61.2304,28.2818"/>
            <path d="M18.7823,24.6009 L18.9684,23.1124"/>
            <path d="M61.0304,29.8819 L61.2164,28.3935"/>
            <path d="M18.7684,24.7126 L18.7662,24.7299"/>
            <path d="M18.7743,24.6654 L18.7684,24.7126"/>
            <path d="M18.7823,24.6009 L18.7743,24.6654"/>
            <path d="M61.0164,29.9936 L61.0143,30.0109"/>
            <path d="M61.0223,29.9464 L61.0164,29.9936"/>
            <path d="M61.0304,29.8819 L61.0223,29.9464"/>
            <path d="M18.7519,24.844 L18.7662,24.7299"/>
            <path d="M61,30.125 L61.0143,30.0109"/>
            <path d="M61.0143,30.0109 L18.7662,24.7299"/>
            <path d="M60.88,30.11 L18.7519,24.844"/>
            <path d="M50.7529,26.8287 L50.7529,26.8287"/>
            <path d="M51.4048,25.7568 L51.4048,25.7568"/>
            <path d="M51.4048,25.7568 L51.4048,25.7568"/>
            <path d="M51.3864,25.7711 L51.4048,25.7568"/>
            <path d="M51.3634,25.7743 L51.3864,25.7711"/>
            <path d="M51.3634,25.7743 L51.3634,25.7743"/>
            <path d="M50.9756,25.7359 L50.945,25.7598"/>
            <path d="M51.0141,25.7306 L50.9756,25.7359"/>
            <path d="M51.0141,25.7306 L51.0141,25.7306"/>
            <path d="M18.7743,24.6654 L18.7743,24.6654"/>
            <path d="M18.7684,24.7126 L18.7684,24.7126"/>
            <path d="M18.7662,24.7299 L18.7662,24.7299"/>
            <path d="M18.9823,23.0007 L18.9823,23.0007"/>
            <path d="M18.9764,23.048 L18.9764,23.048"/>
            <path d="M18.9684,23.1125 L18.9684,23.1125"/>
            <path d="M18.9845,22.9835 L18.9988,22.8693"/>
            <path d="M18.9988,22.8693 L18.9988,22.8693"/>
            <path d="M18.9845,22.9835 L18.9845,22.9835"/>
            <path d="M18.9764,23.048 L18.9684,23.1125"/>
            <path d="M18.9823,23.0007 L18.9764,23.048"/>
            <path d="M18.9845,22.9835 L18.9823,23.0007"/>
            <path d="M18.7823,24.6009 L18.9684,23.1125"/>
            <path d="M18.7684,24.7126 L18.7662,24.7299"/>
            <path d="M18.7743,24.6654 L18.7684,24.7126"/>
            <path d="M18.7823,24.6009 L18.7743,24.6654"/>
            <path d="M18.7519,24.844 L18.7662,24.7299"/>
            <path d="M18.7662,24.7299 L18.7662,24.7299"/>
            <path d="M59,29.875 L21,25.125"/>
            <path d="M19,24.875 L18.7519,24.844"/>
            <path d="M51.4177,25.7024 L51.4177,25.7024"/>
            <path d="M51.4136,25.7352 L51.4177,25.7024"/>
            <path d="M50.8195,26.6828 L50.9304,25.7957"/>
            <path d="M51.2689,26.8932 L51.273,26.8604"/>
            <path d="M51.2689,26.8932 L51.2689,26.8932"/>
            <path d="M51.4048,25.7568 L51.4136,25.7352"/>
            <path d="M51.3864,25.7711 L51.4048,25.7568"/>
            <path d="M51.3864,25.7711 L51.3864,25.7711"/>
            <path d="M51.4048,25.7568 L51.4048,25.7568"/>
            <path d="M51.3864,25.7711 L51.4048,25.7568"/>
            <path d="M51.3634,25.7743 L51.3864,25.7711"/>
            <path d="M51.3634,25.7743 L51.3634,25.7743"/>
            <path d="M50.945,25.7598 L50.9304,25.7957"/>
            <path d="M50.9756,25.7359 L50.945,25.7598"/>
            <path d="M51.0141,25.7306 L51.0141,25.7306"/>
            <path d="M50.9756,25.7359 L50.945,25.7598"/>
            <path d="M51.0141,25.7306 L50.9756,25.7359"/>
            <path d="M51.0141,25.7306 L51.0141,25.7306"/>
            <path d="M50.8846,26.7665 L50.8846,26.7665"/>
            <path d="M50.8486,26.7519 L50.8486,26.7519"/>
            <path d="M50.8195,26.6828 L50.8248,26.7213"/>
            <path d="M51.2698,26.8374 L51.2698,26.8374"/>
            <path d="M51.273,26.8604 L51.2698,26.8374"/>
            <path d="M51.3634,25.7743 L51.3634,25.7743"/>
            <path d="M51.3864,25.7711 L51.3864,25.7711"/>
            <path d="M51.3634,25.7743 L51.3864,25.7711"/>
            <path d="M51.0141,25.7306 L51.0141,25.7306"/>
            <path d="M50.945,25.7598 L50.945,25.7598"/>
            <path d="M51.0141,25.7306 L50.9756,25.7359"/>
            <path d="M50.7529,26.8287 L51.2689,26.8932"/>
            <path d="M51.2689,26.8932 L51.273,26.8604"/>
            <path d="M51.2698,26.8374 L51.273,26.8604"/>
            <path d="M51.2555,26.819 L51.2698,26.8374"/>
            <path d="M51.2339,26.8102 L51.2555,26.819"/>
            <path d="M51.2339,26.8102 L50.8846,26.7665"/>
            <path d="M50.8248,26.7213 L50.8195,26.6828"/>
            <path d="M50.8486,26.7519 L50.8248,26.7213"/>
            <path d="M50.8846,26.7665 L50.8486,26.7519"/>
            <path d="M50.8195,26.6828 L50.9304,25.7957"/>
            <path d="M50.9756,25.7359 L51.0141,25.7306"/>
            <path d="M50.945,25.7598 L50.9756,25.7359"/>
            <path d="M50.9304,25.7957 L50.945,25.7598"/>
            <path d="M51.0141,25.7306 L51.3634,25.7743"/>
            <path d="M51.3864,25.7711 L51.3634,25.7743"/>
            <path d="M51.4048,25.7568 L51.3864,25.7711"/>
            <path d="M51.4136,25.7352 L51.4048,25.7568"/>
            <path d="M51.4136,25.7352 L51.4177,25.7024"/>
            <path d="M51.4177,25.7024 L50.9017,25.638"/>
            <path d="M50.9017,25.638 L50.7529,26.8287"/>
            <path d="M43.4795,24.7103 L43.4795,24.7103"/>
            <path d="M43.4754,24.743 L43.4795,24.7103"/>
            <path d="M42.8812,25.6907 L42.9921,24.8036"/>
            <path d="M43.3306,25.901 L43.3347,25.8683"/>
            <path d="M43.3306,25.901 L43.3306,25.901"/>
            <path d="M43.4666,24.7646 L43.4754,24.743"/>
            <path d="M43.4482,24.7789 L43.4666,24.7646"/>
            <path d="M43.4482,24.7789 L43.4482,24.7789"/>
            <path d="M43.4666,24.7646 L43.4666,24.7646"/>
            <path d="M43.4482,24.7789 L43.4666,24.7646"/>
            <path d="M43.4251,24.7821 L43.4482,24.7789"/>
            <path d="M43.4251,24.7821 L43.4251,24.7821"/>
            <path d="M43.0067,24.7676 L42.9921,24.8036"/>
            <path d="M43.0374,24.7438 L43.0067,24.7676"/>
            <path d="M43.0758,24.7385 L43.0758,24.7385"/>
            <path d="M43.0374,24.7438 L43.0067,24.7676"/>
            <path d="M43.0758,24.7385 L43.0374,24.7438"/>
            <path d="M43.0758,24.7385 L43.0758,24.7385"/>
            <path d="M42.9464,25.7744 L42.9464,25.7744"/>
            <path d="M42.8866,25.7291 L42.9104,25.7598"/>
            <path d="M42.8812,25.6907 L42.8866,25.7291"/>
            <path d="M43.3172,25.8268 L43.3172,25.8268"/>
            <path d="M43.3315,25.8452 L43.3172,25.8268"/>
            <path d="M43.3347,25.8683 L43.3315,25.8452"/>
            <path d="M43.4251,24.7821 L43.4251,24.7821"/>
            <path d="M43.4482,24.7789 L43.4482,24.7789"/>
            <path d="M43.4251,24.7821 L43.4482,24.7789"/>
            <path d="M43.0758,24.7385 L43.0758,24.7385"/>
            <path d="M43.0067,24.7676 L43.0067,24.7676"/>
            <path d="M43.0758,24.7385 L43.0374,24.7438"/>
            <path d="M42.8146,25.8365 L43.3306,25.901"/>
            <path d="M43.3306,25.901 L43.3347,25.8683"/>
            <path d="M43.3315,25.8452 L43.3347,25.8683"/>
            <path d="M43.3172,25.8268 L43.3315,25.8452"/>
            <path d="M43.2956,25.818 L43.3172,25.8268"/>
            <path d="M43.2956,25.818 L42.9464,25.7744"/>
            <path d="M42.8866,25.7291 L42.8812,25.6907"/>
            <path d="M42.9104,25.7598 L42.8866,25.7291"/>
            <path d="M42.9464,25.7744 L42.9104,25.7598"/>
            <path d="M42.8812,25.6907 L42.9921,24.8036"/>
            <path d="M43.0374,24.7438 L43.0758,24.7385"/>
            <path d="M43.0067,24.7676 L43.0374,24.7438"/>
            <path d="M42.9921,24.8036 L43.0067,24.7676"/>
            <path d="M43.0758,24.7385 L43.4251,24.7821"/>
            <path d="M43.4482,24.7789 L43.4251,24.7821"/>
            <path d="M43.4666,24.7646 L43.4482,24.7789"/>
            <path d="M43.4754,24.743 L43.4666,24.7646"/>
            <path d="M43.4754,24.743 L43.4795,24.7103"/>
            <path d="M43.4795,24.7103 L42.9635,24.6458"/>
            <path d="M42.9635,24.6458 L42.8146,25.8365"/>
            <path d="M35.5283,23.7725 L35.5283,23.7725"/>
            <path d="M35.51,23.7868 L35.51,23.7868"/>
            <path d="M35.4869,23.79 L35.4869,23.79"/>
            <path d="M35.5283,23.7725 L35.5283,23.7725"/>
            <path d="M35.51,23.7868 L35.5283,23.7725"/>
            <path d="M35.4869,23.79 L35.51,23.7868"/>
            <path d="M35.4869,23.79 L35.4869,23.79"/>
            <path d="M35.0685,23.7755 L35.0685,23.7755"/>
            <path d="M35.0992,23.7516 L35.0991,23.7516"/>
            <path d="M35.0991,23.7516 L35.0685,23.7755"/>
            <path d="M35.1376,23.7463 L35.0991,23.7516"/>
            <path d="M35.1376,23.7463 L35.1376,23.7463"/>
            <path d="M35.5412,23.7181 L35.5412,23.7181"/>
            <path d="M35.5371,23.7509 L35.5412,23.7181"/>
            <path d="M34.943,24.6985 L35.0539,23.8114"/>
            <path d="M35.3574,24.8259 L35.3574,24.8259"/>
            <path d="M35.3924,24.9089 L35.3965,24.8761"/>
            <path d="M35.3924,24.9089 L35.3924,24.9089"/>
            <path d="M35.5284,23.7725 L35.5371,23.7509"/>
            <path d="M35.51,23.7868 L35.5284,23.7725"/>
            <path d="M35.51,23.7868 L35.51,23.7868"/>
            <path d="M35.5283,23.7725 L35.5283,23.7725"/>
            <path d="M35.51,23.7868 L35.5283,23.7725"/>
            <path d="M35.4869,23.79 L35.51,23.7868"/>
            <path d="M35.4869,23.79 L35.4869,23.79"/>
            <path d="M35.0685,23.7755 L35.0539,23.8114"/>
            <path d="M35.0992,23.7516 L35.0685,23.7755"/>
            <path d="M35.1376,23.7463 L35.1376,23.7463"/>
            <path d="M35.0991,23.7516 L35.0685,23.7755"/>
            <path d="M35.1376,23.7463 L35.0991,23.7516"/>
            <path d="M35.1376,23.7463 L35.1376,23.7463"/>
            <path d="M34.9722,24.7676 L35.0081,24.7822"/>
            <path d="M34.9483,24.737 L34.9722,24.7676"/>
            <path d="M34.943,24.6985 L34.9483,24.737"/>
            <path d="M35.379,24.8347 L35.3574,24.8259"/>
            <path d="M35.3933,24.8531 L35.379,24.8347"/>
            <path d="M35.3965,24.8761 L35.3933,24.8531"/>
            <path d="M35.4869,23.79 L35.4869,23.79"/>
            <path d="M35.51,23.7868 L35.51,23.7868"/>
            <path d="M35.4869,23.79 L35.51,23.7868"/>
            <path d="M35.1376,23.7463 L35.1376,23.7463"/>
            <path d="M35.0685,23.7755 L35.0685,23.7755"/>
            <path d="M35.1376,23.7463 L35.0991,23.7516"/>
            <path d="M34.8764,24.8444 L35.3924,24.9089"/>
            <path d="M35.3924,24.9089 L35.3965,24.8761"/>
            <path d="M35.3933,24.8531 L35.3965,24.8761"/>
            <path d="M35.379,24.8347 L35.3933,24.8531"/>
            <path d="M35.3574,24.8259 L35.379,24.8347"/>
            <path d="M35.3574,24.8259 L35.0081,24.7822"/>
            <path d="M34.9483,24.737 L34.943,24.6985"/>
            <path d="M34.9722,24.7676 L34.9483,24.737"/>
            <path d="M35.0081,24.7822 L34.9722,24.7676"/>
            <path d="M34.943,24.6985 L35.0539,23.8114"/>
            <path d="M35.0991,23.7516 L35.1376,23.7463"/>
            <path d="M35.0685,23.7755 L35.0991,23.7516"/>
            <path d="M35.0539,23.8114 L35.0685,23.7755"/>
            <path d="M35.1376,23.7463 L35.4869,23.79"/>
            <path d="M35.51,23.7868 L35.4869,23.79"/>
            <path d="M35.5283,23.7725 L35.51,23.7868"/>
            <path d="M35.5371,23.7509 L35.5283,23.7725"/>
            <path d="M35.5371,23.7509 L35.5412,23.7181"/>
            <path d="M35.5412,23.7181 L35.0252,23.6536"/>
            <path d="M35.0252,23.6536 L34.8764,24.8444"/>
            <path d="M27.5901,22.7803 L27.5901,22.7803"/>
            <path d="M27.5717,22.7946 L27.5717,22.7946"/>
            <path d="M27.5487,22.7978 L27.5487,22.7978"/>
            <path d="M27.5901,22.7803 L27.5901,22.7803"/>
            <path d="M27.5717,22.7946 L27.5901,22.7803"/>
            <path d="M27.5486,22.7978 L27.5717,22.7946"/>
            <path d="M27.5486,22.7978 L27.5487,22.7978"/>
            <path d="M27.1303,22.7833 L27.1303,22.7833"/>
            <path d="M27.1609,22.7595 L27.1609,22.7595"/>
            <path d="M27.1609,22.7595 L27.1303,22.7833"/>
            <path d="M27.1994,22.7542 L27.1609,22.7595"/>
            <path d="M27.1994,22.7542 L27.1994,22.7541"/>
            <path d="M27.0339,23.7755 L27.0339,23.7755"/>
            <path d="M27.603,22.726 L27.603,22.726"/>
            <path d="M27.5989,22.7587 L27.603,22.726"/>
            <path d="M27.5486,22.7978 L27.5487,22.7978"/>
            <path d="M27.0048,23.7064 L27.1156,22.8193"/>
            <path d="M27.4192,23.8337 L27.4192,23.8337"/>
            <path d="M27.4542,23.9167 L27.4582,23.884"/>
            <path d="M27.4541,23.9167 L27.4542,23.9167"/>
            <path d="M27.5901,22.7803 L27.5989,22.7587"/>
            <path d="M27.5717,22.7946 L27.5901,22.7803"/>
            <path d="M27.5487,22.7978 L27.5717,22.7946"/>
            <path d="M27.5901,22.7803 L27.5901,22.7803"/>
            <path d="M27.5717,22.7946 L27.5901,22.7803"/>
            <path d="M27.5486,22.7978 L27.5717,22.7946"/>
            <path d="M27.5486,22.7978 L27.5487,22.7978"/>
            <path d="M27.1303,22.7833 L27.1156,22.8193"/>
            <path d="M27.1609,22.7595 L27.1303,22.7833"/>
            <path d="M27.1994,22.7541 L27.1609,22.7595"/>
            <path d="M27.1609,22.7595 L27.1303,22.7833"/>
            <path d="M27.1994,22.7542 L27.1609,22.7595"/>
            <path d="M27.1994,22.7542 L27.1994,22.7541"/>
            <path d="M27.0339,23.7755 L27.0699,23.7901"/>
            <path d="M27.0101,23.7448 L27.0339,23.7755"/>
            <path d="M27.0048,23.7064 L27.0101,23.7448"/>
            <path d="M27.4408,23.8425 L27.4192,23.8337"/>
            <path d="M27.4551,23.8609 L27.4408,23.8425"/>
            <path d="M27.4582,23.884 L27.4551,23.8609"/>
            <path d="M27.5486,22.7978 L27.5486,22.7978"/>
            <path d="M27.5717,22.7946 L27.5717,22.7946"/>
            <path d="M27.5486,22.7978 L27.5717,22.7946"/>
            <path d="M27.1994,22.7541 L27.1994,22.7541"/>
            <path d="M27.1303,22.7833 L27.1303,22.7833"/>
            <path d="M27.1994,22.7541 L27.1609,22.7595"/>
            <path d="M26.9382,23.8522 L27.4541,23.9167"/>
            <path d="M27.4541,23.9167 L27.4582,23.884"/>
            <path d="M27.4551,23.8609 L27.4582,23.884"/>
            <path d="M27.4407,23.8425 L27.4551,23.8609"/>
            <path d="M27.4192,23.8337 L27.4407,23.8425"/>
            <path d="M27.4192,23.8337 L27.0699,23.7901"/>
            <path d="M27.0101,23.7448 L27.0048,23.7064"/>
            <path d="M27.0339,23.7755 L27.0101,23.7448"/>
            <path d="M27.0699,23.7901 L27.0339,23.7755"/>
            <path d="M27.0048,23.7064 L27.1156,22.8193"/>
            <path d="M27.1609,22.7595 L27.1994,22.7541"/>
            <path d="M27.1303,22.7833 L27.1609,22.7595"/>
            <path d="M27.1156,22.8193 L27.1303,22.7833"/>
            <path d="M27.1994,22.7541 L27.5486,22.7978"/>
            <path d="M27.5717,22.7946 L27.5486,22.7978"/>
            <path d="M27.5901,22.7803 L27.5717,22.7946"/>
            <path d="M27.5989,22.7587 L27.5901,22.7803"/>
            <path d="M27.5989,22.7587 L27.603,22.726"/>
            <path d="M27.603,22.726 L27.087,22.6615"/>
            <path d="M27.087,22.6615 L26.9382,23.8522"/>
            <path d="M19.6519,21.7881 L19.6519,21.7881"/>
            <path d="M19.6335,21.8025 L19.6335,21.8025"/>
            <path d="M19.6104,21.8056 L19.6104,21.8056"/>
            <path d="M19.6519,21.7882 L19.6519,21.7882"/>
            <path d="M19.6335,21.8025 L19.6519,21.7882"/>
            <path d="M19.6104,21.8057 L19.6335,21.8025"/>
            <path d="M19.6104,21.8057 L19.6104,21.8056"/>
            <path d="M19.192,21.7911 L19.192,21.7911"/>
            <path d="M19.2227,21.7673 L19.2227,21.7673"/>
            <path d="M19.2227,21.7673 L19.192,21.7912"/>
            <path d="M19.2611,21.762 L19.2227,21.7673"/>
            <path d="M19.2611,21.762 L19.2611,21.762"/>
            <path d="M19.0957,22.7833 L19.0957,22.7833"/>
            <path d="M19.6647,21.7338 L19.6647,21.7338"/>
            <path d="M19.6606,21.7666 L19.6647,21.7338"/>
            <path d="M19.6104,21.8056 L19.6104,21.8056"/>
            <path d="M19.0665,22.7142 L19.1774,21.8271"/>
            <path d="M19.4809,22.8416 L19.4809,22.8416"/>
            <path d="M19.5159,22.9246 L19.52,22.8918"/>
            <path d="M19.5159,22.9246 L19.5159,22.9246"/>
            <path d="M19.6519,21.7881 L19.6606,21.7666"/>
            <path d="M19.6335,21.8025 L19.6519,21.7881"/>
            <path d="M19.6104,21.8056 L19.6335,21.8025"/>
            <path d="M19.6519,21.7882 L19.6519,21.7881"/>
            <path d="M19.6335,21.8025 L19.6519,21.7882"/>
            <path d="M19.6104,21.8057 L19.6335,21.8025"/>
            <path d="M19.6104,21.8057 L19.6104,21.8056"/>
            <path d="M19.192,21.7911 L19.1774,21.8271"/>
            <path d="M19.2227,21.7673 L19.192,21.7911"/>
            <path d="M19.2611,21.762 L19.2227,21.7673"/>
            <path d="M19.2227,21.7673 L19.192,21.7912"/>
            <path d="M19.2611,21.762 L19.2227,21.7673"/>
            <path d="M19.2611,21.762 L19.2611,21.762"/>
            <path d="M19.0957,22.7833 L19.1317,22.7979"/>
            <path d="M19.0719,22.7527 L19.0957,22.7833"/>
            <path d="M19.0665,22.7142 L19.0719,22.7527"/>
            <path d="M19.5025,22.8504 L19.4809,22.8416"/>
            <path d="M19.5168,22.8687 L19.5025,22.8504"/>
            <path d="M19.52,22.8918 L19.5168,22.8687"/>
            <path d="M19.6104,21.8056 L19.6104,21.8056"/>
            <path d="M19.6335,21.8025 L19.6335,21.8025"/>
            <path d="M19.6104,21.8056 L19.6335,21.8025"/>
            <path d="M19.2611,21.762 L19.2611,21.762"/>
            <path d="M19.192,21.7911 L19.192,21.7911"/>
            <path d="M19.2611,21.762 L19.2227,21.7673"/>
            <path d="M18.9999,22.8601 L19.5159,22.9246"/>
            <path d="M19.5159,22.9246 L19.52,22.8918"/>
            <path d="M19.5168,22.8687 L19.52,22.8918"/>
            <path d="M19.5025,22.8504 L19.5168,22.8687"/>
            <path d="M19.4809,22.8416 L19.5025,22.8504"/>
            <path d="M19.4809,22.8416 L19.1316,22.7979"/>
            <path d="M19.0718,22.7527 L19.0665,22.7142"/>
            <path d="M19.0957,22.7833 L19.0718,22.7527"/>
            <path d="M19.1316,22.7979 L19.0957,22.7833"/>
            <path d="M19.0665,22.7142 L19.1774,21.8271"/>
            <path d="M19.2227,21.7673 L19.2611,21.762"/>
            <path d="M19.192,21.7911 L19.2227,21.7673"/>
            <path d="M19.1774,21.8271 L19.192,21.7911"/>
            <path d="M19.2611,21.762 L19.6104,21.8056"/>
            <path d="M19.6335,21.8025 L19.6104,21.8056"/>
            <path d="M19.6519,21.7881 L19.6335,21.8025"/>
            <path d="M19.6606,21.7666 L19.6519,21.7881"/>
            <path d="M19.6606,21.7666 L19.6647,21.7338"/>
            <path d="M19.6647,21.7338 L19.1487,21.6693"/>
            <path d="M19.1487,21.6693 L18.9999,22.8601"/>
            <path d="M61,28.1094 L61,28.1094"/>
            <path d="M60.877,26.9874 L60.877,26.9874"/>
            <path d="M61,28.1094 L61,28.1094"/>
            <path d="M60.486,26.9649 L60.48,26.9424"/>
            <path d="M60.5025,26.9814 L60.486,26.9649"/>
            <path d="M60.525,26.9874 L60.5025,26.9814"/>
            <path d="M60.48,26.9424 L60.48,26.9424"/>
            <path d="M60.525,26.9874 L60.525,26.9874"/>
            <path d="M60.9419,27.0249 L60.952,27.0624"/>
            <path d="M60.9145,26.9975 L60.9419,27.0249"/>
            <path d="M60.877,26.9874 L60.9145,26.9975"/>
            <path d="M60.952,27.0624 L60.952,27.0624"/>
            <path d="M60.877,26.9874 L60.877,26.9874"/>
            <path d="M60.952,27.9564 L60.9419,27.9939"/>
            <path d="M60.952,27.9564 L60.952,27.9564"/>
            <path d="M60.486,28.0539 L60.486,28.0539"/>
            <path d="M60.4857,28.0552 L60.486,28.0539"/>
            <path d="M61,26.9094 L61,28.1094"/>
            <path d="M60.48,26.9094 L61,26.9094"/>
            <path d="M60.48,26.9094 L60.48,26.9094"/>
            <path d="M60.525,28.0314 L60.877,28.0314"/>
            <path d="M61,28.1094 L61,28.1094"/>
            <path d="M60.486,26.9649 L60.48,26.9424"/>
            <path d="M60.5025,26.9814 L60.486,26.9649"/>
            <path d="M60.525,26.9874 L60.5025,26.9814"/>
            <path d="M60.48,26.9424 L60.48,26.9424"/>
            <path d="M60.525,26.9874 L60.525,26.9874"/>
            <path d="M60.9419,27.0249 L60.952,27.0624"/>
            <path d="M60.9145,26.9975 L60.9419,27.0249"/>
            <path d="M60.877,26.9874 L60.9145,26.9975"/>
            <path d="M60.952,27.0624 L60.952,27.0624"/>
            <path d="M60.877,26.9874 L60.877,26.9874"/>
            <path d="M60.952,27.9564 L60.9419,27.9939"/>
            <path d="M60.952,27.9564 L60.952,27.9564"/>
            <path d="M60.486,28.0539 L60.486,28.0539"/>
            <path d="M60.4857,28.0552 L60.486,28.0539"/>
            <path d="M60.525,28.0314 L60.525,28.0314"/>
            <path d="M60.525,26.9874 L60.525,26.9874"/>
            <path d="M60.486,26.9649 L60.48,26.9424"/>
            <path d="M60.5025,26.9814 L60.486,26.9649"/>
            <path d="M60.525,26.9874 L60.5025,26.9814"/>
            <path d="M60.48,26.9424 L60.48,26.9424"/>
            <path d="M60.877,26.9874 L60.877,26.9874"/>
            <path d="M60.9419,27.0249 L60.952,27.0624"/>
            <path d="M60.9145,26.9975 L60.9419,27.0249"/>
            <path d="M60.877,26.9874 L60.9145,26.9975"/>
            <path d="M60.952,27.0624 L60.952,27.0624"/>
            <path d="M60.952,27.9564 L60.952,27.9564"/>
            <path d="M60.9419,27.9939 L60.9145,28.0214"/>
            <path d="M60.952,27.9564 L60.9419,27.9939"/>
            <path d="M60.48,28.0764 L60.48,28.0764"/>
            <path d="M60.5025,28.0375 L60.5025,28.0375"/>
            <path d="M60.486,28.0539 L60.5025,28.0375"/>
            <path d="M60.4857,28.0552 L60.486,28.0539"/>
            <path d="M60.48,28.1094 L61,28.1094"/>
            <path d="M61,28.1094 L61,26.9094"/>
            <path d="M61,26.9094 L60.48,26.9094"/>
            <path d="M60.48,26.9094 L60.48,26.9424"/>
            <path d="M60.5025,26.9814 L60.525,26.9874"/>
            <path d="M60.486,26.9649 L60.5025,26.9814"/>
            <path d="M60.48,26.9424 L60.486,26.9649"/>
            <path d="M60.525,26.9874 L60.877,26.9874"/>
            <path d="M60.9145,26.9975 L60.877,26.9874"/>
            <path d="M60.9419,27.0249 L60.9145,26.9975"/>
            <path d="M60.952,27.0624 L60.9419,27.0249"/>
            <path d="M60.952,27.0624 L60.952,27.9564"/>
            <path d="M60.9419,27.9939 L60.952,27.9564"/>
            <path d="M60.9145,28.0214 L60.9419,27.9939"/>
            <path d="M60.877,28.0314 L60.9145,28.0214"/>
            <path d="M60.877,28.0314 L60.525,28.0314"/>
            <path d="M60.486,28.0539 L60.48,28.0764"/>
            <path d="M60.5025,28.0375 L60.486,28.0539"/>
            <path d="M60.525,28.0314 L60.5025,28.0375"/>
            <path d="M60.48,28.0764 L60.48,28.1094"/>
            <path d="M20.815,80 L20.75,80"/>
            <path d="M20.8626,80 L20.815,80"/>
            <path d="M20.88,80 L20.8626,80"/>
            <path d="M19.25,80 L20.75,80"/>
            <path d="M19.1374,80 L19.12,80"/>
            <path d="M19.185,80 L19.1374,80"/>
            <path d="M19.25,80 L19.185,80"/>
            <path d="M19,80 L19,24.875"/>
            <path d="M19,24.875 L19,24.875"/>
            <path d="M19.12,80 L19.12,80"/>
            <path d="M19,80 L19.12,80"/>
            <path d="M19.185,80 L19.185,80"/>
            <path d="M19.1374,80 L19.1374,80"/>
            <path d="M19.12,80 L19.12,80"/>
            <path d="M20.8626,80 L20.8626,80"/>
            <path d="M20.815,80 L20.815,80"/>
            <path d="M20.75,80 L20.75,80"/>
            <path d="M20.88,80 L20.88,80"/>
            <path d="M21,80 L21,80"/>
            <path d="M20.88,80 L21,80"/>
            <path d="M60.815,80 L60.75,80"/>
            <path d="M60.8626,80 L60.815,80"/>
            <path d="M60.88,80 L60.8626,80"/>
            <path d="M59.25,80 L60.75,80"/>
            <path d="M59.1374,80 L59.12,80"/>
            <path d="M59.185,80 L59.1374,80"/>
            <path d="M59.25,80 L59.185,80"/>
            <path d="M59,80 L59,29.875"/>
            <path d="M59,29.875 L59,29.875"/>
            <path d="M59.12,80 L59.12,80"/>
            <path d="M59,80 L59.12,80"/>
            <path d="M59.185,80 L59.185,80"/>
            <path d="M59.1374,80 L59.1374,80"/>
            <path d="M59.12,80 L59.12,80"/>
            <path d="M60.8626,80 L60.8626,80"/>
            <path d="M60.815,80 L60.815,80"/>
            <path d="M60.75,80 L60.75,80"/>
            <path d="M60.88,80 L60.88,80"/>
            <path d="M61,80 L61,80"/>
            <path d="M60.88,80 L61,80"/>
            <path d="M60.815,80 L60.75,80"/>
            <path d="M60.8626,80 L60.815,80"/>
            <path d="M60.88,80 L60.8626,80"/>
            <path d="M59.25,80 L60.75,80"/>
            <path d="M59.1374,80 L59.12,80"/>
            <path d="M59.185,80 L59.1374,80"/>
            <path d="M59.25,80 L59.185,80"/>
            <path d="M59,80 L59,29.875"/>
            <path d="M59,29.875 L59,29.875"/>
            <path d="M59.12,80 L59.12,80"/>
            <path d="M59,80 L59.12,80"/>
            <path d="M59.185,80 L59.185,80"/>
            <path d="M59.1374,80 L59.1374,80"/>
            <path d="M59.12,80 L59.12,80"/>
            <path d="M60.8626,80 L60.8626,80"/>
            <path d="M60.815,80 L60.815,80"/>
            <path d="M60.75,80 L60.75,80"/>
            <path d="M60.88,80 L60.88,80"/>
            <path d="M60.88,30.11 L60.88,30.11"/>
            <path d="M61,80 L61,80"/>
            <path d="M60.88,80 L61,80"/>
            <path d="M20.815,80 L20.75,80"/>
            <path d="M20.8626,80 L20.815,80"/>
            <path d="M20.88,80 L20.8626,80"/>
            <path d="M19.25,80 L20.75,80"/>
            <path d="M19.1374,80 L19.12,80"/>
            <path d="M19.185,80 L19.1374,80"/>
            <path d="M19.25,80 L19.185,80"/>
            <path d="M19,80 L19,24.875"/>
            <path d="M19,24.875 L19,24.875"/>
            <path d="M19.12,80 L19.12,80"/>
            <path d="M19,80 L19.12,80"/>
            <path d="M19.185,80 L19.185,80"/>
            <path d="M19.1374,80 L19.1374,80"/>
            <path d="M19.12,80 L19.12,80"/>
            <path d="M20.8626,80 L20.8626,80"/>
            <path d="M20.815,80 L20.815,80"/>
            <path d="M20.75,80 L20.75,80"/>
            <path d="M20.88,80 L20.88,80"/>
            <path d="M20.88,25.11 L20.88,25.11"/>
            <path d="M21,80 L21,80"/>
            <path d="M20.88,80 L21,80"/>
            <path d="M20.815,80 L20.75,80"/>
            <path d="M20.8626,80 L20.815,80"/>
            <path d="M20.88,80 L20.8626,80"/>
            <path d="M19.25,80 L20.75,80"/>
            <path d="M19.1374,80 L19.12,80"/>
            <path d="M19.185,80 L19.1374,80"/>
            <path d="M19.25,80 L19.185,80"/>
            <path d="M19,80 L19,24.875"/>
            <path d="M19,24.875 L19.12,24.89"/>
            <path d="M19.12,80 L19.12,24.89"/>
            <path d="M19,80 L19.12,80"/>
            <path d="M19.185,80 L19.185,80"/>
            <path d="M19.1374,80 L19.1374,80"/>
            <path d="M19.12,80 L19.12,80"/>
            <path d="M20.8626,80 L20.8626,80"/>
            <path d="M20.815,80 L20.815,80"/>
            <path d="M20.75,80 L20.75,80"/>
            <path d="M20.88,80 L20.88,25.11"/>
            <path d="M20.88,25.11 L21,25.125"/>
            <path d="M21,80 L21,25.125"/>
            <path d="M20.88,80 L21,80"/>
            <path d="M60.815,80 L60.75,80"/>
            <path d="M60.8626,80 L60.815,80"/>
            <path d="M60.88,80 L60.8626,80"/>
            <path d="M59.25,80 L60.75,80"/>
            <path d="M59.1374,80 L59.12,80"/>
            <path d="M59.185,80 L59.1374,80"/>
            <path d="M59.25,80 L59.185,80"/>
            <path d="M59,80 L59,29.875"/>
            <path d="M59,29.875 L59.12,29.89"/>
            <path d="M59.12,80 L59.12,29.89"/>
            <path d="M59,80 L59.12,80"/>
            <path d="M59.185,80 L59.185,80"/>
            <path d="M59.1374,80 L59.1374,80"/>
            <path d="M59.12,80 L59.12,80"/>
            <path d="M60.8626,80 L60.8626,80"/>
            <path d="M60.815,80 L60.815,80"/>
            <path d="M60.75,80 L60.75,80"/>
            <path d="M60.88,80 L60.88,30.11"/>
            <path d="M60.88,30.11 L61,30.125"/>
            <path d="M61,80 L61,30.125"/>
            <path d="M60.88,80 L61,80"/>
        </g>
    <g id="product-83e9474c-1eec-4e47-a8e8-67e7b1f52802-body" class="IfcBeam material-U12PS2454 cut" ifc:name="Beam B-2" ifc:guid="23wKTC7knEHwZeP_UnzIW2">
            <path d="M60.5,28.1 L61.0,28.1 L61.0,28.0 L60.9,28.0 L60.5,28.0 Z"/><path d="M61.0,28.0 L61.0,26.9 L60.5,26.9 L60.5,27.0 L60.9,27.0 Z"/></g>
        <g id="product-39097eba-d67e-4a2c-819c-ff4dbfacd797-body" class="IfcBeam material-U12PS2454 cut" ifc:name="Beam B-2" ifc:guid="0v2NwwrdvAB86S$qs$hDUN">
            <path d="M18.9999,22.8601 L19.5159,22.9246 L19.52,22.8918 L19.5109,22.8586 L19.52,22.8918 L19.1316,22.7979 L19.0817,22.7696 L19.0665,22.7142 L19.1774,21.8271 L19.2058,21.7772 L19.2611,21.762 L19.6104,21.8056 L19.6436,21.7965 L19.6104,21.8056 L19.6647,21.7338 L19.1487,21.6693 L18.9999,22.8601"/>
        </g>
        <g id="product-4625b47e-7cd7-406b-8d72-17d668aa6468-body" class="IfcBeam material-U12PS2454 cut" ifc:name="Beam B-2" ifc:guid="169RH_VDT0Quro5zPegcHe">
            <path d="M26.9,23.9 L27.4,23.9 L27.5,23.9 L27.1,23.8 L27.0,23.8 L27.0,23.7 L27.1,22.8 L27.2,22.8 L27.5,22.8 L27.6,22.7 L27.1,22.7 Z"/><path d="M27.5,22.8 L27.6,22.8 Z"/></g>
        <g id="product-45a14ecf-ffc2-4dc5-8577-237a14685bb2-body" class="IfcBeam material-U12PS2454 cut" ifc:name="Beam B-2" ifc:guid="15eKxF$y9DnOLt8teKQ5ko">
            <path d="M34.9,24.8 L35.4,24.9 L35.0,24.8 L34.90833333333333,24.708333333333332 Z"/><path d="M34.91538461538462,24.63076923076923 L34.9,24.7 L34.90833333333333,24.708333333333332 Z"/><path d="M34.91538461538462,24.63076923076923 L35.1,23.8 L35.1,23.7 L35.0,23.7 Z"/><path d="M35.1,23.7 L35.5,23.8 L35.5,23.7 Z"/><path d="M35.4,24.9 L35.4,24.8 Z"/></g>
        <g id="product-99bcfd9e-a5f9-4936-9c4e-dd274cc99321-body" class="IfcBeam material-U12PS2454 cut" ifc:name="Beam B-2" ifc:guid="2PlFsUfVb9DfnEtITCoPCX">
            <path d="M42.8,25.8 L43.3,25.9 L42.9,25.8 L42.9,25.7 L43.0,24.8 L43.1,24.7 L43.4,24.8 L43.5,24.7 L43.0,24.6 Z"/><path d="M43.4,24.8 L43.5,24.8 Z"/><path d="M43.3,25.9 L43.3,25.8 Z"/></g>
        <g id="product-eb92518d-e428-4b9b-ad46-eb53f6aebba0-body" class="IfcBeam material-U12PS2454 cut" ifc:name="Beam B-2" ifc:guid="3hab6Dv2XBcwr6wrFshhkW">
            <path d="M50.8,26.8 L51.3,26.9 L50.9,26.8 L50.80769230769231,26.70769230769231 Z"/><path d="M50.83333333333333,26.399999999999995 L50.8,26.7 L50.80769230769231,26.70769230769231 Z"/><path d="M50.83333333333333,26.399999999999995 L50.9,25.8 L51.0,25.7 L51.4,25.8 L51.4,25.7 L50.9,25.6 Z"/><path d="M51.3,26.9 L51.3,26.8 Z"/></g>
        </g>
</svg>