<svg xmlns="http://www.w3.org/2000/svg" xmlns:xlink="http://www.w3.org/1999/xlink" xmlns:ifc="http://www.ifcopenshell.org/ns" width="200mm" height="200mm" viewBox="0 0 200 200">
    <defs>
        <marker id="arrowend" markerWidth="10" markerHeight="7" refX="10" refY="3.5" orient="auto">
          <polygon points="0 0, 10 3.5, 0 7"/>
        </marker>
        <marker id="arrowstart" markerWidth="10" markerHeight="7" refX="0" refY="3.5" orient="auto">
          <polygon points="10 0, 0 3.5, 10 7"/>
        </marker>
    </defs>
    <g ifc:name="Elevation GROUND FLOOR PLAN" class="section" ifc:plane="[[1.000000,0.000000,0.000000,0.000000],[0.000000,1.000000,0.000000,0.000000],[0.000000,0.000000,1.000000,1.600000],[0.000000,0.000000,0.000000,1.000000]]" ifc:matrix3="[[10.000000,0.000000,50.000000],[0.000000,10.000000,109.999999],[0.000000,0.000000,1.000000]]">
        <g class="projection">
            <path d="M139,71 L141,71"/>
            <path d="M141,71 L141,70.88"/>
            <path d="M141,70.88 L140.17,70.88"/>
            <path d="M140.057,70.815 L140.04,70.75"/>
            <path d="M140.105,70.8626 L140.057,70.815"/>
            <path d="M140.17,70.88 L140.105,70.8626"/>
            <path d="M140.04,70.75 L140.04,69.25"/>
            <path d="M140.105,69.1374 L140.17,69.12"/>
            <path d="M140.057,69.185 L140.105,69.1374"/>
            <path d="M140.04,69.25 L140.057,69.185"/>
            <path d="M140.17,69.12 L141,69.12"/>
            <path d="M141,69.12 L141,69"/>
            <path d="M141,69 L139,69"/>
            <path d="M139,69 L139,69.12"/>
            <path d="M139,69.12 L139.83,69.12"/>
            <path d="M139.943,69.185 L139.96,69.25"/>
            <path d="M139.895,69.1374 L139.943,69.185"/>
            <path d="M139.83,69.12 L139.895,69.1374"/>
            <path d="M139.96,69.25 L139.96,70.75"/>
            <path d="M139.895,70.8626 L139.83,70.88"/>
            <path d="M139.943,70.815 L139.895,70.8626"/>
            <path d="M139.96,70.75 L139.943,70.815"/>
            <path d="M139.83,70.88 L139,70.88"/>
            <path d="M139,70.88 L139,71"/>
            <path d="M139,111 L141,111"/>
            <path d="M141,111 L141,110.88"/>
            <path d="M141,110.88 L140.17,110.88"/>
            <path d="M140.057,110.815 L140.04,110.75"/>
            <path d="M140.105,110.863 L140.057,110.815"/>
            <path d="M140.17,110.88 L140.105,110.863"/>
            <path d="M140.04,110.75 L140.04,109.25"/>
            <path d="M140.105,109.137 L140.17,109.12"/>
            <path d="M140.057,109.185 L140.105,109.137"/>
            <path d="M140.04,109.25 L140.057,109.185"/>
            <path d="M140.17,109.12 L141,109.12"/>
            <path d="M141,109.12 L141,109"/>
            <path d="M141,109 L139,109"/>
            <path d="M139,109 L139,109.12"/>
            <path d="M139,109.12 L139.83,109.12"/>
            <path d="M139.943,109.185 L139.96,109.25"/>
            <path d="M139.895,109.137 L139.943,109.185"/>
            <path d="M139.83,109.12 L139.895,109.137"/>
            <path d="M139.96,109.25 L139.96,110.75"/>
            <path d="M139.895,110.863 L139.83,110.88"/>
            <path d="M139.943,110.815 L139.895,110.863"/>
            <path d="M139.96,110.75 L139.943,110.815"/>
            <path d="M139.83,110.88 L139,110.88"/>
            <path d="M139,110.88 L139,111"/>
            <path d="M109,71 L111,71"/>
            <path d="M111,71 L111,70.88"/>
            <path d="M111,70.88 L110.17,70.88"/>
            <path d="M110.057,70.815 L110.04,70.75"/>
            <path d="M110.105,70.8626 L110.057,70.815"/>
            <path d="M110.17,70.88 L110.105,70.8626"/>
            <path d="M110.04,70.75 L110.04,69.25"/>
            <path d="M110.105,69.1374 L110.17,69.12"/>
            <path d="M110.057,69.185 L110.105,69.1374"/>
            <path d="M110.04,69.25 L110.057,69.185"/>
            <path d="M110.17,69.12 L111,69.12"/>
            <path d="M111,69.12 L111,69"/>
            <path d="M111,69 L109,69"/>
            <path d="M109,69 L109,69.12"/>
            <path d="M109,69.12 L109.83,69.12"/>
            <path d="M109.943,69.185 L109.96,69.25"/>
            <path d="M109.895,69.1374 L109.943,69.185"/>
            <path d="M109.83,69.12 L109.895,69.1374"/>
            <path d="M109.96,69.25 L109.96,70.75"/>
            <path d="M109.895,70.8626 L109.83,70.88"/>
            <path d="M109.943,70.815 L109.895,70.8626"/>
            <path d="M109.96,70.75 L109.943,70.815"/>
            <path d="M109.83,70.88 L109,70.88"/>
            <path d="M109,70.88 L109,71"/>
            <path d="M109,111 L111,111"/>
            <path d="M111,111 L111,110.88"/>
            <path d="M111,110.88 L110.17,110.88"/>
            <path d="M110.057,110.815 L110.04,110.75"/>
            <path d="M110.105,110.863 L110.057,110.815"/>
            <path d="M110.17,110.88 L110.105,110.863"/>
            <path d="M110.04,110.75 L110.04,109.25"/>
            <path d="M110.105,109.137 L110.17,109.12"/>
            <path d="M110.057,109.185 L110.105,109.137"/>
            <path d="M110.04,109.25 L110.057,109.185"/>
            <path d="M110.17,109.12 L111,109.12"/>
            <path d="M111,109.12 L111,109"/>
            <path d="M111,109 L109,109"/>
            <path d="M109,109 L109,109.12"/>
            <path d="M109,109.12 L109.83,109.12"/>
            <path d="M109.943,109.185 L109.96,109.25"/>
            <path d="M109.895,109.137 L109.943,109.185"/>
            <path d="M109.83,109.12 L109.895,109.137"/>
            <path d="M109.96,109.25 L109.96,110.75"/>
            <path d="M109.895,110.863 L109.83,110.88"/>
            <path d="M109.943,110.815 L109.895,110.863"/>
            <path d="M109.96,110.75 L109.943,110.815"/>
            <path d="M109.83,110.88 L109,110.88"/>
            <path d="M109,110.88 L109,111"/>
            <path d="M79,71 L81,71"/>
            <path d="M81,71 L81,70.88"/>
            <path d="M81,70.88 L80.17,70.88"/>
            <path d="M80.0574,70.815 L80.04,70.75"/>
            <path d="M80.105,70.8626 L80.0574,70.815"/>
            <path d="M80.17,70.88 L80.105,70.8626"/>
            <path d="M80.04,70.75 L80.04,69.25"/>
            <path d="M80.105,69.1374 L80.17,69.12"/>
            <path d="M80.0574,69.185 L80.105,69.1374"/>
            <path d="M80.04,69.25 L80.0574,69.185"/>
            <path d="M80.17,69.12 L81,69.12"/>
            <path d="M81,69.12 L81,69"/>
            <path d="M81,69 L79,69"/>
            <path d="M79,69 L79,69.12"/>
            <path d="M79,69.12 L79.83,69.12"/>
            <path d="M79.9426,69.185 L79.96,69.25"/>
            <path d="M79.895,69.1374 L79.9426,69.185"/>
            <path d="M79.83,69.12 L79.895,69.1374"/>
            <path d="M79.96,69.25 L79.96,70.75"/>
            <path d="M79.895,70.8626 L79.83,70.88"/>
            <path d="M79.9426,70.815 L79.895,70.8626"/>
            <path d="M79.96,70.75 L79.9426,70.815"/>
            <path d="M79.83,70.88 L79,70.88"/>
            <path d="M79,70.88 L79,71"/>
            <path d="M79,111 L81,111"/>
            <path d="M81,111 L81,110.88"/>
            <path d="M81,110.88 L80.17,110.88"/>
            <path d="M80.0574,110.815 L80.04,110.75"/>
            <path d="M80.105,110.863 L80.0574,110.815"/>
            <path d="M80.17,110.88 L80.105,110.863"/>
            <path d="M80.04,110.75 L80.04,109.25"/>
            <path d="M80.105,109.137 L80.17,109.12"/>
            <path d="M80.0574,109.185 L80.105,109.137"/>
            <path d="M80.04,109.25 L80.0574,109.185"/>
            <path d="M80.17,109.12 L81,109.12"/>
            <path d="M81,109.12 L81,109"/>
            <path d="M81,109 L79,109"/>
            <path d="M79,109 L79,109.12"/>
            <path d="M79,109.12 L79.83,109.12"/>
            <path d="M79.9426,109.185 L79.96,109.25"/>
            <path d="M79.895,109.137 L79.9426,109.185"/>
            <path d="M79.83,109.12 L79.895,109.137"/>
            <path d="M79.96,109.25 L79.96,110.75"/>
            <path d="M79.895,110.863 L79.83,110.88"/>
            <path d="M79.9426,110.815 L79.895,110.863"/>
            <path d="M79.96,110.75 L79.9426,110.815"/>
            <path d="M79.83,110.88 L79,110.88"/>
            <path d="M79,110.88 L79,111"/>
            <path d="M49,71 L51,71"/>
            <path d="M51,71 L51,70.88"/>
            <path d="M51,70.88 L50.17,70.88"/>
            <path d="M50.0574,70.815 L50.04,70.75"/>
            <path d="M50.105,70.8626 L50.0574,70.815"/>
            <path d="M50.17,70.88 L50.105,70.8626"/>
            <path d="M50.04,70.75 L50.04,69.25"/>
            <path d="M50.105,69.1374 L50.17,69.12"/>
            <path d="M50.0574,69.185 L50.105,69.1374"/>
            <path d="M50.04,69.25 L50.0574,69.185"/>
            <path d="M50.17,69.12 L51,69.12"/>
            <path d="M51,69.12 L51,69"/>
            <path d="M51,69 L49,69"/>
            <path d="M49,69 L49,69.12"/>
            <path d="M49,69.12 L49.83,69.12"/>
            <path d="M49.9426,69.185 L49.96,69.25"/>
            <path d="M49.895,69.1374 L49.9426,69.185"/>
            <path d="M49.83,69.12 L49.895,69.1374"/>
            <path d="M49.96,69.25 L49.96,70.75"/>
            <path d="M49.895,70.8626 L49.83,70.88"/>
            <path d="M49.9426,70.815 L49.895,70.8626"/>
            <path d="M49.96,70.75 L49.9426,70.815"/>
            <path d="M49.83,70.88 L49,70.88"/>
            <path d="M49,70.88 L49,71"/>
            <path d="M49,111 L51,111"/>
            <path d="M51,111 L51,110.88"/>
            <path d="M51,110.88 L50.17,110.88"/>
            <path d="M50.0574,110.815 L50.04,110.75"/>
            <path d="M50.105,110.863 L50.0574,110.815"/>
            <path d="M50.17,110.88 L50.105,110.863"/>
            <path d="M50.04,110.75 L50.04,109.25"/>
            <path d="M50.105,109.137 L50.17,109.12"/>
            <path d="M50.0574,109.185 L50.105,109.137"/>
            <path d="M50.04,109.25 L50.0574,109.185"/>
            <path d="M50.17,109.12 L51,109.12"/>
            <path d="M51,109.12 L51,109"/>
            <path d="M51,109 L49,109"/>
            <path d="M49,109 L49,109.12"/>
            <path d="M49,109.12 L49.83,109.12"/>
            <path d="M49.9426,109.185 L49.96,109.25"/>
            <path d="M49.895,109.137 L49.9426,109.185"/>
            <path d="M49.83,109.12 L49.895,109.137"/>
            <path d="M49.96,109.25 L49.96,110.75"/>
            <path d="M49.895,110.863 L49.83,110.88"/>
            <path d="M49.9426,110.815 L49.895,110.863"/>
            <path d="M49.96,110.75 L49.9426,110.815"/>
            <path d="M49.83,110.88 L49,110.88"/>
            <path d="M49,110.88 L49,111"/>
        </g>
    <g id="product-5bcfa5b2-0cc8-4deb-aafa-65a952da1c07-body" class="IfcColumn material-I20K2S3455 cut" ifc:name="Column" ifc:guid="1RpwMo3CXDwwhwPQbIsXm7">
            <path d="M49.0,111.0 L51.0,111.0 L51.0,110.9 L50.2,110.9 L50.1,110.8 L50.0,110.8 L49.9,110.8 L49.8,110.9 L49.0,110.9 Z"/><path d="M50.0,109.2 L50.1,109.2 L50.2,109.1 L51.0,109.1 L51.0,109.0 L49.0,109.0 L49.0,109.1 L49.8,109.1 L49.9,109.2 Z"/><path d="M50.0,110.8 L50.0,109.2 Z"/></g>
        <g id="product-dac62e38-1a4f-47e6-81be-9678c6b6ac5f-body" class="IfcColumn material-I20K2S3455 cut" ifc:name="Column" ifc:guid="3QnYuu6az7ve6_bdZ6jgnV">
            <path d="M49.0,71.0 L51.0,71.0 L51.0,70.9 L50.2,70.9 L50.1,70.8 L50.0,70.8 L49.9,70.8 L49.8,70.9 L49.0,70.9 Z"/><path d="M50.0,69.2 L50.1,69.2 L50.2,69.1 L51.0,69.1 L51.0,69.0 L49.0,69.0 L49.0,69.1 L49.8,69.1 L49.9,69.2 Z"/><path d="M50.0,70.8 L50.0,69.2 Z"/></g>
        <g id="product-1768c5a9-f266-4574-b451-7d1f0246d66a-body" class="IfcColumn material-I20K2S3455 cut" ifc:name="Column" ifc:guid="0NQCMfycP5TBHHVHy2HjPg">
            <path d="M79.0,111.0 L81.0,111.0 L81.0,110.9 L80.2,110.9 L80.1,110.8 L80.0,110.8 L79.9,110.8 L79.8,110.9 L79.0,110.9 Z"/><path d="M80.0,109.2 L80.1,109.2 L80.2,109.1 L81.0,109.1 L81.0,109.0 L79.0,109.0 L79.0,109.1 L79.8,109.1 L79.9,109.2 Z"/><path d="M80.0,110.8 L80.0,109.2 Z"/></g>
        <g id="product-7421ff7a-4f3d-4ffe-9d87-8ac81676cc98-body" class="IfcColumn material-I20K2S3455 cut" ifc:name="Column" ifc:guid="1q8VzwJprF$fs7YiWMTioO">
            <path d="M79.0,71.0 L81.0,71.0 L81.0,70.9 L80.2,70.9 L80.1,70.8 L80.0,70.8 L79.9,70.8 L79.8,70.9 L79.0,70.9 Z"/><path d="M80.0,69.2 L80.1,69.2 L80.2,69.1 L81.0,69.1 L81.0,69.0 L79.0,69.0 L79.0,69.1 L79.8,69.1 L79.9,69.2 Z"/><path d="M80.0,70.8 L80.0,69.2 Z"/></g>
        <g id="product-228c6da7-b11b-4bec-8e71-e72bb9b5f3ab-body" class="IfcColumn material-I20K2S3455 cut" ifc:name="Column" ifc:guid="0YZ6sdiHjBx8vnvokvjVEh">
            <path d="M109.0,111.0 L111.0,111.0 L111.0,110.9 L110.2,110.9 L110.1,110.8 L110.0,110.8 L109.9,110.8 L109.8,110.9 L109.0,110.9 Z"/><path d="M110.0,109.2 L110.1,109.2 L110.2,109.1 L111.0,109.1 L111.0,109.0 L109.0,109.0 L109.0,109.1 L109.8,109.1 L109.9,109.2 Z"/><path d="M110.0,110.8 L110.0,109.2 Z"/></g>
        <g id="product-e6262c28-6548-4da1-abc3-738f15077281-body" class="IfcColumn material-I20K2S3455 cut" ifc:name="Column" ifc:guid="3c9YmePKXDeQl3SuyL1tA1">
            <path d="M109.0,71.0 L111.0,71.0 L111.0,70.9 L110.2,70.9 L110.1,70.8 L110.0,70.8 L109.9,70.8 L109.8,70.9 L109.0,70.9 Z"/><path d="M110.0,69.2 L110.1,69.2 L110.2,69.1 L111.0,69.1 L111.0,69.0 L109.0,69.0 L109.0,69.1 L109.8,69.1 L109.9,69.2 Z"/><path d="M110.0,70.8 L110.0,69.2 Z"/></g>
        <g id="product-973356d0-17b6-46a4-81b6-fd5acb2bd1c8-body" class="IfcColumn material-I20K2S3455 cut" ifc:name="Column" ifc:guid="2NCrRG5xP6f86s$LhBAz78">
            <path d="M139.0,111.0 L141.0,111.0 L141.0,110.9 L140.2,110.9 L140.1,110.8 L140.0,110.8 L139.9,110.8 L139.8,110.9 L139.0,110.9 Z"/><path d="M140.0,109.2 L140.1,109.2 L140.2,109.1 L141.0,109.1 L141.0,109.0 L139.0,109.0 L139.0,109.1 L139.8,109.1 L139.9,109.2 Z"/><path d="M140.0,110.8 L140.0,109.2 Z"/></g>
        <g id="product-22f2c36d-52a3-4a09-919f-be8b8a39b0c2-body" class="IfcColumn material-I20K2S3455 cut" ifc:name="Column" ifc:guid="0YyiDjKgDA2P6VlekAER32">
            <path d="M139.0,71.0 L141.0,71.0 L141.0,70.9 L140.2,70.9 L140.1,70.8 L140.0,70.8 L139.9,70.8 L139.8,70.9 L139.0,70.9 Z"/><path d="M140.0,69.2 L140.1,69.2 L140.2,69.1 L141.0,69.1 L141.0,69.0 L139.0,69.0 L139.0,69.1 L139.8,69.1 L139.9,69.2 Z"/><path d="M140.0,70.8 L140.0,69.2 Z"/></g>
        </g>
</svg>