<svg xmlns="http://www.w3.org/2000/svg" xmlns:xlink="http://www.w3.org/1999/xlink" xmlns:ifc="http://www.ifcopenshell.org/ns" width="500mm" height="500mm" viewBox="0 0 500 500">
    <defs>
        <marker id="arrowend" markerWidth="10" markerHeight="7" refX="10" refY="3.5" orient="auto">
          <polygon points="0 0, 10 3.5, 0 7"/>
        </marker>
        <marker id="arrowstart" markerWidth="10" markerHeight="7" refX="0" refY="3.5" orient="auto">
          <polygon points="10 0, 0 3.5, 10 7"/>
        </marker>
    </defs>
    <g ifc:name="Elevation PLAN_VIEW" class="section" ifc:plane="[[1.000000,0.000000,0.000000,0.000000],[0.000000,1.000000,0.000000,0.000000],[0.000000,0.000000,1.000000,4.000000],[0.000000,0.000000,0.000000,1.000000]]" ifc:matrix3="[[10.000000,0.000000,249.999995],[0.000000,10.000000,249.999995],[0.000000,0.000000,1.000000]]">
        <g class="projection">
            <path d="M279,249.18 L279,249.12"/>
            <path d="M279.83,249.18 L279.83,249.12"/>
            <path d="M279.83,249.12 L279.83,249.12"/>
            <path d="M279.83,249.18 L279,249.18"/>
            <path d="M280.17,249.18 L280.17,249.12"/>
            <path d="M281,249.18 L281,249.12"/>
            <path d="M280.17,249.12 L280.17,249.12"/>
            <path d="M281,249.18 L280.17,249.18"/>
            <path d="M249,249.18 L249,249.12"/>
            <path d="M249.83,249.18 L249.83,249.12"/>
            <path d="M249.83,249.12 L249.83,249.12"/>
            <path d="M249.83,249.18 L249,249.18"/>
            <path d="M250.17,249.18 L250.17,249.12"/>
            <path d="M251,249.18 L251,249.12"/>
            <path d="M250.17,249.12 L250.17,249.12"/>
            <path d="M251,249.18 L250.17,249.18"/>
            <path d="M281,248.94 L281,249"/>
            <path d="M279,248.94 L279,249"/>
            <path d="M281,249 L281,249"/>
            <path d="M279,248.94 L281,248.94"/>
            <path d="M279,251.06 L279,251"/>
            <path d="M281,251.06 L281,251"/>
            <path d="M279,251 L279,251"/>
            <path d="M281,251.06 L279,251.06"/>
            <path d="M251,248.94 L251,249"/>
            <path d="M249,248.94 L249,249"/>
            <path d="M251,249 L251,249"/>
            <path d="M249,248.94 L251,248.94"/>
            <path d="M249,251.06 L249,251"/>
            <path d="M251,251.06 L251,251"/>
            <path d="M249,251 L249,251"/>
            <path d="M251,251.06 L249,251.06"/>
            <path d="M280.1,250.75 L280.04,250.75"/>
            <path d="M280.1,249.25 L280.04,249.25"/>
            <path d="M280.04,250.75 L280.04,250.75"/>
            <path d="M280.1,249.25 L280.1,249.6"/>
            <path d="M280.1,250.4 L280.1,250.75"/>
            <path d="M250.1,250.75 L250.04,250.75"/>
            <path d="M250.1,249.25 L250.04,249.25"/>
            <path d="M250.1,249.25 L250.1,250.75"/>
            <path d="M279.9,249.25 L279.96,249.25"/>
            <path d="M279.9,250.75 L279.96,250.75"/>
            <path d="M279.96,250.75 L279.96,250.75"/>
            <path d="M279.9,250.75 L279.9,250.4"/>
            <path d="M279.9,249.6 L279.9,249.25"/>
            <path d="M249.9,249.25 L249.96,249.25"/>
            <path d="M249.9,250.75 L249.96,250.75"/>
            <path d="M249.9,250.75 L249.9,249.25"/>
            <path d="M339,211 L341,211"/>
            <path d="M341,211 L341,210.88"/>
            <path d="M341,210.88 L340.17,210.88"/>
            <path d="M340.057,210.815 L340.04,210.75"/>
            <path d="M340.105,210.863 L340.057,210.815"/>
            <path d="M340.17,210.88 L340.105,210.863"/>
            <path d="M340.04,210.75 L340.04,209.25"/>
            <path d="M340.105,209.137 L340.17,209.12"/>
            <path d="M340.057,209.185 L340.105,209.137"/>
            <path d="M340.04,209.25 L340.057,209.185"/>
            <path d="M340.17,209.12 L341,209.12"/>
            <path d="M341,209.12 L341,209"/>
            <path d="M341,209 L339,209"/>
            <path d="M339,209 L339,209.12"/>
            <path d="M339,209.12 L339.83,209.12"/>
            <path d="M339.943,209.185 L339.96,209.25"/>
            <path d="M339.895,209.137 L339.943,209.185"/>
            <path d="M339.83,209.12 L339.895,209.137"/>
            <path d="M339.96,209.25 L339.96,210.75"/>
            <path d="M339.895,210.863 L339.83,210.88"/>
            <path d="M339.943,210.815 L339.895,210.863"/>
            <path d="M339.96,210.75 L339.943,210.815"/>
            <path d="M339.83,210.88 L339,210.88"/>
            <path d="M339,210.88 L339,211"/>
            <path d="M309,211 L311,211"/>
            <path d="M311,211 L311,210.88"/>
            <path d="M311,210.88 L310.17,210.88"/>
            <path d="M310.057,210.815 L310.04,210.75"/>
            <path d="M310.105,210.863 L310.057,210.815"/>
            <path d="M310.17,210.88 L310.105,210.863"/>
            <path d="M310.04,210.75 L310.04,209.25"/>
            <path d="M310.105,209.137 L310.17,209.12"/>
            <path d="M310.057,209.185 L310.105,209.137"/>
            <path d="M310.04,209.25 L310.057,209.185"/>
            <path d="M310.17,209.12 L311,209.12"/>
            <path d="M311,209.12 L311,209"/>
            <path d="M311,209 L309,209"/>
            <path d="M309,209 L309,209.12"/>
            <path d="M309,209.12 L309.83,209.12"/>
            <path d="M309.943,209.185 L309.96,209.25"/>
            <path d="M309.895,209.137 L309.943,209.185"/>
            <path d="M309.83,209.12 L309.895,209.137"/>
            <path d="M309.96,209.25 L309.96,210.75"/>
            <path d="M309.895,210.863 L309.83,210.88"/>
            <path d="M309.943,210.815 L309.895,210.863"/>
            <path d="M309.96,210.75 L309.943,210.815"/>
            <path d="M309.83,210.88 L309,210.88"/>
            <path d="M309,210.88 L309,211"/>
            <path d="M279,211 L281,211"/>
            <path d="M281,211 L281,210.88"/>
            <path d="M281,210.88 L280.17,210.88"/>
            <path d="M280.057,210.815 L280.04,210.75"/>
            <path d="M280.105,210.863 L280.057,210.815"/>
            <path d="M280.17,210.88 L280.105,210.863"/>
            <path d="M280.04,210.75 L280.04,209.25"/>
            <path d="M280.105,209.137 L280.17,209.12"/>
            <path d="M280.057,209.185 L280.105,209.137"/>
            <path d="M280.04,209.25 L280.057,209.185"/>
            <path d="M280.17,209.12 L281,209.12"/>
            <path d="M281,209.12 L281,209"/>
            <path d="M281,209 L279,209"/>
            <path d="M279,209 L279,209.12"/>
            <path d="M279,209.12 L279.83,209.12"/>
            <path d="M279.943,209.185 L279.96,209.25"/>
            <path d="M279.895,209.137 L279.943,209.185"/>
            <path d="M279.83,209.12 L279.895,209.137"/>
            <path d="M279.96,209.25 L279.96,210.75"/>
            <path d="M279.895,210.863 L279.83,210.88"/>
            <path d="M279.943,210.815 L279.895,210.863"/>
            <path d="M279.96,210.75 L279.943,210.815"/>
            <path d="M279.83,210.88 L279,210.88"/>
            <path d="M279,210.88 L279,211"/>
            <path d="M249,211 L251,211"/>
            <path d="M251,211 L251,210.88"/>
            <path d="M251,210.88 L250.17,210.88"/>
            <path d="M250.057,210.815 L250.04,210.75"/>
            <path d="M250.105,210.863 L250.057,210.815"/>
            <path d="M250.17,210.88 L250.105,210.863"/>
            <path d="M250.04,210.75 L250.04,209.25"/>
            <path d="M250.105,209.137 L250.17,209.12"/>
            <path d="M250.057,209.185 L250.105,209.137"/>
            <path d="M250.04,209.25 L250.057,209.185"/>
            <path d="M250.17,209.12 L251,209.12"/>
            <path d="M251,209.12 L251,209"/>
            <path d="M251,209 L249,209"/>
            <path d="M249,209 L249,209.12"/>
            <path d="M249,209.12 L249.83,209.12"/>
            <path d="M249.943,209.185 L249.96,209.25"/>
            <path d="M249.895,209.137 L249.943,209.185"/>
            <path d="M249.83,209.12 L249.895,209.137"/>
            <path d="M249.96,209.25 L249.96,210.75"/>
            <path d="M249.895,210.863 L249.83,210.88"/>
            <path d="M249.943,210.815 L249.895,210.863"/>
            <path d="M249.96,210.75 L249.943,210.815"/>
            <path d="M249.83,210.88 L249,210.88"/>
            <path d="M249,210.88 L249,211"/>
            <path d="M339,251 L341,251"/>
            <path d="M341,251 L341,250.88"/>
            <path d="M341,250.88 L340.17,250.88"/>
            <path d="M340.057,250.815 L340.04,250.75"/>
            <path d="M340.105,250.863 L340.057,250.815"/>
            <path d="M340.17,250.88 L340.105,250.863"/>
            <path d="M340.04,250.75 L340.04,249.25"/>
            <path d="M340.105,249.137 L340.17,249.12"/>
            <path d="M340.057,249.185 L340.105,249.137"/>
            <path d="M340.04,249.25 L340.057,249.185"/>
            <path d="M340.17,249.12 L341,249.12"/>
            <path d="M341,249.12 L341,249"/>
            <path d="M341,249 L339,249"/>
            <path d="M339,249 L339,249.12"/>
            <path d="M339,249.12 L339.83,249.12"/>
            <path d="M339.943,249.185 L339.96,249.25"/>
            <path d="M339.895,249.137 L339.943,249.185"/>
            <path d="M339.83,249.12 L339.895,249.137"/>
            <path d="M339.96,249.25 L339.96,250.75"/>
            <path d="M339.895,250.863 L339.83,250.88"/>
            <path d="M339.943,250.815 L339.895,250.863"/>
            <path d="M339.96,250.75 L339.943,250.815"/>
            <path d="M339.83,250.88 L339,250.88"/>
            <path d="M339,250.88 L339,251"/>
            <path d="M309,251 L311,251"/>
            <path d="M311,251 L311,250.88"/>
            <path d="M311,250.88 L310.17,250.88"/>
            <path d="M310.057,250.815 L310.04,250.75"/>
            <path d="M310.105,250.863 L310.057,250.815"/>
            <path d="M310.17,250.88 L310.105,250.863"/>
            <path d="M310.04,250.75 L310.04,249.25"/>
            <path d="M310.105,249.137 L310.17,249.12"/>
            <path d="M310.057,249.185 L310.105,249.137"/>
            <path d="M310.04,249.25 L310.057,249.185"/>
            <path d="M310.17,249.12 L311,249.12"/>
            <path d="M311,249.12 L311,249"/>
            <path d="M311,249 L309,249"/>
            <path d="M309,249 L309,249.12"/>
            <path d="M309,249.12 L309.83,249.12"/>
            <path d="M309.943,249.185 L309.96,249.25"/>
            <path d="M309.895,249.137 L309.943,249.185"/>
            <path d="M309.83,249.12 L309.895,249.137"/>
            <path d="M309.96,249.25 L309.96,250.75"/>
            <path d="M309.895,250.863 L309.83,250.88"/>
            <path d="M309.943,250.815 L309.895,250.863"/>
            <path d="M309.96,250.75 L309.943,250.815"/>
            <path d="M309.83,250.88 L309,250.88"/>
            <path d="M309,250.88 L309,251"/>
            <path d="M279,251 L281,251"/>
            <path d="M281,251 L281,250.88"/>
            <path d="M281,250.88 L280.17,250.88"/>
            <path d="M280.057,250.815 L280.04,250.75"/>
            <path d="M280.105,250.863 L280.057,250.815"/>
            <path d="M280.17,250.88 L280.105,250.863"/>
            <path d="M280.04,250.75 L280.04,249.25"/>
            <path d="M280.105,249.137 L280.17,249.12"/>
            <path d="M280.057,249.185 L280.105,249.137"/>
            <path d="M280.04,249.25 L280.057,249.185"/>
            <path d="M280.17,249.12 L281,249.12"/>
            <path d="M281,249.12 L281,249"/>
            <path d="M281,249 L279,249"/>
            <path d="M279,249 L279,249.12"/>
            <path d="M279,249.12 L279.83,249.12"/>
            <path d="M279.943,249.185 L279.96,249.25"/>
            <path d="M279.895,249.137 L279.943,249.185"/>
            <path d="M279.83,249.12 L279.895,249.137"/>
            <path d="M279.96,249.25 L279.96,250.75"/>
            <path d="M279.895,250.863 L279.83,250.88"/>
            <path d="M279.943,250.815 L279.895,250.863"/>
            <path d="M279.96,250.75 L279.943,250.815"/>
            <path d="M279.83,250.88 L279,250.88"/>
            <path d="M279,250.88 L279,251"/>
            <path d="M249,251 L251,251"/>
            <path d="M251,251 L251,250.88"/>
            <path d="M251,250.88 L250.17,250.88"/>
            <path d="M250.057,250.815 L250.04,250.75"/>
            <path d="M250.105,250.863 L250.057,250.815"/>
            <path d="M250.17,250.88 L250.105,250.863"/>
            <path d="M250.04,250.75 L250.04,249.25"/>
            <path d="M250.105,249.137 L250.17,249.12"/>
            <path d="M250.057,249.185 L250.105,249.137"/>
            <path d="M250.04,249.25 L250.057,249.185"/>
            <path d="M250.17,249.12 L251,249.12"/>
            <path d="M251,249.12 L251,249"/>
            <path d="M251,249 L249,249"/>
            <path d="M249,249 L249,249.12"/>
            <path d="M249,249.12 L249.83,249.12"/>
            <path d="M249.943,249.185 L249.96,249.25"/>
            <path d="M249.895,249.137 L249.943,249.185"/>
            <path d="M249.83,249.12 L249.895,249.137"/>
            <path d="M249.96,249.25 L249.96,250.75"/>
            <path d="M249.895,250.863 L249.83,250.88"/>
            <path d="M249.943,250.815 L249.895,250.863"/>
            <path d="M249.96,250.75 L249.943,250.815"/>
            <path d="M249.83,250.88 L249,250.88"/>
            <path d="M249,250.88 L249,251"/>
            <path d="M281,250.82 L281,250.88"/>
            <path d="M280.17,250.82 L280.17,250.88"/>
            <path d="M280.17,250.88 L280.17,250.88"/>
            <path d="M280.17,250.82 L281,250.82"/>
            <path d="M279.83,250.82 L279.83,250.88"/>
            <path d="M279,250.82 L279,250.88"/>
            <path d="M279.83,250.88 L279.83,250.88"/>
            <path d="M279,250.82 L279.83,250.82"/>
            <path d="M249.83,250.82 L249.83,250.88"/>
            <path d="M249,250.82 L249,250.88"/>
            <path d="M249.83,250.88 L249.83,250.88"/>
            <path d="M249,250.82 L249.83,250.82"/>
            <path d="M310.19,249.6 L310.04,249.6"/>
            <path d="M309.96,249.6 L285.051,249.6"/>
            <path d="M310.26,249.623 L310.19,249.6"/>
            <path d="M310.312,249.685 L310.26,249.623"/>
            <path d="M310.33,249.77 L310.312,249.685"/>
            <path d="M310.33,250.23 L310.33,249.77"/>
            <path d="M310.19,250.4 L310.04,250.4"/>
            <path d="M309.96,250.4 L305.506,250.4"/>
            <path d="M295,250.4 L285.051,250.4"/>
            <path d="M310.312,250.315 L310.33,250.23"/>
            <path d="M310.26,250.377 L310.312,250.315"/>
            <path d="M310.19,250.4 L310.26,250.377"/>
            <path d="M285.051,249.67 L284.494,249.67"/>
            <path d="M285.172,249.77 L285.051,249.67"/>
            <path d="M285.172,250.23 L285.172,249.77"/>
            <path d="M285.051,250.33 L285.172,250.23"/>
            <path d="M284.494,250.33 L285.051,250.33"/>
            <path d="M284.373,250.23 L284.494,250.33"/>
            <path d="M284.373,249.77 L284.373,250.23"/>
            <path d="M284.494,249.67 L284.373,249.77"/>
            <path d="M284.289,249.77 L284.289,250.23"/>
            <path d="M284.494,250.4 L285.051,250.4"/>
            <path d="M285.197,250.35 L285.257,250.23"/>
            <path d="M285.051,250.4 L285.197,250.35"/>
            <path d="M285.257,250.23 L285.257,249.77"/>
            <path d="M285.197,249.65 L285.051,249.6"/>
            <path d="M285.257,249.77 L285.197,249.65"/>
            <path d="M285.051,249.6 L284.494,249.6"/>
            <path d="M284.349,249.65 L284.289,249.77"/>
            <path d="M284.494,249.6 L284.349,249.65"/>
            <path d="M284.349,250.35 L284.494,250.4"/>
            <path d="M284.289,250.23 L284.349,250.35"/>
            <path d="M279.81,250.4 L279.96,250.4"/>
            <path d="M280.04,250.4 L284.494,250.4"/>
            <path d="M284.495,250.4 L285.051,250.4"/>
            <path d="M285.051,250.4 L304.949,250.4"/>
            <path d="M279.74,250.377 L279.81,250.4"/>
            <path d="M279.688,250.315 L279.74,250.377"/>
            <path d="M279.67,250.23 L279.688,250.315"/>
            <path d="M279.67,249.77 L279.67,250.23"/>
            <path d="M295,249.6 L304.949,249.6"/>
            <path d="M279.688,249.685 L279.67,249.77"/>
            <path d="M279.74,249.623 L279.688,249.685"/>
            <path d="M279.81,249.6 L279.74,249.623"/>
            <path d="M304.949,250.33 L305.506,250.33"/>
            <path d="M304.828,250.23 L304.949,250.33"/>
            <path d="M304.828,249.77 L304.828,250.23"/>
            <path d="M304.949,249.67 L304.828,249.77"/>
            <path d="M305.506,249.67 L304.949,249.67"/>
            <path d="M305.627,249.77 L305.506,249.67"/>
            <path d="M305.627,250.23 L305.627,249.77"/>
            <path d="M305.506,250.33 L305.627,250.23"/>
            <path d="M305.711,250.23 L305.711,249.77"/>
            <path d="M305.506,249.6 L304.949,249.6"/>
            <path d="M304.803,249.65 L304.743,249.77"/>
            <path d="M304.949,249.6 L304.803,249.65"/>
            <path d="M304.743,249.77 L304.743,250.23"/>
            <path d="M304.803,250.35 L304.949,250.4"/>
            <path d="M304.743,250.23 L304.803,250.35"/>
            <path d="M304.949,250.4 L305.506,250.4"/>
            <path d="M305.651,250.35 L305.711,250.23"/>
            <path d="M305.506,250.4 L305.651,250.35"/>
            <path d="M305.651,249.65 L305.506,249.6"/>
            <path d="M305.711,249.77 L305.651,249.65"/>
            <path d="M311.5,248.3 L311.5,247.5"/>
            <path d="M311.9,247.5 L311.9,248.3"/>
            <path d="M312.5,247.5 L311.9,247.5"/>
            <path d="M312.5,252.5 L312.5,247.5"/>
            <path d="M311.9,252.5 L312.5,252.5"/>
            <path d="M311.9,251.7 L311.9,252.5"/>
            <path d="M311.5,252.5 L311.5,251.7"/>
            <path d="M308.5,252.5 L311.5,252.5"/>
            <path d="M308.5,251.7 L308.5,252.5"/>
            <path d="M308.1,252.5 L308.1,251.7"/>
            <path d="M307.5,252.5 L308.1,252.5"/>
            <path d="M307.5,247.5 L307.5,249.6"/>
            <path d="M307.5,250.4 L307.5,252.5"/>
            <path d="M308.1,247.5 L307.5,247.5"/>
            <path d="M308.1,248.3 L308.1,247.5"/>
            <path d="M308.5,247.5 L308.5,248.3"/>
            <path d="M311.5,247.5 L308.5,247.5"/>
            <path d="M311.52,248.387 L311.5,248.3"/>
            <path d="M311.575,248.456 L311.52,248.387"/>
            <path d="M311.655,248.495 L311.575,248.456"/>
            <path d="M311.744,248.495 L311.655,248.495"/>
            <path d="M311.825,248.456 L311.744,248.495"/>
            <path d="M311.88,248.387 L311.825,248.456"/>
            <path d="M311.9,248.3 L311.88,248.387"/>
            <path d="M311.88,251.613 L311.9,251.7"/>
            <path d="M311.825,251.544 L311.88,251.613"/>
            <path d="M311.744,251.505 L311.825,251.544"/>
            <path d="M311.655,251.505 L311.744,251.505"/>
            <path d="M311.575,251.544 L311.655,251.505"/>
            <path d="M311.52,251.613 L311.575,251.544"/>
            <path d="M311.5,251.7 L311.52,251.613"/>
            <path d="M308.48,251.613 L308.5,251.7"/>
            <path d="M308.425,251.544 L308.48,251.613"/>
            <path d="M308.344,251.505 L308.425,251.544"/>
            <path d="M308.255,251.505 L308.344,251.505"/>
            <path d="M308.175,251.544 L308.255,251.505"/>
            <path d="M308.12,251.613 L308.175,251.544"/>
            <path d="M308.1,251.7 L308.12,251.613"/>
            <path d="M308.12,248.387 L308.1,248.3"/>
            <path d="M308.175,248.456 L308.12,248.387"/>
            <path d="M308.255,248.495 L308.175,248.456"/>
            <path d="M308.344,248.495 L308.255,248.495"/>
            <path d="M308.425,248.456 L308.344,248.495"/>
            <path d="M308.48,248.387 L308.425,248.456"/>
            <path d="M308.5,248.3 L308.48,248.387"/>
            <path d="M281.5,248.3 L281.5,247.5"/>
            <path d="M281.9,247.5 L281.9,248.3"/>
            <path d="M282.5,247.5 L281.9,247.5"/>
            <path d="M282.5,252.5 L282.5,250.4"/>
            <path d="M282.5,249.6 L282.5,247.5"/>
            <path d="M281.9,252.5 L282.5,252.5"/>
            <path d="M281.9,251.7 L281.9,252.5"/>
            <path d="M281.5,252.5 L281.5,251.7"/>
            <path d="M278.5,252.5 L281.5,252.5"/>
            <path d="M278.5,251.7 L278.5,252.5"/>
            <path d="M278.1,252.5 L278.1,251.7"/>
            <path d="M277.5,252.5 L278.1,252.5"/>
            <path d="M277.5,247.5 L277.5,252.5"/>
            <path d="M278.1,247.5 L277.5,247.5"/>
            <path d="M278.1,248.3 L278.1,247.5"/>
            <path d="M278.5,247.5 L278.5,248.3"/>
            <path d="M281.5,247.5 L278.5,247.5"/>
            <path d="M281.52,248.387 L281.5,248.3"/>
            <path d="M281.575,248.456 L281.52,248.387"/>
            <path d="M281.655,248.495 L281.575,248.456"/>
            <path d="M281.745,248.495 L281.655,248.495"/>
            <path d="M281.825,248.456 L281.745,248.495"/>
            <path d="M281.88,248.387 L281.825,248.456"/>
            <path d="M281.9,248.3 L281.88,248.387"/>
            <path d="M281.88,251.613 L281.9,251.7"/>
            <path d="M281.825,251.544 L281.88,251.613"/>
            <path d="M281.744,251.505 L281.825,251.544"/>
            <path d="M281.655,251.505 L281.744,251.505"/>
            <path d="M281.575,251.544 L281.655,251.505"/>
            <path d="M281.52,251.613 L281.575,251.544"/>
            <path d="M281.5,251.7 L281.52,251.613"/>
            <path d="M278.48,251.613 L278.5,251.7"/>
            <path d="M278.425,251.544 L278.48,251.613"/>
            <path d="M278.344,251.505 L278.425,251.544"/>
            <path d="M278.255,251.505 L278.344,251.505"/>
            <path d="M278.175,251.544 L278.255,251.505"/>
            <path d="M278.12,251.613 L278.175,251.544"/>
            <path d="M278.1,251.7 L278.12,251.613"/>
            <path d="M278.12,248.387 L278.1,248.3"/>
            <path d="M278.175,248.456 L278.12,248.387"/>
            <path d="M278.255,248.495 L278.175,248.456"/>
            <path d="M278.344,248.495 L278.255,248.495"/>
            <path d="M278.425,248.456 L278.344,248.495"/>
            <path d="M278.48,248.387 L278.425,248.456"/>
            <path d="M278.5,248.3 L278.48,248.387"/>
            <path d="M251,250.82 L251,250.88"/>
            <path d="M250.17,250.82 L250.17,250.88"/>
            <path d="M250.17,250.82 L251,250.82"/>
            <path d="M310.196,209.6 L310.04,209.6"/>
            <path d="M309.96,209.6 L287.617,209.6"/>
            <path d="M310.269,209.623 L310.196,209.6"/>
            <path d="M310.322,209.685 L310.269,209.623"/>
            <path d="M310.341,209.77 L310.322,209.685"/>
            <path d="M310.341,210.23 L310.341,209.77"/>
            <path d="M310.196,210.4 L310.04,210.4"/>
            <path d="M309.96,210.4 L302.923,210.4"/>
            <path d="M295,210.4 L287.617,210.4"/>
            <path d="M310.322,210.315 L310.341,210.23"/>
            <path d="M310.269,210.377 L310.322,210.315"/>
            <path d="M310.196,210.4 L310.269,210.377"/>
            <path d="M287.617,209.67 L287.077,209.67"/>
            <path d="M287.734,209.77 L287.617,209.67"/>
            <path d="M287.734,210.23 L287.734,209.77"/>
            <path d="M287.617,210.33 L287.734,210.23"/>
            <path d="M287.077,210.33 L287.617,210.33"/>
            <path d="M286.96,210.23 L287.077,210.33"/>
            <path d="M286.96,209.77 L286.96,210.23"/>
            <path d="M287.077,209.67 L286.96,209.77"/>
            <path d="M286.878,209.77 L286.878,210.23"/>
            <path d="M287.077,210.4 L287.617,210.4"/>
            <path d="M287.758,210.35 L287.816,210.23"/>
            <path d="M287.617,210.4 L287.758,210.35"/>
            <path d="M287.816,210.23 L287.816,209.77"/>
            <path d="M287.758,209.65 L287.617,209.6"/>
            <path d="M287.816,209.77 L287.758,209.65"/>
            <path d="M287.617,209.6 L287.077,209.6"/>
            <path d="M286.936,209.65 L286.878,209.77"/>
            <path d="M287.077,209.6 L286.936,209.65"/>
            <path d="M286.936,210.35 L287.077,210.4"/>
            <path d="M286.878,210.23 L286.936,210.35"/>
            <path d="M302.383,209.67 L302.923,209.67"/>
            <path d="M279.804,210.4 L279.96,210.4"/>
            <path d="M280.04,210.4 L302.383,210.4"/>
            <path d="M279.731,210.377 L279.804,210.4"/>
            <path d="M279.678,210.315 L279.731,210.377"/>
            <path d="M279.659,210.23 L279.678,210.315"/>
            <path d="M279.659,209.77 L279.659,210.23"/>
            <path d="M279.804,209.6 L279.96,209.6"/>
            <path d="M280.04,209.6 L287.077,209.6"/>
            <path d="M295,209.6 L302.383,209.6"/>
            <path d="M279.678,209.685 L279.659,209.77"/>
            <path d="M279.731,209.623 L279.678,209.685"/>
            <path d="M279.804,209.6 L279.731,209.623"/>
            <path d="M302.383,210.4 L302.923,210.4"/>
            <path d="M302.383,210.33 L302.923,210.33"/>
            <path d="M302.266,210.23 L302.383,210.33"/>
            <path d="M302.266,209.77 L302.266,210.23"/>
            <path d="M302.383,209.67 L302.266,209.77"/>
            <path d="M302.923,209.67 L302.383,209.67"/>
            <path d="M303.04,209.77 L302.923,209.67"/>
            <path d="M303.04,210.23 L303.04,209.77"/>
            <path d="M302.923,210.33 L303.04,210.23"/>
            <path d="M303.122,210.23 L303.122,209.77"/>
            <path d="M302.923,209.6 L302.383,209.6"/>
            <path d="M302.242,209.65 L302.184,209.77"/>
            <path d="M302.383,209.6 L302.242,209.65"/>
            <path d="M302.184,209.77 L302.184,210.23"/>
            <path d="M302.242,210.35 L302.383,210.4"/>
            <path d="M302.184,210.23 L302.242,210.35"/>
            <path d="M302.383,210.4 L302.923,210.4"/>
            <path d="M303.064,210.35 L303.122,210.23"/>
            <path d="M302.923,210.4 L303.064,210.35"/>
            <path d="M303.064,209.65 L302.923,209.6"/>
            <path d="M303.122,209.77 L303.064,209.65"/>
            <path d="M249.8,248.3 L249.8,247.5"/>
            <path d="M250.2,247.5 L250.2,248.3"/>
            <path d="M251.5,247.5 L250.2,247.5"/>
            <path d="M251.5,252.5 L251.5,247.5"/>
            <path d="M250.2,252.5 L251.5,252.5"/>
            <path d="M250.2,251.7 L250.2,252.5"/>
            <path d="M249.8,252.5 L249.8,251.7"/>
            <path d="M248.5,252.5 L249.8,252.5"/>
            <path d="M248.5,247.5 L248.5,252.5"/>
            <path d="M249.8,247.5 L248.5,247.5"/>
            <path d="M249.82,248.387 L249.8,248.3"/>
            <path d="M249.875,248.456 L249.82,248.387"/>
            <path d="M249.955,248.495 L249.875,248.456"/>
            <path d="M250.044,248.495 L249.955,248.495"/>
            <path d="M250.125,248.456 L250.044,248.495"/>
            <path d="M250.18,248.387 L250.125,248.456"/>
            <path d="M250.2,248.3 L250.18,248.387"/>
            <path d="M250.18,251.613 L250.2,251.7"/>
            <path d="M250.125,251.544 L250.18,251.613"/>
            <path d="M250.045,251.505 L250.125,251.544"/>
            <path d="M249.955,251.505 L250.045,251.505"/>
            <path d="M249.875,251.544 L249.955,251.505"/>
            <path d="M249.82,251.613 L249.875,251.544"/>
            <path d="M249.8,251.7 L249.82,251.613"/>
        </g>
    <g id="product-d8a48ce0-75fd-46fa-9a9b-8d77bc3fbef4-body" class="IfcMember material-PK80x709G2S cut" ifc:name="&#1057;&#1074;&#1103;&#1079;&#1100; &#1087;&#1086; &#1082;&#1086;&#1083;&#1086;&#1085;&#1085;&#1072;&#1084; &#1057;&#1050;-1" ifc:guid="3Of8pWTVr6_fgRZNUyFxxq">
            <path d="M303.1,210.2 L303.1,209.8 L303.1,209.7 L303.0,209.6 L302.9,209.6 L302.4,209.6 L302.3,209.6 L302.2,209.7 L302.2,209.8 L302.2,210.2 L302.2,210.3 L302.3,210.4 L302.4,210.4 L302.9,210.4 L303.0,210.4 L303.1,210.3 Z M302.9,210.3 L302.4,210.3 L302.3,210.3 L302.3,210.2 L302.3,209.8 L302.3,209.7 L302.4,209.7 L302.9,209.7 L303.0,209.7 L303.0,209.8 L303.0,210.2 L303.0,210.3 Z"/><path d="M302.9,210.3 L303.0,210.3 L303.0,210.2 L303.0,209.8 L303.0,209.7 L302.9,209.7 L302.4,209.7 L302.3,209.7 L302.3,209.8 L302.3,210.2 L302.3,210.3 L302.4,210.3 Z"/></g>
        <g id="product-2690a0b9-1716-482b-9f35-b86309c362d2-body" class="IfcMember material-PK80x709G2S cut" ifc:name="&#1057;&#1074;&#1103;&#1079;&#1100; &#1087;&#1086; &#1082;&#1086;&#1083;&#1086;&#1085;&#1085;&#1072;&#1084; &#1057;&#1050;-1" ifc:guid="0caA2v5nP8Avyrk6C9msBI">
            <path d="M286.9,209.8 L286.9,210.2 L286.9,210.3 L287.0,210.4 L287.1,210.4 L287.6,210.4 L287.7,210.4 L287.8,210.3 L287.8,210.2 L287.8,209.8 L287.8,209.7 L287.7,209.6 L287.6,209.6 L287.1,209.6 L287.0,209.6 L286.9,209.7 Z M287.1,209.7 L287.6,209.7 L287.7,209.7 L287.7,209.8 L287.7,210.2 L287.7,210.3 L287.6,210.3 L287.1,210.3 L287.0,210.3 L287.0,210.2 L287.0,209.8 L287.0,209.7 Z"/><path d="M287.1,209.7 L287.0,209.7 L287.0,209.8 L287.0,210.2 L287.0,210.3 L287.1,210.3 L287.6,210.3 L287.7,210.3 L287.7,210.2 L287.7,209.8 L287.7,209.7 L287.6,209.7 Z"/></g>
        <g id="product-d2563d41-08c0-4fcb-abf4-109d8ac0f11d-body" class="IfcMember material-PK80x709G2S cut" ifc:name="&#1057;&#1074;&#1103;&#1079;&#1100; &#1087;&#1086; &#1082;&#1086;&#1083;&#1086;&#1085;&#1085;&#1072;&#1084; &#1057;&#1050;-1" ifc:guid="3ILZr12C1Fowlq49sAmF4T">
            <path d="M305.7,250.2 L305.7,249.8 L305.7,249.7 L305.6,249.6 L305.5,249.6 L304.9,249.6 L304.8,249.7 L304.7,249.8 L304.7,250.2 L304.8,250.3 L304.9,250.4 L305.5,250.4 L305.6,250.4 L305.7,250.3 Z M305.5,250.3 L304.9,250.3 L304.8,250.2 L304.8,249.8 L304.9,249.7 L305.5,249.7 L305.6,249.7 L305.6,249.8 L305.6,250.2 L305.6,250.3 Z"/><path d="M305.5,250.3 L305.6,250.3 L305.6,250.2 L305.6,249.8 L305.6,249.7 L305.5,249.7 L304.9,249.7 L304.8,249.8 L304.8,250.2 L304.9,250.3 Z"/></g>
        <g id="product-55b1c93c-c303-4a38-bd49-f2e02d9a2376-body" class="IfcMember material-PK80x709G2S cut" ifc:name="&#1057;&#1074;&#1103;&#1079;&#1100; &#1087;&#1086; &#1082;&#1086;&#1083;&#1086;&#1085;&#1085;&#1072;&#1084; &#1057;&#1050;-1" ifc:guid="1LiSaymmDAEBr9yk0jcYDs">
            <path d="M284.3,249.8 L284.3,250.2 L284.3,250.3 L284.4,250.4 L284.5,250.4 L285.1,250.4 L285.2,250.3 L285.3,250.2 L285.3,249.8 L285.2,249.7 L285.1,249.6 L284.5,249.6 L284.4,249.6 L284.3,249.7 Z M284.5,249.7 L285.1,249.7 L285.2,249.8 L285.2,250.2 L285.1,250.3 L284.5,250.3 L284.4,250.3 L284.4,250.2 L284.4,249.8 L284.4,249.7 Z"/><path d="M284.5,249.7 L284.4,249.7 L284.4,249.8 L284.4,250.2 L284.4,250.3 L284.5,250.3 L285.1,250.3 L285.2,250.2 L285.2,249.8 L285.1,249.7 Z"/></g>
        <g id="product-5bcfa5b2-0cc8-4deb-aafa-65a952da1c07-body" class="IfcColumn material-I2023455 cut" ifc:name="I20&#1050;2 &#1057;345-5 5&#1084;.001" ifc:guid="1RpwMo3CXDwwhwPQbIsXm7">
            <path d="M249.0,251.0 L251.0,251.0 L251.0,250.9 L250.2,250.9 L250.1,250.8 L250.0,250.8 L249.9,250.8 L249.8,250.9 L249.0,250.9 Z"/><path d="M250.0,249.2 L250.1,249.2 L250.2,249.1 L251.0,249.1 L251.0,249.0 L249.0,249.0 L249.0,249.1 L249.8,249.1 L249.9,249.2 Z"/><path d="M250.0,250.8 L250.0,249.2 Z"/></g>
        <g id="product-1768c5a9-f266-4574-b451-7d1f0246d66a-body" class="IfcColumn material-I2023455 cut" ifc:name="I20&#1050;2 &#1057;345-5 5&#1084;" ifc:guid="0NQCMfycP5TBHHVHy2HjPg">
            <path d="M279.0,251.0 L281.0,251.0 L281.0,250.9 L280.2,250.9 L280.1,250.8 L280.0,250.8 L279.9,250.8 L279.8,250.9 L279.0,250.9 Z"/><path d="M280.0,249.2 L280.1,249.2 L280.2,249.1 L281.0,249.1 L281.0,249.0 L279.0,249.0 L279.0,249.1 L279.8,249.1 L279.9,249.2 Z"/><path d="M280.0,250.8 L280.0,249.2 Z"/></g>
        <g id="product-228c6da7-b11b-4bec-8e71-e72bb9b5f3ab-body" class="IfcColumn material-I2023455 cut" ifc:name="I20&#1050;2 &#1057;345-5 5&#1084;" ifc:guid="0YZ6sdiHjBx8vnvokvjVEh">
            <path d="M309.0,251.0 L311.0,251.0 L311.0,250.9 L310.2,250.9 L310.1,250.8 L310.0,250.8 L309.9,250.8 L309.8,250.9 L309.0,250.9 Z"/><path d="M310.0,249.2 L310.1,249.2 L310.2,249.1 L311.0,249.1 L311.0,249.0 L309.0,249.0 L309.0,249.1 L309.8,249.1 L309.9,249.2 Z"/><path d="M310.0,250.8 L310.0,249.2 Z"/></g>
        <g id="product-973356d0-17b6-46a4-81b6-fd5acb2bd1c8-body" class="IfcColumn material-I2023455 cut" ifc:name="I20&#1050;2 &#1057;345-5 5&#1084;" ifc:guid="2NCrRG5xP6f86s$LhBAz78">
            <path d="M339.0,251.0 L341.0,251.0 L341.0,250.9 L340.2,250.9 L340.1,250.8 L340.0,250.8 L339.9,250.8 L339.8,250.9 L339.0,250.9 Z"/><path d="M340.0,249.2 L340.1,249.2 L340.2,249.1 L341.0,249.1 L341.0,249.0 L339.0,249.0 L339.0,249.1 L339.8,249.1 L339.9,249.2 Z"/><path d="M340.0,250.8 L340.0,249.2 Z"/></g>
        <g id="product-dac62e38-1a4f-47e6-81be-9678c6b6ac5f-body" class="IfcColumn material-I2023455 cut" ifc:name="I20&#1050;2 &#1057;345-5 5,5&#1084;" ifc:guid="3QnYuu6az7ve6_bdZ6jgnV">
            <path d="M249.0,211.0 L251.0,211.0 L251.0,210.9 L250.2,210.9 L250.1,210.8 L250.0,210.8 L249.9,210.8 L249.8,210.9 L249.0,210.9 Z"/><path d="M250.0,209.2 L250.1,209.2 L250.2,209.1 L251.0,209.1 L251.0,209.0 L249.0,209.0 L249.0,209.1 L249.8,209.1 L249.9,209.2 Z"/><path d="M250.0,210.8 L250.0,209.2 Z"/></g>
        <g id="product-7421ff7a-4f3d-4ffe-9d87-8ac81676cc98-body" class="IfcColumn material-I2023455 cut" ifc:name="I20&#1050;2 &#1057;345-5 5,5&#1084;" ifc:guid="1q8VzwJprF$fs7YiWMTioO">
            <path d="M279.0,211.0 L281.0,211.0 L281.0,210.9 L280.2,210.9 L280.1,210.8 L280.0,210.8 L279.9,210.8 L279.8,210.9 L279.0,210.9 Z"/><path d="M280.0,209.2 L280.1,209.2 L280.2,209.1 L281.0,209.1 L281.0,209.0 L279.0,209.0 L279.0,209.1 L279.8,209.1 L279.9,209.2 Z"/><path d="M280.0,210.8 L280.0,209.2 Z"/></g>
        <g id="product-e6262c28-6548-4da1-abc3-738f15077281-body" class="IfcColumn material-I2023455 cut" ifc:name="I20&#1050;2 &#1057;345-5 5,5&#1084;" ifc:guid="3c9YmePKXDeQl3SuyL1tA1">
            <path d="M309.0,211.0 L311.0,211.0 L311.0,210.9 L310.2,210.9 L310.1,210.8 L310.0,210.8 L309.9,210.8 L309.8,210.9 L309.0,210.9 Z"/><path d="M310.0,209.2 L310.1,209.2 L310.2,209.1 L311.0,209.1 L311.0,209.0 L309.0,209.0 L309.0,209.1 L309.8,209.1 L309.9,209.2 Z"/><path d="M310.0,210.8 L310.0,209.2 Z"/></g>
        <g id="product-22f2c36d-52a3-4a09-919f-be8b8a39b0c2-body" class="IfcColumn material-I2023455 cut" ifc:name="I20&#1050;2 &#1057;345-5 5,5&#1084;" ifc:guid="0YyiDjKgDA2P6VlekAER32">
            <path d="M339.0,211.0 L341.0,211.0 L341.0,210.9 L340.2,210.9 L340.1,210.8 L340.0,210.8 L339.9,210.8 L339.8,210.9 L339.0,210.9 Z"/><path d="M340.0,209.2 L340.1,209.2 L340.2,209.1 L341.0,209.1 L341.0,209.0 L339.0,209.0 L339.0,209.1 L339.8,209.1 L339.9,209.2 Z"/><path d="M340.0,210.8 L340.0,209.2 Z"/></g>
        </g>
</svg>