<svg xmlns="http://www.w3.org/2000/svg" xmlns:xlink="http://www.w3.org/1999/xlink" xmlns:ifc="http://www.ifcopenshell.org/ns" width="200mm" height="120mm" viewBox="0 0 200 120">
    <defs>
        <marker id="arrowend" markerWidth="10" markerHeight="7" refX="10" refY="3.5" orient="auto">
          <polygon points="0 0, 10 3.5, 0 7"/>
        </marker>
        <marker id="arrowstart" markerWidth="10" markerHeight="7" refX="0" refY="3.5" orient="auto">
          <polygon points="10 0, 0 3.5, 10 7"/>
        </marker>
    </defs>
    <g ifc:name="Elevation PLAN_VIEW" class="section" ifc:plane="[[1.000000,0.000000,0.000000,0.000000],[0.000000,1.000000,0.000000,0.000000],[0.000000,0.000000,1.000000,3.000000],[0.000000,0.000000,0.000000,1.000000]]" ifc:matrix3="[[10.000000,0.000000,55.000005],[0.000000,10.000000,80.000002],[0.000000,0.000000,1.000000]]">
        <g class="projection">
            <path d="M86.7331,78.027 L86.6669,78.027"/>
            <path d="M86.7975,78.0429 L86.7331,78.027"/>
            <path d="M86.8562,78.0737 L86.7975,78.0429"/>
            <path d="M86.9058,78.1176 L86.8562,78.0737"/>
            <path d="M86.9435,78.1722 L86.9058,78.1176"/>
            <path d="M86.967,78.2342 L86.9435,78.1722"/>
            <path d="M86.975,78.3 L86.967,78.2342"/>
            <path d="M86.967,78.3658 L86.975,78.3"/>
            <path d="M86.9435,78.4278 L86.967,78.3658"/>
            <path d="M86.9058,78.4824 L86.9435,78.4278"/>
            <path d="M86.8562,78.5263 L86.9058,78.4824"/>
            <path d="M86.7975,78.5571 L86.8562,78.5263"/>
            <path d="M86.7331,78.573 L86.7975,78.5571"/>
            <path d="M86.6669,78.573 L86.7331,78.573"/>
            <path d="M86.6025,78.5571 L86.6669,78.573"/>
            <path d="M86.5438,78.5263 L86.6025,78.5571"/>
            <path d="M86.4942,78.4824 L86.5438,78.5263"/>
            <path d="M86.4565,78.4278 L86.4942,78.4824"/>
            <path d="M86.433,78.3658 L86.4565,78.4278"/>
            <path d="M86.425,78.3 L86.433,78.3658"/>
            <path d="M86.433,78.2342 L86.425,78.3"/>
            <path d="M86.4565,78.1722 L86.433,78.2342"/>
            <path d="M86.4942,78.1176 L86.4565,78.1722"/>
            <path d="M86.5438,78.0737 L86.4942,78.1176"/>
            <path d="M86.6025,78.0429 L86.5438,78.0737"/>
            <path d="M86.6669,78.027 L86.6025,78.0429"/>
            <path d="M86.6669,81.973 L86.7331,81.973"/>
            <path d="M86.6025,81.9571 L86.6669,81.973"/>
            <path d="M86.5438,81.9263 L86.6025,81.9571"/>
            <path d="M86.4942,81.8824 L86.5438,81.9263"/>
            <path d="M86.4565,81.8278 L86.4942,81.8824"/>
            <path d="M86.433,81.7658 L86.4565,81.8278"/>
            <path d="M86.425,81.7 L86.433,81.7658"/>
            <path d="M86.433,81.6342 L86.425,81.7"/>
            <path d="M86.4565,81.5722 L86.433,81.6342"/>
            <path d="M86.4942,81.5176 L86.4565,81.5722"/>
            <path d="M86.5438,81.4737 L86.4942,81.5176"/>
            <path d="M86.6025,81.4429 L86.5438,81.4737"/>
            <path d="M86.6669,81.427 L86.6025,81.4429"/>
            <path d="M86.7331,81.427 L86.6669,81.427"/>
            <path d="M86.7975,81.4429 L86.7331,81.427"/>
            <path d="M86.8562,81.4737 L86.7975,81.4429"/>
            <path d="M86.9058,81.5176 L86.8562,81.4737"/>
            <path d="M86.9435,81.5722 L86.9058,81.5176"/>
            <path d="M86.967,81.6342 L86.9435,81.5722"/>
            <path d="M86.975,81.7 L86.967,81.6342"/>
            <path d="M86.967,81.7658 L86.975,81.7"/>
            <path d="M86.9435,81.8278 L86.967,81.7658"/>
            <path d="M86.9058,81.8824 L86.9435,81.8278"/>
            <path d="M86.8562,81.9263 L86.9058,81.8824"/>
            <path d="M86.7975,81.9571 L86.8562,81.9263"/>
            <path d="M86.7331,81.973 L86.7975,81.9571"/>
            <path d="M83.3332,78.027 L83.2669,78.027"/>
            <path d="M83.3975,78.0429 L83.3332,78.027"/>
            <path d="M83.4562,78.0737 L83.3975,78.0429"/>
            <path d="M83.5058,78.1176 L83.4562,78.0737"/>
            <path d="M83.5435,78.1722 L83.5058,78.1176"/>
            <path d="M83.567,78.2342 L83.5435,78.1722"/>
            <path d="M83.575,78.3 L83.567,78.2342"/>
            <path d="M83.567,78.3658 L83.575,78.3"/>
            <path d="M83.5435,78.4278 L83.567,78.3658"/>
            <path d="M83.5058,78.4824 L83.5435,78.4278"/>
            <path d="M83.4562,78.5263 L83.5058,78.4824"/>
            <path d="M83.3975,78.5571 L83.4562,78.5263"/>
            <path d="M83.3332,78.573 L83.3975,78.5571"/>
            <path d="M83.2669,78.573 L83.3332,78.573"/>
            <path d="M83.2025,78.5571 L83.2669,78.573"/>
            <path d="M83.1438,78.5263 L83.2025,78.5571"/>
            <path d="M83.0942,78.4824 L83.1438,78.5263"/>
            <path d="M83.0565,78.4278 L83.0942,78.4824"/>
            <path d="M83.033,78.3658 L83.0565,78.4278"/>
            <path d="M83.025,78.3 L83.033,78.3658"/>
            <path d="M83.033,78.2342 L83.025,78.3"/>
            <path d="M83.0565,78.1722 L83.033,78.2342"/>
            <path d="M83.0942,78.1176 L83.0565,78.1722"/>
            <path d="M83.1438,78.0737 L83.0942,78.1176"/>
            <path d="M83.2025,78.0429 L83.1438,78.0737"/>
            <path d="M83.2669,78.027 L83.2025,78.0429"/>
            <path d="M83.2669,81.973 L83.3332,81.973"/>
            <path d="M83.2025,81.9571 L83.2669,81.973"/>
            <path d="M83.1438,81.9263 L83.2025,81.9571"/>
            <path d="M83.0942,81.8824 L83.1438,81.9263"/>
            <path d="M83.0565,81.8278 L83.0942,81.8824"/>
            <path d="M83.033,81.7658 L83.0565,81.8278"/>
            <path d="M83.025,81.7 L83.033,81.7658"/>
            <path d="M83.033,81.6342 L83.025,81.7"/>
            <path d="M83.0565,81.5722 L83.033,81.6342"/>
            <path d="M83.0942,81.5176 L83.0565,81.5722"/>
            <path d="M83.1438,81.4737 L83.0942,81.5176"/>
            <path d="M83.2025,81.4429 L83.1438,81.4737"/>
            <path d="M83.2669,81.427 L83.2025,81.4429"/>
            <path d="M83.3332,81.427 L83.2669,81.427"/>
            <path d="M83.3975,81.4429 L83.3332,81.427"/>
            <path d="M83.4562,81.4737 L83.3975,81.4429"/>
            <path d="M83.5058,81.5176 L83.4562,81.4737"/>
            <path d="M83.5435,81.5722 L83.5058,81.5176"/>
            <path d="M83.567,81.6342 L83.5435,81.5722"/>
            <path d="M83.575,81.7 L83.567,81.6342"/>
            <path d="M83.567,81.7658 L83.575,81.7"/>
            <path d="M83.5435,81.8278 L83.567,81.7658"/>
            <path d="M83.5058,81.8824 L83.5435,81.8278"/>
            <path d="M83.4562,81.9263 L83.5058,81.8824"/>
            <path d="M83.3975,81.9571 L83.4562,81.9263"/>
            <path d="M83.3332,81.973 L83.3975,81.9571"/>
            <path d="M55.0332,38.027 L54.9669,38.027"/>
            <path d="M55.0975,38.0429 L55.0332,38.027"/>
            <path d="M55.1562,38.0737 L55.0975,38.0429"/>
            <path d="M55.2058,38.1176 L55.1562,38.0737"/>
            <path d="M55.2435,38.1722 L55.2058,38.1176"/>
            <path d="M55.267,38.2342 L55.2435,38.1722"/>
            <path d="M55.275,38.3 L55.267,38.2342"/>
            <path d="M55.267,38.3658 L55.275,38.3"/>
            <path d="M55.2435,38.4278 L55.267,38.3658"/>
            <path d="M55.2058,38.4824 L55.2435,38.4278"/>
            <path d="M55.1562,38.5263 L55.2058,38.4824"/>
            <path d="M55.0975,38.5571 L55.1562,38.5263"/>
            <path d="M55.0332,38.573 L55.0975,38.5571"/>
            <path d="M54.9669,38.573 L55.0332,38.573"/>
            <path d="M54.9025,38.5571 L54.9669,38.573"/>
            <path d="M54.8438,38.5263 L54.9025,38.5571"/>
            <path d="M54.7942,38.4824 L54.8438,38.5263"/>
            <path d="M54.7565,38.4278 L54.7942,38.4824"/>
            <path d="M54.733,38.3658 L54.7565,38.4278"/>
            <path d="M54.725,38.3 L54.733,38.3658"/>
            <path d="M54.733,38.2342 L54.725,38.3"/>
            <path d="M54.7565,38.1722 L54.733,38.2342"/>
            <path d="M54.7942,38.1176 L54.7565,38.1722"/>
            <path d="M54.8438,38.0737 L54.7942,38.1176"/>
            <path d="M54.9025,38.0429 L54.8438,38.0737"/>
            <path d="M54.9669,38.027 L54.9025,38.0429"/>
            <path d="M54.9669,41.973 L55.0332,41.973"/>
            <path d="M54.9025,41.9571 L54.9669,41.973"/>
            <path d="M54.8438,41.9263 L54.9025,41.9571"/>
            <path d="M54.7942,41.8824 L54.8438,41.9263"/>
            <path d="M54.7565,41.8278 L54.7942,41.8824"/>
            <path d="M54.733,41.7658 L54.7565,41.8278"/>
            <path d="M54.725,41.7 L54.733,41.7658"/>
            <path d="M54.733,41.6342 L54.725,41.7"/>
            <path d="M54.7565,41.5722 L54.733,41.6342"/>
            <path d="M54.7942,41.5176 L54.7565,41.5722"/>
            <path d="M54.8438,41.4737 L54.7942,41.5176"/>
            <path d="M54.9025,41.4429 L54.8438,41.4737"/>
            <path d="M54.9669,41.427 L54.9025,41.4429"/>
            <path d="M55.0332,41.427 L54.9669,41.427"/>
            <path d="M55.0975,41.4429 L55.0332,41.427"/>
            <path d="M55.1562,41.4737 L55.0975,41.4429"/>
            <path d="M55.2058,41.5176 L55.1562,41.4737"/>
            <path d="M55.2435,41.5722 L55.2058,41.5176"/>
            <path d="M55.267,41.6342 L55.2435,41.5722"/>
            <path d="M55.275,41.7 L55.267,41.6342"/>
            <path d="M55.267,41.7658 L55.275,41.7"/>
            <path d="M55.2435,41.8278 L55.267,41.7658"/>
            <path d="M55.2058,41.8824 L55.2435,41.8278"/>
            <path d="M55.1562,41.9263 L55.2058,41.8824"/>
            <path d="M55.0975,41.9571 L55.1562,41.9263"/>
            <path d="M55.0332,41.973 L55.0975,41.9571"/>
            <path d="M55.0332,78.027 L54.9669,78.027"/>
            <path d="M55.0975,78.0429 L55.0332,78.027"/>
            <path d="M55.1562,78.0737 L55.0975,78.0429"/>
            <path d="M55.2058,78.1176 L55.1562,78.0737"/>
            <path d="M55.2435,78.1722 L55.2058,78.1176"/>
            <path d="M55.267,78.2342 L55.2435,78.1722"/>
            <path d="M55.275,78.3 L55.267,78.2342"/>
            <path d="M55.267,78.3658 L55.275,78.3"/>
            <path d="M55.2435,78.4278 L55.267,78.3658"/>
            <path d="M55.2058,78.4824 L55.2435,78.4278"/>
            <path d="M55.1562,78.5263 L55.2058,78.4824"/>
            <path d="M55.0975,78.5571 L55.1562,78.5263"/>
            <path d="M55.0332,78.573 L55.0975,78.5571"/>
            <path d="M54.9669,78.573 L55.0332,78.573"/>
            <path d="M54.9025,78.5571 L54.9669,78.573"/>
            <path d="M54.8438,78.5263 L54.9025,78.5571"/>
            <path d="M54.7942,78.4824 L54.8438,78.5263"/>
            <path d="M54.7565,78.4278 L54.7942,78.4824"/>
            <path d="M54.733,78.3658 L54.7565,78.4278"/>
            <path d="M54.725,78.3 L54.733,78.3658"/>
            <path d="M54.733,78.2342 L54.725,78.3"/>
            <path d="M54.7565,78.1722 L54.733,78.2342"/>
            <path d="M54.7942,78.1176 L54.7565,78.1722"/>
            <path d="M54.8438,78.0737 L54.7942,78.1176"/>
            <path d="M54.9025,78.0429 L54.8438,78.0737"/>
            <path d="M54.9669,78.027 L54.9025,78.0429"/>
            <path d="M54.9669,81.973 L55.0332,81.973"/>
            <path d="M54.9025,81.9571 L54.9669,81.973"/>
            <path d="M54.8438,81.9263 L54.9025,81.9571"/>
            <path d="M54.7942,81.8824 L54.8438,81.9263"/>
            <path d="M54.7565,81.8278 L54.7942,81.8824"/>
            <path d="M54.733,81.7658 L54.7565,81.8278"/>
            <path d="M54.725,81.7 L54.733,81.7658"/>
            <path d="M54.733,81.6342 L54.725,81.7"/>
            <path d="M54.7565,81.5722 L54.733,81.6342"/>
            <path d="M54.7942,81.5176 L54.7565,81.5722"/>
            <path d="M54.8438,81.4737 L54.7942,81.5176"/>
            <path d="M54.9025,81.4429 L54.8438,81.4737"/>
            <path d="M54.9669,81.427 L54.9025,81.4429"/>
            <path d="M55.0332,81.427 L54.9669,81.427"/>
            <path d="M55.0975,81.4429 L55.0332,81.427"/>
            <path d="M55.1562,81.4737 L55.0975,81.4429"/>
            <path d="M55.2058,81.5176 L55.1562,81.4737"/>
            <path d="M55.2435,81.5722 L55.2058,81.5176"/>
            <path d="M55.267,81.6342 L55.2435,81.5722"/>
            <path d="M55.275,81.7 L55.267,81.6342"/>
            <path d="M55.267,81.7658 L55.275,81.7"/>
            <path d="M55.2435,81.8278 L55.267,81.7658"/>
            <path d="M55.2058,81.8824 L55.2435,81.8278"/>
            <path d="M55.1562,81.9263 L55.2058,81.8824"/>
            <path d="M55.0975,81.9571 L55.1562,81.9263"/>
            <path d="M55.0332,81.973 L55.0975,81.9571"/>
            <path d="M86.6151,81.6151 L86.7,81.58"/>
            <path d="M86.58,81.7 L86.6151,81.6151"/>
            <path d="M86.6151,81.7849 L86.58,81.7"/>
            <path d="M86.7,81.82 L86.6151,81.7849"/>
            <path d="M86.7849,81.7849 L86.7,81.82"/>
            <path d="M86.82,81.7 L86.7849,81.7849"/>
            <path d="M86.7849,81.6151 L86.82,81.7"/>
            <path d="M86.7,81.58 L86.7849,81.6151"/>
            <path d="M142,43 L142,37"/>
            <path d="M140.5,47.5 L140.5,32.5"/>
            <path d="M142,43 L140.5,32.5"/>
            <path d="M148,43 L142,43"/>
            <path d="M142,37 L149.5,32.5"/>
            <path d="M142,37 L140.5,32.5"/>
            <path d="M142,43 L140.5,47.5"/>
            <path d="M142,43 L149.5,47.5"/>
            <path d="M148,43 L148,37"/>
            <path d="M148,43 L149.5,47.5"/>
            <path d="M149.5,47.5 L149.5,32.5"/>
            <path d="M148,37 L149.5,32.5"/>
            <path d="M148,43 L149.5,32.5"/>
            <path d="M149.5,32.5 L140.5,32.5"/>
            <path d="M142,37 L148,37"/>
            <path d="M149.5,47.5 L140.5,47.5"/>
            <path d="M142,83 L142,77"/>
            <path d="M140.5,87.5 L140.5,72.5"/>
            <path d="M142,83 L140.5,72.5"/>
            <path d="M148,83 L142,83"/>
            <path d="M142,77 L149.5,72.5"/>
            <path d="M142,77 L140.5,72.5"/>
            <path d="M142,83 L140.5,87.5"/>
            <path d="M142,83 L149.5,87.5"/>
            <path d="M148,83 L148,77"/>
            <path d="M148,83 L149.5,87.5"/>
            <path d="M149.5,87.5 L149.5,72.5"/>
            <path d="M148,77 L149.5,72.5"/>
            <path d="M148,83 L149.5,72.5"/>
            <path d="M149.5,72.5 L140.5,72.5"/>
            <path d="M142,77 L148,77"/>
            <path d="M149.5,87.5 L140.5,87.5"/>
            <path d="M52,43 L52,37"/>
            <path d="M50.5,47.5 L50.5,32.5"/>
            <path d="M52,43 L50.5,32.5"/>
            <path d="M58,43 L52,43"/>
            <path d="M52,37 L59.5,32.5"/>
            <path d="M52,37 L50.5,32.5"/>
            <path d="M52,43 L50.5,47.5"/>
            <path d="M52,43 L59.5,47.5"/>
            <path d="M58,43 L58,37"/>
            <path d="M58,43 L59.5,47.5"/>
            <path d="M59.5,47.5 L59.5,32.5"/>
            <path d="M58,37 L59.5,32.5"/>
            <path d="M58,43 L59.5,32.5"/>
            <path d="M59.5,32.5 L50.5,32.5"/>
            <path d="M52,37 L58,37"/>
            <path d="M59.5,47.5 L50.5,47.5"/>
            <path d="M52,83 L52,77"/>
            <path d="M50.5,87.5 L50.5,72.5"/>
            <path d="M52,83 L50.5,72.5"/>
            <path d="M58,83 L52,83"/>
            <path d="M52,77 L59.5,72.5"/>
            <path d="M52,77 L50.5,72.5"/>
            <path d="M52,83 L50.5,87.5"/>
            <path d="M52,83 L59.5,87.5"/>
            <path d="M58,83 L58,77"/>
            <path d="M58,83 L59.5,87.5"/>
            <path d="M59.5,87.5 L59.5,72.5"/>
            <path d="M58,77 L59.5,72.5"/>
            <path d="M58,83 L59.5,72.5"/>
            <path d="M59.5,72.5 L50.5,72.5"/>
            <path d="M52,77 L58,77"/>
            <path d="M59.5,87.5 L50.5,87.5"/>
            <path d="M86.7849,78.3849 L86.7,78.42"/>
            <path d="M86.82,78.3 L86.7849,78.3849"/>
            <path d="M86.7849,78.2151 L86.82,78.3"/>
            <path d="M86.7,78.18 L86.7849,78.2151"/>
            <path d="M86.6151,78.2151 L86.7,78.18"/>
            <path d="M86.58,78.3 L86.6151,78.2151"/>
            <path d="M86.6151,78.3849 L86.58,78.3"/>
            <path d="M86.7,78.42 L86.6151,78.3849"/>
            <path d="M86.7772,78.2092 L86.783,78.2144"/>
            <path d="M86.7854,78.2165 L86.788,78.2188"/>
            <path d="M86.7532,78.1934 L86.766,78.2001"/>
            <path d="M86.7262,78.1838 L86.7402,78.1872"/>
            <path d="M86.6976,78.1809 L86.6979,78.1809"/>
            <path d="M86.7021,78.1809 L86.712,78.1809"/>
            <path d="M86.6692,78.1849 L86.6832,78.1815"/>
            <path d="M86.6425,78.1956 L86.6553,78.1889"/>
            <path d="M86.6192,78.2124 L86.63,78.2029"/>
            <path d="M86.6006,78.2343 L86.6088,78.2224"/>
            <path d="M86.5878,78.26 L86.5929,78.2465"/>
            <path d="M86.5815,78.288 L86.5832,78.2737"/>
            <path d="M86.582,78.3167 L86.5803,78.3024"/>
            <path d="M86.5895,78.3445 L86.5844,78.331"/>
            <path d="M86.6033,78.3696 L86.5951,78.3578"/>
            <path d="M86.6228,78.3908 L86.617,78.3856"/>
            <path d="M86.6146,78.3835 L86.612,78.3812"/>
            <path d="M86.6468,78.4066 L86.634,78.3999"/>
            <path d="M86.6738,78.4162 L86.6598,78.4128"/>
            <path d="M86.7024,78.4191 L86.7021,78.4191"/>
            <path d="M86.6979,78.4191 L86.688,78.4191"/>
            <path d="M86.7308,78.4151 L86.7168,78.4185"/>
            <path d="M86.7575,78.4044 L86.7447,78.4111"/>
            <path d="M86.7808,78.3876 L86.77,78.3971"/>
            <path d="M86.7994,78.3657 L86.7912,78.3776"/>
            <path d="M86.8122,78.34 L86.8071,78.3535"/>
            <path d="M86.8185,78.312 L86.8168,78.3263"/>
            <path d="M86.818,78.2833 L86.8197,78.2976"/>
            <path d="M86.8105,78.2555 L86.8157,78.269"/>
            <path d="M86.7967,78.2304 L86.8049,78.2422"/>
            <path d="M86.7,78.0922 L86.6518,78.12"/>
            <path d="M86.5682,78.1682 L86.52,78.1961"/>
            <path d="M86.88,78.1961 L86.8318,78.1682"/>
            <path d="M86.7482,78.12 L86.7,78.0922"/>
            <path d="M86.88,78.4039 L86.88,78.3482"/>
            <path d="M86.88,78.2518 L86.88,78.1961"/>
            <path d="M86.7,78.5078 L86.7482,78.48"/>
            <path d="M86.8318,78.4318 L86.88,78.4039"/>
            <path d="M86.52,78.4039 L86.5682,78.4318"/>
            <path d="M86.6518,78.48 L86.7,78.5078"/>
            <path d="M86.52,78.1961 L86.52,78.2518"/>
            <path d="M86.52,78.3482 L86.52,78.4039"/>
            <path d="M86.7097,78.1804 L86.738,78.1862"/>
            <path d="M86.6808,78.1816 L86.6979,78.1809"/>
            <path d="M86.7017,78.1807 L86.7097,78.1804"/>
            <path d="M86.653,78.1896 L86.6808,78.1816"/>
            <path d="M86.6279,78.2041 L86.653,78.1896"/>
            <path d="M86.607,78.2241 L86.6143,78.2171"/>
            <path d="M86.6173,78.2143 L86.6279,78.2041"/>
            <path d="M86.5916,78.2486 L86.607,78.2241"/>
            <path d="M86.5824,78.276 L86.5916,78.2486"/>
            <path d="M86.5801,78.3048 L86.5804,78.301"/>
            <path d="M86.5806,78.2985 L86.5824,78.276"/>
            <path d="M86.5847,78.3334 L86.5801,78.3048"/>
            <path d="M86.5961,78.36 L86.5847,78.3334"/>
            <path d="M86.6135,78.3831 L86.5961,78.36"/>
            <path d="M86.6359,78.4014 L86.616,78.3852"/>
            <path d="M86.6149,78.3843 L86.6135,78.3831"/>
            <path d="M86.662,78.4138 L86.6359,78.4014"/>
            <path d="M86.6903,78.4196 L86.662,78.4138"/>
            <path d="M86.7193,78.4184 L86.7021,78.4191"/>
            <path d="M86.6983,78.4193 L86.6903,78.4196"/>
            <path d="M86.747,78.4104 L86.7193,78.4184"/>
            <path d="M86.7721,78.3959 L86.747,78.4104"/>
            <path d="M86.793,78.3759 L86.7857,78.3829"/>
            <path d="M86.7827,78.3857 L86.7721,78.3959"/>
            <path d="M86.8084,78.3514 L86.793,78.3759"/>
            <path d="M86.8176,78.324 L86.8084,78.3514"/>
            <path d="M86.8199,78.2952 L86.8196,78.299"/>
            <path d="M86.8194,78.3015 L86.8176,78.324"/>
            <path d="M86.8153,78.2666 L86.8199,78.2952"/>
            <path d="M86.8039,78.24 L86.8153,78.2666"/>
            <path d="M86.7865,78.2169 L86.8039,78.24"/>
            <path d="M86.7641,78.1986 L86.784,78.2148"/>
            <path d="M86.7851,78.2157 L86.7865,78.2169"/>
            <path d="M86.738,78.1862 L86.7641,78.1986"/>
            <path d="M86.5961,78.12 L86.4922,78.3"/>
            <path d="M86.8039,78.12 L86.5961,78.12"/>
            <path d="M86.9078,78.3 L86.8039,78.12"/>
            <path d="M86.8039,78.48 L86.9078,78.3"/>
            <path d="M86.5961,78.48 L86.8039,78.48"/>
            <path d="M86.4922,78.3 L86.5961,78.48"/>
            <path d="M86.6228,81.7908 L86.617,81.7856"/>
            <path d="M86.6146,81.7835 L86.612,81.7812"/>
            <path d="M86.6468,81.8066 L86.634,81.7999"/>
            <path d="M86.6738,81.8162 L86.6598,81.8128"/>
            <path d="M86.7024,81.8191 L86.7021,81.8191"/>
            <path d="M86.6979,81.8191 L86.688,81.8191"/>
            <path d="M86.7308,81.8151 L86.7168,81.8185"/>
            <path d="M86.7575,81.8044 L86.7447,81.8111"/>
            <path d="M86.7808,81.7876 L86.77,81.7971"/>
            <path d="M86.7994,81.7657 L86.7912,81.7776"/>
            <path d="M86.8122,81.74 L86.8071,81.7535"/>
            <path d="M86.8185,81.712 L86.8168,81.7263"/>
            <path d="M86.818,81.6833 L86.8197,81.6976"/>
            <path d="M86.8105,81.6555 L86.8157,81.669"/>
            <path d="M86.7967,81.6304 L86.8049,81.6422"/>
            <path d="M86.7772,81.6092 L86.783,81.6144"/>
            <path d="M86.7854,81.6165 L86.788,81.6188"/>
            <path d="M86.7532,81.5934 L86.766,81.6001"/>
            <path d="M86.7262,81.5838 L86.7402,81.5872"/>
            <path d="M86.6976,81.5809 L86.6979,81.5809"/>
            <path d="M86.7021,81.5809 L86.712,81.5809"/>
            <path d="M86.6692,81.5849 L86.6832,81.5815"/>
            <path d="M86.6425,81.5956 L86.6553,81.5889"/>
            <path d="M86.6192,81.6124 L86.63,81.6029"/>
            <path d="M86.6006,81.6343 L86.6088,81.6224"/>
            <path d="M86.5878,81.66 L86.5929,81.6465"/>
            <path d="M86.5815,81.688 L86.5832,81.6737"/>
            <path d="M86.582,81.7167 L86.5803,81.7024"/>
            <path d="M86.5895,81.7445 L86.5844,81.731"/>
            <path d="M86.6033,81.7696 L86.5951,81.7578"/>
            <path d="M86.7,81.9078 L86.7482,81.88"/>
            <path d="M86.8318,81.8318 L86.88,81.8039"/>
            <path d="M86.52,81.8039 L86.5682,81.8318"/>
            <path d="M86.6518,81.88 L86.7,81.9078"/>
            <path d="M86.52,81.5961 L86.52,81.6518"/>
            <path d="M86.52,81.7482 L86.52,81.8039"/>
            <path d="M86.7,81.4922 L86.6518,81.52"/>
            <path d="M86.5682,81.5682 L86.52,81.5961"/>
            <path d="M86.88,81.5961 L86.8318,81.5682"/>
            <path d="M86.7482,81.52 L86.7,81.4922"/>
            <path d="M86.88,81.8039 L86.88,81.7482"/>
            <path d="M86.88,81.6518 L86.88,81.5961"/>
            <path d="M86.6903,81.8196 L86.662,81.8138"/>
            <path d="M86.7193,81.8184 L86.7021,81.8191"/>
            <path d="M86.6983,81.8193 L86.6903,81.8196"/>
            <path d="M86.747,81.8104 L86.7193,81.8184"/>
            <path d="M86.7721,81.7959 L86.747,81.8104"/>
            <path d="M86.793,81.7759 L86.7857,81.7829"/>
            <path d="M86.7827,81.7857 L86.7721,81.7959"/>
            <path d="M86.8084,81.7514 L86.793,81.7759"/>
            <path d="M86.8176,81.724 L86.8084,81.7514"/>
            <path d="M86.8199,81.6952 L86.8196,81.699"/>
            <path d="M86.8194,81.7015 L86.8176,81.724"/>
            <path d="M86.8153,81.6666 L86.8199,81.6952"/>
            <path d="M86.8039,81.64 L86.8153,81.6666"/>
            <path d="M86.7865,81.6169 L86.8039,81.64"/>
            <path d="M86.7641,81.5986 L86.784,81.6148"/>
            <path d="M86.7851,81.6157 L86.7865,81.6169"/>
            <path d="M86.738,81.5862 L86.7641,81.5986"/>
            <path d="M86.7097,81.5804 L86.738,81.5862"/>
            <path d="M86.6808,81.5816 L86.6979,81.5809"/>
            <path d="M86.7017,81.5807 L86.7097,81.5804"/>
            <path d="M86.653,81.5896 L86.6808,81.5816"/>
            <path d="M86.6279,81.6041 L86.653,81.5896"/>
            <path d="M86.607,81.6241 L86.6143,81.6171"/>
            <path d="M86.6173,81.6143 L86.6279,81.6041"/>
            <path d="M86.5916,81.6486 L86.607,81.6241"/>
            <path d="M86.5824,81.676 L86.5916,81.6486"/>
            <path d="M86.5801,81.7048 L86.5804,81.701"/>
            <path d="M86.5806,81.6985 L86.5824,81.676"/>
            <path d="M86.5847,81.7334 L86.5801,81.7048"/>
            <path d="M86.5961,81.76 L86.5847,81.7334"/>
            <path d="M86.6135,81.7831 L86.5961,81.76"/>
            <path d="M86.6359,81.8014 L86.616,81.7852"/>
            <path d="M86.6149,81.7843 L86.6135,81.7831"/>
            <path d="M86.662,81.8138 L86.6359,81.8014"/>
            <path d="M86.8039,81.88 L86.9078,81.7"/>
            <path d="M86.5961,81.88 L86.8039,81.88"/>
            <path d="M86.4922,81.7 L86.5961,81.88"/>
            <path d="M86.5961,81.52 L86.4922,81.7"/>
            <path d="M86.8039,81.52 L86.5961,81.52"/>
            <path d="M86.9078,81.7 L86.8039,81.52"/>
            <path d="M83.3772,78.2092 L83.383,78.2144"/>
            <path d="M83.3854,78.2165 L83.388,78.2188"/>
            <path d="M83.3532,78.1934 L83.366,78.2001"/>
            <path d="M83.3262,78.1838 L83.3402,78.1872"/>
            <path d="M83.2976,78.1809 L83.2979,78.1809"/>
            <path d="M83.3021,78.1809 L83.312,78.1809"/>
            <path d="M83.2692,78.1849 L83.2832,78.1815"/>
            <path d="M83.2425,78.1956 L83.2553,78.1889"/>
            <path d="M83.2192,78.2124 L83.23,78.2029"/>
            <path d="M83.2006,78.2343 L83.2088,78.2224"/>
            <path d="M83.1878,78.26 L83.1929,78.2465"/>
            <path d="M83.1815,78.288 L83.1832,78.2737"/>
            <path d="M83.182,78.3167 L83.1803,78.3024"/>
            <path d="M83.1895,78.3445 L83.1844,78.331"/>
            <path d="M83.2033,78.3696 L83.1951,78.3578"/>
            <path d="M83.2228,78.3908 L83.217,78.3856"/>
            <path d="M83.2146,78.3835 L83.212,78.3812"/>
            <path d="M83.2468,78.4066 L83.234,78.3999"/>
            <path d="M83.2738,78.4162 L83.2598,78.4128"/>
            <path d="M83.3024,78.4191 L83.3021,78.4191"/>
            <path d="M83.2979,78.4191 L83.288,78.4191"/>
            <path d="M83.3308,78.4151 L83.3168,78.4185"/>
            <path d="M83.3575,78.4044 L83.3447,78.4111"/>
            <path d="M83.3808,78.3876 L83.37,78.3971"/>
            <path d="M83.3994,78.3657 L83.3912,78.3776"/>
            <path d="M83.4122,78.34 L83.4071,78.3535"/>
            <path d="M83.4185,78.312 L83.4168,78.3263"/>
            <path d="M83.418,78.2833 L83.4197,78.2976"/>
            <path d="M83.4105,78.2555 L83.4157,78.269"/>
            <path d="M83.3967,78.2304 L83.4049,78.2422"/>
            <path d="M83.3,78.0922 L83.2518,78.12"/>
            <path d="M83.1682,78.1682 L83.12,78.1961"/>
            <path d="M83.48,78.1961 L83.4318,78.1682"/>
            <path d="M83.3482,78.12 L83.3,78.0922"/>
            <path d="M83.48,78.4039 L83.48,78.3482"/>
            <path d="M83.48,78.2518 L83.48,78.1961"/>
            <path d="M83.3,78.5078 L83.3482,78.48"/>
            <path d="M83.4318,78.4318 L83.48,78.4039"/>
            <path d="M83.12,78.4039 L83.1682,78.4318"/>
            <path d="M83.2518,78.48 L83.3,78.5078"/>
            <path d="M83.12,78.1961 L83.12,78.2518"/>
            <path d="M83.12,78.3482 L83.12,78.4039"/>
            <path d="M83.3097,78.1804 L83.338,78.1862"/>
            <path d="M83.2808,78.1816 L83.2979,78.1809"/>
            <path d="M83.3017,78.1807 L83.3097,78.1804"/>
            <path d="M83.253,78.1896 L83.2808,78.1816"/>
            <path d="M83.2279,78.2041 L83.253,78.1896"/>
            <path d="M83.2071,78.2241 L83.2143,78.2171"/>
            <path d="M83.2173,78.2143 L83.2279,78.2041"/>
            <path d="M83.1916,78.2486 L83.2071,78.2241"/>
            <path d="M83.1824,78.276 L83.1916,78.2486"/>
            <path d="M83.1801,78.3048 L83.1804,78.301"/>
            <path d="M83.1806,78.2985 L83.1824,78.276"/>
            <path d="M83.1847,78.3334 L83.1801,78.3048"/>
            <path d="M83.1961,78.36 L83.1847,78.3334"/>
            <path d="M83.2135,78.3831 L83.1961,78.36"/>
            <path d="M83.2359,78.4014 L83.216,78.3852"/>
            <path d="M83.2149,78.3843 L83.2135,78.3831"/>
            <path d="M83.262,78.4138 L83.2359,78.4014"/>
            <path d="M83.2903,78.4196 L83.262,78.4138"/>
            <path d="M83.3193,78.4184 L83.3021,78.4191"/>
            <path d="M83.2983,78.4193 L83.2903,78.4196"/>
            <path d="M83.347,78.4104 L83.3193,78.4184"/>
            <path d="M83.3721,78.3959 L83.347,78.4104"/>
            <path d="M83.393,78.3759 L83.3857,78.3829"/>
            <path d="M83.3827,78.3857 L83.3721,78.3959"/>
            <path d="M83.4084,78.3514 L83.393,78.3759"/>
            <path d="M83.4176,78.324 L83.4084,78.3514"/>
            <path d="M83.4199,78.2952 L83.4196,78.299"/>
            <path d="M83.4194,78.3015 L83.4176,78.324"/>
            <path d="M83.4153,78.2666 L83.4199,78.2952"/>
            <path d="M83.4039,78.24 L83.4153,78.2666"/>
            <path d="M83.3865,78.2169 L83.4039,78.24"/>
            <path d="M83.3641,78.1986 L83.384,78.2148"/>
            <path d="M83.3851,78.2157 L83.3865,78.2169"/>
            <path d="M83.338,78.1862 L83.3641,78.1986"/>
            <path d="M83.1961,78.12 L83.0922,78.3"/>
            <path d="M83.4039,78.12 L83.1961,78.12"/>
            <path d="M83.5078,78.3 L83.4039,78.12"/>
            <path d="M83.4039,78.48 L83.5078,78.3"/>
            <path d="M83.1961,78.48 L83.4039,78.48"/>
            <path d="M83.0922,78.3 L83.1961,78.48"/>
            <path d="M83.2228,81.7908 L83.217,81.7856"/>
            <path d="M83.2146,81.7835 L83.212,81.7812"/>
            <path d="M83.2468,81.8066 L83.234,81.7999"/>
            <path d="M83.2738,81.8162 L83.2598,81.8128"/>
            <path d="M83.3024,81.8191 L83.3021,81.8191"/>
            <path d="M83.2979,81.8191 L83.288,81.8191"/>
            <path d="M83.3308,81.8151 L83.3168,81.8185"/>
            <path d="M83.3575,81.8044 L83.3447,81.8111"/>
            <path d="M83.3808,81.7876 L83.37,81.7971"/>
            <path d="M83.3994,81.7657 L83.3912,81.7776"/>
            <path d="M83.4122,81.74 L83.4071,81.7535"/>
            <path d="M83.4185,81.712 L83.4168,81.7263"/>
            <path d="M83.418,81.6833 L83.4197,81.6976"/>
            <path d="M83.4105,81.6555 L83.4157,81.669"/>
            <path d="M83.3967,81.6304 L83.4049,81.6422"/>
            <path d="M83.3772,81.6092 L83.383,81.6144"/>
            <path d="M83.3854,81.6165 L83.388,81.6188"/>
            <path d="M83.3532,81.5934 L83.366,81.6001"/>
            <path d="M83.3262,81.5838 L83.3402,81.5872"/>
            <path d="M83.2976,81.5809 L83.2979,81.5809"/>
            <path d="M83.3021,81.5809 L83.312,81.5809"/>
            <path d="M83.2692,81.5849 L83.2832,81.5815"/>
            <path d="M83.2425,81.5956 L83.2553,81.5889"/>
            <path d="M83.2192,81.6124 L83.23,81.6029"/>
            <path d="M83.2006,81.6343 L83.2088,81.6224"/>
            <path d="M83.1878,81.66 L83.1929,81.6465"/>
            <path d="M83.1815,81.688 L83.1832,81.6737"/>
            <path d="M83.182,81.7167 L83.1803,81.7024"/>
            <path d="M83.1895,81.7445 L83.1844,81.731"/>
            <path d="M83.2033,81.7696 L83.1951,81.7578"/>
            <path d="M83.3,81.9078 L83.3482,81.88"/>
            <path d="M83.4318,81.8318 L83.48,81.8039"/>
            <path d="M83.12,81.8039 L83.1682,81.8318"/>
            <path d="M83.2518,81.88 L83.3,81.9078"/>
            <path d="M83.12,81.5961 L83.12,81.6518"/>
            <path d="M83.12,81.7482 L83.12,81.8039"/>
            <path d="M83.3,81.4922 L83.2518,81.52"/>
            <path d="M83.1682,81.5682 L83.12,81.5961"/>
            <path d="M83.48,81.5961 L83.4318,81.5682"/>
            <path d="M83.3482,81.52 L83.3,81.4922"/>
            <path d="M83.48,81.8039 L83.48,81.7482"/>
            <path d="M83.48,81.6518 L83.48,81.5961"/>
            <path d="M83.2903,81.8196 L83.262,81.8138"/>
            <path d="M83.3193,81.8184 L83.3021,81.8191"/>
            <path d="M83.2983,81.8193 L83.2903,81.8196"/>
            <path d="M83.347,81.8104 L83.3193,81.8184"/>
            <path d="M83.3721,81.7959 L83.347,81.8104"/>
            <path d="M83.393,81.7759 L83.3857,81.7829"/>
            <path d="M83.3827,81.7857 L83.3721,81.7959"/>
            <path d="M83.4084,81.7514 L83.393,81.7759"/>
            <path d="M83.4176,81.724 L83.4084,81.7514"/>
            <path d="M83.4199,81.6952 L83.4196,81.699"/>
            <path d="M83.4194,81.7015 L83.4176,81.724"/>
            <path d="M83.4153,81.6666 L83.4199,81.6952"/>
            <path d="M83.4039,81.64 L83.4153,81.6666"/>
            <path d="M83.3865,81.6169 L83.4039,81.64"/>
            <path d="M83.3641,81.5986 L83.384,81.6148"/>
            <path d="M83.3851,81.6157 L83.3865,81.6169"/>
            <path d="M83.338,81.5862 L83.3641,81.5986"/>
            <path d="M83.3097,81.5804 L83.338,81.5862"/>
            <path d="M83.2808,81.5816 L83.2979,81.5809"/>
            <path d="M83.3017,81.5807 L83.3097,81.5804"/>
            <path d="M83.253,81.5896 L83.2808,81.5816"/>
            <path d="M83.2279,81.6041 L83.253,81.5896"/>
            <path d="M83.2071,81.6241 L83.2143,81.6171"/>
            <path d="M83.2173,81.6143 L83.2279,81.6041"/>
            <path d="M83.1916,81.6486 L83.2071,81.6241"/>
            <path d="M83.1824,81.676 L83.1916,81.6486"/>
            <path d="M83.1801,81.7048 L83.1804,81.701"/>
            <path d="M83.1806,81.6985 L83.1824,81.676"/>
            <path d="M83.1847,81.7334 L83.1801,81.7048"/>
            <path d="M83.1961,81.76 L83.1847,81.7334"/>
            <path d="M83.2135,81.7831 L83.1961,81.76"/>
            <path d="M83.2359,81.8014 L83.216,81.7852"/>
            <path d="M83.2149,81.7843 L83.2135,81.7831"/>
            <path d="M83.262,81.8138 L83.2359,81.8014"/>
            <path d="M83.4039,81.88 L83.5078,81.7"/>
            <path d="M83.1961,81.88 L83.4039,81.88"/>
            <path d="M83.0922,81.7 L83.1961,81.88"/>
            <path d="M83.1961,81.52 L83.0922,81.7"/>
            <path d="M83.4039,81.52 L83.1961,81.52"/>
            <path d="M83.5078,81.7 L83.4039,81.52"/>
            <path d="M55.0772,38.2092 L55.083,38.2144"/>
            <path d="M55.0854,38.2165 L55.088,38.2188"/>
            <path d="M55.0532,38.1934 L55.066,38.2001"/>
            <path d="M55.0262,38.1838 L55.0402,38.1872"/>
            <path d="M54.9976,38.1809 L54.9979,38.1809"/>
            <path d="M55.0021,38.1809 L55.012,38.1809"/>
            <path d="M54.9692,38.1849 L54.9832,38.1815"/>
            <path d="M54.9425,38.1956 L54.9553,38.1889"/>
            <path d="M54.9192,38.2124 L54.93,38.2029"/>
            <path d="M54.9006,38.2343 L54.9088,38.2224"/>
            <path d="M54.8878,38.26 L54.8929,38.2465"/>
            <path d="M54.8815,38.288 L54.8832,38.2737"/>
            <path d="M54.882,38.3167 L54.8803,38.3024"/>
            <path d="M54.8895,38.3445 L54.8844,38.331"/>
            <path d="M54.9033,38.3697 L54.8951,38.3578"/>
            <path d="M54.9228,38.3908 L54.917,38.3856"/>
            <path d="M54.9146,38.3835 L54.912,38.3812"/>
            <path d="M54.9468,38.4066 L54.934,38.3999"/>
            <path d="M54.9738,38.4162 L54.9598,38.4128"/>
            <path d="M55.0024,38.4191 L55.0021,38.4191"/>
            <path d="M54.9979,38.4191 L54.988,38.4191"/>
            <path d="M55.0308,38.4151 L55.0168,38.4186"/>
            <path d="M55.0575,38.4044 L55.0447,38.4111"/>
            <path d="M55.0808,38.3876 L55.07,38.3972"/>
            <path d="M55.0994,38.3657 L55.0912,38.3776"/>
            <path d="M55.1122,38.34 L55.1071,38.3535"/>
            <path d="M55.1186,38.312 L55.1168,38.3263"/>
            <path d="M55.118,38.2833 L55.1197,38.2976"/>
            <path d="M55.1105,38.2555 L55.1157,38.269"/>
            <path d="M55.0967,38.2304 L55.1049,38.2422"/>
            <path d="M55,38.0922 L54.9518,38.12"/>
            <path d="M54.8682,38.1682 L54.82,38.1961"/>
            <path d="M55.18,38.1961 L55.1318,38.1682"/>
            <path d="M55.0482,38.12 L55,38.0922"/>
            <path d="M55.18,38.4039 L55.18,38.3482"/>
            <path d="M55.18,38.2518 L55.18,38.1961"/>
            <path d="M55,38.5079 L55.0482,38.48"/>
            <path d="M55.1318,38.4318 L55.18,38.4039"/>
            <path d="M54.82,38.4039 L54.8682,38.4318"/>
            <path d="M54.9518,38.48 L55,38.5079"/>
            <path d="M54.82,38.1961 L54.82,38.2518"/>
            <path d="M54.82,38.3482 L54.82,38.4039"/>
            <path d="M55.0097,38.1804 L55.038,38.1862"/>
            <path d="M54.9808,38.1816 L54.9979,38.1809"/>
            <path d="M55.0017,38.1807 L55.0097,38.1804"/>
            <path d="M54.953,38.1896 L54.9808,38.1816"/>
            <path d="M54.9279,38.2041 L54.953,38.1896"/>
            <path d="M54.9071,38.2241 L54.9143,38.2171"/>
            <path d="M54.9173,38.2143 L54.9279,38.2041"/>
            <path d="M54.8916,38.2486 L54.9071,38.2241"/>
            <path d="M54.8824,38.276 L54.8916,38.2486"/>
            <path d="M54.8801,38.3048 L54.8804,38.301"/>
            <path d="M54.8806,38.2985 L54.8824,38.276"/>
            <path d="M54.8847,38.3334 L54.8801,38.3048"/>
            <path d="M54.8961,38.36 L54.8847,38.3334"/>
            <path d="M54.9135,38.3831 L54.8961,38.36"/>
            <path d="M54.9359,38.4014 L54.916,38.3852"/>
            <path d="M54.9149,38.3843 L54.9135,38.3831"/>
            <path d="M54.962,38.4138 L54.9359,38.4014"/>
            <path d="M54.9903,38.4196 L54.962,38.4138"/>
            <path d="M55.0193,38.4185 L55.0021,38.4191"/>
            <path d="M54.9983,38.4193 L54.9903,38.4196"/>
            <path d="M55.047,38.4104 L55.0193,38.4185"/>
            <path d="M55.0721,38.3959 L55.047,38.4104"/>
            <path d="M55.093,38.3759 L55.0857,38.3829"/>
            <path d="M55.0827,38.3858 L55.0721,38.3959"/>
            <path d="M55.1084,38.3514 L55.093,38.3759"/>
            <path d="M55.1176,38.324 L55.1084,38.3514"/>
            <path d="M55.1199,38.2952 L55.1196,38.299"/>
            <path d="M55.1194,38.3015 L55.1176,38.324"/>
            <path d="M55.1153,38.2666 L55.1199,38.2952"/>
            <path d="M55.1039,38.24 L55.1153,38.2666"/>
            <path d="M55.0865,38.2169 L55.1039,38.24"/>
            <path d="M55.0641,38.1986 L55.084,38.2148"/>
            <path d="M55.0851,38.2157 L55.0865,38.2169"/>
            <path d="M55.038,38.1862 L55.0641,38.1986"/>
            <path d="M54.8961,38.12 L54.7922,38.3"/>
            <path d="M55.1039,38.12 L54.8961,38.12"/>
            <path d="M55.2079,38.3 L55.1039,38.12"/>
            <path d="M55.1039,38.48 L55.2079,38.3"/>
            <path d="M54.8961,38.48 L55.1039,38.48"/>
            <path d="M54.7922,38.3 L54.8961,38.48"/>
            <path d="M54.9228,41.7908 L54.917,41.7856"/>
            <path d="M54.9146,41.7835 L54.912,41.7812"/>
            <path d="M54.9468,41.8066 L54.934,41.7999"/>
            <path d="M54.9738,41.8162 L54.9598,41.8128"/>
            <path d="M55.0024,41.8191 L55.0021,41.8191"/>
            <path d="M54.9979,41.8191 L54.988,41.8191"/>
            <path d="M55.0308,41.8151 L55.0168,41.8185"/>
            <path d="M55.0575,41.8044 L55.0447,41.8111"/>
            <path d="M55.0808,41.7876 L55.07,41.7972"/>
            <path d="M55.0994,41.7657 L55.0912,41.7776"/>
            <path d="M55.1122,41.74 L55.1071,41.7535"/>
            <path d="M55.1186,41.712 L55.1168,41.7263"/>
            <path d="M55.118,41.6833 L55.1197,41.6976"/>
            <path d="M55.1105,41.6555 L55.1157,41.669"/>
            <path d="M55.0967,41.6304 L55.1049,41.6422"/>
            <path d="M55.0772,41.6092 L55.083,41.6144"/>
            <path d="M55.0854,41.6165 L55.088,41.6188"/>
            <path d="M55.0532,41.5934 L55.066,41.6001"/>
            <path d="M55.0262,41.5838 L55.0402,41.5872"/>
            <path d="M54.9976,41.5809 L54.9979,41.5809"/>
            <path d="M55.0021,41.5809 L55.012,41.5809"/>
            <path d="M54.9692,41.5849 L54.9832,41.5815"/>
            <path d="M54.9425,41.5956 L54.9553,41.5889"/>
            <path d="M54.9192,41.6124 L54.93,41.6029"/>
            <path d="M54.9006,41.6343 L54.9088,41.6224"/>
            <path d="M54.8878,41.66 L54.8929,41.6465"/>
            <path d="M54.8815,41.688 L54.8832,41.6737"/>
            <path d="M54.882,41.7167 L54.8803,41.7024"/>
            <path d="M54.8895,41.7445 L54.8844,41.731"/>
            <path d="M54.9033,41.7696 L54.8951,41.7578"/>
            <path d="M55,41.9078 L55.0482,41.88"/>
            <path d="M55.1318,41.8318 L55.18,41.8039"/>
            <path d="M54.82,41.8039 L54.8682,41.8318"/>
            <path d="M54.9518,41.88 L55,41.9078"/>
            <path d="M54.82,41.5961 L54.82,41.6518"/>
            <path d="M54.82,41.7482 L54.82,41.8039"/>
            <path d="M55,41.4922 L54.9518,41.52"/>
            <path d="M54.8682,41.5682 L54.82,41.5961"/>
            <path d="M55.18,41.5961 L55.1318,41.5682"/>
            <path d="M55.0482,41.52 L55,41.4922"/>
            <path d="M55.18,41.8039 L55.18,41.7482"/>
            <path d="M55.18,41.6518 L55.18,41.5961"/>
            <path d="M54.9903,41.8196 L54.962,41.8138"/>
            <path d="M55.0193,41.8184 L55.0021,41.8191"/>
            <path d="M54.9983,41.8193 L54.9903,41.8196"/>
            <path d="M55.047,41.8104 L55.0193,41.8184"/>
            <path d="M55.0721,41.7959 L55.047,41.8104"/>
            <path d="M55.093,41.7759 L55.0857,41.7829"/>
            <path d="M55.0827,41.7858 L55.0721,41.7959"/>
            <path d="M55.1084,41.7514 L55.093,41.7759"/>
            <path d="M55.1176,41.724 L55.1084,41.7514"/>
            <path d="M55.1199,41.6952 L55.1196,41.699"/>
            <path d="M55.1194,41.7015 L55.1176,41.724"/>
            <path d="M55.1153,41.6666 L55.1199,41.6952"/>
            <path d="M55.1039,41.64 L55.1153,41.6666"/>
            <path d="M55.0865,41.6169 L55.1039,41.64"/>
            <path d="M55.0641,41.5986 L55.084,41.6148"/>
            <path d="M55.0851,41.6157 L55.0865,41.6169"/>
            <path d="M55.038,41.5862 L55.0641,41.5986"/>
            <path d="M55.0097,41.5804 L55.038,41.5862"/>
            <path d="M54.9808,41.5816 L54.9979,41.5809"/>
            <path d="M55.0017,41.5807 L55.0097,41.5804"/>
            <path d="M54.953,41.5896 L54.9808,41.5816"/>
            <path d="M54.9279,41.6041 L54.953,41.5896"/>
            <path d="M54.9071,41.6241 L54.9143,41.6171"/>
            <path d="M54.9173,41.6143 L54.9279,41.6041"/>
            <path d="M54.8916,41.6486 L54.9071,41.6241"/>
            <path d="M54.8824,41.676 L54.8916,41.6486"/>
            <path d="M54.8801,41.7048 L54.8804,41.701"/>
            <path d="M54.8806,41.6985 L54.8824,41.676"/>
            <path d="M54.8847,41.7334 L54.8801,41.7048"/>
            <path d="M54.8961,41.76 L54.8847,41.7334"/>
            <path d="M54.9135,41.7831 L54.8961,41.76"/>
            <path d="M54.9359,41.8014 L54.916,41.7852"/>
            <path d="M54.9149,41.7843 L54.9135,41.7831"/>
            <path d="M54.962,41.8138 L54.9359,41.8014"/>
            <path d="M55.1039,41.88 L55.2079,41.7"/>
            <path d="M54.8961,41.88 L55.1039,41.88"/>
            <path d="M54.7922,41.7 L54.8961,41.88"/>
            <path d="M54.8961,41.52 L54.7922,41.7"/>
            <path d="M55.1039,41.52 L54.8961,41.52"/>
            <path d="M55.2079,41.7 L55.1039,41.52"/>
            <path d="M55.0772,78.2092 L55.083,78.2144"/>
            <path d="M55.0854,78.2165 L55.088,78.2188"/>
            <path d="M55.0532,78.1934 L55.066,78.2001"/>
            <path d="M55.0262,78.1838 L55.0402,78.1872"/>
            <path d="M54.9976,78.1809 L54.9979,78.1809"/>
            <path d="M55.0021,78.1809 L55.012,78.1809"/>
            <path d="M54.9692,78.1849 L54.9832,78.1815"/>
            <path d="M54.9425,78.1956 L54.9553,78.1889"/>
            <path d="M54.9192,78.2124 L54.93,78.2029"/>
            <path d="M54.9006,78.2343 L54.9088,78.2224"/>
            <path d="M54.8878,78.26 L54.8929,78.2465"/>
            <path d="M54.8815,78.288 L54.8832,78.2737"/>
            <path d="M54.882,78.3167 L54.8803,78.3024"/>
            <path d="M54.8895,78.3445 L54.8844,78.331"/>
            <path d="M54.9033,78.3696 L54.8951,78.3578"/>
            <path d="M54.9228,78.3908 L54.917,78.3856"/>
            <path d="M54.9146,78.3835 L54.912,78.3812"/>
            <path d="M54.9468,78.4066 L54.934,78.3999"/>
            <path d="M54.9738,78.4162 L54.9598,78.4128"/>
            <path d="M55.0024,78.4191 L55.0021,78.4191"/>
            <path d="M54.9979,78.4191 L54.988,78.4191"/>
            <path d="M55.0308,78.4151 L55.0168,78.4185"/>
            <path d="M55.0575,78.4044 L55.0447,78.4111"/>
            <path d="M55.0808,78.3876 L55.07,78.3971"/>
            <path d="M55.0994,78.3657 L55.0912,78.3776"/>
            <path d="M55.1122,78.34 L55.1071,78.3535"/>
            <path d="M55.1186,78.312 L55.1168,78.3263"/>
            <path d="M55.118,78.2833 L55.1197,78.2976"/>
            <path d="M55.1105,78.2555 L55.1157,78.269"/>
            <path d="M55.0967,78.2304 L55.1049,78.2422"/>
            <path d="M55,78.0922 L54.9518,78.12"/>
            <path d="M54.8682,78.1682 L54.82,78.1961"/>
            <path d="M55.18,78.1961 L55.1318,78.1682"/>
            <path d="M55.0482,78.12 L55,78.0922"/>
            <path d="M55.18,78.4039 L55.18,78.3482"/>
            <path d="M55.18,78.2518 L55.18,78.1961"/>
            <path d="M55,78.5078 L55.0482,78.48"/>
            <path d="M55.1318,78.4318 L55.18,78.4039"/>
            <path d="M54.82,78.4039 L54.8682,78.4318"/>
            <path d="M54.9518,78.48 L55,78.5078"/>
            <path d="M54.82,78.1961 L54.82,78.2518"/>
            <path d="M54.82,78.3482 L54.82,78.4039"/>
            <path d="M55.0097,78.1804 L55.038,78.1862"/>
            <path d="M54.9808,78.1816 L54.9979,78.1809"/>
            <path d="M55.0017,78.1807 L55.0097,78.1804"/>
            <path d="M54.953,78.1896 L54.9808,78.1816"/>
            <path d="M54.9279,78.2041 L54.953,78.1896"/>
            <path d="M54.9071,78.2241 L54.9143,78.2171"/>
            <path d="M54.9173,78.2143 L54.9279,78.2041"/>
            <path d="M54.8916,78.2486 L54.9071,78.2241"/>
            <path d="M54.8824,78.276 L54.8916,78.2486"/>
            <path d="M54.8801,78.3048 L54.8804,78.301"/>
            <path d="M54.8806,78.2985 L54.8824,78.276"/>
            <path d="M54.8847,78.3334 L54.8801,78.3048"/>
            <path d="M54.8961,78.36 L54.8847,78.3334"/>
            <path d="M54.9135,78.3831 L54.8961,78.36"/>
            <path d="M54.9359,78.4014 L54.916,78.3852"/>
            <path d="M54.9149,78.3843 L54.9135,78.3831"/>
            <path d="M54.962,78.4138 L54.9359,78.4014"/>
            <path d="M54.9903,78.4196 L54.962,78.4138"/>
            <path d="M55.0193,78.4184 L55.0021,78.4191"/>
            <path d="M54.9983,78.4193 L54.9903,78.4196"/>
            <path d="M55.047,78.4104 L55.0193,78.4184"/>
            <path d="M55.0721,78.3959 L55.047,78.4104"/>
            <path d="M55.093,78.3759 L55.0857,78.3829"/>
            <path d="M55.0827,78.3857 L55.0721,78.3959"/>
            <path d="M55.1084,78.3514 L55.093,78.3759"/>
            <path d="M55.1176,78.324 L55.1084,78.3514"/>
            <path d="M55.1199,78.2952 L55.1196,78.299"/>
            <path d="M55.1194,78.3015 L55.1176,78.324"/>
            <path d="M55.1153,78.2666 L55.1199,78.2952"/>
            <path d="M55.1039,78.24 L55.1153,78.2666"/>
            <path d="M55.0865,78.2169 L55.1039,78.24"/>
            <path d="M55.0641,78.1986 L55.084,78.2148"/>
            <path d="M55.0851,78.2157 L55.0865,78.2169"/>
            <path d="M55.038,78.1862 L55.0641,78.1986"/>
            <path d="M54.8961,78.12 L54.7922,78.3"/>
            <path d="M55.1039,78.12 L54.8961,78.12"/>
            <path d="M55.2079,78.3 L55.1039,78.12"/>
            <path d="M55.1039,78.48 L55.2079,78.3"/>
            <path d="M54.8961,78.48 L55.1039,78.48"/>
            <path d="M54.7922,78.3 L54.8961,78.48"/>
            <path d="M54.9228,81.7908 L54.917,81.7856"/>
            <path d="M54.9146,81.7835 L54.912,81.7812"/>
            <path d="M54.9468,81.8066 L54.934,81.7999"/>
            <path d="M54.9738,81.8162 L54.9598,81.8128"/>
            <path d="M55.0024,81.8191 L55.0021,81.8191"/>
            <path d="M54.9979,81.8191 L54.988,81.8191"/>
            <path d="M55.0308,81.8151 L55.0168,81.8185"/>
            <path d="M55.0575,81.8044 L55.0447,81.8111"/>
            <path d="M55.0808,81.7876 L55.07,81.7971"/>
            <path d="M55.0994,81.7657 L55.0912,81.7776"/>
            <path d="M55.1122,81.74 L55.1071,81.7535"/>
            <path d="M55.1186,81.712 L55.1168,81.7263"/>
            <path d="M55.118,81.6833 L55.1197,81.6976"/>
            <path d="M55.1105,81.6555 L55.1157,81.669"/>
            <path d="M55.0967,81.6304 L55.1049,81.6422"/>
            <path d="M55.0772,81.6092 L55.083,81.6144"/>
            <path d="M55.0854,81.6165 L55.088,81.6188"/>
            <path d="M55.0532,81.5934 L55.066,81.6001"/>
            <path d="M55.0262,81.5838 L55.0402,81.5872"/>
            <path d="M54.9976,81.5809 L54.9979,81.5809"/>
            <path d="M55.0021,81.5809 L55.012,81.5809"/>
            <path d="M54.9692,81.5849 L54.9832,81.5815"/>
            <path d="M54.9425,81.5956 L54.9553,81.5889"/>
            <path d="M54.9192,81.6124 L54.93,81.6029"/>
            <path d="M54.9006,81.6343 L54.9088,81.6224"/>
            <path d="M54.8878,81.66 L54.8929,81.6465"/>
            <path d="M54.8815,81.688 L54.8832,81.6737"/>
            <path d="M54.882,81.7167 L54.8803,81.7024"/>
            <path d="M54.8895,81.7445 L54.8844,81.731"/>
            <path d="M54.9033,81.7696 L54.8951,81.7578"/>
            <path d="M55,81.9078 L55.0482,81.88"/>
            <path d="M55.1318,81.8318 L55.18,81.8039"/>
            <path d="M54.82,81.8039 L54.8682,81.8318"/>
            <path d="M54.9518,81.88 L55,81.9078"/>
            <path d="M54.82,81.5961 L54.82,81.6518"/>
            <path d="M54.82,81.7482 L54.82,81.8039"/>
            <path d="M55,81.4922 L54.9518,81.52"/>
            <path d="M54.8682,81.5682 L54.82,81.5961"/>
            <path d="M55.18,81.5961 L55.1318,81.5682"/>
            <path d="M55.0482,81.52 L55,81.4922"/>
            <path d="M55.18,81.8039 L55.18,81.7482"/>
            <path d="M55.18,81.6518 L55.18,81.5961"/>
            <path d="M54.9903,81.8196 L54.962,81.8138"/>
            <path d="M55.0193,81.8184 L55.0021,81.8191"/>
            <path d="M54.9983,81.8193 L54.9903,81.8196"/>
            <path d="M55.047,81.8104 L55.0193,81.8184"/>
            <path d="M55.0721,81.7959 L55.047,81.8104"/>
            <path d="M55.093,81.7759 L55.0857,81.7829"/>
            <path d="M55.0827,81.7857 L55.0721,81.7959"/>
            <path d="M55.1084,81.7514 L55.093,81.7759"/>
            <path d="M55.1176,81.724 L55.1084,81.7514"/>
            <path d="M55.1199,81.6952 L55.1196,81.699"/>
            <path d="M55.1194,81.7015 L55.1176,81.724"/>
            <path d="M55.1153,81.6666 L55.1199,81.6952"/>
            <path d="M55.1039,81.64 L55.1153,81.6666"/>
            <path d="M55.0865,81.6169 L55.1039,81.64"/>
            <path d="M55.0641,81.5986 L55.084,81.6148"/>
            <path d="M55.0851,81.6157 L55.0865,81.6169"/>
            <path d="M55.038,81.5862 L55.0641,81.5986"/>
            <path d="M55.0097,81.5804 L55.038,81.5862"/>
            <path d="M54.9808,81.5816 L54.9979,81.5809"/>
            <path d="M55.0017,81.5807 L55.0097,81.5804"/>
            <path d="M54.953,81.5896 L54.9808,81.5816"/>
            <path d="M54.9279,81.6041 L54.953,81.5896"/>
            <path d="M54.9071,81.6241 L54.9143,81.6171"/>
            <path d="M54.9173,81.6143 L54.9279,81.6041"/>
            <path d="M54.8916,81.6486 L54.9071,81.6241"/>
            <path d="M54.8824,81.676 L54.8916,81.6486"/>
            <path d="M54.8801,81.7048 L54.8804,81.701"/>
            <path d="M54.8806,81.6985 L54.8824,81.676"/>
            <path d="M54.8847,81.7334 L54.8801,81.7048"/>
            <path d="M54.8961,81.76 L54.8847,81.7334"/>
            <path d="M54.9135,81.7831 L54.8961,81.76"/>
            <path d="M54.9359,81.8014 L54.916,81.7852"/>
            <path d="M54.9149,81.7843 L54.9135,81.7831"/>
            <path d="M54.962,81.8138 L54.9359,81.8014"/>
            <path d="M55.1039,81.88 L55.2079,81.7"/>
            <path d="M54.8961,81.88 L55.1039,81.88"/>
            <path d="M54.7922,81.7 L54.8961,81.88"/>
            <path d="M54.8961,81.52 L54.7922,81.7"/>
            <path d="M55.1039,81.52 L54.8961,81.52"/>
            <path d="M55.2079,81.7 L55.1039,81.52"/>
            <path d="M55.0849,38.3849 L55,38.42"/>
            <path d="M55.12,38.3 L55.0849,38.3849"/>
            <path d="M55.0849,38.2152 L55.12,38.3"/>
            <path d="M55,38.18 L55.0849,38.2152"/>
            <path d="M54.9152,38.2152 L55,38.18"/>
            <path d="M54.88,38.3 L54.9152,38.2152"/>
            <path d="M54.9152,38.3849 L54.88,38.3"/>
            <path d="M55,38.42 L54.9152,38.3849"/>
            <path d="M83.2152,81.6151 L83.3,81.58"/>
            <path d="M83.18,81.7 L83.2152,81.6151"/>
            <path d="M83.2152,81.7849 L83.18,81.7"/>
            <path d="M83.3,81.82 L83.2152,81.7849"/>
            <path d="M83.3849,81.7849 L83.3,81.82"/>
            <path d="M83.42,81.7 L83.3849,81.7849"/>
            <path d="M83.3849,81.6151 L83.42,81.7"/>
            <path d="M83.3,81.58 L83.3849,81.6151"/>
            <path d="M83.3849,78.3849 L83.3,78.42"/>
            <path d="M83.42,78.3 L83.3849,78.3849"/>
            <path d="M83.3849,78.2151 L83.42,78.3"/>
            <path d="M83.3,78.18 L83.3849,78.2151"/>
            <path d="M83.2152,78.2151 L83.3,78.18"/>
            <path d="M83.18,78.3 L83.2152,78.2151"/>
            <path d="M83.2152,78.3849 L83.18,78.3"/>
            <path d="M83.3,78.42 L83.2152,78.3849"/>
            <path d="M112,43 L112,37"/>
            <path d="M107.5,47.5 L107.5,32.5"/>
            <path d="M112,43 L107.5,32.5"/>
            <path d="M118,43 L112,43"/>
            <path d="M112,37 L122.5,32.5"/>
            <path d="M112,37 L107.5,32.5"/>
            <path d="M112,43 L107.5,47.5"/>
            <path d="M112,43 L122.5,47.5"/>
            <path d="M118,43 L118,37"/>
            <path d="M118,43 L122.5,47.5"/>
            <path d="M122.5,47.5 L122.5,32.5"/>
            <path d="M118,37 L122.5,32.5"/>
            <path d="M118,43 L122.5,32.5"/>
            <path d="M122.5,32.5 L107.5,32.5"/>
            <path d="M112,37 L118,37"/>
            <path d="M122.5,47.5 L107.5,47.5"/>
            <path d="M112,83 L112,77"/>
            <path d="M107.5,87.5 L107.5,72.5"/>
            <path d="M112,83 L107.5,72.5"/>
            <path d="M118,83 L112,83"/>
            <path d="M112,77 L122.5,72.5"/>
            <path d="M112,77 L107.5,72.5"/>
            <path d="M112,83 L107.5,87.5"/>
            <path d="M112,83 L122.5,87.5"/>
            <path d="M118,83 L118,77"/>
            <path d="M118,83 L122.5,87.5"/>
            <path d="M122.5,87.5 L122.5,72.5"/>
            <path d="M118,77 L122.5,72.5"/>
            <path d="M118,83 L122.5,72.5"/>
            <path d="M122.5,72.5 L107.5,72.5"/>
            <path d="M112,77 L118,77"/>
            <path d="M122.5,87.5 L107.5,87.5"/>
            <path d="M82,43 L82,37"/>
            <path d="M77.5,47.5 L77.5,32.5"/>
            <path d="M82,43 L77.5,32.5"/>
            <path d="M88,43 L82,43"/>
            <path d="M82,37 L92.5,32.5"/>
            <path d="M82,37 L77.5,32.5"/>
            <path d="M82,43 L77.5,47.5"/>
            <path d="M82,43 L92.5,47.5"/>
            <path d="M88,43 L88,37"/>
            <path d="M88,43 L92.5,47.5"/>
            <path d="M92.5,47.5 L92.5,32.5"/>
            <path d="M88,37 L92.5,32.5"/>
            <path d="M88,43 L92.5,32.5"/>
            <path d="M92.5,32.5 L77.5,32.5"/>
            <path d="M82,37 L88,37"/>
            <path d="M92.5,47.5 L77.5,47.5"/>
            <path d="M82,83 L82,77"/>
            <path d="M77.5,87.5 L77.5,72.5"/>
            <path d="M82,83 L77.5,72.5"/>
            <path d="M88,83 L82,83"/>
            <path d="M82,77 L92.5,72.5"/>
            <path d="M82,77 L77.5,72.5"/>
            <path d="M82,83 L77.5,87.5"/>
            <path d="M82,83 L92.5,87.5"/>
            <path d="M88,83 L88,77"/>
            <path d="M88,83 L92.5,87.5"/>
            <path d="M92.5,87.5 L92.5,72.5"/>
            <path d="M88,77 L92.5,72.5"/>
            <path d="M88,83 L92.5,72.5"/>
            <path d="M92.5,72.5 L77.5,72.5"/>
            <path d="M82,77 L88,77"/>
            <path d="M92.5,87.5 L77.5,87.5"/>
            <path d="M54.9152,41.6152 L55,41.58"/>
            <path d="M54.88,41.7 L54.9152,41.6152"/>
            <path d="M54.9152,41.7849 L54.88,41.7"/>
            <path d="M55,41.82 L54.9152,41.7849"/>
            <path d="M55.0849,41.7849 L55,41.82"/>
            <path d="M55.12,41.7 L55.0849,41.7849"/>
            <path d="M55.0849,41.6152 L55.12,41.7"/>
            <path d="M55,41.58 L55.0849,41.6152"/>
            <path d="M147.5,37.5 L142.5,37.5"/>
            <path d="M148,37 L142,37"/>
            <path d="M148,43 L142,43"/>
            <path d="M142.5,42.5 L147.5,42.5"/>
            <path d="M142.5,37.5 L142.5,42.5"/>
            <path d="M142,37 L142.5,37.5"/>
            <path d="M142,43 L142,37"/>
            <path d="M142.5,42.5 L142,43"/>
            <path d="M147.5,42.5 L147.5,37.5"/>
            <path d="M147.5,37.5 L148,37"/>
            <path d="M148,43 L148,37"/>
            <path d="M148,43 L147.5,42.5"/>
            <path d="M147.5,77.5 L142.5,77.5"/>
            <path d="M148,77 L142,77"/>
            <path d="M148,83 L142,83"/>
            <path d="M142.5,82.5 L147.5,82.5"/>
            <path d="M142.5,77.5 L142.5,82.5"/>
            <path d="M142,77 L142.5,77.5"/>
            <path d="M142,83 L142,77"/>
            <path d="M142.5,82.5 L142,83"/>
            <path d="M147.5,82.5 L147.5,77.5"/>
            <path d="M147.5,77.5 L148,77"/>
            <path d="M148,83 L148,77"/>
            <path d="M148,83 L147.5,82.5"/>
            <path d="M55.0849,78.3849 L55,78.42"/>
            <path d="M55.12,78.3 L55.0849,78.3849"/>
            <path d="M55.0849,78.2151 L55.12,78.3"/>
            <path d="M55,78.18 L55.0849,78.2151"/>
            <path d="M54.9152,78.2151 L55,78.18"/>
            <path d="M54.88,78.3 L54.9152,78.2151"/>
            <path d="M54.9152,78.3849 L54.88,78.3"/>
            <path d="M55,78.42 L54.9152,78.3849"/>
            <path d="M54.9152,81.6151 L55,81.58"/>
            <path d="M54.88,81.7 L54.9152,81.6151"/>
            <path d="M54.9152,81.7849 L54.88,81.7"/>
            <path d="M55,81.82 L54.9152,81.7849"/>
            <path d="M55.0849,81.7849 L55,81.82"/>
            <path d="M55.12,81.7 L55.0849,81.7849"/>
            <path d="M55.0849,81.6151 L55.12,81.7"/>
            <path d="M55,81.58 L55.0849,81.6151"/>
            <path d="M117.5,77.5 L112.5,77.5"/>
            <path d="M118,77 L112,77"/>
            <path d="M118,83 L112,83"/>
            <path d="M112.5,82.5 L117.5,82.5"/>
            <path d="M112.5,77.5 L112.5,82.5"/>
            <path d="M112,77 L112.5,77.5"/>
            <path d="M112,83 L112,77"/>
            <path d="M112.5,82.5 L112,83"/>
            <path d="M117.5,82.5 L117.5,77.5"/>
            <path d="M117.5,77.5 L118,77"/>
            <path d="M118,83 L118,77"/>
            <path d="M118,83 L117.5,82.5"/>
            <path d="M117.5,37.5 L112.5,37.5"/>
            <path d="M118,37 L112,37"/>
            <path d="M118,43 L112,43"/>
            <path d="M112.5,42.5 L117.5,42.5"/>
            <path d="M112.5,37.5 L112.5,42.5"/>
            <path d="M112,37 L112.5,37.5"/>
            <path d="M112,43 L112,37"/>
            <path d="M112.5,42.5 L112,43"/>
            <path d="M117.5,42.5 L117.5,37.5"/>
            <path d="M117.5,37.5 L118,37"/>
            <path d="M118,43 L118,37"/>
            <path d="M118,43 L117.5,42.5"/>
            <path d="M107,32 L107,48"/>
            <path d="M123,32 L107,32"/>
            <path d="M123,48 L123,32"/>
            <path d="M107,48 L123,48"/>
            <path d="M107,72 L107,88"/>
            <path d="M123,72 L107,72"/>
            <path d="M123,88 L123,72"/>
            <path d="M107,88 L123,88"/>
            <path d="M77,72 L77,88"/>
            <path d="M93,72 L77,72"/>
            <path d="M93,88 L93,72"/>
            <path d="M77,88 L93,88"/>
            <path d="M57.5,37.5 L52.5,37.5"/>
            <path d="M58,37 L52,37"/>
            <path d="M58,43 L52,43"/>
            <path d="M52.5,42.5 L57.5,42.5"/>
            <path d="M52.5,37.5 L52.5,42.5"/>
            <path d="M52,37 L52.5,37.5"/>
            <path d="M52,43 L52,37"/>
            <path d="M52.5,42.5 L52,43"/>
            <path d="M57.5,42.5 L57.5,37.5"/>
            <path d="M57.5,37.5 L58,37"/>
            <path d="M58,43 L58,37"/>
            <path d="M58,43 L57.5,42.5"/>
            <path d="M87.5,37.5 L82.5,37.5"/>
            <path d="M88,37 L82,37"/>
            <path d="M88,43 L82,43"/>
            <path d="M82.5,42.5 L87.5,42.5"/>
            <path d="M82.5,37.5 L82.5,42.5"/>
            <path d="M82,37 L82.5,37.5"/>
            <path d="M82,43 L82,37"/>
            <path d="M82.5,42.5 L82,43"/>
            <path d="M87.5,42.5 L87.5,37.5"/>
            <path d="M87.5,37.5 L88,37"/>
            <path d="M88,43 L88,37"/>
            <path d="M88,43 L87.5,42.5"/>
            <path d="M140,72 L140,88"/>
            <path d="M150,72 L140,72"/>
            <path d="M150,88 L150,72"/>
            <path d="M140,88 L150,88"/>
            <path d="M87.5,77.5 L82.5,77.5"/>
            <path d="M88,77 L82,77"/>
            <path d="M88,83 L82,83"/>
            <path d="M82.5,82.5 L87.5,82.5"/>
            <path d="M82.5,77.5 L82.5,82.5"/>
            <path d="M82,77 L82.5,77.5"/>
            <path d="M82,83 L82,77"/>
            <path d="M82.5,82.5 L82,83"/>
            <path d="M87.5,82.5 L87.5,77.5"/>
            <path d="M87.5,77.5 L88,77"/>
            <path d="M88,83 L88,77"/>
            <path d="M88,83 L87.5,82.5"/>
            <path d="M57.5,77.5 L52.5,77.5"/>
            <path d="M58,77 L52,77"/>
            <path d="M58,83 L52,83"/>
            <path d="M52.5,82.5 L57.5,82.5"/>
            <path d="M52.5,77.5 L52.5,82.5"/>
            <path d="M52,77 L52.5,77.5"/>
            <path d="M52,83 L52,77"/>
            <path d="M52.5,82.5 L52,83"/>
            <path d="M57.5,82.5 L57.5,77.5"/>
            <path d="M57.5,77.5 L58,77"/>
            <path d="M58,83 L58,77"/>
            <path d="M58,83 L57.5,82.5"/>
            <path d="M77,32 L93,32"/>
            <path d="M77,48 L77,32"/>
            <path d="M93,48 L77,48"/>
            <path d="M93,32 L93,48"/>
            <path d="M140,32 L150,32"/>
            <path d="M140,48 L140,32"/>
            <path d="M150,48 L140,48"/>
            <path d="M150,32 L150,48"/>
            <path d="M50,32 L60,32"/>
            <path d="M50,48 L50,32"/>
            <path d="M60,48 L50,48"/>
            <path d="M60,32 L60,48"/>
            <path d="M50,72 L60,72"/>
            <path d="M50,88 L50,72"/>
            <path d="M60,88 L50,88"/>
            <path d="M60,72 L60,88"/>
        </g>
    </g>
</svg>