<svg xmlns="http://www.w3.org/2000/svg" xmlns:xlink="http://www.w3.org/1999/xlink" xmlns:ifc="http://www.ifcopenshell.org/ns" width="66.6667mm" height="200mm" viewBox="0 0 66.6667 200">
    <defs>
        <marker id="arrowend" markerWidth="10" markerHeight="7" refX="10" refY="3.5" orient="auto">
          <polygon points="0 0, 10 3.5, 0 7"/>
        </marker>
        <marker id="arrowstart" markerWidth="10" markerHeight="7" refX="0" refY="3.5" orient="auto">
          <polygon points="10 0, 0 3.5, 10 7"/>
        </marker>
    </defs>
    <g ifc:name="Elevation SOUTH ELEVATION" class="section" ifc:plane="[[1.000000,0.000000,0.000000,0.000000],[0.000000,0.000000,-1.000000,-1.000000],[0.000000,1.000000,0.000000,0.000000],[0.000000,0.000000,0.000000,1.000000]]" ifc:matrix3="[[100.000001,0.000000,33.333344],[0.000000,100.000001,50.000003],[0.000000,0.000000,1.000000]]">
        <g class="projection">
            <path d="M33.9333,50 L33.9333,147.6"/>
            <path d="M34.0247,148.059 L33.9333,147.6"/>
            <path d="M34.2848,148.449 L34.0247,148.059"/>
            <path d="M35.1333,148.8 L34.6741,148.709"/>
            <path d="M34.6741,148.709 L34.2848,148.449"/>
            <path d="M35.1333,148.8 L37.9333,148.8"/>
            <path d="M37.9333,149.4 L37.9333,150"/>
            <path d="M37.9333,148.8 L37.9333,149.4"/>
            <path d="M37.9333,149.4 L37.9333,149.4"/>
            <path d="M35.1333,150 L37.9333,150"/>
            <path d="M33.3333,147.6 L33.9333,147.6"/>
            <path d="M32.7333,147.6 L33.3333,147.6"/>
            <path d="M34.2149,149.817 L35.1333,150"/>
            <path d="M33.4363,149.297 L34.2149,149.817"/>
            <path d="M32.916,148.518 L33.4363,149.297"/>
            <path d="M32.7333,147.6 L32.916,148.518"/>
            <path d="M33.3333,147.6 L32.7333,147.6"/>
            <path d="M33.9333,147.6 L33.3333,147.6"/>
            <path d="M33.3333,50 L32.7333,50"/>
            <path d="M33.9333,50 L33.3333,50"/>
            <path d="M32.7333,50 L32.7333,147.6"/>
        </g>
    </g>
</svg>