<svg xmlns="http://www.w3.org/2000/svg" xmlns:xlink="http://www.w3.org/1999/xlink" xmlns:ifc="http://www.ifcopenshell.org/ns" width="200mm" height="100mm" viewBox="0 0 200 100">
    <defs>
        <marker id="arrowend" markerWidth="10" markerHeight="7" refX="10" refY="3.5" orient="auto">
          <polygon points="0 0, 10 3.5, 0 7"/>
        </marker>
        <marker id="arrowstart" markerWidth="10" markerHeight="7" refX="0" refY="3.5" orient="auto">
          <polygon points="10 0, 0 3.5, 10 7"/>
        </marker>
    </defs>
    <g ifc:name="Elevation &#1042;&#1080;&#1076; &#1040;" class="section" ifc:plane="[[1.000000,0.000000,0.000000,0.000000],[0.000000,0.000000,-1.000000,-1.000000],[0.000000,1.000000,0.000000,0.000000],[0.000000,0.000000,0.000000,1.000000]]" ifc:matrix3="[[10.000000,0.000000,30.000000],[0.000000,10.000000,69.999999],[0.000000,0.000000,1.000000]]">
        <g class="projection">
            <path d="M65.005,18.6 L67.9484,18.1094"/>
            <path d="M69.9385,16.9094 L70.0359,16.8932"/>
            <path d="M62.7385,18.1094 L60.0375,18.5596"/>
            <path d="M59.9625,18.5721 L59.7951,18.6"/>
            <path d="M74.7542,16.8932 L74.8516,16.9094"/>
            <path d="M82.0516,18.1094 L84.995,18.6"/>
            <path d="M79.9641,16.8932 L80.0615,16.9094"/>
            <path d="M87.2615,18.1094 L89.9625,18.5596"/>
            <path d="M90.0375,18.5721 L90.2049,18.6"/>
            <path d="M34.9575,12.7981 L59.9,12.7981"/>
            <path d="M34.9575,12.7981 L27,12.7981"/>
            <path d="M67.3077,12.7981 L89.9,12.7982"/>
            <path d="M67.3077,12.7981 L60.1,12.7981"/>
            <path d="M98.0575,12.7981 L123,12.7982"/>
            <path d="M98.0575,12.7981 L90.1,12.7981"/>
            <path d="M34.9575,13.7903 L59.9,13.7903"/>
            <path d="M34.9575,13.7903 L27,13.7903"/>
            <path d="M67.3077,13.7903 L89.9,13.7903"/>
            <path d="M67.3077,13.7903 L60.1,13.7903"/>
            <path d="M98.0575,13.7903 L123,13.7903"/>
            <path d="M98.0575,13.7903 L90.1,13.7903"/>
            <path d="M34.9575,14.7825 L59.9,14.7825"/>
            <path d="M34.9575,14.7825 L27,14.7825"/>
            <path d="M67.3077,14.7825 L89.9,14.7825"/>
            <path d="M67.3077,14.7825 L60.1,14.7825"/>
            <path d="M98.0575,14.7825 L123,14.7825"/>
            <path d="M98.0575,14.7825 L90.1,14.7825"/>
            <path d="M34.9575,15.7746 L59.9,15.7746"/>
            <path d="M34.9575,15.7746 L27,15.7746"/>
            <path d="M67.3077,15.7746 L89.9,15.7746"/>
            <path d="M67.3077,15.7746 L60.1,15.7746"/>
            <path d="M98.0575,15.7746 L123,15.7746"/>
            <path d="M98.0575,15.7746 L90.1,15.7746"/>
            <path d="M60.755,20.0109 L60.755,20.125"/>
            <path d="M60.0375,18.3935 L60.0375,19.8819"/>
            <path d="M60.755,18.2645 L60.1675,18.2645"/>
            <path d="M60.755,18.1504 L60.755,18.2645"/>
            <path d="M59.245,18.2645 L59.245,18.1504"/>
            <path d="M59.8325,18.2645 L59.245,18.2645"/>
            <path d="M59.9625,19.8819 L59.9625,18.3935"/>
            <path d="M59.245,20.125 L59.245,20.0109"/>
            <path d="M60.755,20.125 L59.245,20.125"/>
            <path d="M60.1675,20.0109 L60.755,20.0109"/>
            <path d="M60.755,20.0109 L60.755,19.4"/>
            <path d="M60.755,18.44 L60.755,18.1094"/>
            <path d="M60.755,16.9094 L60.755,16.8932"/>
            <path d="M60.0549,19.9464 L60.0375,19.8819"/>
            <path d="M60.1025,19.9936 L60.0549,19.9464"/>
            <path d="M60.1675,20.0109 L60.1025,19.9936"/>
            <path d="M60.0375,19.8819 L60.0375,19.4"/>
            <path d="M60.0375,18.5596 L60.0375,18.3935"/>
            <path d="M60.1025,18.2818 L60.1675,18.2645"/>
            <path d="M60.0549,18.329 L60.1025,18.2818"/>
            <path d="M60.0375,18.3935 L60.0549,18.329"/>
            <path d="M59.9,12.8693 L60.1,12.8693"/>
            <path d="M59.245,18.1504 L60.755,18.1504"/>
            <path d="M60.755,18.1504 L60.755,18.1094"/>
            <path d="M60.755,16.9094 L60.755,16.8932"/>
            <path d="M59.245,18.1504 L59.245,18.1094"/>
            <path d="M59.245,16.9094 L59.245,16.8932"/>
            <path d="M59.9451,18.329 L59.9625,18.3935"/>
            <path d="M59.8975,18.2818 L59.9451,18.329"/>
            <path d="M59.8325,18.2645 L59.8975,18.2818"/>
            <path d="M59.8975,19.9936 L59.8325,20.0109"/>
            <path d="M59.9451,19.9464 L59.8975,19.9936"/>
            <path d="M59.9625,19.8819 L59.9451,19.9464"/>
            <path d="M59.245,20.0109 L59.8325,20.0109"/>
            <path d="M59.245,20.0109 L59.245,19.4"/>
            <path d="M59.245,18.6 L59.245,18.2645"/>
            <path d="M29,20.125 L29,19.89"/>
            <path d="M31,20.125 L31,19.89"/>
            <path d="M31,20.125 L31,20.11"/>
            <path d="M31,20.11 L30.755,20.11"/>
            <path d="M30.755,19.89 L31,19.89"/>
            <path d="M31,19.89 L31,19.875"/>
            <path d="M31,19.875 L30.755,19.875"/>
            <path d="M29.245,19.875 L29,19.875"/>
            <path d="M29,19.875 L29,19.89"/>
            <path d="M29,19.89 L29.245,19.89"/>
            <path d="M29.245,20.11 L29,20.11"/>
            <path d="M29,20.11 L29,20.125"/>
            <path d="M29,70 L29,20.125"/>
            <path d="M29,20.125 L31,20.125"/>
            <path d="M31,70 L31,20.125"/>
            <path d="M29,70 L31,70"/>
            <path d="M120.755,20.0109 L120.755,20.125"/>
            <path d="M120.037,18.3935 L120.037,19.8819"/>
            <path d="M120.755,18.2645 L120.167,18.2645"/>
            <path d="M120.755,18.1504 L120.755,18.2645"/>
            <path d="M119.245,18.2645 L119.245,18.1504"/>
            <path d="M119.832,18.2645 L119.245,18.2645"/>
            <path d="M119.962,19.8819 L119.962,18.3935"/>
            <path d="M119.245,20.125 L119.245,20.0109"/>
            <path d="M120.755,20.125 L119.245,20.125"/>
            <path d="M120.167,20.0109 L120.755,20.0109"/>
            <path d="M120.755,20.0109 L120.755,18.1094"/>
            <path d="M120.755,16.9094 L120.755,16.8932"/>
            <path d="M120.055,19.9464 L120.037,19.8819"/>
            <path d="M120.102,19.9936 L120.055,19.9464"/>
            <path d="M120.167,20.0109 L120.102,19.9936"/>
            <path d="M120.037,19.8819 L120.038,18.3935"/>
            <path d="M120.102,18.2818 L120.167,18.2645"/>
            <path d="M120.055,18.329 L120.102,18.2818"/>
            <path d="M120.037,18.3935 L120.055,18.329"/>
            <path d="M119.245,18.1504 L120.755,18.1504"/>
            <path d="M120.755,18.1504 L120.755,18.1094"/>
            <path d="M120.755,16.9094 L120.755,16.8932"/>
            <path d="M119.245,18.1504 L119.245,18.1094"/>
            <path d="M119.245,16.9094 L119.245,16.8932"/>
            <path d="M119.945,18.329 L119.962,18.3935"/>
            <path d="M119.897,18.2818 L119.945,18.329"/>
            <path d="M119.832,18.2645 L119.897,18.2818"/>
            <path d="M119.897,19.9936 L119.832,20.0109"/>
            <path d="M119.945,19.9464 L119.897,19.9936"/>
            <path d="M119.962,19.8819 L119.945,19.9464"/>
            <path d="M119.245,20.0109 L119.832,20.0109"/>
            <path d="M119.245,20.0109 L119.245,19.4"/>
            <path d="M119.245,18.6 L119.245,18.2645"/>
            <path d="M90.1,15.7024 L90.1,15.638"/>
            <path d="M123,15.7025 L123,15.638"/>
            <path d="M123,15.638 L90.1,15.638"/>
            <path d="M90.1,15.7352 L90.1,15.7024"/>
            <path d="M123,15.7352 L123,15.7025"/>
            <path d="M123,15.7025 L90.1,15.7024"/>
            <path d="M90.1,15.7568 L90.1,15.7352"/>
            <path d="M90.1,15.7711 L90.1,15.7568"/>
            <path d="M90.1,15.7746 L90.1,15.7711"/>
            <path d="M123,15.7568 L123,15.7352"/>
            <path d="M123,15.7711 L123,15.7568"/>
            <path d="M123,15.7746 L123,15.7711"/>
            <path d="M90.1,15.7711 L90.1,15.7957"/>
            <path d="M123,15.7711 L123,15.7957"/>
            <path d="M90.1,16.6828 L90.1,15.7957"/>
            <path d="M123,16.6828 L123,15.7957"/>
            <path d="M90.1,16.7519 L90.1,16.7665"/>
            <path d="M90.1,16.7213 L90.1,16.7519"/>
            <path d="M90.1,16.6828 L90.1,16.7213"/>
            <path d="M123,16.7519 L123,16.7666"/>
            <path d="M123,16.7213 L123,16.7519"/>
            <path d="M123,16.6828 L123,16.7213"/>
            <path d="M90.1,16.8102 L90.1,16.7665"/>
            <path d="M123,16.8102 L123,16.7666"/>
            <path d="M90.1,16.819 L90.1,16.8102"/>
            <path d="M90.1,16.8374 L90.1,16.819"/>
            <path d="M90.1,16.8604 L90.1,16.8374"/>
            <path d="M123,16.819 L123,16.8102"/>
            <path d="M123,16.8374 L123,16.819"/>
            <path d="M123,16.8604 L123,16.8374"/>
            <path d="M90.1,16.8932 L90.1,16.8604"/>
            <path d="M123,16.8932 L123,16.8604"/>
            <path d="M123,16.8932 L90.1,16.8932"/>
            <path d="M60.1,15.7024 L60.1,15.638"/>
            <path d="M89.9,15.7025 L89.9,15.638"/>
            <path d="M89.9,15.638 L60.1,15.638"/>
            <path d="M60.1,15.7352 L60.1,15.7024"/>
            <path d="M89.9,15.7352 L89.9,15.7025"/>
            <path d="M89.9,15.7025 L60.1,15.7024"/>
            <path d="M60.1,15.7568 L60.1,15.7352"/>
            <path d="M60.1,15.7711 L60.1,15.7568"/>
            <path d="M60.1,15.7746 L60.1,15.7711"/>
            <path d="M89.9,15.7568 L89.9,15.7352"/>
            <path d="M89.9,15.7711 L89.9,15.7568"/>
            <path d="M89.9,15.7746 L89.9,15.7711"/>
            <path d="M60.1,15.7711 L60.1,15.7957"/>
            <path d="M89.9,15.7711 L89.9,15.7957"/>
            <path d="M60.1,16.6828 L60.1,15.7957"/>
            <path d="M89.9,16.6828 L89.9,15.7957"/>
            <path d="M60.1,16.7519 L60.1,16.7665"/>
            <path d="M60.1,16.7213 L60.1,16.7519"/>
            <path d="M60.1,16.6828 L60.1,16.7213"/>
            <path d="M89.9,16.7519 L89.9,16.7666"/>
            <path d="M89.9,16.7213 L89.9,16.7519"/>
            <path d="M89.9,16.6828 L89.9,16.7213"/>
            <path d="M60.1,16.8102 L60.1,16.7665"/>
            <path d="M89.9,16.8102 L89.9,16.7666"/>
            <path d="M60.1,16.819 L60.1,16.8102"/>
            <path d="M60.1,16.8374 L60.1,16.819"/>
            <path d="M60.1,16.8604 L60.1,16.8374"/>
            <path d="M89.9,16.819 L89.9,16.8102"/>
            <path d="M89.9,16.8374 L89.9,16.819"/>
            <path d="M89.9,16.8604 L89.9,16.8374"/>
            <path d="M60.1,16.8932 L60.1,16.8604"/>
            <path d="M89.9,16.8932 L89.9,16.8604"/>
            <path d="M89.9,16.8932 L60.1,16.8932"/>
            <path d="M90.755,20.0109 L90.755,20.125"/>
            <path d="M90.0375,18.3935 L90.0375,19.8819"/>
            <path d="M90.755,18.2645 L90.1675,18.2645"/>
            <path d="M90.755,18.1504 L90.755,18.2645"/>
            <path d="M89.245,18.2645 L89.245,18.1504"/>
            <path d="M89.8325,18.2645 L89.245,18.2645"/>
            <path d="M89.9625,19.8819 L89.9625,18.3935"/>
            <path d="M89.245,20.125 L89.245,20.0109"/>
            <path d="M90.755,20.125 L89.245,20.125"/>
            <path d="M90.1675,20.0109 L90.755,20.0109"/>
            <path d="M90.755,20.0109 L90.755,19.4"/>
            <path d="M90.755,18.6 L90.755,18.1094"/>
            <path d="M90.755,16.9094 L90.755,16.8932"/>
            <path d="M90.0549,19.9464 L90.0375,19.8819"/>
            <path d="M90.1025,19.9936 L90.0549,19.9464"/>
            <path d="M90.1675,20.0109 L90.1025,19.9936"/>
            <path d="M90.0375,19.8819 L90.0375,19.4"/>
            <path d="M90.0375,18.5721 L90.0375,18.3935"/>
            <path d="M90.1025,18.2818 L90.1675,18.2645"/>
            <path d="M90.0549,18.329 L90.1025,18.2818"/>
            <path d="M90.0375,18.3935 L90.0549,18.329"/>
            <path d="M89.9,12.8693 L90.1,12.8693"/>
            <path d="M89.245,18.1504 L90.755,18.1504"/>
            <path d="M90.755,18.1504 L90.755,18.1094"/>
            <path d="M90.755,16.9094 L90.755,16.8932"/>
            <path d="M89.245,18.1504 L89.245,18.1094"/>
            <path d="M89.245,16.9094 L89.245,16.8932"/>
            <path d="M89.9451,18.329 L89.9625,18.3935"/>
            <path d="M89.8975,18.2818 L89.9451,18.329"/>
            <path d="M89.8325,18.2645 L89.8975,18.2818"/>
            <path d="M89.8975,19.9936 L89.8325,20.0109"/>
            <path d="M89.9451,19.9464 L89.8975,19.9936"/>
            <path d="M89.9625,19.8819 L89.9451,19.9464"/>
            <path d="M89.245,20.0109 L89.8325,20.0109"/>
            <path d="M89.245,20.0109 L89.245,19.4"/>
            <path d="M89.245,18.44 L89.245,18.2645"/>
            <path d="M30.755,20.0091 L30.755,19.4"/>
            <path d="M30.755,18.6 L30.755,18.1094"/>
            <path d="M30.755,16.9094 L30.755,16.8932"/>
            <path d="M30.0375,19.8781 L30.0375,19.4"/>
            <path d="M30.0375,18.6 L30.0375,18.3664"/>
            <path d="M29.245,18.1195 L29.245,18.1094"/>
            <path d="M29.245,16.9094 L29.245,16.8932"/>
            <path d="M30.755,18.1195 L30.755,18.1094"/>
            <path d="M30.755,16.9094 L30.755,16.8932"/>
            <path d="M29.245,20.0091 L29.245,18.2354"/>
            <path d="M29.245,20.125 L30.755,20.125"/>
            <path d="M30.755,20.125 L30.755,20.0091"/>
            <path d="M30.755,20.0091 L30.1675,20.0091"/>
            <path d="M30.0375,19.8781 L30.1675,20.0091"/>
            <path d="M30.0375,19.8781 L30.0375,18.3664"/>
            <path d="M30.1675,18.2354 L30.0375,18.3664"/>
            <path d="M30.1675,18.2354 L30.755,18.2354"/>
            <path d="M30.755,18.2354 L30.755,18.1195"/>
            <path d="M30.755,18.1195 L29.245,18.1195"/>
            <path d="M29.245,18.1195 L29.245,18.2354"/>
            <path d="M29.245,18.2354 L29.8325,18.2354"/>
            <path d="M29.9625,18.3664 L29.8325,18.2354"/>
            <path d="M29.9625,18.3664 L29.9625,19.8781"/>
            <path d="M29.8325,20.0091 L29.9625,19.8781"/>
            <path d="M29.8325,20.0091 L29.245,20.0091"/>
            <path d="M29.245,20.0091 L29.245,20.125"/>
            <path d="M27,15.7024 L27,15.638"/>
            <path d="M59.9,15.7024 L59.9,15.638"/>
            <path d="M59.9,15.638 L27,15.638"/>
            <path d="M27,15.7352 L27,15.7024"/>
            <path d="M59.9,15.7352 L59.9,15.7024"/>
            <path d="M59.9,15.7024 L27,15.7024"/>
            <path d="M27,15.7568 L27,15.7352"/>
            <path d="M27,15.7711 L27,15.7568"/>
            <path d="M27,15.7746 L27,15.7711"/>
            <path d="M59.9,15.7568 L59.9,15.7352"/>
            <path d="M59.9,15.7711 L59.9,15.7568"/>
            <path d="M59.9,15.7746 L59.9,15.7711"/>
            <path d="M27,15.7711 L27,15.7743"/>
            <path d="M59.9,15.7711 L59.9,15.7957"/>
            <path d="M27,16.6828 L27,15.7957"/>
            <path d="M59.9,16.6828 L59.9,15.7957"/>
            <path d="M27,16.7519 L27,16.7665"/>
            <path d="M27,16.7213 L27,16.7519"/>
            <path d="M27,16.6828 L27,16.7213"/>
            <path d="M59.9,16.7519 L59.9,16.7666"/>
            <path d="M59.9,16.7213 L59.9,16.7519"/>
            <path d="M59.9,16.6828 L59.9,16.7213"/>
            <path d="M27,16.8102 L27,16.7665"/>
            <path d="M59.9,16.8102 L59.9,16.7666"/>
            <path d="M27,16.819 L27,16.8102"/>
            <path d="M27,16.8374 L27,16.819"/>
            <path d="M27,16.8604 L27,16.8374"/>
            <path d="M59.9,16.819 L59.9,16.8102"/>
            <path d="M59.9,16.8374 L59.9,16.819"/>
            <path d="M59.9,16.8604 L59.9,16.8374"/>
            <path d="M27,16.8932 L27,16.8604"/>
            <path d="M59.9,16.8932 L59.9,16.8604"/>
            <path d="M59.9,16.8932 L27,16.8932"/>
            <path d="M90.1,14.7103 L90.1,14.6458"/>
            <path d="M123,14.7103 L123,14.6458"/>
            <path d="M123,14.6458 L90.1,14.6458"/>
            <path d="M90.1,14.743 L90.1,14.7103"/>
            <path d="M123,14.743 L123,14.7103"/>
            <path d="M123,14.7103 L90.1,14.7103"/>
            <path d="M90.1,14.7646 L90.1,14.743"/>
            <path d="M90.1,14.7789 L90.1,14.7646"/>
            <path d="M90.1,14.7825 L90.1,14.7789"/>
            <path d="M123,14.7646 L123,14.743"/>
            <path d="M123,14.7789 L123,14.7646"/>
            <path d="M123,14.7825 L123,14.7789"/>
            <path d="M90.1,14.7789 L90.1,14.8036"/>
            <path d="M123,14.7789 L123,14.8036"/>
            <path d="M90.1,15.638 L90.1,14.8036"/>
            <path d="M123,15.638 L123,14.8036"/>
            <path d="M90.1,15.7359 L90.1,15.7568"/>
            <path d="M123,15.7957 L123,15.7957"/>
            <path d="M60.1,14.7103 L60.1,14.6458"/>
            <path d="M89.9,14.7103 L89.9,14.6458"/>
            <path d="M89.9,14.6458 L60.1,14.6458"/>
            <path d="M60.1,14.743 L60.1,14.7103"/>
            <path d="M89.9,14.743 L89.9,14.7103"/>
            <path d="M89.9,14.7103 L60.1,14.7103"/>
            <path d="M60.1,14.7646 L60.1,14.743"/>
            <path d="M60.1,14.7789 L60.1,14.7646"/>
            <path d="M60.1,14.7825 L60.1,14.7789"/>
            <path d="M89.9,14.7646 L89.9,14.743"/>
            <path d="M89.9,14.7789 L89.9,14.7646"/>
            <path d="M89.9,14.7825 L89.9,14.7789"/>
            <path d="M60.1,14.7789 L60.1,14.8036"/>
            <path d="M89.9,14.7789 L89.9,14.8036"/>
            <path d="M60.1,15.638 L60.1,14.8036"/>
            <path d="M89.9,15.638 L89.9,14.8036"/>
            <path d="M60.1,15.7352 L60.1,15.7568"/>
            <path d="M89.9,15.7957 L89.9,15.7957"/>
            <path d="M27,14.7103 L27,14.6458"/>
            <path d="M59.9,14.7103 L59.9,14.6458"/>
            <path d="M59.9,14.6458 L27,14.6458"/>
            <path d="M27,14.743 L27,14.7103"/>
            <path d="M59.9,14.743 L59.9,14.7103"/>
            <path d="M59.9,14.7103 L27,14.7103"/>
            <path d="M27,14.7646 L27,14.743"/>
            <path d="M27,14.7789 L27,14.7646"/>
            <path d="M27,14.7825 L27,14.7789"/>
            <path d="M59.9,14.7646 L59.9,14.743"/>
            <path d="M59.9,14.7789 L59.9,14.7646"/>
            <path d="M59.9,14.7825 L59.9,14.7789"/>
            <path d="M27,14.7789 L27,14.7821"/>
            <path d="M59.9,14.7789 L59.9,14.8036"/>
            <path d="M27,15.6907 L27,14.8036"/>
            <path d="M59.9,15.638 L59.9,14.8036"/>
            <path d="M27,15.7598 L27,15.7744"/>
            <path d="M27,15.7291 L27,15.7598"/>
            <path d="M27,15.6907 L27,15.7291"/>
            <path d="M27,15.818 L27,15.7744"/>
            <path d="M27,15.8268 L27,15.818"/>
            <path d="M27,15.8452 L27,15.8268"/>
            <path d="M27,15.8683 L27,15.8452"/>
            <path d="M27,15.901 L27,15.8683"/>
            <path d="M27,15.901 L27,15.901"/>
            <path d="M90.1,13.7181 L90.1,13.6536"/>
            <path d="M123,13.7181 L123,13.6537"/>
            <path d="M123,13.6537 L90.1,13.6536"/>
            <path d="M90.1,13.7509 L90.1,13.7181"/>
            <path d="M123,13.7509 L123,13.7181"/>
            <path d="M123,13.7181 L90.1,13.7181"/>
            <path d="M90.1,13.7725 L90.1,13.7509"/>
            <path d="M90.1,13.7868 L90.1,13.7725"/>
            <path d="M90.1,13.7903 L90.1,13.7868"/>
            <path d="M123,13.7725 L123,13.7509"/>
            <path d="M123,13.7868 L123,13.7725"/>
            <path d="M123,13.7903 L123,13.7868"/>
            <path d="M90.1,13.7868 L90.1,13.8114"/>
            <path d="M123,13.7868 L123,13.8114"/>
            <path d="M90.1,14.6458 L90.1,13.8114"/>
            <path d="M123,14.6458 L123,13.8114"/>
            <path d="M90.1,14.7438 L90.1,14.7646"/>
            <path d="M123,14.8036 L123,14.8036"/>
            <path d="M60.1,13.7181 L60.1,13.6536"/>
            <path d="M89.9,13.7181 L89.9,13.6537"/>
            <path d="M89.9,13.6537 L60.1,13.6536"/>
            <path d="M60.1,13.7509 L60.1,13.7181"/>
            <path d="M89.9,13.7509 L89.9,13.7181"/>
            <path d="M89.9,13.7181 L60.1,13.7181"/>
            <path d="M60.1,13.7725 L60.1,13.7509"/>
            <path d="M60.1,13.7868 L60.1,13.7725"/>
            <path d="M60.1,13.7903 L60.1,13.7868"/>
            <path d="M89.9,13.7725 L89.9,13.7509"/>
            <path d="M89.9,13.7868 L89.9,13.7725"/>
            <path d="M89.9,13.7903 L89.9,13.7868"/>
            <path d="M60.1,13.7868 L60.1,13.8114"/>
            <path d="M89.9,13.7868 L89.9,13.8114"/>
            <path d="M60.1,14.6458 L60.1,13.8114"/>
            <path d="M89.9,14.6458 L89.9,13.8114"/>
            <path d="M60.1,14.743 L60.1,14.7646"/>
            <path d="M89.9,14.8036 L89.9,14.8036"/>
            <path d="M27,13.7181 L27,13.6536"/>
            <path d="M59.9,13.7181 L59.9,13.6536"/>
            <path d="M59.9,13.6536 L27,13.6536"/>
            <path d="M27,13.7509 L27,13.7181"/>
            <path d="M59.9,13.7509 L59.9,13.7181"/>
            <path d="M59.9,13.7181 L27,13.7181"/>
            <path d="M27,13.7725 L27,13.7509"/>
            <path d="M27,13.7868 L27,13.7725"/>
            <path d="M27,13.7903 L27,13.7868"/>
            <path d="M59.9,13.7725 L59.9,13.7509"/>
            <path d="M59.9,13.7868 L59.9,13.7725"/>
            <path d="M59.9,13.7903 L59.9,13.7868"/>
            <path d="M27,13.7868 L27,13.7899"/>
            <path d="M59.9,13.7868 L59.9,13.8114"/>
            <path d="M27,14.6985 L27,13.8114"/>
            <path d="M59.9,14.6458 L59.9,13.8114"/>
            <path d="M27,14.7676 L27,14.7822"/>
            <path d="M27,14.737 L27,14.7676"/>
            <path d="M27,14.6985 L27,14.737"/>
            <path d="M27,14.8259 L27,14.7822"/>
            <path d="M27,14.8347 L27,14.8259"/>
            <path d="M27,14.853 L27,14.8347"/>
            <path d="M27,14.8761 L27,14.853"/>
            <path d="M27,14.9089 L27,14.8761"/>
            <path d="M27,14.9089 L27,14.9089"/>
            <path d="M90.1,12.726 L90.1,12.6615"/>
            <path d="M123,12.726 L123,12.6615"/>
            <path d="M123,12.6615 L90.1,12.6615"/>
            <path d="M90.1,12.7587 L90.1,12.726"/>
            <path d="M123,12.7587 L123,12.726"/>
            <path d="M123,12.726 L90.1,12.726"/>
            <path d="M90.1,12.7803 L90.1,12.7587"/>
            <path d="M90.1,12.7946 L90.1,12.7803"/>
            <path d="M90.1,12.7981 L90.1,12.7946"/>
            <path d="M123,12.7803 L123,12.7587"/>
            <path d="M123,12.7946 L123,12.7803"/>
            <path d="M123,12.7982 L123,12.7946"/>
            <path d="M90.1,12.7946 L90.1,12.8193"/>
            <path d="M123,12.7946 L123,12.8193"/>
            <path d="M90.1,13.6536 L90.1,12.8193"/>
            <path d="M123,13.6537 L123,12.8193"/>
            <path d="M90.1,13.7516 L90.1,13.7725"/>
            <path d="M123,13.8114 L123,13.8114"/>
            <path d="M60.1,12.726 L60.1,12.6615"/>
            <path d="M89.9,12.726 L89.9,12.6615"/>
            <path d="M89.9,12.6615 L60.1,12.6615"/>
            <path d="M60.1,12.7587 L60.1,12.726"/>
            <path d="M89.9,12.7587 L89.9,12.726"/>
            <path d="M89.9,12.726 L60.1,12.726"/>
            <path d="M60.1,12.7803 L60.1,12.7587"/>
            <path d="M60.1,12.7946 L60.1,12.7803"/>
            <path d="M60.1,12.7981 L60.1,12.7946"/>
            <path d="M89.9,12.7803 L89.9,12.7587"/>
            <path d="M89.9,12.7946 L89.9,12.7803"/>
            <path d="M89.9,12.7982 L89.9,12.7946"/>
            <path d="M60.1,12.7946 L60.1,12.8193"/>
            <path d="M89.9,12.7946 L89.9,12.8193"/>
            <path d="M60.1,13.6536 L60.1,12.8193"/>
            <path d="M89.9,13.6537 L89.9,12.8193"/>
            <path d="M60.1,13.7509 L60.1,13.7725"/>
            <path d="M89.9,13.8114 L89.9,13.8114"/>
            <path d="M27,12.726 L27,12.6615"/>
            <path d="M59.9,12.726 L59.9,12.6615"/>
            <path d="M59.9,12.6615 L27,12.6615"/>
            <path d="M27,12.7587 L27,12.726"/>
            <path d="M59.9,12.7587 L59.9,12.726"/>
            <path d="M59.9,12.726 L27,12.726"/>
            <path d="M27,12.7803 L27,12.7587"/>
            <path d="M27,12.7946 L27,12.7803"/>
            <path d="M27,12.7981 L27,12.7946"/>
            <path d="M59.9,12.7803 L59.9,12.7587"/>
            <path d="M59.9,12.7946 L59.9,12.7803"/>
            <path d="M59.9,12.7981 L59.9,12.7946"/>
            <path d="M27,12.7946 L27,12.7978"/>
            <path d="M59.9,12.7946 L59.9,12.8193"/>
            <path d="M27,13.7064 L27,12.8193"/>
            <path d="M59.9,13.6536 L59.9,12.8193"/>
            <path d="M27,13.7755 L27,13.7901"/>
            <path d="M27,13.7448 L27,13.7755"/>
            <path d="M27,13.7064 L27,13.7448"/>
            <path d="M27,13.8337 L27,13.7901"/>
            <path d="M27,13.8425 L27,13.8337"/>
            <path d="M27,13.8609 L27,13.8425"/>
            <path d="M27,13.884 L27,13.8609"/>
            <path d="M27,13.9167 L27,13.884"/>
            <path d="M27,13.9167 L27,13.9167"/>
            <path d="M123,16.9094 L123,18.1094"/>
            <path d="M90.1,16.9094 L90.1,18.1094"/>
            <path d="M90.1,18.1094 L123,18.1094"/>
            <path d="M90.1,16.9094 L123,16.9094"/>
            <path d="M89.9,16.9094 L89.9,18.1094"/>
            <path d="M60.1,16.9094 L60.1,18.1094"/>
            <path d="M60.1,18.1094 L89.9,18.1094"/>
            <path d="M60.1,16.9094 L89.9,16.9094"/>
            <path d="M59.9,16.9094 L59.9,18.1094"/>
            <path d="M27,16.9094 L27,18.1094"/>
            <path d="M27,18.1094 L59.9,18.1094"/>
            <path d="M27,16.9094 L59.9,16.9094"/>
            <path d="M73.7619,16.9094 L73.7609,16.8932"/>
            <path d="M90.0375,19.4 L119.962,19.4"/>
            <path d="M90.0375,18.6 L119.962,18.6"/>
            <path d="M30.0375,19.4 L59.9625,19.4"/>
            <path d="M30.0375,18.6 L59.9625,18.6"/>
            <path d="M60.0375,19.4 L89.9625,19.4"/>
            <path d="M60.0375,18.6 L89.9625,18.6"/>
            <path d="M73.4016,43.064 L73.4016,43.064"/>
            <path d="M73.7817,42.8049 L73.7817,42.8049"/>
            <path d="M73.4016,43.064 L73.4016,43.064"/>
            <path d="M73.4016,43.064 L73.7817,42.8049"/>
            <path d="M73.9221,42.7091 L61,23.7566"/>
            <path d="M73.8519,42.757 L73.7817,42.8049"/>
            <path d="M73.9033,42.7219 L73.8519,42.757"/>
            <path d="M73.9221,42.7091 L73.9033,42.7219"/>
            <path d="M73.9221,42.7091 L73.9221,42.7091"/>
            <path d="M73.9033,42.7219 L73.9033,42.7219"/>
            <path d="M73.28,43.1469 L73.28,43.1469"/>
            <path d="M73.2612,43.1598 L61,25.1767"/>
            <path d="M73.28,43.1469 L73.2612,43.1598"/>
            <path d="M73.3314,43.1119 L73.28,43.1469"/>
            <path d="M73.4016,43.064 L73.3314,43.1119"/>
            <path d="M76.2183,47.1951 L76.2183,47.1951"/>
            <path d="M76.5984,46.936 L76.5984,46.936"/>
            <path d="M76.2183,47.1951 L76.2183,47.1951"/>
            <path d="M76.7388,46.8402 L76.7388,46.8402"/>
            <path d="M76.72,46.8531 L76.72,46.8531"/>
            <path d="M76.6686,46.8881 L76.5984,46.936"/>
            <path d="M76.72,46.8531 L76.6686,46.8881"/>
            <path d="M76.7388,46.8402 L76.72,46.8531"/>
            <path d="M89,64.8233 L76.7388,46.8402"/>
            <path d="M76.5984,46.936 L76.2183,47.1951"/>
            <path d="M76.0967,47.2781 L76.0967,47.2781"/>
            <path d="M89,66.2434 L76.0778,47.2909"/>
            <path d="M76.0967,47.2781 L76.0778,47.2909"/>
            <path d="M76.1481,47.243 L76.0967,47.2781"/>
            <path d="M76.2183,47.1951 L76.1481,47.243"/>
            <path d="M61,66.2434 L89,25.1767"/>
            <path d="M61,64.8233 L89,23.7566"/>
            <path d="M119,20.125 L119,19.89"/>
            <path d="M121,20.125 L121,19.89"/>
            <path d="M121,20.125 L121,20.11"/>
            <path d="M121,20.11 L120.755,20.11"/>
            <path d="M120.755,19.89 L121,19.89"/>
            <path d="M121,19.89 L121,19.875"/>
            <path d="M121,19.875 L120.755,19.875"/>
            <path d="M119.245,19.875 L119,19.875"/>
            <path d="M119,19.875 L119,19.89"/>
            <path d="M119,19.89 L119.245,19.89"/>
            <path d="M119.245,20.11 L119,20.11"/>
            <path d="M119,20.11 L119,20.125"/>
            <path d="M119,70 L119,20.125"/>
            <path d="M119,20.125 L121,20.125"/>
            <path d="M121,70 L121,20.125"/>
            <path d="M119,70 L121,70"/>
            <path d="M89,20.125 L89,19.89"/>
            <path d="M91,20.125 L91,19.89"/>
            <path d="M91,20.125 L91,20.11"/>
            <path d="M91,20.11 L90.755,20.11"/>
            <path d="M90.755,19.89 L91,19.89"/>
            <path d="M91,19.89 L91,19.875"/>
            <path d="M91,19.875 L90.755,19.875"/>
            <path d="M89.245,19.875 L89,19.875"/>
            <path d="M89,19.875 L89,19.89"/>
            <path d="M89,19.89 L89.245,19.89"/>
            <path d="M89.245,20.11 L89,20.11"/>
            <path d="M89,20.11 L89,20.125"/>
            <path d="M89,70 L89,20.125"/>
            <path d="M89,20.125 L91,20.125"/>
            <path d="M91,70 L91,20.125"/>
            <path d="M89,70 L91,70"/>
            <path d="M59,20.125 L59,19.89"/>
            <path d="M61,20.125 L61,19.89"/>
            <path d="M61,20.125 L61,20.11"/>
            <path d="M61,20.11 L60.755,20.11"/>
            <path d="M60.755,19.89 L61,19.89"/>
            <path d="M61,19.89 L61,19.875"/>
            <path d="M61,19.875 L60.755,19.875"/>
            <path d="M59.245,19.875 L59,19.875"/>
            <path d="M59,19.875 L59,19.89"/>
            <path d="M59,19.89 L59.245,19.89"/>
            <path d="M59.245,20.11 L59,20.11"/>
            <path d="M59,20.11 L59,20.125"/>
            <path d="M59,70 L59,20.125"/>
            <path d="M59,20.125 L61,20.125"/>
            <path d="M61,70 L61,20.125"/>
            <path d="M59,70 L61,70"/>
        </g>
    </g>
</svg>