<svg xmlns="http://www.w3.org/2000/svg" xmlns:xlink="http://www.w3.org/1999/xlink" xmlns:ifc="http://www.ifcopenshell.org/ns" width="200mm" height="120mm" viewBox="0 0 200 120">
    <defs>
        <marker id="arrowend" markerWidth="10" markerHeight="7" refX="10" refY="3.5" orient="auto">
          <polygon points="0 0, 10 3.5, 0 7"/>
        </marker>
        <marker id="arrowstart" markerWidth="10" markerHeight="7" refX="0" refY="3.5" orient="auto">
          <polygon points="10 0, 0 3.5, 10 7"/>
        </marker>
    </defs>
    <g ifc:name="Elevation &#1057;&#1093;&#1077;&#1084;&#1072; &#1088;&#1072;&#1089;&#1087;&#1086;&#1083;&#1086;&#1078;&#1077;&#1085;&#1080;&#1103; &#1082;&#1086;&#1085;&#1089;&#1090;&#1088;&#1091;&#1082;&#1094;&#1080;&#1081; &#1087;&#1086;&#1082;&#1088;&#1099;&#1090;&#1080;&#1103;" class="section" ifc:plane="[[1.000000,0.000000,0.000000,0.000000],[0.000000,1.000000,0.000000,0.000000],[0.000000,0.000000,1.000000,10.000000],[0.000000,0.000000,0.000000,1.000000]]" ifc:matrix3="[[10.000000,0.000000,60.000000],[0.000000,10.000000,79.999999],[0.000000,0.000000,1.000000]]">
        <g class="projection">
            <path d="M120.755,38.7662 L120.755,38.7519"/>
            <path d="M120.038,38.9684 L120.038,38.7823"/>
            <path d="M120.755,38.9845 L120.168,38.9845"/>
            <path d="M120.755,38.9988 L120.755,38.9845"/>
            <path d="M119.245,38.9845 L119.245,38.9988"/>
            <path d="M119.833,38.9845 L119.245,38.9845"/>
            <path d="M119.963,38.7823 L119.963,38.9684"/>
            <path d="M119.245,38.7519 L119.245,38.7662"/>
            <path d="M120.755,38.7519 L119.245,38.7519"/>
            <path d="M120.168,38.7662 L120.755,38.7662"/>
            <path d="M120.755,38.9988 L120.755,38.7662"/>
            <path d="M120.055,38.7743 L120.038,38.7823"/>
            <path d="M120.103,38.7684 L120.055,38.7743"/>
            <path d="M120.168,38.7662 L120.103,38.7684"/>
            <path d="M120.103,38.9823 L120.168,38.9845"/>
            <path d="M120.055,38.9764 L120.103,38.9823"/>
            <path d="M120.038,38.9684 L120.055,38.9764"/>
            <path d="M119.245,38.9988 L120.755,38.9988"/>
            <path d="M119.245,81.2468 L120.755,81.2468"/>
            <path d="M120.755,81.2468 L120.755,38.9988"/>
            <path d="M119.245,81.2468 L119.245,38.9988"/>
            <path d="M119.945,38.9764 L119.963,38.9684"/>
            <path d="M119.898,38.9823 L119.945,38.9764"/>
            <path d="M119.833,38.9845 L119.898,38.9823"/>
            <path d="M119.898,38.7684 L119.833,38.7662"/>
            <path d="M119.945,38.7743 L119.898,38.7684"/>
            <path d="M119.963,38.7823 L119.945,38.7743"/>
            <path d="M119.245,38.7662 L119.833,38.7662"/>
            <path d="M119.245,38.9988 L119.245,38.7662"/>
            <path d="M119.245,78.3267 L90.8,40.4"/>
            <path d="M119.216,79.621 L90.755,41.6733"/>
            <path d="M106.084,57.8875 L119.2,40.4"/>
            <path d="M106.098,57.9079 L106.084,57.8875"/>
            <path d="M106.144,57.9502 L106.098,57.9079"/>
            <path d="M106.21,58.003 L106.144,57.9502"/>
            <path d="M106.21,58.003 L106.578,58.279"/>
            <path d="M106.724,58.3675 L119.245,41.6733"/>
            <path d="M106.648,58.3282 L106.578,58.279"/>
            <path d="M106.701,58.3606 L106.648,58.3282"/>
            <path d="M106.724,58.3675 L106.701,58.3606"/>
            <path d="M103.683,62.3056 L103.711,62.269"/>
            <path d="M90.7842,79.621 L103.739,62.3476"/>
            <path d="M90.755,78.3267 L103.099,61.8676"/>
            <path d="M103.269,61.9251 L103.637,62.2011"/>
            <path d="M103.228,61.8961 L103.269,61.9251"/>
            <path d="M103.196,61.8771 L103.228,61.8961"/>
            <path d="M103.183,61.873 L103.196,61.8771"/>
            <path d="M103.155,61.9096 L103.183,61.873"/>
            <path d="M103.163,61.9217 L103.155,61.9096"/>
            <path d="M103.19,61.9465 L103.163,61.9217"/>
            <path d="M103.229,61.9776 L103.19,61.9465"/>
            <path d="M103.597,62.2536 L103.229,61.9776"/>
            <path d="M103.638,62.2825 L103.597,62.2536"/>
            <path d="M103.67,62.3016 L103.638,62.2825"/>
            <path d="M103.683,62.3056 L103.67,62.3016"/>
            <path d="M103.711,62.269 L103.683,62.3056"/>
            <path d="M103.703,62.257 L103.711,62.269"/>
            <path d="M103.676,62.2321 L103.703,62.257"/>
            <path d="M103.637,62.2011 L103.676,62.2321"/>
            <path d="M103.273,61.9195 L103.641,62.1955"/>
            <path d="M103.754,62.2906 L103.767,62.311"/>
            <path d="M103.708,62.2483 L103.754,62.2906"/>
            <path d="M103.641,62.1955 L103.708,62.2483"/>
            <path d="M103.767,62.311 L103.739,62.3476"/>
            <path d="M103.662,62.3084 L103.593,62.2592"/>
            <path d="M103.716,62.3407 L103.662,62.3084"/>
            <path d="M103.739,62.3476 L103.716,62.3407"/>
            <path d="M103.593,62.2592 L103.225,61.9832"/>
            <path d="M103.112,61.8881 L103.099,61.8676"/>
            <path d="M103.158,61.9304 L103.112,61.8881"/>
            <path d="M103.225,61.9832 L103.158,61.9304"/>
            <path d="M103.099,61.8676 L103.127,61.831"/>
            <path d="M103.204,61.8703 L103.273,61.9195"/>
            <path d="M103.15,61.8379 L103.204,61.8703"/>
            <path d="M103.127,61.831 L103.15,61.8379"/>
            <path d="M103.099,61.8676 L103.127,61.831"/>
            <path d="M120.755,40.4 L149.245,40.4"/>
            <path d="M120.755,39.6 L149.245,39.6"/>
            <path d="M120.755,80.4 L149.245,80.4"/>
            <path d="M120.755,79.6 L149.245,79.6"/>
            <path d="M103.601,39.6 L90.755,39.6"/>
            <path d="M103.601,39.6 L103.601,39.6"/>
            <path d="M119.245,39.6 L106.212,39.6"/>
            <path d="M105.82,39.6 L105.82,39.6"/>
            <path d="M105.82,39.6 L106.212,39.6"/>
            <path d="M106.212,39.6 L106.212,39.6"/>
            <path d="M119.2,79.6 L106.598,79.6"/>
            <path d="M59.245,81 L59.245,39"/>
            <path d="M59.245,39 L60.755,39"/>
            <path d="M60.755,81 L60.755,39"/>
            <path d="M60.755,81 L59.245,81"/>
            <path d="M59,41 L59.245,41"/>
            <path d="M60.755,41 L61,41"/>
            <path d="M61,41 L61,40.88"/>
            <path d="M61,40.88 L60.755,40.88"/>
            <path d="M60.755,39.12 L61,39.12"/>
            <path d="M61,39.12 L61,39"/>
            <path d="M61,39 L60.755,39"/>
            <path d="M59.245,39 L59,39"/>
            <path d="M59,39 L59,39.12"/>
            <path d="M59,39.12 L59.245,39.12"/>
            <path d="M59.245,40.88 L59,40.88"/>
            <path d="M59,40.88 L59,41"/>
            <path d="M90.755,38.7662 L90.755,38.7519"/>
            <path d="M90.0375,38.9684 L90.0375,38.7823"/>
            <path d="M90.755,38.9845 L90.1675,38.9845"/>
            <path d="M90.755,38.9988 L90.755,38.9845"/>
            <path d="M89.245,38.9845 L89.245,38.9988"/>
            <path d="M89.8325,38.9845 L89.245,38.9845"/>
            <path d="M89.9625,38.7823 L89.9625,38.9684"/>
            <path d="M89.245,38.7519 L89.245,38.7662"/>
            <path d="M90.755,38.7519 L89.245,38.7519"/>
            <path d="M90.1675,38.7662 L90.755,38.7662"/>
            <path d="M90.755,38.9988 L90.755,38.7662"/>
            <path d="M90.0549,38.7743 L90.0375,38.7823"/>
            <path d="M90.1025,38.7684 L90.0549,38.7743"/>
            <path d="M90.1675,38.7662 L90.1025,38.7684"/>
            <path d="M90.1025,38.9823 L90.1675,38.9845"/>
            <path d="M90.0549,38.9764 L90.1025,38.9823"/>
            <path d="M90.0375,38.9684 L90.0549,38.9764"/>
            <path d="M89.245,38.9988 L90.755,38.9988"/>
            <path d="M89.245,81.2468 L90.755,81.2468"/>
            <path d="M90.755,81.2468 L90.755,38.9988"/>
            <path d="M89.245,81.2468 L89.245,38.9988"/>
            <path d="M89.9451,38.9764 L89.9625,38.9684"/>
            <path d="M89.8975,38.9823 L89.9451,38.9764"/>
            <path d="M89.8325,38.9845 L89.8975,38.9823"/>
            <path d="M89.8975,38.7684 L89.8325,38.7662"/>
            <path d="M89.9451,38.7743 L89.8975,38.7684"/>
            <path d="M89.9625,38.7823 L89.9451,38.7743"/>
            <path d="M89.245,38.7662 L89.8325,38.7662"/>
            <path d="M89.245,38.9988 L89.245,38.7662"/>
            <path d="M150.755,38.7662 L150.755,38.7519"/>
            <path d="M150.038,38.9684 L150.038,38.7823"/>
            <path d="M150.755,38.9845 L150.168,38.9845"/>
            <path d="M150.755,38.9988 L150.755,38.9845"/>
            <path d="M149.245,38.9845 L149.245,38.9988"/>
            <path d="M149.833,38.9845 L149.245,38.9845"/>
            <path d="M149.963,38.7823 L149.963,38.9684"/>
            <path d="M149.245,38.7519 L149.245,38.7662"/>
            <path d="M150.755,38.7519 L149.245,38.7519"/>
            <path d="M150.168,38.7662 L150.755,38.7662"/>
            <path d="M150.755,38.9988 L150.755,38.7662"/>
            <path d="M150.055,38.7743 L150.038,38.7823"/>
            <path d="M150.103,38.7684 L150.055,38.7743"/>
            <path d="M150.168,38.7662 L150.103,38.7684"/>
            <path d="M150.103,38.9823 L150.168,38.9845"/>
            <path d="M150.055,38.9764 L150.103,38.9823"/>
            <path d="M150.038,38.9684 L150.055,38.9764"/>
            <path d="M149.245,38.9988 L150.755,38.9988"/>
            <path d="M149.245,81.2468 L150.755,81.2468"/>
            <path d="M150.755,81.2468 L150.755,38.9988"/>
            <path d="M149.245,81.2468 L149.245,38.9988"/>
            <path d="M149.945,38.9764 L149.963,38.9684"/>
            <path d="M149.898,38.9823 L149.945,38.9764"/>
            <path d="M149.833,38.9845 L149.898,38.9823"/>
            <path d="M149.898,38.7684 L149.833,38.7662"/>
            <path d="M149.945,38.7743 L149.898,38.7684"/>
            <path d="M149.963,38.7823 L149.945,38.7743"/>
            <path d="M149.245,38.7662 L149.833,38.7662"/>
            <path d="M149.245,38.9988 L149.245,38.7662"/>
            <path d="M59,81 L61,81"/>
            <path d="M61,81 L61,80.88"/>
            <path d="M61,80.88 L60.755,80.88"/>
            <path d="M60.755,79.12 L61,79.12"/>
            <path d="M61,79.12 L61,79"/>
            <path d="M61,79 L60.755,79"/>
            <path d="M59.245,79 L59,79"/>
            <path d="M59,79 L59,79.12"/>
            <path d="M59,79.12 L59.245,79.12"/>
            <path d="M59.245,80.88 L59,80.88"/>
            <path d="M59,80.88 L59,81"/>
            <path d="M60.755,40.4 L89.245,40.4"/>
            <path d="M60.755,39.6 L89.245,39.6"/>
            <path d="M60.755,80.4 L89.245,80.4"/>
            <path d="M60.755,79.6 L89.245,79.6"/>
            <path d="M90.7742,40.4 L119.226,40.4"/>
            <path d="M90.755,39.6 L119.245,39.6"/>
            <path d="M90.755,80.4 L119.245,80.4"/>
            <path d="M90.8,79.6 L119.2,79.6"/>
            <path d="M103.601,39.6 L119.245,39.6"/>
            <path d="M149,41 L149.245,41"/>
            <path d="M150.755,41 L151,41"/>
            <path d="M151,41 L151,40.88"/>
            <path d="M151,40.88 L150.755,40.88"/>
            <path d="M150.755,39.12 L151,39.12"/>
            <path d="M151,39.12 L151,39"/>
            <path d="M151,39 L150.755,39"/>
            <path d="M149.245,39 L149,39"/>
            <path d="M149,39 L149,39.12"/>
            <path d="M149,39.12 L149.245,39.12"/>
            <path d="M149.245,40.88 L149,40.88"/>
            <path d="M149,40.88 L149,41"/>
            <path d="M149,81 L149.245,81"/>
            <path d="M150.755,81 L151,81"/>
            <path d="M151,81 L151,80.88"/>
            <path d="M151,80.88 L150.755,80.88"/>
            <path d="M150.755,79.12 L151,79.12"/>
            <path d="M151,79.12 L151,79"/>
            <path d="M151,79 L150.755,79"/>
            <path d="M149.245,79 L149,79"/>
            <path d="M149,79 L149,79.12"/>
            <path d="M149,79.12 L149.245,79.12"/>
            <path d="M149.245,80.88 L149,80.88"/>
            <path d="M149,80.88 L149,81"/>
            <path d="M120.755,41 L121,41"/>
            <path d="M121,41 L121,40.88"/>
            <path d="M121,40.88 L120.755,40.88"/>
            <path d="M120.755,39.12 L121,39.12"/>
            <path d="M121,39.12 L121,39"/>
            <path d="M121,39 L120.755,39"/>
            <path d="M119.245,39 L119,39"/>
            <path d="M119,39 L119,39.12"/>
            <path d="M119,39.12 L119.245,39.12"/>
            <path d="M119,81 L119.245,81"/>
            <path d="M120.755,81 L121,81"/>
            <path d="M121,81 L121,80.88"/>
            <path d="M121,80.88 L120.755,80.88"/>
            <path d="M120.755,79.12 L121,79.12"/>
            <path d="M121,79.12 L121,79"/>
            <path d="M121,79 L120.755,79"/>
            <path d="M119.245,80.88 L119,80.88"/>
            <path d="M119,80.88 L119,81"/>
            <path d="M89,41 L89.245,41"/>
            <path d="M90.755,39.12 L91,39.12"/>
            <path d="M91,39.12 L91,39"/>
            <path d="M91,39 L90.755,39"/>
            <path d="M89.245,39 L89,39"/>
            <path d="M89,39 L89,39.12"/>
            <path d="M89,39.12 L89.245,39.12"/>
            <path d="M89.245,40.88 L89,40.88"/>
            <path d="M89,40.88 L89,41"/>
            <path d="M89,81 L89.245,81"/>
            <path d="M90.755,81 L91,81"/>
            <path d="M91,81 L91,80.88"/>
            <path d="M91,80.88 L90.755,80.88"/>
            <path d="M89.245,79 L89,79"/>
            <path d="M89,79 L89,79.12"/>
            <path d="M89,79.12 L89.245,79.12"/>
            <path d="M89.245,80.88 L89,80.88"/>
            <path d="M89,80.88 L89,81"/>
        </g>
    </g>
</svg>