<svg xmlns="http://www.w3.org/2000/svg" xmlns:xlink="http://www.w3.org/1999/xlink" xmlns:ifc="http://www.ifcopenshell.org/ns" width="200mm" height="120mm" viewBox="0 0 200 120">
    <defs>
        <marker id="arrowend" markerWidth="10" markerHeight="7" refX="10" refY="3.5" orient="auto">
          <polygon points="0 0, 10 3.5, 0 7"/>
        </marker>
        <marker id="arrowstart" markerWidth="10" markerHeight="7" refX="0" refY="3.5" orient="auto">
          <polygon points="10 0, 0 3.5, 10 7"/>
        </marker>
    </defs>
    <g ifc:name="Elevation &#1057;&#1093;&#1077;&#1084;&#1072; &#1088;&#1072;&#1089;&#1087;&#1086;&#1083;&#1086;&#1078;&#1077;&#1085;&#1080;&#1103; &#1087;&#1088;&#1086;&#1075;&#1086;&#1085;" class="section" ifc:plane="[[1.000000,0.000000,0.000000,0.000000],[0.000000,1.000000,0.000000,0.000000],[0.000000,0.000000,1.000000,9.000000],[0.000000,0.000000,0.000000,1.000000]]" ifc:matrix3="[[10.000000,0.000000,60.000000],[0.000000,10.000000,79.999999],[0.000000,0.000000,1.000000]]">
        <g class="projection">
            <path d="M59,81 L61,81"/>
            <path d="M61,81 L61,81"/>
            <path d="M60.755,79.12 L61,79.12"/>
            <path d="M61,79.12 L61,79"/>
            <path d="M61,79 L60.755,79"/>
            <path d="M59.245,79 L59,79"/>
            <path d="M59,79 L59,79.12"/>
            <path d="M59,79.12 L59.245,79.12"/>
            <path d="M59,81 L59,81"/>
            <path d="M120.1,70.9017 L120.1,70.7529"/>
            <path d="M153,70.9017 L153,70.7529"/>
            <path d="M153,70.7529 L120.1,70.7529"/>
            <path d="M120.1,71.4177 L120.1,70.9017"/>
            <path d="M153,71.4177 L153,70.9017"/>
            <path d="M153,70.9017 L120.1,70.9017"/>
            <path d="M153,71.4177 L120.1,71.4177"/>
            <path d="M120.1,70.9017 L120.1,70.8846"/>
            <path d="M120.1,62.9635 L120.1,62.8146"/>
            <path d="M153,62.9635 L153,62.8146"/>
            <path d="M153,62.8146 L120.1,62.8146"/>
            <path d="M120.1,63.4795 L120.1,62.9635"/>
            <path d="M153,63.4795 L153,62.9635"/>
            <path d="M153,62.9635 L120.1,62.9635"/>
            <path d="M153,63.4795 L120.1,63.4795"/>
            <path d="M120.1,62.9635 L120.1,62.9464"/>
            <path d="M120.1,55.0252 L120.1,54.8764"/>
            <path d="M153,55.0252 L153,54.8764"/>
            <path d="M153,54.8764 L120.1,54.8764"/>
            <path d="M120.1,55.5412 L120.1,55.0252"/>
            <path d="M153,55.5412 L153,55.0252"/>
            <path d="M153,55.0252 L120.1,55.0252"/>
            <path d="M153,55.5412 L120.1,55.5412"/>
            <path d="M120.1,55.0252 L120.1,55.0081"/>
            <path d="M120.1,47.087 L120.1,46.9382"/>
            <path d="M153,47.087 L153,46.9382"/>
            <path d="M153,46.9382 L120.1,46.9382"/>
            <path d="M120.1,47.603 L120.1,47.087"/>
            <path d="M153,47.603 L153,47.087"/>
            <path d="M153,47.087 L120.1,47.087"/>
            <path d="M153,47.603 L120.1,47.603"/>
            <path d="M120.1,47.087 L120.1,47.0699"/>
            <path d="M120.1,39.1488 L120.1,38.9999"/>
            <path d="M153,39.1488 L153,38.9999"/>
            <path d="M153,38.9999 L120.1,38.9999"/>
            <path d="M120.1,39.6647 L120.1,39.1488"/>
            <path d="M153,39.6647 L153,39.1488"/>
            <path d="M153,39.1488 L120.1,39.1488"/>
            <path d="M153,39.6647 L120.1,39.6647"/>
            <path d="M120.1,39.1488 L120.1,39.1317"/>
            <path d="M59.245,81 L59.245,81"/>
            <path d="M59.245,80.48 L59.245,71.4177"/>
            <path d="M59.245,70.7529 L59.245,63.4795"/>
            <path d="M59.245,62.8146 L59.245,55.5412"/>
            <path d="M59.245,54.8764 L59.245,47.603"/>
            <path d="M59.245,46.9382 L59.245,39.6647"/>
            <path d="M60.755,81 L60.755,81"/>
            <path d="M60.755,80.48 L60.755,71.4177"/>
            <path d="M60.755,70.7529 L60.755,63.4795"/>
            <path d="M60.755,62.8146 L60.755,55.5412"/>
            <path d="M60.755,54.8764 L60.755,47.603"/>
            <path d="M60.755,46.9382 L60.755,39.6647"/>
            <path d="M60.755,81 L59.245,81"/>
            <path d="M149,41 L149.245,41"/>
            <path d="M150.755,41 L151,41"/>
            <path d="M151,41 L151,40.88"/>
            <path d="M151,40.88 L150.755,40.88"/>
            <path d="M149.245,40.88 L149,40.88"/>
            <path d="M149,40.88 L149,41"/>
            <path d="M119,41 L119.245,41"/>
            <path d="M120.755,41 L121,41"/>
            <path d="M121,41 L121,40.88"/>
            <path d="M121,40.88 L120.755,40.88"/>
            <path d="M119.245,40.88 L119,40.88"/>
            <path d="M119,40.88 L119,41"/>
            <path d="M89,41 L89.245,41"/>
            <path d="M90.755,41 L91,41"/>
            <path d="M91,41 L91,40.88"/>
            <path d="M91,40.88 L90.755,40.88"/>
            <path d="M89.245,40.88 L89,40.88"/>
            <path d="M89,40.88 L89,41"/>
            <path d="M59,41 L59.245,41"/>
            <path d="M60.755,41 L61,41"/>
            <path d="M61,41 L61,40.88"/>
            <path d="M61,40.88 L60.755,40.88"/>
            <path d="M59.245,40.88 L59,40.88"/>
            <path d="M59,40.88 L59,41"/>
            <path d="M90.1,70.9017 L90.1,70.7529"/>
            <path d="M119.9,70.9017 L119.9,70.7529"/>
            <path d="M119.9,70.7529 L90.1,70.7529"/>
            <path d="M90.1,71.4177 L90.1,70.9017"/>
            <path d="M119.9,71.4177 L119.9,70.9017"/>
            <path d="M119.9,70.9017 L90.1,70.9017"/>
            <path d="M119.9,71.4177 L90.1,71.4177"/>
            <path d="M90.1,70.9017 L90.1,70.8846"/>
            <path d="M90.1,62.9635 L90.1,62.8146"/>
            <path d="M119.9,62.9635 L119.9,62.8146"/>
            <path d="M119.9,62.8146 L90.1,62.8146"/>
            <path d="M90.1,63.4795 L90.1,62.9635"/>
            <path d="M119.9,63.4795 L119.9,62.9635"/>
            <path d="M119.9,62.9635 L90.1,62.9635"/>
            <path d="M119.9,63.4795 L90.1,63.4795"/>
            <path d="M90.1,62.9635 L90.1,62.9464"/>
            <path d="M90.1,55.0252 L90.1,54.8764"/>
            <path d="M119.9,55.0252 L119.9,54.8764"/>
            <path d="M119.9,54.8764 L90.1,54.8764"/>
            <path d="M90.1,55.5412 L90.1,55.0252"/>
            <path d="M119.9,55.5412 L119.9,55.0252"/>
            <path d="M119.9,55.0252 L90.1,55.0252"/>
            <path d="M119.9,55.5412 L90.1,55.5412"/>
            <path d="M90.1,55.0252 L90.1,55.0081"/>
            <path d="M90.1,47.087 L90.1,46.9382"/>
            <path d="M119.9,47.087 L119.9,46.9382"/>
            <path d="M119.9,46.9382 L90.1,46.9382"/>
            <path d="M90.1,47.603 L90.1,47.087"/>
            <path d="M119.9,47.603 L119.9,47.087"/>
            <path d="M119.9,47.087 L90.1,47.087"/>
            <path d="M119.9,47.603 L90.1,47.603"/>
            <path d="M90.1,47.087 L90.1,47.0699"/>
            <path d="M90.1,39.1488 L90.1,38.9999"/>
            <path d="M119.9,39.1488 L119.9,38.9999"/>
            <path d="M119.9,38.9999 L90.1,38.9999"/>
            <path d="M90.1,39.6647 L90.1,39.1488"/>
            <path d="M119.9,39.6647 L119.9,39.1488"/>
            <path d="M119.9,39.1488 L90.1,39.1488"/>
            <path d="M119.9,39.6647 L90.1,39.6647"/>
            <path d="M90.1,39.1488 L90.1,39.1317"/>
            <path d="M121.5,78.3 L121.5,77.5"/>
            <path d="M121.9,77.5 L121.9,78.3"/>
            <path d="M122.5,77.5 L121.9,77.5"/>
            <path d="M122.5,82.5 L122.5,81"/>
            <path d="M122.5,80.48 L122.5,77.5"/>
            <path d="M121.9,82.5 L122.5,82.5"/>
            <path d="M121.9,81.7 L121.9,82.5"/>
            <path d="M121.5,82.5 L121.5,81.7"/>
            <path d="M118.5,82.5 L121.5,82.5"/>
            <path d="M118.5,81.7 L118.5,82.5"/>
            <path d="M118.1,82.5 L118.1,81.7"/>
            <path d="M117.5,82.5 L118.1,82.5"/>
            <path d="M117.5,77.5 L117.5,80.48"/>
            <path d="M117.5,81 L117.5,82.5"/>
            <path d="M118.1,77.5 L117.5,77.5"/>
            <path d="M118.1,78.3 L118.1,77.5"/>
            <path d="M118.5,77.5 L118.5,78.3"/>
            <path d="M121.5,77.5 L120.755,77.5"/>
            <path d="M119.245,77.5 L118.5,77.5"/>
            <path d="M121.52,78.3868 L121.5,78.3"/>
            <path d="M121.575,78.4564 L121.52,78.3868"/>
            <path d="M121.655,78.495 L121.575,78.4564"/>
            <path d="M121.745,78.495 L121.655,78.495"/>
            <path d="M121.825,78.4564 L121.745,78.495"/>
            <path d="M121.88,78.3868 L121.825,78.4564"/>
            <path d="M121.9,78.3 L121.88,78.3868"/>
            <path d="M121.88,81.6132 L121.9,81.7"/>
            <path d="M121.825,81.5436 L121.88,81.6132"/>
            <path d="M121.745,81.505 L121.825,81.5436"/>
            <path d="M121.655,81.505 L121.745,81.505"/>
            <path d="M121.575,81.5436 L121.655,81.505"/>
            <path d="M121.52,81.6132 L121.575,81.5436"/>
            <path d="M121.5,81.7 L121.52,81.6132"/>
            <path d="M118.48,81.6132 L118.5,81.7"/>
            <path d="M118.425,81.5436 L118.48,81.6132"/>
            <path d="M118.345,81.505 L118.425,81.5436"/>
            <path d="M118.255,81.505 L118.345,81.505"/>
            <path d="M118.175,81.5436 L118.255,81.505"/>
            <path d="M118.12,81.6132 L118.175,81.5436"/>
            <path d="M118.1,81.7 L118.12,81.6132"/>
            <path d="M118.12,78.3868 L118.1,78.3"/>
            <path d="M118.175,78.4564 L118.12,78.3868"/>
            <path d="M118.255,78.495 L118.175,78.4564"/>
            <path d="M118.345,78.495 L118.255,78.495"/>
            <path d="M118.425,78.4564 L118.345,78.495"/>
            <path d="M118.48,78.3868 L118.425,78.4564"/>
            <path d="M118.5,78.3 L118.48,78.3868"/>
            <path d="M91.5,78.3 L91.5,77.5"/>
            <path d="M91.9,77.5 L91.9,78.3"/>
            <path d="M92.5,77.5 L91.9,77.5"/>
            <path d="M92.5,82.5 L92.5,81"/>
            <path d="M92.5,80.48 L92.5,77.5"/>
            <path d="M91.9,82.5 L92.5,82.5"/>
            <path d="M91.9,81.7 L91.9,82.5"/>
            <path d="M91.5,82.5 L91.5,81.7"/>
            <path d="M88.5,82.5 L91.5,82.5"/>
            <path d="M88.5,81.7 L88.5,82.5"/>
            <path d="M88.1,82.5 L88.1,81.7"/>
            <path d="M87.5,82.5 L88.1,82.5"/>
            <path d="M87.5,77.5 L87.5,80.48"/>
            <path d="M87.5,81 L87.5,82.5"/>
            <path d="M88.1,77.5 L87.5,77.5"/>
            <path d="M88.1,78.3 L88.1,77.5"/>
            <path d="M88.5,77.5 L88.5,78.3"/>
            <path d="M91.5,77.5 L90.755,77.5"/>
            <path d="M89.245,77.5 L88.5,77.5"/>
            <path d="M91.5198,78.3868 L91.5,78.3"/>
            <path d="M91.5753,78.4564 L91.5198,78.3868"/>
            <path d="M91.6555,78.495 L91.5753,78.4564"/>
            <path d="M91.7445,78.495 L91.6555,78.495"/>
            <path d="M91.8247,78.4564 L91.7445,78.495"/>
            <path d="M91.8802,78.3868 L91.8247,78.4564"/>
            <path d="M91.9,78.3 L91.8802,78.3868"/>
            <path d="M91.8802,81.6132 L91.9,81.7"/>
            <path d="M91.8247,81.5436 L91.8802,81.6132"/>
            <path d="M91.7445,81.505 L91.8247,81.5436"/>
            <path d="M91.6555,81.505 L91.7445,81.505"/>
            <path d="M91.5753,81.5436 L91.6555,81.505"/>
            <path d="M91.5198,81.6132 L91.5753,81.5436"/>
            <path d="M91.5,81.7 L91.5198,81.6132"/>
            <path d="M88.4802,81.6132 L88.5,81.7"/>
            <path d="M88.4247,81.5436 L88.4802,81.6132"/>
            <path d="M88.3445,81.505 L88.4247,81.5436"/>
            <path d="M88.2555,81.505 L88.3445,81.505"/>
            <path d="M88.1753,81.5436 L88.2555,81.505"/>
            <path d="M88.1198,81.6132 L88.1753,81.5436"/>
            <path d="M88.1,81.7 L88.1198,81.6132"/>
            <path d="M88.1198,78.3868 L88.1,78.3"/>
            <path d="M88.1753,78.4564 L88.1198,78.3868"/>
            <path d="M88.2555,78.495 L88.1753,78.4564"/>
            <path d="M88.3445,78.495 L88.2555,78.495"/>
            <path d="M88.4247,78.4564 L88.3445,78.495"/>
            <path d="M88.4802,78.3868 L88.4247,78.4564"/>
            <path d="M88.5,78.3 L88.4802,78.3868"/>
            <path d="M149,81 L149.245,81"/>
            <path d="M150.755,81 L151,81"/>
            <path d="M151,81 L151,81"/>
            <path d="M150.755,79.12 L151,79.12"/>
            <path d="M151,79.12 L151,79"/>
            <path d="M151,79 L150.755,79"/>
            <path d="M149.245,79 L149,79"/>
            <path d="M149,79 L149,79.12"/>
            <path d="M149,79.12 L149.245,79.12"/>
            <path d="M149,81 L149,81"/>
            <path d="M119,81 L119.245,81"/>
            <path d="M120.755,81 L121,81"/>
            <path d="M121,81 L121,81"/>
            <path d="M120.755,79.12 L121,79.12"/>
            <path d="M121,79.12 L121,79"/>
            <path d="M121,79 L120.755,79"/>
            <path d="M119.245,79 L119,79"/>
            <path d="M119,79 L119,79.12"/>
            <path d="M119,79.12 L119.245,79.12"/>
            <path d="M119,81 L119,81"/>
            <path d="M89,81 L89.245,81"/>
            <path d="M90.755,81 L91,81"/>
            <path d="M91,81 L91,81"/>
            <path d="M90.755,79.12 L91,79.12"/>
            <path d="M91,79.12 L91,79"/>
            <path d="M91,79 L90.755,79"/>
            <path d="M89.245,79 L89,79"/>
            <path d="M89,79 L89,79.12"/>
            <path d="M89,79.12 L89.245,79.12"/>
            <path d="M89,81 L89,81"/>
            <path d="M89,79.18 L89,79.12"/>
            <path d="M89.245,79.18 L89,79.18"/>
            <path d="M91,79.18 L91,79.12"/>
            <path d="M91,79.18 L90.755,79.18"/>
            <path d="M59,79.18 L59,79.12"/>
            <path d="M59.245,79.18 L59,79.18"/>
            <path d="M61,79.18 L61,79.12"/>
            <path d="M61,79.18 L60.755,79.18"/>
            <path d="M57,70.9017 L57,70.7529"/>
            <path d="M89.9,70.9017 L89.9,70.7529"/>
            <path d="M89.9,70.7529 L57,70.7529"/>
            <path d="M57,71.4177 L57,70.9017"/>
            <path d="M89.9,71.4177 L89.9,70.9017"/>
            <path d="M89.9,70.9017 L57,70.9017"/>
            <path d="M89.9,71.4177 L57,71.4177"/>
            <path d="M57,62.9635 L57,62.8146"/>
            <path d="M89.9,62.9635 L89.9,62.8146"/>
            <path d="M89.9,62.8146 L57,62.8146"/>
            <path d="M57,63.4795 L57,62.9635"/>
            <path d="M89.9,63.4794 L89.9,62.9635"/>
            <path d="M89.9,62.9635 L57,62.9635"/>
            <path d="M89.9,63.4794 L57,63.4795"/>
            <path d="M57,55.0252 L57,54.8764"/>
            <path d="M89.9,55.0252 L89.9,54.8764"/>
            <path d="M89.9,54.8764 L57,54.8764"/>
            <path d="M57,55.5412 L57,55.0252"/>
            <path d="M89.9,55.5412 L89.9,55.0252"/>
            <path d="M89.9,55.0252 L57,55.0252"/>
            <path d="M89.9,55.5412 L57,55.5412"/>
            <path d="M57,47.087 L57,46.9382"/>
            <path d="M89.9,47.087 L89.9,46.9382"/>
            <path d="M89.9,46.9382 L57,46.9382"/>
            <path d="M57,47.603 L57,47.087"/>
            <path d="M89.9,47.603 L89.9,47.087"/>
            <path d="M89.9,47.087 L57,47.087"/>
            <path d="M89.9,47.603 L57,47.603"/>
            <path d="M57,39.1488 L57,38.9999"/>
            <path d="M89.8999,39.1487 L89.8999,38.9999"/>
            <path d="M89.8999,38.9999 L57,38.9999"/>
            <path d="M57,39.6647 L57,39.1488"/>
            <path d="M89.8999,39.6647 L89.8999,39.1487"/>
            <path d="M89.8999,39.1487 L57,39.1488"/>
            <path d="M89.8999,39.6647 L57,39.6647"/>
            <path d="M91,78.94 L91,79"/>
            <path d="M89,78.94 L89,79"/>
            <path d="M91,79 L91,79"/>
            <path d="M89,78.94 L89.245,78.94"/>
            <path d="M90.755,78.94 L91,78.94"/>
            <path d="M89,81.06 L89,81"/>
            <path d="M91,81.06 L91,81"/>
            <path d="M89,81 L89,81"/>
            <path d="M91,81.06 L90.755,81.06"/>
            <path d="M89.245,81.06 L89,81.06"/>
            <path d="M61,78.94 L61,79"/>
            <path d="M59,78.94 L59,79"/>
            <path d="M61,79 L61,79"/>
            <path d="M59,78.94 L59.245,78.94"/>
            <path d="M60.755,78.94 L61,78.94"/>
            <path d="M59,81.06 L59,81"/>
            <path d="M61,81.06 L61,81"/>
            <path d="M59,81 L59,81"/>
            <path d="M61,81.06 L59,81.06"/>
            <path d="M90.755,38.7662 L90.755,38.7519"/>
            <path d="M90.0375,38.9684 L90.0375,38.7823"/>
            <path d="M90.755,38.9845 L90.1675,38.9845"/>
            <path d="M90.755,38.9988 L90.755,38.9845"/>
            <path d="M89.245,38.9845 L89.245,38.9988"/>
            <path d="M89.8325,38.9845 L89.245,38.9845"/>
            <path d="M89.9625,38.7823 L89.9625,38.9684"/>
            <path d="M89.245,38.7519 L89.245,38.7662"/>
            <path d="M90.755,38.7519 L89.245,38.7519"/>
            <path d="M90.1675,38.7662 L90.755,38.7662"/>
            <path d="M90.755,38.9988 L90.755,38.7662"/>
            <path d="M90.0549,38.7743 L90.0375,38.7823"/>
            <path d="M90.1025,38.7684 L90.0549,38.7743"/>
            <path d="M90.1675,38.7662 L90.1025,38.7684"/>
            <path d="M90.1025,38.9823 L90.1675,38.9845"/>
            <path d="M90.0549,38.9764 L90.1025,38.9823"/>
            <path d="M90.0375,38.9684 L90.0549,38.9764"/>
            <path d="M89.245,38.9988 L90.755,38.9988"/>
            <path d="M89.245,81.2468 L90.755,81.2468"/>
            <path d="M90.755,81.2468 L90.755,81"/>
            <path d="M90.755,80.48 L90.755,71.4177"/>
            <path d="M90.755,70.7529 L90.755,63.4795"/>
            <path d="M90.755,62.8146 L90.755,55.5412"/>
            <path d="M90.755,54.8764 L90.755,47.603"/>
            <path d="M90.755,46.9382 L90.755,39.6647"/>
            <path d="M90.755,38.9999 L90.755,38.9988"/>
            <path d="M89.245,81.2468 L89.245,81"/>
            <path d="M89.245,80.48 L89.245,71.4177"/>
            <path d="M89.245,70.7529 L89.245,63.4794"/>
            <path d="M89.245,62.8146 L89.245,55.5412"/>
            <path d="M89.245,54.8764 L89.245,47.603"/>
            <path d="M89.245,46.9382 L89.245,39.6647"/>
            <path d="M89.245,38.9999 L89.245,38.9988"/>
            <path d="M89.9451,38.9764 L89.9625,38.9684"/>
            <path d="M89.8975,38.9823 L89.9451,38.9764"/>
            <path d="M89.8325,38.9845 L89.8975,38.9823"/>
            <path d="M89.8975,38.7684 L89.8325,38.7662"/>
            <path d="M89.9451,38.7743 L89.8975,38.7684"/>
            <path d="M89.9625,38.7823 L89.9451,38.7743"/>
            <path d="M89.245,38.7662 L89.8325,38.7662"/>
            <path d="M89.245,38.9988 L89.245,38.7662"/>
            <path d="M61.5,77.5 L60.755,77.5"/>
            <path d="M61.5,82.5 L61.5,81"/>
            <path d="M61.5,80.48 L61.5,77.5"/>
            <path d="M60.2,82.5 L61.5,82.5"/>
            <path d="M60.2,81.7 L60.2,82.5"/>
            <path d="M59.8,82.5 L59.8,81.7"/>
            <path d="M58.5,82.5 L59.8,82.5"/>
            <path d="M58.5,77.5 L58.5,80.48"/>
            <path d="M58.5,81 L58.5,82.5"/>
            <path d="M59.245,77.5 L58.5,77.5"/>
            <path d="M60.1802,81.6132 L60.2,81.7"/>
            <path d="M60.1247,81.5436 L60.1802,81.6132"/>
            <path d="M60.0445,81.505 L60.1247,81.5436"/>
            <path d="M59.9555,81.505 L60.0445,81.505"/>
            <path d="M59.8753,81.5436 L59.9555,81.505"/>
            <path d="M59.8198,81.6132 L59.8753,81.5436"/>
            <path d="M59.8,81.7 L59.8198,81.6132"/>
            <path d="M120.755,38.7662 L120.755,38.7519"/>
            <path d="M120.038,38.9684 L120.038,38.7823"/>
            <path d="M120.755,38.9845 L120.168,38.9845"/>
            <path d="M120.755,38.9988 L120.755,38.9845"/>
            <path d="M119.245,38.9845 L119.245,38.9988"/>
            <path d="M119.833,38.9845 L119.245,38.9845"/>
            <path d="M119.963,38.7823 L119.963,38.9684"/>
            <path d="M119.245,38.7519 L119.245,38.7662"/>
            <path d="M120.755,38.7519 L119.245,38.7519"/>
            <path d="M120.168,38.7662 L120.755,38.7662"/>
            <path d="M120.755,38.9988 L120.755,38.7662"/>
            <path d="M120.055,38.7743 L120.038,38.7823"/>
            <path d="M120.103,38.7684 L120.055,38.7743"/>
            <path d="M120.168,38.7662 L120.103,38.7684"/>
            <path d="M120.103,38.9823 L120.168,38.9845"/>
            <path d="M120.055,38.9764 L120.103,38.9823"/>
            <path d="M120.038,38.9684 L120.055,38.9764"/>
            <path d="M119.245,38.9988 L120.755,38.9988"/>
            <path d="M119.245,81.2468 L120.755,81.2468"/>
            <path d="M120.755,81.2468 L120.755,81"/>
            <path d="M120.755,80.48 L120.755,71.4177"/>
            <path d="M120.755,70.7529 L120.755,63.4795"/>
            <path d="M120.755,62.8146 L120.755,55.5412"/>
            <path d="M120.755,54.8764 L120.755,47.603"/>
            <path d="M120.755,46.9382 L120.755,39.6647"/>
            <path d="M120.755,38.9999 L120.755,38.9988"/>
            <path d="M119.245,81.2468 L119.245,81"/>
            <path d="M119.245,80.48 L119.245,71.4177"/>
            <path d="M119.245,70.7529 L119.245,63.4795"/>
            <path d="M119.245,62.8146 L119.245,55.5412"/>
            <path d="M119.245,54.8764 L119.245,47.603"/>
            <path d="M119.245,46.9382 L119.245,39.6647"/>
            <path d="M119.245,38.9999 L119.245,38.9988"/>
            <path d="M119.945,38.9764 L119.963,38.9684"/>
            <path d="M119.898,38.9823 L119.945,38.9764"/>
            <path d="M119.833,38.9845 L119.898,38.9823"/>
            <path d="M119.898,38.7684 L119.833,38.7662"/>
            <path d="M119.945,38.7743 L119.898,38.7684"/>
            <path d="M119.963,38.7823 L119.945,38.7743"/>
            <path d="M119.245,38.7662 L119.833,38.7662"/>
            <path d="M119.245,38.9988 L119.245,38.7662"/>
            <path d="M150.755,38.7662 L150.755,38.7519"/>
            <path d="M150.038,38.9684 L150.038,38.7823"/>
            <path d="M150.755,38.9845 L150.168,38.9845"/>
            <path d="M150.755,38.9988 L150.755,38.9845"/>
            <path d="M149.245,38.9845 L149.245,38.9988"/>
            <path d="M149.833,38.9845 L149.245,38.9845"/>
            <path d="M149.963,38.7823 L149.963,38.9684"/>
            <path d="M149.245,38.7519 L149.245,38.7662"/>
            <path d="M150.755,38.7519 L149.245,38.7519"/>
            <path d="M150.168,38.7662 L150.755,38.7662"/>
            <path d="M150.755,38.9988 L150.755,38.7662"/>
            <path d="M150.055,38.7743 L150.038,38.7823"/>
            <path d="M150.103,38.7684 L150.055,38.7743"/>
            <path d="M150.168,38.7662 L150.103,38.7684"/>
            <path d="M150.103,38.9823 L150.168,38.9845"/>
            <path d="M150.055,38.9764 L150.103,38.9823"/>
            <path d="M150.038,38.9684 L150.055,38.9764"/>
            <path d="M149.245,38.9988 L150.755,38.9988"/>
            <path d="M149.245,81.2468 L150.755,81.2468"/>
            <path d="M150.755,81.2468 L150.755,81"/>
            <path d="M150.755,80.48 L150.755,71.4177"/>
            <path d="M150.755,70.7529 L150.755,63.4795"/>
            <path d="M150.755,62.8146 L150.755,55.5412"/>
            <path d="M150.755,54.8764 L150.755,47.603"/>
            <path d="M150.755,46.9382 L150.755,39.6647"/>
            <path d="M150.755,38.9999 L150.755,38.9988"/>
            <path d="M149.245,81.2468 L149.245,81"/>
            <path d="M149.245,80.48 L149.245,71.4177"/>
            <path d="M149.245,70.7529 L149.245,63.4795"/>
            <path d="M149.245,62.8146 L149.245,55.5412"/>
            <path d="M149.245,54.8764 L149.245,47.603"/>
            <path d="M149.245,46.9382 L149.245,39.6647"/>
            <path d="M149.245,38.9999 L149.245,38.9988"/>
            <path d="M149.945,38.9764 L149.963,38.9684"/>
            <path d="M149.898,38.9823 L149.945,38.9764"/>
            <path d="M149.833,38.9845 L149.898,38.9823"/>
            <path d="M149.898,38.7684 L149.833,38.7662"/>
            <path d="M149.945,38.7743 L149.898,38.7684"/>
            <path d="M149.963,38.7823 L149.945,38.7743"/>
            <path d="M149.245,38.7662 L149.833,38.7662"/>
            <path d="M149.245,38.9988 L149.245,38.7662"/>
            <path d="M119.9,80.48 L119.9,81"/>
            <path d="M90.1,80.48 L90.1,81"/>
            <path d="M90.1,81 L119.9,81"/>
            <path d="M90.1,80.48 L119.9,80.48"/>
            <path d="M89.9,80.48 L89.9,81"/>
            <path d="M57,80.48 L57,81"/>
            <path d="M57,81 L89.9,81"/>
            <path d="M57,80.48 L89.9,80.48"/>
            <path d="M153,80.48 L153,81"/>
            <path d="M120.1,80.48 L120.1,81"/>
            <path d="M120.1,81 L153,81"/>
            <path d="M120.1,80.48 L153,80.48"/>
            <path d="M153,80.48 L153,80.48"/>
        </g>
    </g>
</svg>