<svg xmlns="http://www.w3.org/2000/svg" xmlns:xlink="http://www.w3.org/1999/xlink" xmlns:ifc="http://www.ifcopenshell.org/ns" width="100mm" height="100mm" viewBox="0 0 100 100">
    <defs>
        <marker id="arrowend" markerWidth="10" markerHeight="7" refX="10" refY="3.5" orient="auto">
          <polygon points="0 0, 10 3.5, 0 7"/>
        </marker>
        <marker id="arrowstart" markerWidth="10" markerHeight="7" refX="0" refY="3.5" orient="auto">
          <polygon points="10 0, 0 3.5, 10 7"/>
        </marker>
    </defs>
    <g ifc:name="Elevation &#1059;&#1079;&#1077;&#1083; &#1073;&#1072;&#1079;&#1099; &#1082;&#1086;&#1083;&#1086;&#1085;&#1085;&#1099;" class="section" ifc:plane="[[1.000000,0.000000,0.000000,0.000000],[0.000000,1.000000,0.000000,0.000000],[0.000000,0.000000,1.000000,1.600000],[0.000000,0.000000,0.000000,1.000000]]" ifc:matrix3="[[100.000001,0.000000,50.000011],[0.000000,100.000001,50.000011],[0.000000,0.000000,1.000000]]">
        <g class="projection">
            <path d="M40,60 L60,60"/>
            <path d="M60,60 L60,58.8"/>
            <path d="M60,58.8 L51.7,58.8"/>
            <path d="M50.5742,58.15 L50.4,57.5"/>
            <path d="M51.05,58.6258 L50.5742,58.15"/>
            <path d="M51.7,58.8 L51.05,58.6258"/>
            <path d="M50.4,57.5 L50.4,42.5"/>
            <path d="M51.05,41.3742 L51.7,41.2"/>
            <path d="M50.5742,41.85 L51.05,41.3742"/>
            <path d="M50.4,42.5 L50.5742,41.85"/>
            <path d="M51.7,41.2 L60,41.2"/>
            <path d="M60,41.2 L60,40"/>
            <path d="M60,40 L40,40"/>
            <path d="M40,40 L40,41.2"/>
            <path d="M40,41.2 L48.3,41.2"/>
            <path d="M49.4258,41.85 L49.6,42.5"/>
            <path d="M48.95,41.3742 L49.4258,41.85"/>
            <path d="M48.3,41.2 L48.95,41.3742"/>
            <path d="M49.6,42.5 L49.6,57.5"/>
            <path d="M48.95,58.6258 L48.3,58.8"/>
            <path d="M49.4258,58.15 L48.95,58.6258"/>
            <path d="M49.6,57.5 L49.4258,58.15"/>
            <path d="M48.3,58.8 L40,58.8"/>
            <path d="M40,58.8 L40,60"/>
            <path d="M60,58.2 L60,58.8"/>
            <path d="M51.7,58.2 L51.7,58.8"/>
            <path d="M48.3,58.2 L48.3,58.8"/>
            <path d="M40,58.2 L40,58.8"/>
            <path d="M40,58.8 L48.3,58.8"/>
            <path d="M40,58.2 L48.3,58.2"/>
            <path d="M40,41.8 L40,41.2"/>
            <path d="M48.3,41.8 L48.3,41.2"/>
            <path d="M48.3,41.2 L48.3,41.2"/>
            <path d="M48.3,41.8 L40,41.8"/>
            <path d="M51.7,41.8 L51.7,41.2"/>
            <path d="M60,41.8 L60,41.2"/>
            <path d="M51.7,41.2 L51.7,41.2"/>
            <path d="M60,41.8 L51.7,41.8"/>
            <path d="M60,39.4 L60,40"/>
            <path d="M40,39.4 L40,40"/>
            <path d="M60,40 L60,40"/>
            <path d="M40,39.4 L60,39.4"/>
            <path d="M40,60.6 L40,60"/>
            <path d="M60,60.6 L60,60"/>
            <path d="M40,60 L40,60"/>
            <path d="M51,57.5 L50.4,57.5"/>
            <path d="M51,42.5 L50.4,42.5"/>
            <path d="M50.4,42.5 L50.4,57.5"/>
            <path d="M51,42.5 L51,49.7114"/>
            <path d="M49,42.5 L49.6,42.5"/>
            <path d="M49,57.5 L49.6,57.5"/>
            <path d="M48,33 L48,25"/>
            <path d="M52,25 L52,33"/>
            <path d="M65,25 L52,25"/>
            <path d="M65,75 L65,25"/>
            <path d="M52,75 L65,75"/>
            <path d="M52,67 L52,75"/>
            <path d="M48,75 L48,67"/>
            <path d="M35,75 L48,75"/>
            <path d="M35,25 L35,75"/>
            <path d="M48,25 L35,25"/>
            <path d="M48.1981,33.8678 L48,33"/>
            <path d="M48.753,34.5637 L48.1981,33.8678"/>
            <path d="M49.555,34.9499 L48.753,34.5637"/>
            <path d="M50.445,34.9499 L49.555,34.9499"/>
            <path d="M51.247,34.5637 L50.445,34.9499"/>
            <path d="M51.8019,33.8678 L51.247,34.5637"/>
            <path d="M52,33 L51.8019,33.8678"/>
            <path d="M51.802,66.1322 L52,67"/>
            <path d="M51.247,65.4363 L51.802,66.1322"/>
            <path d="M50.4451,65.0501 L51.247,65.4363"/>
            <path d="M49.555,65.0501 L50.4451,65.0501"/>
            <path d="M48.753,65.4363 L49.555,65.0501"/>
            <path d="M48.1981,66.1322 L48.753,65.4363"/>
            <path d="M48,67 L48.1981,66.1322"/>
        </g>
    <g id="product-5bcfa5b2-0cc8-4deb-aafa-65a952da1c07-body" class="IfcColumn material-I2023455 cut" ifc:name="I20&#1050;2 &#1057;345-5 5&#1084;.001" ifc:guid="1RpwMo3CXDwwhwPQbIsXm7">
            <path d="M40,60 L60,60 L60,58.8 L51.7,58.8 L50.7808,58.4192 L50.4,57.5 L50.4,42.5 L50.7808,41.5808 L51.7,41.2 L60,41.2 L60,40 L40,40 L40,41.2 L48.3,41.2 L49.2192,41.5808 L49.6,42.5 L49.6,57.5 L49.2192,58.4192 L48.3,58.8 L40,58.8 L40,60"/>
        </g>
        </g>
</svg>