<svg xmlns="http://www.w3.org/2000/svg" xmlns:xlink="http://www.w3.org/1999/xlink" xmlns:ifc="http://www.ifcopenshell.org/ns" width="100mm" height="100mm" viewBox="0 0 100 100">
    <defs>
        <marker id="arrowend" markerWidth="10" markerHeight="7" refX="10" refY="3.5" orient="auto">
          <polygon points="0 0, 10 3.5, 0 7"/>
        </marker>
        <marker id="arrowstart" markerWidth="10" markerHeight="7" refX="0" refY="3.5" orient="auto">
          <polygon points="10 0, 0 3.5, 10 7"/>
        </marker>
    </defs>
    <g ifc:name="Elevation &#1060;&#1052;-1" class="section" ifc:plane="[[1.000000,0.000000,0.000000,0.000000],[0.000000,1.000000,0.000000,0.000000],[0.000000,0.000000,1.000000,1.400000],[0.000000,0.000000,0.000000,1.000000]]" ifc:matrix3="[[50.000001,0.000000,-99.999996],[0.000000,50.000001,50.000006],[0.000000,0.000000,1.000000]]">
        <g id="product-0c862616-6537-4449-9deb-974016195c8d" class="IfcMember material-null projection" ifc:name="&#1059;&#1075;&#1086;&#1083;&#1086;&#1082; 50&#215;5 &#1057;345-5" ifc:guid="0CXYOMPJT4IPthbq0M6LoD">
            <path d="M62.5,38.4 L62.5,40.9"/>
            <path d="M37.5,38.4 L37.5,40.9"/>
            <path d="M37.5,40.9 L38.4,40.9"/>
            <path d="M42.7323,40.9 L57.2677,40.9"/>
            <path d="M61.6,40.9 L62.5,40.9"/>
            <path d="M37.5,38.4 L38.4,38.4"/>
            <path d="M40.9,38.4 L59.1,38.4"/>
            <path d="M61.6,38.4 L62.5,38.4"/>
        </g>
    <g id="product-8a0ff6ce-09bf-4353-800d-3cd72afdfb5f" class="IfcMember material-null projection" ifc:name="&#1059;&#1075;&#1086;&#1083;&#1086;&#1082; 50&#215;5 &#1057;345-5.006" ifc:guid="2A3$RE2Rz3Ku0DFDSg$VjV">
            <path d="M37.5,61.6 L37.5,59.1"/>
            <path d="M62.5,61.6 L62.5,59.1"/>
            <path d="M62.5,59.1 L61.6,59.1"/>
            <path d="M57.2677,59.1 L42.7323,59.1"/>
            <path d="M38.4,59.1 L37.5,59.1"/>
            <path d="M62.5,61.6 L61.6,61.6"/>
            <path d="M59.1,61.6 L40.9,61.6"/>
            <path d="M38.4,61.6 L37.5,61.6"/>
        </g>
        <g id="product-77d28ebe-4eea-42bd-8e66-d91010a69394" class="IfcMechanicalFastener material-092 projection" ifc:name="&#1064;&#1087;&#1080;&#1083;&#1100;&#1082;&#1072; 1.&#1052;24&#215;1320 09&#1043;2&#1057; &#1043;&#1054;&#1057;&#1058; 24379.1-2012" ifc:guid="1tqew_Jkf2lOvcsH0GffEK">
            <path d="M58.9243,41.9243 L58.5,42.1"/>
            <path d="M59.1,41.5 L58.9243,41.9243"/>
            <path d="M58.9243,41.0757 L59.1,41.5"/>
            <path d="M58.5,40.9 L58.9243,41.0757"/>
            <path d="M58.0757,41.0757 L58.5,40.9"/>
            <path d="M57.9,41.5 L58.0757,41.0757"/>
            <path d="M58.0757,41.9243 L57.9,41.5"/>
            <path d="M58.5,42.1 L58.0757,41.9243"/>
        </g>
        <g id="product-ce8a216b-0b9e-4c38-a3d3-d9cf9a76677f" class="IfcMechanicalFastener material-092 projection" ifc:name="&#1064;&#1087;&#1080;&#1083;&#1100;&#1082;&#1072; 1.&#1052;24&#215;1320 09&#1043;2&#1057; &#1043;&#1054;&#1057;&#1058; 24379.1-2012" ifc:guid="3EYY5h2vvCEAFJsS_QTcT$">
            <path d="M58.0757,58.0757 L58.5,57.9"/>
            <path d="M57.9,58.5 L58.0757,58.0757"/>
            <path d="M58.0757,58.9243 L57.9,58.5"/>
            <path d="M58.5,59.1 L58.0757,58.9243"/>
            <path d="M58.9243,58.9243 L58.5,59.1"/>
            <path d="M59.1,58.5 L58.9243,58.9243"/>
            <path d="M58.9243,58.0757 L59.1,58.5"/>
            <path d="M58.5,57.9 L58.9243,58.0757"/>
        </g>
        <g id="product-e4110ce9-8d11-4aa1-b39a-028106ca0cd6" class="IfcMechanicalFastener material-092 projection" ifc:name="&#1064;&#1087;&#1080;&#1083;&#1100;&#1082;&#1072; 1.&#1052;24&#215;1320 09&#1043;2&#1057; &#1043;&#1054;&#1057;&#1058; 24379.1-2012" ifc:guid="3a4GpfZH5AeREQ0e46oWpM">
            <path d="M41.9243,41.9243 L41.5,42.1"/>
            <path d="M42.1,41.5 L41.9243,41.9243"/>
            <path d="M41.9243,41.0757 L42.1,41.5"/>
            <path d="M41.5,40.9 L41.9243,41.0757"/>
            <path d="M41.0757,41.0757 L41.5,40.9"/>
            <path d="M40.9,41.5 L41.0757,41.0757"/>
            <path d="M41.0757,41.9243 L40.9,41.5"/>
            <path d="M41.5,42.1 L41.0757,41.9243"/>
        </g>
        <g id="product-cace4741-2fb1-4a8c-a0cb-a07201e8c978" class="IfcMechanicalFastener material-092 projection" ifc:name="&#1064;&#1087;&#1080;&#1083;&#1100;&#1082;&#1072; 1.&#1052;24&#215;1320 09&#1043;2&#1057; &#1043;&#1054;&#1057;&#1058; 24379.1-2012" ifc:guid="3ApaT1Bx5AZA3Be781wCbu">
            <path d="M41.0757,58.0757 L41.5,57.9"/>
            <path d="M40.9,58.5 L41.0757,58.0757"/>
            <path d="M41.0757,58.9243 L40.9,58.5"/>
            <path d="M41.5,59.1 L41.0757,58.9243"/>
            <path d="M41.9243,58.9243 L41.5,59.1"/>
            <path d="M42.1,58.5 L41.9243,58.9243"/>
            <path d="M41.9243,58.0757 L42.1,58.5"/>
            <path d="M41.5,57.9 L41.9243,58.0757"/>
        </g>
        <g id="product-1fb74490-0ded-4205-b135-e1aed1b7dcc3" class="IfcMechanicalFastener material-092 projection" ifc:name="&#1064;&#1072;&#1081;&#1073;&#1072; &#1052;24 &#1043;&#1054;&#1057;&#1058; 24379.1-2012" ifc:guid="0VjqIG3Ur21R4ruQxHjzp3">
            <path d="M58.6657,40.135 L58.3343,40.135"/>
            <path d="M58.9876,40.2144 L58.6657,40.135"/>
            <path d="M59.2811,40.3684 L58.9876,40.2144"/>
            <path d="M59.5292,40.5882 L59.2811,40.3684"/>
            <path d="M59.7175,40.861 L59.5292,40.5882"/>
            <path d="M59.835,41.1709 L59.7175,40.861"/>
            <path d="M59.875,41.5 L59.835,41.1709"/>
            <path d="M59.835,41.8291 L59.875,41.5"/>
            <path d="M59.7175,42.139 L59.835,41.8291"/>
            <path d="M59.5292,42.4118 L59.7175,42.139"/>
            <path d="M59.2811,42.6316 L59.5292,42.4118"/>
            <path d="M58.9876,42.7857 L59.2811,42.6316"/>
            <path d="M58.6657,42.865 L58.9876,42.7857"/>
            <path d="M58.3343,42.865 L58.6657,42.865"/>
            <path d="M58.0124,42.7857 L58.3343,42.865"/>
            <path d="M57.7189,42.6316 L58.0124,42.7857"/>
            <path d="M57.4708,42.4118 L57.7189,42.6316"/>
            <path d="M57.2825,42.139 L57.4708,42.4118"/>
            <path d="M57.165,41.8291 L57.2825,42.139"/>
            <path d="M57.125,41.5 L57.165,41.8291"/>
            <path d="M57.165,41.1709 L57.125,41.5"/>
            <path d="M57.2825,40.861 L57.165,41.1709"/>
            <path d="M57.4708,40.5882 L57.2825,40.861"/>
            <path d="M57.7189,40.3684 L57.4708,40.5882"/>
            <path d="M58.0124,40.2144 L57.7189,40.3684"/>
            <path d="M58.3343,40.135 L58.0124,40.2144"/>
        </g>
        <g id="product-a1fccabb-112f-4014-ab50-851e9bc17f58" class="IfcMechanicalFastener material-092 projection" ifc:name="&#1064;&#1072;&#1081;&#1073;&#1072; &#1052;24 &#1043;&#1054;&#1057;&#1058; 24379.1-2012" ifc:guid="2X$Cgx4Iz05AjGXHwRmNzO">
            <path d="M58.3343,59.865 L58.6657,59.865"/>
            <path d="M58.0124,59.7857 L58.3343,59.865"/>
            <path d="M57.7189,59.6316 L58.0124,59.7857"/>
            <path d="M57.4708,59.4118 L57.7189,59.6316"/>
            <path d="M57.2825,59.139 L57.4708,59.4118"/>
            <path d="M57.165,58.8291 L57.2825,59.139"/>
            <path d="M57.125,58.5 L57.165,58.8291"/>
            <path d="M57.165,58.1709 L57.125,58.5"/>
            <path d="M57.2825,57.861 L57.165,58.1709"/>
            <path d="M57.4708,57.5882 L57.2825,57.861"/>
            <path d="M57.7189,57.3684 L57.4708,57.5882"/>
            <path d="M58.0124,57.2144 L57.7189,57.3684"/>
            <path d="M58.3343,57.135 L58.0124,57.2144"/>
            <path d="M58.6657,57.135 L58.3343,57.135"/>
            <path d="M58.9876,57.2144 L58.6657,57.135"/>
            <path d="M59.2811,57.3684 L58.9876,57.2144"/>
            <path d="M59.5292,57.5882 L59.2811,57.3684"/>
            <path d="M59.7175,57.861 L59.5292,57.5882"/>
            <path d="M59.835,58.1709 L59.7175,57.861"/>
            <path d="M59.875,58.5 L59.835,58.1709"/>
            <path d="M59.835,58.8291 L59.875,58.5"/>
            <path d="M59.7175,59.139 L59.835,58.8291"/>
            <path d="M59.5292,59.4118 L59.7175,59.139"/>
            <path d="M59.2811,59.6316 L59.5292,59.4118"/>
            <path d="M58.9876,59.7857 L59.2811,59.6316"/>
            <path d="M58.6657,59.865 L58.9876,59.7857"/>
        </g>
        <g id="product-3cd1f8ca-ce21-4569-8200-4278fa5ed682" class="IfcMechanicalFastener material-092 projection" ifc:name="&#1064;&#1072;&#1081;&#1073;&#1072; &#1052;24 &#1043;&#1054;&#1057;&#1058; 24379.1-2012" ifc:guid="0yqVZApY55QO80GdZwNjQ2">
            <path d="M41.6657,40.135 L41.3343,40.135"/>
            <path d="M41.9876,40.2144 L41.6657,40.135"/>
            <path d="M42.2811,40.3684 L41.9876,40.2144"/>
            <path d="M42.5292,40.5882 L42.2811,40.3684"/>
            <path d="M42.7175,40.861 L42.5292,40.5882"/>
            <path d="M42.835,41.1709 L42.7175,40.861"/>
            <path d="M42.875,41.5 L42.835,41.1709"/>
            <path d="M42.835,41.8291 L42.875,41.5"/>
            <path d="M42.7175,42.139 L42.835,41.8291"/>
            <path d="M42.5292,42.4118 L42.7175,42.139"/>
            <path d="M42.2811,42.6316 L42.5292,42.4118"/>
            <path d="M41.9876,42.7857 L42.2811,42.6316"/>
            <path d="M41.6657,42.865 L41.9876,42.7857"/>
            <path d="M41.3343,42.865 L41.6657,42.865"/>
            <path d="M41.0124,42.7857 L41.3343,42.865"/>
            <path d="M40.7189,42.6316 L41.0124,42.7857"/>
            <path d="M40.4708,42.4118 L40.7189,42.6316"/>
            <path d="M40.2825,42.139 L40.4708,42.4118"/>
            <path d="M40.165,41.8291 L40.2825,42.139"/>
            <path d="M40.125,41.5 L40.165,41.8291"/>
            <path d="M40.165,41.1709 L40.125,41.5"/>
            <path d="M40.2825,40.861 L40.165,41.1709"/>
            <path d="M40.4708,40.5882 L40.2825,40.861"/>
            <path d="M40.7189,40.3684 L40.4708,40.5882"/>
            <path d="M41.0124,40.2144 L40.7189,40.3684"/>
            <path d="M41.3343,40.135 L41.0124,40.2144"/>
        </g>
        <g id="product-99a0cdb8-2d6f-4d68-ae58-81488c085b25" class="IfcMechanicalFastener material-092 projection" ifc:name="&#1064;&#1072;&#1081;&#1073;&#1072; &#1052;24 &#1043;&#1054;&#1057;&#1058; 24379.1-2012" ifc:guid="2PeCsuBMzDQAvOWKYC25ib">
            <path d="M41.3343,59.865 L41.6657,59.865"/>
            <path d="M41.0124,59.7857 L41.3343,59.865"/>
            <path d="M40.7189,59.6316 L41.0124,59.7857"/>
            <path d="M40.4708,59.4118 L40.7189,59.6316"/>
            <path d="M40.2825,59.139 L40.4708,59.4118"/>
            <path d="M40.165,58.8291 L40.2825,59.139"/>
            <path d="M40.125,58.5 L40.165,58.8291"/>
            <path d="M40.165,58.1709 L40.125,58.5"/>
            <path d="M40.2825,57.861 L40.165,58.1709"/>
            <path d="M40.4708,57.5882 L40.2825,57.861"/>
            <path d="M40.7189,57.3684 L40.4708,57.5882"/>
            <path d="M41.0124,57.2144 L40.7189,57.3684"/>
            <path d="M41.3343,57.135 L41.0124,57.2144"/>
            <path d="M41.6657,57.135 L41.3343,57.135"/>
            <path d="M41.9876,57.2144 L41.6657,57.135"/>
            <path d="M42.2811,57.3684 L41.9876,57.2144"/>
            <path d="M42.5292,57.5882 L42.2811,57.3684"/>
            <path d="M42.7175,57.861 L42.5292,57.5882"/>
            <path d="M42.835,58.1709 L42.7175,57.861"/>
            <path d="M42.875,58.5 L42.835,58.1709"/>
            <path d="M42.835,58.8291 L42.875,58.5"/>
            <path d="M42.7175,59.139 L42.835,58.8291"/>
            <path d="M42.5292,59.4118 L42.7175,59.139"/>
            <path d="M42.2811,59.6316 L42.5292,59.4118"/>
            <path d="M41.9876,59.7857 L42.2811,59.6316"/>
            <path d="M41.6657,59.865 L41.9876,59.7857"/>
        </g>
        <g id="product-836ec757-d0a9-4094-965d-60ac502e17b3" class="IfcMechanicalFastener material-092 projection" ifc:name="&#1043;&#1072;&#1081;&#1082;&#1072; &#1052;24 &#1043;&#1054;&#1057;&#1058; 5915-70" ifc:guid="23RiTNqAb0b9PTOAnGBXUp">
            <path d="M58.886,41.0462 L58.915,41.0719"/>
            <path d="M58.9271,41.0827 L58.94,41.0941"/>
            <path d="M58.7662,40.967 L58.8301,41.0006"/>
            <path d="M58.6309,40.9188 L58.701,40.9361"/>
            <path d="M58.488,40.9044 L58.4894,40.9044"/>
            <path d="M58.5106,40.9044 L58.5602,40.9044"/>
            <path d="M58.3458,40.9246 L58.4159,40.9073"/>
            <path d="M58.2126,40.9782 L58.2765,40.9446"/>
            <path d="M58.096,41.0621 L58.1501,41.0143"/>
            <path d="M58.003,41.1715 L58.044,41.1121"/>
            <path d="M57.9388,41.3 L57.9644,41.2325"/>
            <path d="M57.9073,41.4401 L57.916,41.3685"/>
            <path d="M57.9102,41.5837 L57.9015,41.5121"/>
            <path d="M57.9473,41.7224 L57.9217,41.655"/>
            <path d="M58.0166,41.8482 L57.9756,41.7888"/>
            <path d="M58.114,41.9538 L58.085,41.9281"/>
            <path d="M58.0729,41.9173 L58.06,41.9059"/>
            <path d="M58.2338,42.033 L58.1699,41.9994"/>
            <path d="M58.3691,42.0812 L58.299,42.0639"/>
            <path d="M58.512,42.0956 L58.5106,42.0956"/>
            <path d="M58.4894,42.0956 L58.4398,42.0956"/>
            <path d="M58.6542,42.0755 L58.5841,42.0927"/>
            <path d="M58.7874,42.0218 L58.7235,42.0554"/>
            <path d="M58.9039,41.9379 L58.8499,41.9857"/>
            <path d="M58.997,41.8285 L58.956,41.8879"/>
            <path d="M59.0612,41.7 L59.0356,41.7675"/>
            <path d="M59.0927,41.5599 L59.084,41.6315"/>
            <path d="M59.0898,41.4163 L59.0985,41.488"/>
            <path d="M59.0527,41.2776 L59.0783,41.3451"/>
            <path d="M58.9834,41.1518 L59.0244,41.2112"/>
            <path d="M58.5,40.4608 L58.2588,40.6"/>
            <path d="M57.8412,40.8412 L57.6,40.9804"/>
            <path d="M59.4,40.9804 L59.1588,40.8412"/>
            <path d="M58.7412,40.6 L58.5,40.4608"/>
            <path d="M59.4,42.0196 L59.4,41.7412"/>
            <path d="M59.4,41.2589 L59.4,40.9804"/>
            <path d="M58.5,42.5392 L58.7412,42.4"/>
            <path d="M59.1588,42.1589 L59.4,42.0196"/>
            <path d="M57.6,42.0196 L57.8412,42.1589"/>
            <path d="M58.2588,42.4 L58.5,42.5392"/>
            <path d="M57.6,40.9804 L57.6,41.2589"/>
            <path d="M57.6,41.7412 L57.6,42.0196"/>
        </g>
        <g id="product-0abb53d2-9103-44be-8156-24d6555c7ac6" class="IfcMechanicalFastener material-092 projection" ifc:name="&#1043;&#1072;&#1081;&#1082;&#1072; &#1052;24 &#1043;&#1054;&#1057;&#1058; 5915-70" ifc:guid="0AkrFIaGD4le5M9DPLN7h6">
            <path d="M58.5483,40.902 L58.69,40.9309"/>
            <path d="M58.4038,40.9078 L58.4896,40.9043"/>
            <path d="M58.5086,40.9036 L58.5483,40.902"/>
            <path d="M58.2648,40.948 L58.4038,40.9078"/>
            <path d="M58.1396,41.0203 L58.2648,40.948"/>
            <path d="M58.0352,41.1205 L58.0717,41.0855"/>
            <path d="M58.0865,41.0713 L58.1396,41.0203"/>
            <path d="M57.9579,41.2428 L58.0352,41.1205"/>
            <path d="M57.9121,41.38 L57.9579,41.2428"/>
            <path d="M57.9005,41.5242 L57.902,41.5049"/>
            <path d="M57.903,41.4927 L57.9121,41.38"/>
            <path d="M57.9237,41.6669 L57.9005,41.5242"/>
            <path d="M57.9804,41.8 L57.9237,41.6669"/>
            <path d="M58.0673,41.9156 L57.9804,41.8"/>
            <path d="M58.1793,42.0071 L58.08,41.926"/>
            <path d="M58.0747,41.9217 L58.0673,41.9156"/>
            <path d="M58.31,42.0691 L58.1793,42.0071"/>
            <path d="M58.4517,42.0981 L58.31,42.0691"/>
            <path d="M58.5962,42.0922 L58.5104,42.0957"/>
            <path d="M58.4914,42.0965 L58.4517,42.0981"/>
            <path d="M58.7352,42.052 L58.5962,42.0922"/>
            <path d="M58.8604,41.9797 L58.7352,42.052"/>
            <path d="M58.9648,41.8795 L58.9283,41.9145"/>
            <path d="M58.9135,41.9287 L58.8604,41.9797"/>
            <path d="M59.0421,41.7572 L58.9648,41.8795"/>
            <path d="M59.0879,41.62 L59.0421,41.7572"/>
            <path d="M59.0995,41.4758 L59.098,41.4951"/>
            <path d="M59.097,41.5073 L59.0879,41.62"/>
            <path d="M59.0763,41.3331 L59.0995,41.4758"/>
            <path d="M59.0196,41.2 L59.0763,41.3331"/>
            <path d="M58.9327,41.0844 L59.0196,41.2"/>
            <path d="M58.8207,40.9929 L58.92,41.074"/>
            <path d="M58.9253,41.0783 L58.9327,41.0844"/>
            <path d="M58.69,40.9309 L58.8207,40.9929"/>
            <path d="M57.9804,40.6 L57.4608,41.5"/>
            <path d="M59.0196,40.6 L57.9804,40.6"/>
            <path d="M59.5392,41.5 L59.0196,40.6"/>
            <path d="M59.0196,42.4 L59.5392,41.5"/>
            <path d="M57.9804,42.4 L59.0196,42.4"/>
            <path d="M57.4608,41.5 L57.9804,42.4"/>
        </g>
        <g id="product-1552c7c9-6511-4fe1-ad9d-92fe809c7e45" class="IfcMechanicalFastener material-092 projection" ifc:name="&#1043;&#1072;&#1081;&#1082;&#1072; &#1052;24 &#1043;&#1054;&#1057;&#1058; 5915-70" ifc:guid="0LKiV9PH5FuQsTalw0d7v5">
            <path d="M58.114,58.9538 L58.085,58.9281"/>
            <path d="M58.0729,58.9173 L58.06,58.9059"/>
            <path d="M58.2338,59.033 L58.1699,58.9994"/>
            <path d="M58.3691,59.0812 L58.299,59.0639"/>
            <path d="M58.512,59.0956 L58.5106,59.0956"/>
            <path d="M58.4894,59.0956 L58.4398,59.0956"/>
            <path d="M58.6542,59.0755 L58.5841,59.0927"/>
            <path d="M58.7874,59.0218 L58.7235,59.0554"/>
            <path d="M58.904,58.9379 L58.8499,58.9857"/>
            <path d="M58.997,58.8285 L58.956,58.8879"/>
            <path d="M59.0612,58.7 L59.0356,58.7675"/>
            <path d="M59.0927,58.5599 L59.084,58.6315"/>
            <path d="M59.0898,58.4163 L59.0985,58.488"/>
            <path d="M59.0527,58.2776 L59.0783,58.3451"/>
            <path d="M58.9834,58.1518 L59.0244,58.2112"/>
            <path d="M58.886,58.0462 L58.915,58.0719"/>
            <path d="M58.9271,58.0827 L58.94,58.0941"/>
            <path d="M58.7662,57.967 L58.8301,58.0006"/>
            <path d="M58.6309,57.9188 L58.701,57.9361"/>
            <path d="M58.488,57.9044 L58.4894,57.9044"/>
            <path d="M58.5106,57.9044 L58.5602,57.9044"/>
            <path d="M58.3458,57.9246 L58.4159,57.9073"/>
            <path d="M58.2126,57.9782 L58.2765,57.9446"/>
            <path d="M58.096,58.0621 L58.1501,58.0143"/>
            <path d="M58.003,58.1715 L58.044,58.1121"/>
            <path d="M57.9388,58.3 L57.9644,58.2325"/>
            <path d="M57.9073,58.4401 L57.916,58.3685"/>
            <path d="M57.9102,58.5837 L57.9015,58.5121"/>
            <path d="M57.9473,58.7224 L57.9217,58.6549"/>
            <path d="M58.0166,58.8482 L57.9756,58.7888"/>
            <path d="M58.5,59.5392 L58.7412,59.4"/>
            <path d="M59.1588,59.1589 L59.4,59.0196"/>
            <path d="M57.6,59.0196 L57.8412,59.1589"/>
            <path d="M58.2588,59.4 L58.5,59.5392"/>
            <path d="M57.6,57.9804 L57.6,58.2589"/>
            <path d="M57.6,58.7412 L57.6,59.0196"/>
            <path d="M58.5,57.4608 L58.2588,57.6"/>
            <path d="M57.8412,57.8412 L57.6,57.9804"/>
            <path d="M59.4,57.9804 L59.1588,57.8412"/>
            <path d="M58.7412,57.6 L58.5,57.4608"/>
            <path d="M59.4,59.0196 L59.4,58.7412"/>
            <path d="M59.4,58.2589 L59.4,57.9804"/>
        </g>
        <g id="product-92c82a48-d0d5-4124-ad85-318652dd7ed7" class="IfcMechanicalFastener material-092 projection" ifc:name="&#1043;&#1072;&#1081;&#1082;&#1072; &#1052;24 &#1043;&#1054;&#1057;&#1058; 5915-70" ifc:guid="2Io2f8qDL19As5COPItNxN">
            <path d="M58.4517,59.0981 L58.31,59.0691"/>
            <path d="M58.5962,59.0922 L58.5104,59.0957"/>
            <path d="M58.4914,59.0965 L58.4517,59.0981"/>
            <path d="M58.7352,59.052 L58.5962,59.0922"/>
            <path d="M58.8604,58.9797 L58.7352,59.052"/>
            <path d="M58.9648,58.8795 L58.9283,58.9145"/>
            <path d="M58.9135,58.9287 L58.8604,58.9797"/>
            <path d="M59.0421,58.7572 L58.9648,58.8795"/>
            <path d="M59.0879,58.62 L59.0421,58.7572"/>
            <path d="M59.0995,58.4758 L59.098,58.4951"/>
            <path d="M59.097,58.5073 L59.0879,58.62"/>
            <path d="M59.0763,58.3331 L59.0995,58.4758"/>
            <path d="M59.0196,58.2 L59.0763,58.3331"/>
            <path d="M58.9327,58.0844 L59.0196,58.2"/>
            <path d="M58.8207,57.9929 L58.92,58.074"/>
            <path d="M58.9253,58.0783 L58.9327,58.0844"/>
            <path d="M58.69,57.9309 L58.8207,57.9929"/>
            <path d="M58.5483,57.902 L58.69,57.9309"/>
            <path d="M58.4038,57.9078 L58.4896,57.9043"/>
            <path d="M58.5086,57.9036 L58.5483,57.902"/>
            <path d="M58.2648,57.948 L58.4038,57.9078"/>
            <path d="M58.1396,58.0203 L58.2648,57.948"/>
            <path d="M58.0352,58.1205 L58.0717,58.0855"/>
            <path d="M58.0865,58.0713 L58.1396,58.0203"/>
            <path d="M57.9579,58.2428 L58.0352,58.1205"/>
            <path d="M57.9121,58.38 L57.9579,58.2428"/>
            <path d="M57.9005,58.5242 L57.902,58.5049"/>
            <path d="M57.903,58.4927 L57.9121,58.38"/>
            <path d="M57.9237,58.6669 L57.9005,58.5242"/>
            <path d="M57.9804,58.8 L57.9237,58.6669"/>
            <path d="M58.0673,58.9156 L57.9804,58.8"/>
            <path d="M58.1793,59.0071 L58.08,58.926"/>
            <path d="M58.0747,58.9217 L58.0673,58.9156"/>
            <path d="M58.31,59.0691 L58.1793,59.0071"/>
            <path d="M59.0196,59.4 L59.5392,58.5"/>
            <path d="M57.9804,59.4 L59.0196,59.4"/>
            <path d="M57.4608,58.5 L57.9804,59.4"/>
            <path d="M57.9804,57.6 L57.4608,58.5"/>
            <path d="M59.0196,57.6 L57.9804,57.6"/>
            <path d="M59.5392,58.5 L59.0196,57.6"/>
        </g>
        <g id="product-920d523d-98c4-4d98-880c-c6f339cd4f9c" class="IfcMechanicalFastener material-092 projection" ifc:name="&#1043;&#1072;&#1081;&#1082;&#1072; &#1052;24 &#1043;&#1054;&#1057;&#1058; 5915-70" ifc:guid="2I3L8zcCHDc8WCnlCvpK_S">
            <path d="M41.886,41.0462 L41.915,41.0719"/>
            <path d="M41.9271,41.0827 L41.94,41.0941"/>
            <path d="M41.7662,40.967 L41.8301,41.0006"/>
            <path d="M41.6309,40.9188 L41.701,40.9361"/>
            <path d="M41.488,40.9044 L41.4894,40.9044"/>
            <path d="M41.5106,40.9044 L41.5602,40.9044"/>
            <path d="M41.3458,40.9246 L41.4159,40.9073"/>
            <path d="M41.2126,40.9782 L41.2765,40.9446"/>
            <path d="M41.096,41.0621 L41.1501,41.0143"/>
            <path d="M41.003,41.1715 L41.044,41.1121"/>
            <path d="M40.9388,41.3 L40.9644,41.2325"/>
            <path d="M40.9073,41.4401 L40.916,41.3685"/>
            <path d="M40.9102,41.5837 L40.9015,41.5121"/>
            <path d="M40.9473,41.7224 L40.9217,41.655"/>
            <path d="M41.0166,41.8482 L40.9756,41.7888"/>
            <path d="M41.114,41.9538 L41.085,41.9281"/>
            <path d="M41.0729,41.9173 L41.06,41.9059"/>
            <path d="M41.2338,42.033 L41.1699,41.9994"/>
            <path d="M41.3691,42.0812 L41.299,42.0639"/>
            <path d="M41.512,42.0956 L41.5106,42.0956"/>
            <path d="M41.4894,42.0956 L41.4398,42.0956"/>
            <path d="M41.6542,42.0755 L41.5841,42.0927"/>
            <path d="M41.7874,42.0218 L41.7235,42.0554"/>
            <path d="M41.904,41.9379 L41.8499,41.9857"/>
            <path d="M41.997,41.8285 L41.956,41.8879"/>
            <path d="M42.0612,41.7 L42.0356,41.7675"/>
            <path d="M42.0927,41.5599 L42.084,41.6315"/>
            <path d="M42.0898,41.4163 L42.0985,41.488"/>
            <path d="M42.0527,41.2776 L42.0783,41.3451"/>
            <path d="M41.9834,41.1518 L42.0244,41.2112"/>
            <path d="M41.5,40.4608 L41.2588,40.6"/>
            <path d="M40.8412,40.8412 L40.6,40.9804"/>
            <path d="M42.4,40.9804 L42.1588,40.8412"/>
            <path d="M41.7412,40.6 L41.5,40.4608"/>
            <path d="M42.4,42.0196 L42.4,41.7412"/>
            <path d="M42.4,41.2589 L42.4,40.9804"/>
            <path d="M41.5,42.5392 L41.7412,42.4"/>
            <path d="M42.1588,42.1589 L42.4,42.0196"/>
            <path d="M40.6,42.0196 L40.8412,42.1589"/>
            <path d="M41.2588,42.4 L41.5,42.5392"/>
            <path d="M40.6,40.9804 L40.6,41.2589"/>
            <path d="M40.6,41.7412 L40.6,42.0196"/>
        </g>
        <g id="product-9b4cc94a-9ccb-40eb-938c-cb0cc311bdba" class="IfcMechanicalFastener material-092 projection" ifc:name="&#1043;&#1072;&#1081;&#1082;&#1072; &#1052;24 &#1043;&#1054;&#1057;&#1058; 5915-70" ifc:guid="2RJCbAdCj0wvEComp34Rsw">
            <path d="M41.5483,40.902 L41.69,40.9309"/>
            <path d="M41.4038,40.9078 L41.4896,40.9043"/>
            <path d="M41.5086,40.9036 L41.5483,40.902"/>
            <path d="M41.2648,40.948 L41.4038,40.9078"/>
            <path d="M41.1396,41.0203 L41.2648,40.948"/>
            <path d="M41.0352,41.1205 L41.0717,41.0855"/>
            <path d="M41.0865,41.0713 L41.1396,41.0203"/>
            <path d="M40.9579,41.2428 L41.0352,41.1205"/>
            <path d="M40.9121,41.38 L40.9579,41.2428"/>
            <path d="M40.9005,41.5242 L40.902,41.5049"/>
            <path d="M40.903,41.4927 L40.9121,41.38"/>
            <path d="M40.9237,41.6669 L40.9005,41.5242"/>
            <path d="M40.9804,41.8 L40.9237,41.6669"/>
            <path d="M41.0673,41.9156 L40.9804,41.8"/>
            <path d="M41.1793,42.0071 L41.08,41.926"/>
            <path d="M41.0747,41.9217 L41.0673,41.9156"/>
            <path d="M41.31,42.0691 L41.1793,42.0071"/>
            <path d="M41.4517,42.0981 L41.31,42.0691"/>
            <path d="M41.5962,42.0922 L41.5104,42.0957"/>
            <path d="M41.4914,42.0965 L41.4517,42.0981"/>
            <path d="M41.7352,42.052 L41.5962,42.0922"/>
            <path d="M41.8604,41.9797 L41.7352,42.052"/>
            <path d="M41.9648,41.8795 L41.9283,41.9145"/>
            <path d="M41.9135,41.9287 L41.8604,41.9797"/>
            <path d="M42.0421,41.7572 L41.9648,41.8795"/>
            <path d="M42.0879,41.62 L42.0421,41.7572"/>
            <path d="M42.0995,41.4758 L42.098,41.4951"/>
            <path d="M42.097,41.5073 L42.0879,41.62"/>
            <path d="M42.0763,41.3331 L42.0995,41.4758"/>
            <path d="M42.0196,41.2 L42.0763,41.3331"/>
            <path d="M41.9327,41.0844 L42.0196,41.2"/>
            <path d="M41.8207,40.9929 L41.92,41.074"/>
            <path d="M41.9253,41.0783 L41.9327,41.0844"/>
            <path d="M41.69,40.9309 L41.8207,40.9929"/>
            <path d="M40.9804,40.6 L40.4608,41.5"/>
            <path d="M42.0196,40.6 L40.9804,40.6"/>
            <path d="M42.5392,41.5 L42.0196,40.6"/>
            <path d="M42.0196,42.4 L42.5392,41.5"/>
            <path d="M40.9804,42.4 L42.0196,42.4"/>
            <path d="M40.4608,41.5 L40.9804,42.4"/>
        </g>
        <g id="product-79ac833d-7f9d-4ba9-a089-8cbdf50bf7e8" class="IfcMechanicalFastener material-092 projection" ifc:name="&#1043;&#1072;&#1081;&#1082;&#1072; &#1052;24 &#1043;&#1054;&#1057;&#1058; 5915-70" ifc:guid="1vh8CzVvrBgQ29ZBtr2$Ve">
            <path d="M41.114,58.9538 L41.085,58.9281"/>
            <path d="M41.0729,58.9173 L41.06,58.9059"/>
            <path d="M41.2338,59.033 L41.1699,58.9994"/>
            <path d="M41.3691,59.0812 L41.299,59.0639"/>
            <path d="M41.512,59.0956 L41.5106,59.0956"/>
            <path d="M41.4894,59.0956 L41.4398,59.0956"/>
            <path d="M41.6542,59.0755 L41.5841,59.0927"/>
            <path d="M41.7874,59.0218 L41.7235,59.0554"/>
            <path d="M41.904,58.9379 L41.8499,58.9857"/>
            <path d="M41.997,58.8285 L41.956,58.8879"/>
            <path d="M42.0612,58.7 L42.0356,58.7675"/>
            <path d="M42.0927,58.5599 L42.084,58.6315"/>
            <path d="M42.0898,58.4163 L42.0985,58.488"/>
            <path d="M42.0527,58.2776 L42.0783,58.3451"/>
            <path d="M41.9834,58.1518 L42.0244,58.2112"/>
            <path d="M41.886,58.0462 L41.915,58.0719"/>
            <path d="M41.9271,58.0827 L41.94,58.0941"/>
            <path d="M41.7662,57.967 L41.8301,58.0006"/>
            <path d="M41.6309,57.9188 L41.701,57.9361"/>
            <path d="M41.488,57.9044 L41.4894,57.9044"/>
            <path d="M41.5106,57.9044 L41.5602,57.9044"/>
            <path d="M41.3458,57.9246 L41.4159,57.9073"/>
            <path d="M41.2126,57.9782 L41.2765,57.9446"/>
            <path d="M41.096,58.0621 L41.1501,58.0143"/>
            <path d="M41.003,58.1715 L41.044,58.1121"/>
            <path d="M40.9388,58.3 L40.9644,58.2325"/>
            <path d="M40.9073,58.4401 L40.916,58.3685"/>
            <path d="M40.9102,58.5837 L40.9015,58.5121"/>
            <path d="M40.9473,58.7224 L40.9217,58.6549"/>
            <path d="M41.0166,58.8482 L40.9756,58.7888"/>
            <path d="M41.5,59.5392 L41.7412,59.4"/>
            <path d="M42.1588,59.1589 L42.4,59.0196"/>
            <path d="M40.6,59.0196 L40.8412,59.1589"/>
            <path d="M41.2588,59.4 L41.5,59.5392"/>
            <path d="M40.6,57.9804 L40.6,58.2589"/>
            <path d="M40.6,58.7412 L40.6,59.0196"/>
            <path d="M41.5,57.4608 L41.2588,57.6"/>
            <path d="M40.8412,57.8412 L40.6,57.9804"/>
            <path d="M42.4,57.9804 L42.1588,57.8412"/>
            <path d="M41.7412,57.6 L41.5,57.4608"/>
            <path d="M42.4,59.0196 L42.4,58.7412"/>
            <path d="M42.4,58.2589 L42.4,57.9804"/>
        </g>
        <g id="product-80fd5202-f4ae-4c43-888a-893fe06a1bfd" class="IfcMechanicalFastener material-092 projection" ifc:name="&#1043;&#1072;&#1081;&#1082;&#1072; &#1052;24 &#1043;&#1054;&#1057;&#1058; 5915-70" ifc:guid="20$L82zAvCGuYAYJ$WQXlz">
            <path d="M41.4517,59.0981 L41.31,59.0691"/>
            <path d="M41.5962,59.0922 L41.5104,59.0957"/>
            <path d="M41.4914,59.0965 L41.4517,59.0981"/>
            <path d="M41.7352,59.052 L41.5962,59.0922"/>
            <path d="M41.8604,58.9797 L41.7352,59.052"/>
            <path d="M41.9648,58.8795 L41.9283,58.9145"/>
            <path d="M41.9135,58.9287 L41.8604,58.9797"/>
            <path d="M42.0421,58.7572 L41.9648,58.8795"/>
            <path d="M42.0879,58.62 L42.0421,58.7572"/>
            <path d="M42.0995,58.4758 L42.098,58.4951"/>
            <path d="M42.097,58.5073 L42.0879,58.62"/>
            <path d="M42.0763,58.3331 L42.0995,58.4758"/>
            <path d="M42.0196,58.2 L42.0763,58.3331"/>
            <path d="M41.9327,58.0844 L42.0196,58.2"/>
            <path d="M41.8207,57.9929 L41.92,58.074"/>
            <path d="M41.9253,58.0783 L41.9327,58.0844"/>
            <path d="M41.69,57.9309 L41.8207,57.9929"/>
            <path d="M41.5483,57.902 L41.69,57.9309"/>
            <path d="M41.4038,57.9078 L41.4896,57.9043"/>
            <path d="M41.5086,57.9036 L41.5483,57.902"/>
            <path d="M41.2648,57.948 L41.4038,57.9078"/>
            <path d="M41.1396,58.0203 L41.2648,57.948"/>
            <path d="M41.0352,58.1205 L41.0717,58.0855"/>
            <path d="M41.0865,58.0713 L41.1396,58.0203"/>
            <path d="M40.9579,58.2428 L41.0352,58.1205"/>
            <path d="M40.9121,58.38 L40.9579,58.2428"/>
            <path d="M40.9005,58.5242 L40.902,58.5049"/>
            <path d="M40.903,58.4927 L40.9121,58.38"/>
            <path d="M40.9237,58.6669 L40.9005,58.5242"/>
            <path d="M40.9804,58.8 L40.9237,58.6669"/>
            <path d="M41.0673,58.9156 L40.9804,58.8"/>
            <path d="M41.1793,59.0071 L41.08,58.926"/>
            <path d="M41.0747,58.9217 L41.0673,58.9156"/>
            <path d="M41.31,59.0691 L41.1793,59.0071"/>
            <path d="M42.0196,59.4 L42.5392,58.5"/>
            <path d="M40.9804,59.4 L42.0196,59.4"/>
            <path d="M40.4608,58.5 L40.9804,59.4"/>
            <path d="M40.9804,57.6 L40.4608,58.5"/>
            <path d="M42.0196,57.6 L40.9804,57.6"/>
            <path d="M42.5392,58.5 L42.0196,57.6"/>
        </g>
        <g id="product-58c28e6c-9572-4f4a-bfad-47409a265d95" class="IfcGeographicElement material-null projection" ifc:name="GeographicElement" ifc:guid="1OmevibN9FIh_jHq2Q9bsL">
            <path d="M-175,125 L425,125"/>
            <path d="M-175,125 L-175,-225"/>
            <path d="M425,-225 L425,125"/>
            <path d="M-175,-225 L425,-225"/>
        </g>
        <g id="product-26211d01-d87c-4f04-81a3-2eec3b96d54c" class="IfcMember material-null projection" ifc:name="&#1059;&#1075;&#1086;&#1083;&#1086;&#1082; 50&#215;5 &#1057;345-5" ifc:guid="0c8Hq1s7nF186ZBkmxbjLC">
            <path d="M59.26,62.5 L59.1,62.5"/>
            <path d="M59.26,37.5 L59.1,37.5"/>
            <path d="M59.1,37.5 L59.1,40.2734"/>
            <path d="M59.1,42.7266 L59.1,57.2734"/>
            <path d="M59.1,59.7266 L59.1,62.5"/>
            <path d="M59.305,62.5 L59.26,62.5"/>
            <path d="M59.338,62.5 L59.305,62.5"/>
            <path d="M59.35,62.5 L59.338,62.5"/>
            <path d="M59.305,37.5 L59.26,37.5"/>
            <path d="M59.338,37.5 L59.305,37.5"/>
            <path d="M59.35,37.5 L59.338,37.5"/>
            <path d="M59.35,37.5 L59.35,40.4295"/>
            <path d="M59.35,42.5705 L59.35,57.4295"/>
            <path d="M59.35,59.5705 L59.35,62.5"/>
            <path d="M59.4875,62.5 L59.625,62.5"/>
            <path d="M59.3869,62.5 L59.4875,62.5"/>
            <path d="M59.35,62.5 L59.3869,62.5"/>
            <path d="M59.4875,37.5 L59.625,37.5"/>
            <path d="M59.3869,37.5 L59.4875,37.5"/>
            <path d="M59.35,37.5 L59.3869,37.5"/>
            <path d="M59.35,37.5 L59.35,37.5"/>
            <path d="M61.51,62.5 L59.625,62.5"/>
            <path d="M61.51,37.5 L59.625,37.5"/>
            <path d="M61.555,62.5 L61.51,62.5"/>
            <path d="M61.588,62.5 L61.555,62.5"/>
            <path d="M61.6,62.5 L61.588,62.5"/>
            <path d="M61.555,37.5 L61.51,37.5"/>
            <path d="M61.588,37.5 L61.555,37.5"/>
            <path d="M61.6,37.5 L61.588,37.5"/>
            <path d="M61.6,37.5 L61.6,62.5"/>
        </g>
        <g id="product-eba4b39f-6693-466a-835f-58c4bbd9edb9" class="IfcMember material-null projection" ifc:name="&#1059;&#1075;&#1086;&#1083;&#1086;&#1082; 50&#215;5 &#1057;345-5.001" ifc:guid="3hfBEVPfD6QeDVMCIxsUsv">
            <path d="M40.74,37.5 L40.9,37.5"/>
            <path d="M40.74,62.5 L40.9,62.5"/>
            <path d="M40.9,62.5 L40.9,59.7267"/>
            <path d="M40.9,57.2734 L40.9,42.7267"/>
            <path d="M40.9,40.2734 L40.9,37.5"/>
            <path d="M40.695,37.5 L40.74,37.5"/>
            <path d="M40.6621,37.5 L40.695,37.5"/>
            <path d="M40.65,37.5 L40.6621,37.5"/>
            <path d="M40.695,62.5 L40.74,62.5"/>
            <path d="M40.6621,62.5 L40.695,62.5"/>
            <path d="M40.65,62.5 L40.6621,62.5"/>
            <path d="M40.65,62.5 L40.65,59.5706"/>
            <path d="M40.65,57.4294 L40.65,42.5706"/>
            <path d="M40.65,40.4294 L40.65,37.5"/>
            <path d="M40.5125,37.5 L40.375,37.5"/>
            <path d="M40.6132,37.5 L40.5125,37.5"/>
            <path d="M40.65,37.5 L40.6132,37.5"/>
            <path d="M40.5125,62.5 L40.375,62.5"/>
            <path d="M40.6132,62.5 L40.5125,62.5"/>
            <path d="M40.65,62.5 L40.6132,62.5"/>
            <path d="M40.65,62.5 L40.65,62.5"/>
            <path d="M38.49,37.5 L40.375,37.5"/>
            <path d="M38.49,62.5 L40.375,62.5"/>
            <path d="M38.445,37.5 L38.49,37.5"/>
            <path d="M38.4121,37.5 L38.445,37.5"/>
            <path d="M38.4,37.5 L38.4121,37.5"/>
            <path d="M38.445,62.5 L38.49,62.5"/>
            <path d="M38.4121,62.5 L38.445,62.5"/>
            <path d="M38.4,62.5 L38.4121,62.5"/>
            <path d="M38.4,62.5 L38.4,37.5"/>
        </g>
        <g id="product-e5d971b3-5f8e-4410-a1e5-997da737dd36" class="IfcFooting material-B25 projection" ifc:name="&#1060;&#1091;&#1085;&#1076;&#1072;&#1084;&#1077;&#1085;&#1090; &#1084;&#1086;&#1085;&#1086;&#1083;&#1080;&#1090;&#1085;&#1099;&#1081; &#1060;&#1052;-1" ifc:guid="3bsN6pNuv44A7bcNsdDzqs">
            <path d="M65,35 L65,65"/>
            <path d="M35,35 L65,35"/>
            <path d="M35,65 L35,35"/>
            <path d="M65,65 L35,65"/>
            <path d="M87.5,87.5 L12.5,87.5"/>
            <path d="M87.5,12.5 L87.5,87.5"/>
            <path d="M12.5,12.5 L87.5,12.5"/>
            <path d="M12.5,87.5 L12.5,12.5"/>
            <path d="M2.50002,45 L12.5,50"/>
            <path d="M2.50002,55 L2.50002,45"/>
            <path d="M12.5,50 L2.50002,55"/>
        </g>
        <g id="product-e5d971b3-5f8e-4410-a1e5-997da737dd36" class="IfcFooting material-B25 projection" ifc:name="&#1060;&#1091;&#1085;&#1076;&#1072;&#1084;&#1077;&#1085;&#1090; &#1084;&#1086;&#1085;&#1086;&#1083;&#1080;&#1090;&#1085;&#1099;&#1081; &#1060;&#1052;-1" ifc:guid="3bsN6pNuv44A7bcNsdDzqs">
            <path d="M65,35 L65,65"/>
            <path d="M35,35 L65,35"/>
            <path d="M35,65 L35,35"/>
            <path d="M65,65 L35,65"/>
            <path d="M87.5,87.5 L12.5,87.5"/>
            <path d="M87.5,12.5 L87.5,87.5"/>
            <path d="M12.5,12.5 L87.5,12.5"/>
            <path d="M12.5,87.5 L12.5,12.5"/>
            <path d="M2.50002,45 L12.5,50"/>
            <path d="M2.50002,55 L2.50002,45"/>
            <path d="M12.5,50 L2.50002,55"/>
        </g>
        <g id="product-e5d971b3-5f8e-4410-a1e5-997da737dd36" class="IfcFooting material-B25 projection" ifc:name="&#1060;&#1091;&#1085;&#1076;&#1072;&#1084;&#1077;&#1085;&#1090; &#1084;&#1086;&#1085;&#1086;&#1083;&#1080;&#1090;&#1085;&#1099;&#1081; &#1060;&#1052;-1" ifc:guid="3bsN6pNuv44A7bcNsdDzqs">
            <path d="M65,35 L65,65"/>
            <path d="M35,35 L65,35"/>
            <path d="M35,65 L35,35"/>
            <path d="M65,65 L35,65"/>
            <path d="M87.5,87.5 L12.5,87.5"/>
            <path d="M87.5,12.5 L87.5,87.5"/>
            <path d="M12.5,12.5 L87.5,12.5"/>
            <path d="M12.5,87.5 L12.5,12.5"/>
            <path d="M2.50002,45 L12.5,50"/>
            <path d="M2.50002,55 L2.50002,45"/>
            <path d="M12.5,50 L2.50002,55"/>
        </g>
        <g id="product-e5d971b3-5f8e-4410-a1e5-997da737dd36" class="IfcFooting material-B25 projection" ifc:name="&#1060;&#1091;&#1085;&#1076;&#1072;&#1084;&#1077;&#1085;&#1090; &#1084;&#1086;&#1085;&#1086;&#1083;&#1080;&#1090;&#1085;&#1099;&#1081; &#1060;&#1052;-1" ifc:guid="3bsN6pNuv44A7bcNsdDzqs">
            <path d="M65,35 L65,65"/>
            <path d="M35,35 L65,35"/>
            <path d="M35,65 L35,35"/>
            <path d="M65,65 L35,65"/>
            <path d="M87.5,87.5 L12.5,87.5"/>
            <path d="M87.5,12.5 L87.5,87.5"/>
            <path d="M12.5,12.5 L87.5,12.5"/>
            <path d="M12.5,87.5 L12.5,12.5"/>
            <path d="M2.50002,45 L12.5,50"/>
            <path d="M2.50002,55 L2.50002,45"/>
            <path d="M12.5,50 L2.50002,55"/>
        </g>
        </g>
</svg>