<svg width="210" height="297" viewBox="0 0 210 297" fill="none" xmlns="http://www.w3.org/2000/svg">
<g clip-path="url(#clip0_8_192)">
<rect width="210" height="297" fill="white"/>
<path d="M210 0H0V297H210V0Z" fill="white"/>
<path d="M205 5H20V292H205V5Z" fill="white" stroke="black" stroke-width="0.5" stroke-linejoin="round"/>
<text fill="black" xml:space="preserve" style="white-space: pre" font-family="OpenGost Type B TT" font-size="5" letter-spacing="0em"><tspan x="61.5266" y="46.2102">RE</tspan><tspan x="62.0563" y="51.2102">V. </tspan><tspan x="60.9089" y="56.2102">NO.</tspan></text>
<path d="M69.0662 47.8677V88" stroke="black" stroke-width="0.944882"/>
<path d="M109.066 47.8677V88" stroke="black" stroke-width="0.944882"/>
<path d="M119.066 47.8677V87.868" stroke="black" stroke-width="0.944882"/>
<path d="M129.066 47.8677V88" stroke="black" stroke-width="0.944882"/>
<path d="M59 52.8677H139.066" stroke="black" stroke-width="0.944882"/>
<path d="M59 57.8677H139.066" stroke="black" stroke-width="0.944882"/>
<path d="M59 62.8677H139.066" stroke="black" stroke-width="0.944882"/>
<path d="M59 67.8677H139.066" stroke="black" stroke-width="0.944882"/>
<path d="M59 72.8677H139.066" stroke="black" stroke-width="0.944882"/>
<path d="M59 77.8677H139.066" stroke="black" stroke-width="0.944882"/>
<path d="M59 82.8677H139.066" stroke="black" stroke-width="0.944882"/>
<text fill="black" xml:space="preserve" style="white-space: pre" font-family="OpenGost Type B TT" font-size="5" letter-spacing="0em"><tspan x="84.4315" y="46.2102">DESC</tspan><tspan x="84.976" y="51.2102">RIPT</tspan><tspan x="85.933" y="56.2102">ION</tspan></text>
<text fill="black" xml:space="preserve" style="white-space: pre" font-family="OpenGost Type B TT" font-size="5" letter-spacing="0em"><tspan x="111.429" y="46.2102">AU</tspan><tspan x="111.576" y="51.2102">TH</tspan><tspan x="111.488" y="56.2102">OR</tspan></text>
<text fill="black" xml:space="preserve" style="white-space: pre" font-family="OpenGost Type B TT" font-size="5" letter-spacing="0em"><tspan x="122.288" y="45.9706">IS</tspan><tspan x="121.553" y="50.9706">SU</tspan><tspan x="121.685" y="55.9706">ED</tspan></text>
<text fill="black" xml:space="preserve" style="white-space: pre" font-family="OpenGost Type B TT" font-size="5" letter-spacing="0em"><tspan x="139.407" y="50.2394">NO</tspan><tspan x="139.7" y="55.2394">TE</tspan><tspan x="140.613" y="60.2394">S</tspan></text>
<text fill="black" xml:space="preserve" style="white-space: pre" font-family="OpenGost Type B TT" font-size="5" letter-spacing="0em"><tspan x="142.37" y="55.2399">DO NOT </tspan><tspan x="143.691" y="60.2399">SCALE </tspan><tspan x="140.207" y="65.2399">DRAWINGS</tspan></text>
<path d="M139.066 47.8677V88" stroke="black" stroke-width="0.944882"/>
<text fill="black" xml:space="preserve" style="white-space: pre" font-family="OpenGost Type B TT" font-size="5" letter-spacing="0em"><tspan x="132.619" y="43.4706">D</tspan><tspan x="132.751" y="48.4706">A</tspan><tspan x="132.751" y="53.4706">T</tspan><tspan x="132.781" y="58.4706">E</tspan></text>
<path d="M44 140.033V179.915" stroke="black" stroke-width="0.944882"/>
<path d="M44 170.033H84.0172" stroke="black" stroke-width="0.944882"/>
<path d="M74.0173 170.033V180.165" stroke="black" stroke-width="0.944882"/>
<text fill="black" xml:space="preserve" style="white-space: pre" font-family="OpenGost Type B TT" font-size="4" letter-spacing="0em"><tspan x="45.1836" y="173.496">DRAW</tspan><tspan x="46.8067" y="177.496">ING </tspan><tspan x="46.0899" y="181.496">NUM</tspan><tspan x="46.3946" y="185.496">BER</tspan></text>
<text fill="black" xml:space="preserve" style="white-space: pre" font-family="OpenGost Type B TT" font-size="4" letter-spacing="0em"><tspan x="74.539" y="173.459">R</tspan><tspan x="74.6562" y="177.459">E</tspan><tspan x="74.5156" y="181.459">V</tspan></text>
<text fill="black" xml:space="preserve" style="white-space: pre" font-family="OpenGost Type B TT" font-size="4" letter-spacing="0em"><tspan x="74.4886" y="177.055">{{Re</tspan><tspan x="74.4886" y="181.055">visi</tspan><tspan x="74.4886" y="185.055">on}}</tspan></text>
<text fill="black" xml:space="preserve" style="white-space: pre" font-family="OpenGost Type B TT" font-size="4" letter-spacing="0em"><tspan x="45" y="177.294">{{Identificat</tspan><tspan x="45" y="181.294">ion}}</tspan></text>
<path d="M44 160.033H84.0172" stroke="black" stroke-width="0.944882"/>
<text fill="black" xml:space="preserve" style="white-space: pre" font-family="OpenGost Type B TT" font-size="4" letter-spacing="0em"><tspan x="45.7869" y="163.459">DRA</tspan><tspan x="45.0584" y="167.459">WING </tspan><tspan x="44.9021" y="171.459">TITLE</tspan></text>
<text fill="black" xml:space="preserve" style="white-space: pre" font-family="OpenGost Type B TT" font-size="8" letter-spacing="0em"><tspan x="44.5144" y="169.849">{{</tspan><tspan x="44.5144" y="177.849">Na</tspan><tspan x="44.5144" y="185.849">me</tspan><tspan x="44.5144" y="193.849">}}</tspan></text>
<path d="M74.0173 140.033V160.158" stroke="black" stroke-width="0.944882"/>
<text fill="black" xml:space="preserve" style="white-space: pre" font-family="OpenGost Type B TT" font-size="4" letter-spacing="0em"><tspan x="75.2074" y="143.294">GRI</tspan><tspan x="76.4789" y="147.294">D </tspan><tspan x="74.6312" y="151.294">NOR</tspan><tspan x="75.6429" y="155.294">TH</tspan></text>
<text fill="black" xml:space="preserve" style="white-space: pre" font-family="OpenGost Type B TT" font-size="4" letter-spacing="0em"><tspan x="45.1299" y="143.294">CO</tspan><tspan x="44.9541" y="147.294">MP</tspan><tspan x="44.9541" y="151.294">AN</tspan><tspan x="45.8955" y="155.294">Y</tspan></text>
<path d="M78.9548 151.423V158.548" stroke="black" stroke-width="0.944882" stroke-linecap="round"/>
<path d="M82.6087 151.423H75.3008" stroke="black" stroke-width="0.944882" stroke-linecap="round"/>
<path d="M78.9548 156.423C80.3355 156.423 81.4548 154.184 81.4548 151.423C81.4548 148.661 80.3355 146.423 78.9548 146.423C77.5741 146.423 76.4548 148.661 76.4548 151.423C76.4548 154.184 77.5741 156.423 78.9548 156.423Z" stroke="black" stroke-width="0.944882" stroke-linecap="round"/>
<path d="M76.4548 151.423L78.9548 146.423L81.4548 151.423H80.9256L78.9548 147.481L76.9839 151.423H76.4548Z" fill="black" stroke="black" stroke-width="0.944882" stroke-linecap="round"/>
<path d="M78.9548 144.297V151.423" stroke="black" stroke-width="1.88976" stroke-linecap="round"/>
<rect x="20" y="237" width="185" height="55" fill="white" stroke="black" stroke-width="0.5" stroke-linejoin="round"/>
<path d="M85 247L205 247" stroke="black" stroke-width="0.5" stroke-linecap="round"/>
<path d="M85 262L205 262" stroke="black" stroke-width="0.5" stroke-linecap="round"/>
<path d="M155 267L205 267" stroke="black" stroke-width="0.5" stroke-linecap="round"/>
<path d="M85 277L205 277" stroke="black" stroke-width="0.5" stroke-linecap="round"/>
<path d="M155 262L155 292" stroke="black" stroke-width="0.5" stroke-linecap="round" stroke-linejoin="round"/>
<path d="M170 262V277" stroke="black" stroke-width="0.5" stroke-linecap="round" stroke-linejoin="round"/>
<path d="M185 262V277" stroke="black" stroke-width="0.5" stroke-linecap="round" stroke-linejoin="round"/>
<text fill="black" xml:space="preserve" style="white-space: pre" font-family="OpenGost Type B TT" font-size="5" letter-spacing="0em"><tspan x="156.069" y="265.971">&#x421;&#x442;&#x430;&#x434;&#x438;&#x44f;</tspan></text>
<text fill="black" xml:space="preserve" style="white-space: pre" font-family="OpenGost Type B TT" font-size="5" letter-spacing="0em"><tspan x="173.191" y="265.971">&#x41b;&#x438;&#x441;&#x442;</tspan></text>
<text fill="black" xml:space="preserve" style="white-space: pre" font-family="OpenGost Type B TT" font-size="5" letter-spacing="0em"><tspan x="170.305" y="270.971">{{Identifi</tspan><tspan x="170.984" y="275.971">cation}}</tspan></text>
<text fill="black" xml:space="preserve" style="white-space: pre" font-family="OpenGost Type B TT" font-size="8" letter-spacing="0em"><tspan x="108" y="287.088">{{Name}}</tspan></text>
<text fill="black" xml:space="preserve" style="white-space: pre" font-family="OpenGost Type B TT" font-size="5" letter-spacing="0em"><tspan x="188.674" y="265.971">&#x41b;&#x438;&#x441;&#x442;&#x43e;&#x432;</tspan></text>
<path d="M30 237V262" stroke="black" stroke-width="0.5" stroke-linecap="round" stroke-linejoin="round"/>
<path d="M50 237V262" stroke="black" stroke-width="0.5" stroke-linecap="round" stroke-linejoin="round"/>
<path d="M40 237L40 292" stroke="black" stroke-width="0.5" stroke-linecap="round" stroke-linejoin="round"/>
<path d="M60 237L60 292" stroke="black" stroke-width="0.5" stroke-linecap="round" stroke-linejoin="round"/>
<path d="M75 237L75 292" stroke="black" stroke-width="0.5" stroke-linecap="round" stroke-linejoin="round"/>
<path d="M85 237L85 292" stroke="black" stroke-width="0.5" stroke-linecap="round" stroke-linejoin="round"/>
<path d="M20 242H85" stroke="black" stroke-width="0.25" stroke-linecap="round" stroke-linejoin="round"/>
<path d="M20 247H85" stroke="black" stroke-width="0.25" stroke-linecap="round" stroke-linejoin="round"/>
<path d="M20 252H85" stroke="black" stroke-width="0.25" stroke-linecap="round" stroke-linejoin="round"/>
<path d="M20 257H85" stroke="black" stroke-width="0.5" stroke-linecap="round" stroke-linejoin="round"/>
<path d="M20 262H85" stroke="black" stroke-width="0.5" stroke-linecap="round" stroke-linejoin="round"/>
<path d="M20 267H85" stroke="black" stroke-width="0.25" stroke-linecap="round" stroke-linejoin="round"/>
<path d="M20 272H85" stroke="black" stroke-width="0.25" stroke-linecap="round" stroke-linejoin="round"/>
<path d="M20 277H85" stroke="black" stroke-width="0.25" stroke-linecap="round" stroke-linejoin="round"/>
<path d="M20 282H85" stroke="black" stroke-width="0.25" stroke-linecap="round" stroke-linejoin="round"/>
<path d="M20 287H85" stroke="black" stroke-width="0.25" stroke-linecap="round" stroke-linejoin="round"/>
<text fill="black" xml:space="preserve" style="white-space: pre" font-family="OpenGost Type B TT" font-size="5" letter-spacing="0em"><tspan x="21.3672" y="260.971">&#x418;&#x437;&#x43c;.</tspan></text>
<text fill="black" xml:space="preserve" style="white-space: pre" font-family="OpenGost Type B TT" font-size="5" letter-spacing="0em"><tspan x="40.6909" y="260.971">&#x41b;&#x438;&#x441;&#x442;</tspan></text>
<text fill="black" xml:space="preserve" style="white-space: pre" font-family="OpenGost Type B TT" font-size="5" letter-spacing="-0.05em"><tspan x="50.2754" y="261.118">&#x2116;&#x434;&#x43e;&#x43a;.</tspan></text>
<text fill="black" xml:space="preserve" style="white-space: pre" font-family="OpenGost Type B TT" font-size="5" letter-spacing="0em"><tspan x="62.8345" y="260.971">&#x41f;&#x43e;&#x434;&#x43f;.</tspan></text>
<text fill="black" xml:space="preserve" style="white-space: pre" font-family="OpenGost Type B TT" font-size="5" letter-spacing="0em"><tspan x="75.4541" y="260.971">&#x414;&#x430;&#x442;&#x430;</tspan></text>
<text fill="black" xml:space="preserve" style="white-space: pre" font-family="OpenGost Type B TT" font-size="5" letter-spacing="-0.07em"><tspan x="30.0588" y="261.118">&#x41a;&#x43e;&#x43b;.&#x443;&#x447;.</tspan></text>
<text fill="black" xml:space="preserve" style="white-space: pre" font-family="OpenGost Type B TT" font-size="5" letter-spacing="0em"><tspan x="162.512" y="295.971">&#x424;&#x43e;&#x440;&#x43c;&#x430;&#x442; &#x410;4</tspan></text>
</g>
<defs>
<clipPath id="clip0_8_192">
<rect width="210" height="297" fill="white"/>
</clipPath>
</defs>
</svg>
